<svg width="56.000000" height="56.000000" viewBox="0 0 56 56" fill="none" xmlns="http://www.w3.org/2000/svg" xmlns:xlink="http://www.w3.org/1999/xlink">
	<desc>
			Created with Pixso.
	</desc>
	<defs/>
	<path id="Polygon 1" d="M27.1348 1.5L4.61719 40.5C4.23242 41.166 4.71289 42 5.48242 42L50.5176 42C51.2871 42 51.7676 41.166 51.3828 40.5L28.8652 1.5C28.4805 0.833984 27.5195 0.833984 27.1348 1.5Z" fill="#D9D9D9" fill-opacity="0" fill-rule="evenodd"/>
	<path id="Polygon 1" d="M4.61719 40.5C4.23242 41.166 4.71289 42 5.48242 42L50.5176 42C51.2871 42 51.7676 41.166 51.3828 40.5L28.8652 1.5C28.4805 0.833984 27.5195 0.833984 27.1348 1.5L4.61719 40.5ZM7.21484 40L48.7852 40L28 4L7.21484 40Z" fill="#FFFFFF" fill-opacity="1.000000" fill-rule="evenodd"/>
	<rect id="Rectangle 674" x="26.027344" y="14.197266" rx="1.000000" width="3.154930" height="14.985915" fill="#FFFFFF" fill-opacity="1.000000"/>
	<rect id="Rectangle 675" x="26.027344" y="32.337891" rx="1.000000" width="3.154930" height="3.154930" fill="#FFFFFF" fill-opacity="1.000000"/>
</svg>
