<svg width="607.511719" height="190.666016" viewBox="0 0 607.512 215.666" fill="none" xmlns="http://www.w3.org/2000/svg" xmlns:xlink="http://www.w3.org/1999/xlink">
	<defs>
		<linearGradient id="paint_linear_1_6413_0" x1="46.757904" y1="164.170105" x2="560.757690" y2="56.887756" gradientUnits="userSpaceOnUse">
			<stop stop-color="#FFFFFF" stop-opacity="0.000000"/>
			<stop offset="1.000000" stop-color="#FFFFFF"/>
		</linearGradient>
		<linearGradient id="paint_linear_1_6414_0" x1="209.839020" y1="103.554413" x2="379.026794" y2="140.992950" gradientUnits="userSpaceOnUse">
			<stop stop-color="#FF0000"/>
			<stop offset="1.000000" stop-color="#FF0000" stop-opacity="0.141176"/>
		</linearGradient>
		<linearGradient id="paint_linear_1_6415_0" x1="73.692474" y1="131.016022" x2="107.136566" y2="160.654831" gradientUnits="userSpaceOnUse">
			<stop stop-color="#FF0000"/>
			<stop offset="1.000000" stop-color="#FF0000" stop-opacity="0.141176"/>
		</linearGradient>
		<linearGradient id="paint_linear_1_6416_0" x1="495.828461" y1="131.016022" x2="529.928284" y2="160.654816" gradientUnits="userSpaceOnUse">
			<stop stop-color="#FF0000"/>
			<stop offset="1.000000" stop-color="#FF0000" stop-opacity="0.141176"/>
		</linearGradient>
		<linearGradient id="paint_linear_1_6417_0" x1="39.009033" y1="1.000000" x2="261.423645" y2="1.000000" gradientUnits="userSpaceOnUse">
			<stop stop-color="#FFFFFF" stop-opacity="0.000000"/>
			<stop offset="0.526042" stop-color="#FFFFFF"/>
			<stop offset="1.000000" stop-color="#FFFFFF" stop-opacity="0.000000"/>
		</linearGradient>
		<linearGradient id="paint_linear_1_6418_0" x1="553.009033" y1="1.000000" x2="775.423645" y2="1.000000" gradientUnits="userSpaceOnUse">
			<stop stop-color="#FFFFFF" stop-opacity="0.000000"/>
			<stop offset="0.526042" stop-color="#FFFFFF"/>
			<stop offset="1.000000" stop-color="#FFFFFF" stop-opacity="0.000000"/>
		</linearGradient>
		<linearGradient id="paint_linear_1_6419_0" x1="-23.793243" y1="163.169922" x2="606.509888" y2="163.169922" gradientUnits="userSpaceOnUse">
			<stop stop-color="#FFFFFF" stop-opacity="0.000000"/>
			<stop offset="0.114117" stop-color="#FFFFFF"/>
			<stop offset="0.928587" stop-color="#FFFFFF"/>
			<stop offset="1.000000" stop-color="#FFFFFF" stop-opacity="0.000000"/>
		</linearGradient>
	</defs>
	<path id="Rectangle 542" d="M46.7578 48.1699C46.7578 48.1699 185.258 76.6699 303.758 48.1699C422.258 19.6719 560.758 48.1699 560.758 48.1699L560.758 164.17L46.7578 164.17L46.7578 48.1699Z" fill="url(#paint_linear_1_6413_0)" fill-opacity="1.000000" fill-rule="nonzero"/>
	<path id="1 700 000 000 ₽" d="M414.532 127.127L414.532 130.777L419.682 130.777L419.682 127.127L424.935 127.127L424.935 123.819L419.682 123.819L419.682 121.159L421.899 121.159C424.264 121.159 426.128 120.807 427.492 120.102C428.879 119.397 429.868 118.465 430.46 117.305C431.051 116.146 431.346 114.906 431.346 113.588C431.346 111.359 430.619 109.609 429.164 108.335C427.731 107.062 425.446 106.425 422.308 106.425L414.532 106.425L414.532 116.93L411.804 116.93L411.804 121.159L414.532 121.159L414.532 123.819L411.804 123.819L411.804 127.127L414.532 127.127ZM419.682 116.93L421.388 116.93Q422.854 116.93 423.911 116.623C424.616 116.396 425.162 116.043 425.548 115.566C425.935 115.088 426.128 114.486 426.128 113.758C426.128 112.712 425.799 111.939 425.139 111.439C424.48 110.916 423.445 110.655 422.036 110.655L419.682 110.655L419.682 116.93ZM217.25 119.42C217.25 125.286 220.149 131.186 226.663 131.186C233.143 131.186 236.076 125.286 236.076 119.42C236.076 113.553 233.143 107.687 226.663 107.687C220.149 107.687 217.25 113.553 217.25 119.42ZM238.399 119.42C238.399 125.286 241.298 131.186 247.812 131.186C254.292 131.186 257.225 125.286 257.225 119.42C257.225 113.553 254.292 107.687 247.812 107.687C241.298 107.687 238.399 113.553 238.399 119.42ZM268.275 119.42C268.275 125.286 271.174 131.186 277.688 131.186C284.168 131.186 287.101 125.286 287.101 119.42C287.101 113.553 284.168 107.687 277.688 107.687C271.174 107.687 268.275 113.553 268.275 119.42ZM289.424 119.42C289.424 125.286 292.323 131.186 298.837 131.186C305.317 131.186 308.25 125.286 308.25 119.42C308.25 113.553 305.317 107.687 298.837 107.687C292.323 107.687 289.424 113.553 289.424 119.42ZM310.573 119.42C310.573 125.286 313.472 131.186 319.986 131.186C326.466 131.186 329.399 125.286 329.399 119.42C329.399 113.553 326.466 107.687 319.986 107.687C313.472 107.687 310.573 113.553 310.573 119.42ZM340.449 119.42C340.449 125.286 343.348 131.186 349.862 131.186C356.342 131.186 359.275 125.286 359.275 119.42C359.275 113.553 356.342 107.687 349.862 107.687C343.348 107.687 340.449 113.553 340.449 119.42ZM361.598 119.42C361.598 125.286 364.497 131.186 371.011 131.186C377.491 131.186 380.424 125.286 380.424 119.42C380.424 113.553 377.491 107.687 371.011 107.687C364.497 107.687 361.598 113.553 361.598 119.42ZM382.747 119.42C382.747 125.286 385.646 131.186 392.16 131.186C398.64 131.186 401.573 125.286 401.573 119.42C401.573 113.553 398.64 107.687 392.16 107.687C385.646 107.687 382.747 113.553 382.747 119.42ZM181.681 130.777L186.524 130.777L186.524 108.028L182.295 108.028L175.133 115.225L177.895 118.124L181.681 114.27L181.681 130.777ZM201.632 130.777L206.953 130.777L215.411 111.405L215.411 108.028L198.324 108.028L198.324 112.292L209.784 112.292L201.632 130.777ZM231.131 119.42C231.131 123.615 229.903 126.889 226.663 126.889C223.389 126.889 222.161 123.615 222.161 119.42C222.161 115.225 223.389 111.985 226.663 111.985C229.903 111.985 231.131 115.225 231.131 119.42ZM252.28 119.42C252.28 123.615 251.052 126.889 247.812 126.889C244.538 126.889 243.31 123.615 243.31 119.42C243.31 115.225 244.538 111.985 247.812 111.985C251.052 111.985 252.28 115.225 252.28 119.42ZM282.156 119.42C282.156 123.615 280.928 126.889 277.688 126.889C274.414 126.889 273.186 123.615 273.186 119.42C273.186 115.225 274.414 111.985 277.688 111.985C280.928 111.985 282.156 115.225 282.156 119.42ZM303.305 119.42C303.305 123.615 302.077 126.889 298.837 126.889C295.563 126.889 294.335 123.615 294.335 119.42C294.335 115.225 295.563 111.985 298.837 111.985C302.077 111.985 303.305 115.225 303.305 119.42ZM324.454 119.42C324.454 123.615 323.226 126.889 319.986 126.889C316.712 126.889 315.484 123.615 315.484 119.42C315.484 115.225 316.712 111.985 319.986 111.985C323.226 111.985 324.454 115.225 324.454 119.42ZM354.329 119.42C354.329 123.615 353.102 126.889 349.862 126.889C346.588 126.889 345.36 123.615 345.36 119.42C345.36 115.225 346.588 111.985 349.862 111.985C353.102 111.985 354.329 115.225 354.329 119.42ZM375.479 119.42C375.479 123.615 374.251 126.889 371.011 126.889C367.737 126.889 366.509 123.615 366.509 119.42C366.509 115.225 367.737 111.985 371.011 111.985C374.251 111.985 375.479 115.225 375.479 119.42ZM396.628 119.42C396.628 123.615 395.4 126.889 392.16 126.889C388.886 126.889 387.658 123.615 387.658 119.42C387.658 115.225 388.886 111.985 392.16 111.985C395.4 111.985 396.628 115.225 396.628 119.42Z" fill="url(#paint_linear_1_6414_0)" fill-opacity="0.800000" fill-rule="evenodd"/>
	<path id="2018" d="M68.1124 150.05L68.1124 151.634L79.1044 151.634L79.1044 149.858L71.2564 149.858Q72.9364 148.538 74.3524 147.314C75.2964 146.482 76.1124 145.674 76.8004 144.89Q77.8564 143.69 78.4324 142.514C78.8324 141.714 79.0324 140.906 79.0324 140.09Q79.0324 138.89 78.5524 138.002C78.2484 137.41 77.8404 136.922 77.3284 136.538Q77.2986 136.515 77.2685 136.492Q76.546 135.95 75.6244 135.674C74.9844 135.482 74.3284 135.386 73.6564 135.386Q72.3121 135.386 71.1023 135.789Q70.7785 135.897 70.4644 136.034C69.4884 136.466 68.6964 137.09 68.0884 137.906L69.3124 139.178C69.7764 138.57 70.3764 138.082 71.1124 137.714C71.8484 137.346 72.6964 137.162 73.6564 137.162Q73.9809 137.162 74.2989 137.207Q74.5924 137.249 74.8804 137.33C75.2804 137.442 75.6324 137.618 75.9364 137.858C76.2564 138.098 76.5124 138.402 76.7044 138.77C76.8964 139.138 76.9924 139.578 76.9924 140.09C76.9924 140.778 76.8004 141.474 76.4164 142.178C76.0324 142.866 75.4644 143.61 74.7124 144.41Q73.5844 145.586 71.9284 146.978C70.8244 147.89 69.5524 148.914 68.1124 150.05ZM85.4618 151.178C86.2298 151.674 87.1658 151.922 88.2698 151.922C89.3578 151.922 90.2858 151.674 91.0538 151.178C91.8378 150.682 92.4698 150.042 92.9498 149.258C93.4458 148.458 93.8058 147.57 94.0298 146.594C94.2698 145.602 94.3898 144.618 94.3898 143.642C94.3898 142.666 94.2698 141.69 94.0298 140.714C93.8058 139.722 93.4458 138.834 92.9498 138.05C92.4698 137.266 91.8378 136.626 91.0538 136.13C90.2858 135.634 89.3578 135.386 88.2698 135.386C87.1658 135.386 86.2298 135.634 85.4618 136.13C84.6938 136.626 84.0618 137.266 83.5658 138.05C83.0698 138.834 82.7098 139.722 82.4858 140.714C82.2618 141.69 82.1498 142.666 82.1498 143.642C82.1498 144.618 82.2618 145.602 82.4858 146.594C82.7098 147.57 83.0698 148.458 83.5658 149.258C84.0618 150.042 84.6938 150.682 85.4618 151.178ZM108.482 151.634C109.186 151.826 109.938 151.922 110.738 151.922Q111.914 151.922 112.946 151.634C113.65 151.426 114.258 151.138 114.77 150.77C115.298 150.402 115.714 149.946 116.018 149.402Q116.113 149.231 116.189 149.052Q116.474 148.375 116.474 147.578C116.474 147.05 116.37 146.562 116.162 146.114C115.954 145.666 115.674 145.266 115.322 144.914C114.97 144.546 114.562 144.234 114.098 143.978C113.634 143.722 113.154 143.522 112.658 143.378C113.122 143.25 113.57 143.074 114.002 142.85C114.434 142.626 114.81 142.362 115.13 142.058Q115.427 141.775 115.649 141.442Q115.804 141.21 115.922 140.954C116.13 140.538 116.234 140.066 116.234 139.538C116.234 138.818 116.066 138.202 115.73 137.69C115.41 137.162 114.986 136.73 114.458 136.394C113.946 136.042 113.362 135.786 112.706 135.626C112.05 135.466 111.394 135.386 110.738 135.386C110.066 135.386 109.402 135.466 108.746 135.626C108.106 135.786 107.522 136.042 106.994 136.394Q106.642 136.625 106.35 136.916Q106.006 137.261 105.746 137.69Q105.266 138.458 105.266 139.538C105.266 140.066 105.362 140.538 105.554 140.954Q105.792 141.431 106.129 141.824Q106.233 141.945 106.346 142.058C106.682 142.362 107.058 142.626 107.474 142.85C107.906 143.074 108.354 143.25 108.818 143.378C108.322 143.522 107.842 143.722 107.378 143.978C106.914 144.234 106.506 144.546 106.154 144.914C105.802 145.266 105.522 145.666 105.314 146.114C105.106 146.562 105.002 147.05 105.002 147.578C105.002 148.266 105.154 148.882 105.458 149.426C105.762 149.954 106.17 150.41 106.682 150.794C107.194 151.162 107.794 151.442 108.482 151.634ZM99.8931 138.266L99.8931 151.634L101.885 151.634L101.885 135.626L100.133 135.626L96.1251 139.754L97.3251 140.978L99.8931 138.266ZM90.1563 149.618Q89.3968 150.146 88.2698 150.146C87.5018 150.146 86.8538 149.962 86.3258 149.594C85.8138 149.21 85.3978 148.714 85.0778 148.106C84.7578 147.482 84.5258 146.786 84.3818 146.018C84.2538 145.234 84.1898 144.442 84.1898 143.642C84.1898 142.842 84.2538 142.058 84.3818 141.29C84.5258 140.506 84.7578 139.81 85.0778 139.202C85.3978 138.594 85.8138 138.106 86.3258 137.738C86.8538 137.354 87.5018 137.162 88.2698 137.162Q89.3332 137.162 90.0694 137.653Q90.1307 137.694 90.1898 137.738C90.7178 138.106 91.1418 138.594 91.4618 139.202C91.7818 139.81 92.0058 140.506 92.1338 141.29C92.2778 142.058 92.3498 142.842 92.3498 143.642C92.3498 144.442 92.2778 145.234 92.1338 146.018C92.0058 146.786 91.7818 147.482 91.4618 148.106C91.1418 148.714 90.7178 149.21 90.1898 149.594Q90.1731 149.606 90.1563 149.618ZM111.698 142.346C111.298 142.442 110.978 142.514 110.738 142.562C110.498 142.514 110.178 142.442 109.778 142.346C109.394 142.234 109.01 142.074 108.626 141.866C108.258 141.642 107.938 141.362 107.666 141.026C107.394 140.69 107.258 140.282 107.258 139.802C107.258 139.386 107.346 139.018 107.522 138.698C107.714 138.362 107.962 138.082 108.266 137.858Q108.746 137.522 109.37 137.354C109.802 137.226 110.258 137.162 110.738 137.162C111.218 137.162 111.666 137.226 112.082 137.354C112.514 137.466 112.882 137.634 113.186 137.858C113.506 138.082 113.754 138.362 113.93 138.698C114.122 139.018 114.218 139.386 114.218 139.802C114.218 140.282 114.082 140.69 113.81 141.026Q113.594 141.293 113.338 141.512Q113.11 141.708 112.85 141.866C112.482 142.074 112.098 142.234 111.698 142.346ZM112.154 149.954C111.706 150.082 111.234 150.146 110.738 150.146C110.242 150.146 109.762 150.082 109.298 149.954C108.85 149.826 108.45 149.642 108.098 149.402C107.762 149.162 107.49 148.874 107.282 148.538C107.09 148.186 106.994 147.794 106.994 147.362C106.994 146.834 107.138 146.386 107.426 146.018C107.73 145.634 108.082 145.322 108.482 145.082C108.898 144.826 109.314 144.634 109.73 144.506C110.162 144.378 110.498 144.298 110.738 144.266C110.978 144.298 111.306 144.378 111.722 144.506C112.154 144.634 112.57 144.826 112.97 145.082C113.37 145.322 113.714 145.634 114.002 146.018C114.306 146.386 114.458 146.834 114.458 147.362C114.458 147.794 114.354 148.186 114.146 148.538Q114.133 148.56 114.12 148.582Q113.835 149.058 113.33 149.402C112.994 149.642 112.602 149.826 112.154 149.954Z" fill="#64686A" fill-opacity="1.000000" fill-rule="evenodd"/>
	<path id="2021" d="M490.53 150.05L490.53 151.634L501.522 151.634L501.522 149.858L493.674 149.858Q495.354 148.538 496.77 147.314C497.714 146.482 498.53 145.674 499.218 144.89Q500.274 143.69 500.85 142.514C501.25 141.714 501.45 140.906 501.45 140.09Q501.45 138.89 500.97 138.002C500.666 137.41 500.258 136.922 499.746 136.538Q499.717 136.515 499.686 136.492Q498.964 135.95 498.042 135.674C497.402 135.482 496.746 135.386 496.074 135.386Q494.73 135.386 493.52 135.789Q493.197 135.897 492.882 136.034C491.906 136.466 491.114 137.09 490.506 137.906L491.73 139.178C492.194 138.57 492.794 138.082 493.53 137.714C494.266 137.346 495.114 137.162 496.074 137.162Q496.399 137.162 496.717 137.207Q497.01 137.249 497.298 137.33C497.698 137.442 498.05 137.618 498.354 137.858C498.674 138.098 498.93 138.402 499.122 138.77C499.314 139.138 499.41 139.578 499.41 140.09C499.41 140.778 499.218 141.474 498.834 142.178C498.45 142.866 497.882 143.61 497.13 144.41Q496.002 145.586 494.346 146.978C493.242 147.89 491.97 148.914 490.53 150.05ZM507.88 151.178C508.648 151.674 509.584 151.922 510.688 151.922C511.776 151.922 512.704 151.674 513.472 151.178C514.256 150.682 514.888 150.042 515.368 149.258C515.864 148.458 516.224 147.57 516.448 146.594C516.688 145.602 516.808 144.618 516.808 143.642C516.808 142.666 516.688 141.69 516.448 140.714C516.224 139.722 515.864 138.834 515.368 138.05C514.888 137.266 514.256 136.626 513.472 136.13C512.704 135.634 511.776 135.386 510.688 135.386C509.584 135.386 508.648 135.634 507.88 136.13C507.112 136.626 506.48 137.266 505.984 138.05C505.488 138.834 505.128 139.722 504.904 140.714C504.68 141.69 504.568 142.666 504.568 143.642C504.568 144.618 504.68 145.602 504.904 146.594C505.128 147.57 505.488 148.458 505.984 149.258C506.48 150.042 507.112 150.682 507.88 151.178ZM519.335 150.05L519.335 151.634L530.327 151.634L530.327 149.858L522.479 149.858C523.599 148.978 524.631 148.13 525.575 147.314C526.519 146.482 527.335 145.674 528.023 144.89C528.727 144.09 529.271 143.298 529.655 142.514C530.055 141.714 530.255 140.906 530.255 140.09Q530.255 138.89 529.775 138.002C529.471 137.41 529.063 136.922 528.551 136.538Q528.521 136.515 528.491 136.492Q527.769 135.95 526.847 135.674C526.207 135.482 525.551 135.386 524.879 135.386C523.743 135.386 522.679 135.602 521.687 136.034C520.711 136.466 519.919 137.09 519.311 137.906L520.535 139.178C520.999 138.57 521.599 138.082 522.335 137.714C523.071 137.346 523.919 137.162 524.879 137.162Q525.203 137.162 525.521 137.207Q525.815 137.249 526.103 137.33C526.503 137.442 526.855 137.618 527.159 137.858C527.479 138.098 527.735 138.402 527.927 138.77C528.119 139.138 528.215 139.578 528.215 140.09C528.215 140.778 528.023 141.474 527.639 142.178C527.255 142.866 526.687 143.61 525.935 144.41C525.183 145.194 524.255 146.05 523.151 146.978C522.047 147.89 520.775 148.914 519.335 150.05ZM536.42 138.266L536.42 151.634L538.412 151.634L538.412 135.626L536.66 135.626L532.652 139.754L533.852 140.978L536.42 138.266ZM512.574 149.618Q511.815 150.146 510.688 150.146C509.92 150.146 509.272 149.962 508.744 149.594C508.232 149.21 507.816 148.714 507.496 148.106C507.176 147.482 506.944 146.786 506.8 146.018C506.672 145.234 506.608 144.442 506.608 143.642C506.608 142.842 506.672 142.058 506.8 141.29C506.944 140.506 507.176 139.81 507.496 139.202C507.816 138.594 508.232 138.106 508.744 137.738C509.272 137.354 509.92 137.162 510.688 137.162Q511.751 137.162 512.487 137.653Q512.549 137.694 512.608 137.738C513.136 138.106 513.56 138.594 513.88 139.202C514.2 139.81 514.424 140.506 514.552 141.29C514.696 142.058 514.768 142.842 514.768 143.642C514.768 144.442 514.696 145.234 514.552 146.018C514.424 146.786 514.2 147.482 513.88 148.106C513.56 148.714 513.136 149.21 512.608 149.594Q512.591 149.606 512.574 149.618Z" fill="#64686A" fill-opacity="1.000000" fill-rule="evenodd"/>
	<path id="Line 9" d="M47.7578 1L47.7578 190.666" stroke="url(#paint_linear_1_6417_0)" stroke-opacity="1.000000" stroke-width="2.000000" stroke-linecap="round"/>
	<path id="Line 10" d="M561.758 1L561.758 190.666" stroke="url(#paint_linear_1_6418_0)" stroke-opacity="1.000000" stroke-width="2.000000" stroke-linecap="round"/>
	<path id="Line 11" d="M1 163.17L606.512 163.17" stroke="url(#paint_linear_1_6419_0)" stroke-opacity="1.000000" stroke-width="2.000000" stroke-linecap="round"/>
</svg>
