<svg width="677.600098" height="507.841797" viewBox="0 0 677.6 507.842" fill="none" xmlns="http://www.w3.org/2000/svg" xmlns:xlink="http://www.w3.org/1999/xlink">
	<desc>
			Created with Pixso.
	</desc>
	<defs>
		<filter id="filter_1_2301_dd" x="0.000000" y="0.000000" width="677.600098" height="507.841797" filterUnits="userSpaceOnUse" color-interpolation-filters="sRGB">
			<feFlood flood-opacity="0" result="BackgroundImageFix"/>
			<feGaussianBlur in="BackgroundImage" stdDeviation="7.33333"/>
			<feComposite in2="SourceAlpha" operator="in" result="effect_backgroundBlur_1"/>
			<feBlend mode="normal" in="SourceGraphic" in2="effect_backgroundBlur_1" result="shape"/>
		</filter>
		<linearGradient id="paint_linear_1_2301_0" x1="98.905670" y1="67.624268" x2="681.783936" y2="508.454712" gradientUnits="userSpaceOnUse">
			<stop stop-color="#FFFFFF"/>
			<stop offset="1.000000" stop-color="#FFFFFF" stop-opacity="0.000000"/>
		</linearGradient>
		<linearGradient id="paint_linear_1_2301_1" x1="98.905823" y1="67.624268" x2="593.085327" y2="460.349487" gradientUnits="userSpaceOnUse">
			<stop stop-color="#FFFFFF" stop-opacity="0.000000"/>
			<stop offset="1.000000" stop-color="#FFFFFF" stop-opacity="0.219608"/>
		</linearGradient>
	</defs>
	<g filter="url(#filter_1_2301_dd)">
		<path id="Vector 424" d="M221.482 2.82568L154.906 140.568C154.284 141.854 153.142 142.813 151.767 143.203L21.9531 179.973C20.6196 180.35 19.5029 181.265 18.8691 182.497L0.556641 218.113C-0.958984 221.061 0.761719 224.642 4.01123 225.3L143.366 253.51C145.137 253.869 146.576 255.155 147.132 256.875L197.801 413.791C199.034 417.609 204.035 418.493 206.502 415.33L253.726 354.786C255.739 352.206 259.646 352.223 261.637 354.819L371.452 498.083C372.275 499.157 373.499 499.852 374.844 500.007L442.137 507.808C445.107 508.152 447.713 505.831 447.713 502.841L447.713 356.047C447.713 352.808 450.746 350.424 453.893 351.188L537.939 371.6C542.317 372.663 545.758 367.848 543.334 364.051L466.042 242.961C464.212 240.093 465.719 236.273 469.015 235.428L629.261 194.312C630.417 194.015 631.429 193.314 632.114 192.335L676.689 128.656C678.925 125.463 676.809 121.054 672.919 120.8L536.379 111.889C533.005 111.669 530.817 108.232 532.047 105.082L561.109 30.6392C562.588 26.8511 559.167 22.9761 555.225 23.9736L338.902 78.7139C337.462 79.0781 335.936 78.7837 334.735 77.9102L228.925 0.95752C226.404 -0.875488 222.838 0.019043 221.482 2.82568Z" fill="url(#paint_linear_1_2301_0)" fill-opacity="0.300000" fill-rule="nonzero"/>
	</g>
	<path id="Vector 424" d="M221.482 2.82568L154.906 140.568C154.284 141.854 153.142 142.813 151.767 143.203L21.9531 179.973C20.6196 180.35 19.5029 181.265 18.8691 182.497L0.556641 218.113C-0.958984 221.061 0.761719 224.642 4.01123 225.3L143.366 253.51C145.137 253.869 146.576 255.155 147.132 256.875L197.801 413.791C199.034 417.609 204.035 418.493 206.502 415.33L253.726 354.786C255.739 352.206 259.646 352.223 261.637 354.819L371.452 498.083C372.275 499.157 373.499 499.852 374.844 500.007L442.137 507.808C445.107 508.152 447.713 505.831 447.713 502.841L447.713 356.047C447.713 352.808 450.746 350.424 453.893 351.188L537.939 371.6C542.317 372.663 545.758 367.848 543.334 364.051L466.042 242.961C464.212 240.093 465.719 236.273 469.015 235.428L629.261 194.312C630.417 194.015 631.429 193.314 632.114 192.335L676.689 128.656C678.925 125.463 676.809 121.054 672.919 120.8L536.379 111.889C533.005 111.669 530.817 108.232 532.047 105.082L561.109 30.6392C562.588 26.8511 559.167 22.9761 555.225 23.9736L338.902 78.7139C337.462 79.0781 335.936 78.7837 334.735 77.9102L228.925 0.95752C226.404 -0.875488 222.838 0.019043 221.482 2.82568ZM158.507 142.309L225.083 4.56592Q225.185 4.35547 225.35 4.22217Q225.514 4.08838 225.74 4.03125Q225.967 3.97461 226.175 4.01465Q226.383 4.05518 226.572 4.19238L332.382 81.1455Q334.088 82.3857 335.963 82.7476Q337.838 83.1089 339.883 82.5918L556.207 27.8516Q556.502 27.7764 556.751 27.8535Q557 27.9302 557.202 28.1592Q557.403 28.3877 557.449 28.644Q557.495 28.9004 557.383 29.1846L528.321 103.627Q527.491 105.753 527.689 107.779Q527.887 109.806 529.112 111.731Q530.338 113.658 532.089 114.695Q533.841 115.732 536.119 115.881L672.658 124.791Q672.95 124.81 673.159 124.952Q673.368 125.093 673.495 125.356Q673.621 125.62 673.601 125.872Q673.58 126.123 673.413 126.363L628.837 190.042Q628.731 190.193 628.588 190.292Q628.446 190.391 628.267 190.437L468.021 231.553Q465.796 232.124 464.262 233.478Q462.728 234.832 461.885 236.968Q461.042 239.104 461.239 241.141Q461.435 243.177 462.671 245.113L539.962 366.203Q540.144 366.488 540.137 366.768Q540.129 367.047 539.933 367.322Q539.736 367.597 539.474 367.695Q539.212 367.792 538.883 367.712L454.837 347.301Q452.712 346.785 450.791 347.203Q448.869 347.621 447.15 348.972Q445.432 350.323 444.572 352.092Q443.713 353.861 443.713 356.047L443.713 502.841Q443.713 503.066 443.629 503.252Q443.545 503.439 443.378 503.588Q443.21 503.737 443.016 503.799Q442.82 503.86 442.598 503.835L375.305 496.034Q375.094 496.009 374.925 495.913Q374.755 495.817 374.626 495.649L264.812 352.386Q263.468 350.633 261.692 349.752Q259.916 348.871 257.707 348.861Q255.498 348.852 253.714 349.718Q251.931 350.584 250.572 352.326L203.348 412.87Q203.163 413.107 202.922 413.2Q202.682 413.292 202.385 413.239Q202.089 413.187 201.895 413.018Q201.7 412.849 201.608 412.562L150.938 255.645Q150.129 253.14 148.435 251.626Q146.74 250.112 144.159 249.59L4.80518 221.379Q4.56152 221.33 4.38574 221.193Q4.20996 221.056 4.10205 220.832Q3.99463 220.608 3.99756 220.386Q4.00049 220.163 4.11426 219.942L22.4263 184.326Q22.5259 184.133 22.6797 184.007Q22.834 183.88 23.043 183.821L152.857 147.052Q154.802 146.5 156.215 145.315Q157.627 144.129 158.507 142.309Z" fill="url(#paint_linear_1_2301_1)" fill-opacity="0.300000" fill-rule="evenodd"/>
</svg>
