<svg width="303.000000" height="157.000000" viewBox="0 0 303 157" fill="none" xmlns="http://www.w3.org/2000/svg" xmlns:xlink="http://www.w3.org/1999/xlink">
	<desc>
			Created with Pixso.
	</desc>
	<defs>
		<filter id="filter_23_223_dd" x="20777.000000" y="20053.000000" width="0.000000" height="0.000000" filterUnits="userSpaceOnUse" color-interpolation-filters="sRGB">
			<feFlood flood-opacity="0" result="BackgroundImageFix"/>
			<feBlend mode="normal" in="SourceGraphic" in2="BackgroundImageFix" result="shape"/>
			<feGaussianBlur stdDeviation="5.38397" result="effect_layerBlur_1"/>
		</filter>
		<filter id="filter_23_224_dd" x="20777.000000" y="20053.000000" width="0.000000" height="0.000000" filterUnits="userSpaceOnUse" color-interpolation-filters="sRGB">
			<feFlood flood-opacity="0" result="BackgroundImageFix"/>
			<feBlend mode="normal" in="SourceGraphic" in2="BackgroundImageFix" result="shape"/>
			<feGaussianBlur stdDeviation="5.38397" result="effect_layerBlur_1"/>
		</filter>
		<filter id="filter_23_225_dd" x="20777.000000" y="20053.000000" width="0.000000" height="0.000000" filterUnits="userSpaceOnUse" color-interpolation-filters="sRGB">
			<feFlood flood-opacity="0" result="BackgroundImageFix"/>
			<feBlend mode="normal" in="SourceGraphic" in2="BackgroundImageFix" result="shape"/>
			<feGaussianBlur stdDeviation="5.38397" result="effect_layerBlur_1"/>
		</filter>
		<filter id="filter_23_226_dd" x="20777.000000" y="20053.000000" width="0.000000" height="0.000000" filterUnits="userSpaceOnUse" color-interpolation-filters="sRGB">
			<feFlood flood-opacity="0" result="BackgroundImageFix"/>
			<feBlend mode="normal" in="SourceGraphic" in2="BackgroundImageFix" result="shape"/>
			<feGaussianBlur stdDeviation="5.38397" result="effect_layerBlur_1"/>
		</filter>
		<filter id="filter_23_227_dd" x="20777.000000" y="20053.000000" width="0.000000" height="0.000000" filterUnits="userSpaceOnUse" color-interpolation-filters="sRGB">
			<feFlood flood-opacity="0" result="BackgroundImageFix"/>
			<feBlend mode="normal" in="SourceGraphic" in2="BackgroundImageFix" result="shape"/>
			<feGaussianBlur stdDeviation="5.38397" result="effect_layerBlur_1"/>
		</filter>
		<filter id="filter_23_228_dd" x="20777.000000" y="20053.000000" width="0.000000" height="0.000000" filterUnits="userSpaceOnUse" color-interpolation-filters="sRGB">
			<feFlood flood-opacity="0" result="BackgroundImageFix"/>
			<feBlend mode="normal" in="SourceGraphic" in2="BackgroundImageFix" result="shape"/>
			<feGaussianBlur stdDeviation="5.38397" result="effect_layerBlur_1"/>
		</filter>
		<filter id="filter_23_229_dd" x="20777.000000" y="20053.000000" width="0.000000" height="0.000000" filterUnits="userSpaceOnUse" color-interpolation-filters="sRGB">
			<feFlood flood-opacity="0" result="BackgroundImageFix"/>
			<feBlend mode="normal" in="SourceGraphic" in2="BackgroundImageFix" result="shape"/>
			<feGaussianBlur stdDeviation="5.38397" result="effect_layerBlur_1"/>
		</filter>
		<clipPath id="clip1_6904">
			<rect id="ОБЛАКО ДАННЫХ" width="303.000000" height="157.000000" fill="white" fill-opacity="0"/>
		</clipPath>
		<linearGradient id="paint_linear_23_217_0" x1="51.566986" y1="72.191406" x2="51.566986" y2="118.833191" gradientUnits="userSpaceOnUse">
			<stop stop-color="#FFFFFF"/>
			<stop offset="0.515625" stop-color="#5A5E61"/>
			<stop offset="1.000000" stop-color="#FFFFFF"/>
		</linearGradient>
		<linearGradient id="paint_linear_23_218_0" x1="291.399170" y1="102.767136" x2="250.997742" y2="126.073334" gradientUnits="userSpaceOnUse">
			<stop stop-color="#FFFFFF"/>
			<stop offset="0.515625" stop-color="#5A5E61"/>
			<stop offset="1.000000" stop-color="#FFFFFF"/>
		</linearGradient>
		<linearGradient id="paint_linear_23_219_0" x1="194.289856" y1="118.832024" x2="194.289856" y2="8.086126" gradientUnits="userSpaceOnUse">
			<stop stop-color="#FFFFFF"/>
			<stop offset="0.515625" stop-color="#5A5E61"/>
			<stop offset="1.000000" stop-color="#FFFFFF"/>
		</linearGradient>
		<linearGradient id="paint_linear_23_220_0" x1="134.362518" y1="96.055008" x2="182.920380" y2="69.075821" gradientUnits="userSpaceOnUse">
			<stop stop-color="#FFFFFF"/>
			<stop offset="0.515625" stop-color="#5A5E61"/>
			<stop offset="1.000000" stop-color="#FFFFFF"/>
		</linearGradient>
		<linearGradient id="paint_linear_23_221_0" x1="276.237000" y1="6.296877" x2="276.237000" y2="117.385437" gradientUnits="userSpaceOnUse">
			<stop stop-color="#FFFFFF"/>
			<stop offset="0.515625" stop-color="#5A5E61"/>
			<stop offset="1.000000" stop-color="#FFFFFF"/>
		</linearGradient>
		<linearGradient id="paint_linear_23_222_0" x1="22.691193" y1="30.057007" x2="244.234619" y2="163.069687" gradientUnits="userSpaceOnUse">
			<stop stop-color="#FFFFFF"/>
			<stop offset="0.515625" stop-color="#5A5E61"/>
			<stop offset="1.000000" stop-color="#FFFFFF"/>
		</linearGradient>
	</defs>
	<rect id="ОБЛАКО ДАННЫХ" width="303.000000" height="157.000000" fill="#FFFFFF" fill-opacity="0"/>
	<g clip-path="url(#clip1_6904)">
		<path id="Polygon 2" d="M31.3711 107.172L71.7637 107.172L51.5664 72.1914L31.3711 107.172ZM33.0156 106.223L70.1172 106.223L51.5664 74.0918L33.0156 106.223Z" fill="url(#paint_linear_23_217_0)" fill-opacity="1.000000" fill-rule="evenodd"/>
		<path id="Polygon 5" d="M251.006 102.752L271.189 137.74L291.398 102.768L251.006 102.752ZM252.652 103.703L271.191 135.842L289.754 103.717L252.652 103.703Z" fill="url(#paint_linear_23_218_0)" fill-opacity="1.000000" fill-rule="evenodd"/>
		<path id="Polygon 3" d="M118.33 36.2969L117.021 35.5918L118.479 35.2969L252.17 8.27539L253.102 8.08594L253.258 9.02344L271.361 117.646L271.559 118.832L270.5 118.262L118.33 36.2969ZM270.303 117.076L119.787 36.002L252.326 9.21289L270.303 117.076Z" fill="url(#paint_linear_23_219_0)" fill-opacity="1.000000" fill-rule="evenodd"/>
		<path id="Polygon 6" d="M145.287 3.52148L145.873 2.39648L146.326 3.58203L200.139 144.164L200.963 146.314L199.324 144.695L115.125 61.4297L145.287 3.52148ZM145.74 4.70703L198.502 142.547L116.291 61.2461L145.74 4.70703Z" fill="url(#paint_linear_23_220_0)" fill-opacity="1.000000" fill-rule="evenodd"/>
		<path id="Polygon 4" d="M269.217 116.275L269.391 117.385L270.236 116.645L300.457 90.1973L253.336 8.58203L252.018 6.29688L252.424 8.90234L269.217 116.275ZM270.062 115.535L299.244 89.9961L253.744 11.1875L270.062 115.535Z" fill="url(#paint_linear_23_221_0)" fill-opacity="1.000000" fill-rule="evenodd"/>
		<path id="Polygon 7" d="M68.2168 117.207L267.443 117.207L117.279 36.043L22.2891 34.418L68.2168 117.207ZM67.6582 118.156L21.1934 34.3984L20.6602 33.4395L21.7578 33.459L117.525 35.0977L269.441 117.207L271.199 118.156L269.201 118.156L67.6582 118.156Z" fill="url(#paint_linear_23_222_0)" fill-opacity="1.000000" fill-rule="evenodd"/>
		<g opacity="0.000000" filter="url(#filter_23_223_dd)">
			<ellipse id="Ellipse 6786" cx="-49.429688" cy="166.818359" rx="14.251680" ry="8.584059" fill="#FFFFFF" fill-opacity="0.740000"/>
		</g>
		<g opacity="0.000000" filter="url(#filter_23_224_dd)">
			<ellipse id="Ellipse 6791" cx="19.927734" cy="166.818359" rx="14.251680" ry="8.584059" fill="#FFFFFF" fill-opacity="0.740000"/>
		</g>
		<g opacity="0.000000" filter="url(#filter_23_225_dd)">
			<ellipse id="Ellipse 6787" cx="89.287109" cy="166.818359" rx="14.251680" ry="8.584059" fill="#FFFFFF" fill-opacity="0.740000"/>
		</g>
		<g opacity="0.000000" filter="url(#filter_23_226_dd)">
			<ellipse id="Ellipse 6792" cx="158.644531" cy="166.818359" rx="14.251680" ry="8.584059" fill="#FFFFFF" fill-opacity="0.740000"/>
		</g>
		<g opacity="0.000000" filter="url(#filter_23_227_dd)">
			<ellipse id="Ellipse 6788" cx="228.001953" cy="166.818359" rx="14.251680" ry="8.584059" fill="#FFFFFF" fill-opacity="0.740000"/>
		</g>
		<g opacity="0.000000" filter="url(#filter_23_228_dd)">
			<ellipse id="Ellipse 6793" cx="297.361328" cy="166.818359" rx="14.251680" ry="8.584059" fill="#FFFFFF" fill-opacity="0.740000"/>
		</g>
		<g opacity="0.000000" filter="url(#filter_23_229_dd)">
			<ellipse id="Ellipse 6789" cx="366.718750" cy="166.818359" rx="14.251680" ry="8.584059" fill="#FFFFFF" fill-opacity="0.740000"/>
		</g>
	</g>
</svg>
