<svg width="745.000000" height="376.000000" viewBox="0 0 745 376" fill="none" xmlns="http://www.w3.org/2000/svg" xmlns:xlink="http://www.w3.org/1999/xlink">
	<desc>
			Created with Pixso.
	</desc>
	<defs>
		<filter id="filter_23_158_dd" x="20895.000000" y="25427.000000" width="0.000000" height="0.000000" filterUnits="userSpaceOnUse" color-interpolation-filters="sRGB">
			<feFlood flood-opacity="0" result="BackgroundImageFix"/>
			<feBlend mode="normal" in="SourceGraphic" in2="BackgroundImageFix" result="shape"/>
			<feGaussianBlur stdDeviation="13.2393" result="effect_layerBlur_1"/>
		</filter>
		<filter id="filter_23_159_dd" x="20895.000000" y="25427.000000" width="0.000000" height="0.000000" filterUnits="userSpaceOnUse" color-interpolation-filters="sRGB">
			<feFlood flood-opacity="0" result="BackgroundImageFix"/>
			<feBlend mode="normal" in="SourceGraphic" in2="BackgroundImageFix" result="shape"/>
			<feGaussianBlur stdDeviation="13.2393" result="effect_layerBlur_1"/>
		</filter>
		<filter id="filter_23_160_dd" x="20895.000000" y="25427.000000" width="0.000000" height="0.000000" filterUnits="userSpaceOnUse" color-interpolation-filters="sRGB">
			<feFlood flood-opacity="0" result="BackgroundImageFix"/>
			<feBlend mode="normal" in="SourceGraphic" in2="BackgroundImageFix" result="shape"/>
			<feGaussianBlur stdDeviation="13.2393" result="effect_layerBlur_1"/>
		</filter>
		<filter id="filter_23_161_dd" x="20895.000000" y="25427.000000" width="0.000000" height="0.000000" filterUnits="userSpaceOnUse" color-interpolation-filters="sRGB">
			<feFlood flood-opacity="0" result="BackgroundImageFix"/>
			<feBlend mode="normal" in="SourceGraphic" in2="BackgroundImageFix" result="shape"/>
			<feGaussianBlur stdDeviation="13.2393" result="effect_layerBlur_1"/>
		</filter>
		<filter id="filter_23_162_dd" x="20895.000000" y="25427.000000" width="0.000000" height="0.000000" filterUnits="userSpaceOnUse" color-interpolation-filters="sRGB">
			<feFlood flood-opacity="0" result="BackgroundImageFix"/>
			<feBlend mode="normal" in="SourceGraphic" in2="BackgroundImageFix" result="shape"/>
			<feGaussianBlur stdDeviation="13.2393" result="effect_layerBlur_1"/>
		</filter>
		<filter id="filter_23_163_dd" x="20895.000000" y="25427.000000" width="0.000000" height="0.000000" filterUnits="userSpaceOnUse" color-interpolation-filters="sRGB">
			<feFlood flood-opacity="0" result="BackgroundImageFix"/>
			<feBlend mode="normal" in="SourceGraphic" in2="BackgroundImageFix" result="shape"/>
			<feGaussianBlur stdDeviation="13.2393" result="effect_layerBlur_1"/>
		</filter>
		<filter id="filter_23_164_dd" x="20895.000000" y="25427.000000" width="0.000000" height="0.000000" filterUnits="userSpaceOnUse" color-interpolation-filters="sRGB">
			<feFlood flood-opacity="0" result="BackgroundImageFix"/>
			<feBlend mode="normal" in="SourceGraphic" in2="BackgroundImageFix" result="shape"/>
			<feGaussianBlur stdDeviation="13.2393" result="effect_layerBlur_1"/>
		</filter>
		<clipPath id="clip1_6500">
			<rect id="ОБЛАКО ДАННЫХ" width="745.000000" height="376.000000" fill="white" fill-opacity="0"/>
		</clipPath>
		<clipPath id="clip1_6501">
			<rect id="лого НИИИН старый_знак новая_надпись" width="436.392578" height="110.604774" transform="translate(151.607422 112.712891)" fill="white" fill-opacity="0"/>
		</clipPath>
		<linearGradient id="paint_linear_23_152_0" x1="127.260727" y1="171.755859" x2="127.260727" y2="286.449188" gradientUnits="userSpaceOnUse">
			<stop stop-color="#FFFFFF"/>
			<stop offset="0.515625" stop-color="#5A5E61"/>
			<stop offset="1.000000" stop-color="#FFFFFF"/>
		</linearGradient>
		<linearGradient id="paint_linear_23_153_0" x1="717.018555" y1="246.943619" x2="617.670410" y2="304.254150" gradientUnits="userSpaceOnUse">
			<stop stop-color="#FFFFFF"/>
			<stop offset="0.515625" stop-color="#5A5E61"/>
			<stop offset="1.000000" stop-color="#FFFFFF"/>
		</linearGradient>
		<linearGradient id="paint_linear_23_154_0" x1="478.224640" y1="286.449188" x2="478.224640" y2="14.122199" gradientUnits="userSpaceOnUse">
			<stop stop-color="#FFFFFF"/>
			<stop offset="0.515625" stop-color="#5A5E61"/>
			<stop offset="1.000000" stop-color="#FFFFFF"/>
		</linearGradient>
		<linearGradient id="paint_linear_23_155_0" x1="330.857880" y1="230.439987" x2="450.262909" y2="164.097488" gradientUnits="userSpaceOnUse">
			<stop stop-color="#FFFFFF"/>
			<stop offset="0.515625" stop-color="#5A5E61"/>
			<stop offset="1.000000" stop-color="#FFFFFF"/>
		</linearGradient>
		<linearGradient id="paint_linear_23_156_0" x1="679.729370" y1="9.718755" x2="679.729370" y2="282.888367" gradientUnits="userSpaceOnUse">
			<stop stop-color="#FFFFFF"/>
			<stop offset="0.515625" stop-color="#5A5E61"/>
			<stop offset="1.000000" stop-color="#FFFFFF"/>
		</linearGradient>
		<linearGradient id="paint_linear_23_157_0" x1="56.256714" y1="68.144012" x2="601.037598" y2="395.225586" gradientUnits="userSpaceOnUse">
			<stop stop-color="#FFFFFF"/>
			<stop offset="0.515625" stop-color="#5A5E61"/>
			<stop offset="1.000000" stop-color="#FFFFFF"/>
		</linearGradient>
	</defs>
	<rect id="ОБЛАКО ДАННЫХ" width="745.000000" height="376.000000" fill="#FFFFFF" fill-opacity="0"/>
	<g clip-path="url(#clip1_6500)">
		<path id="Polygon 2" d="M77.5977 257.775L176.924 257.775L127.26 171.756L77.5977 257.775ZM81.6445 255.439L172.877 255.439L127.26 176.428L81.6445 255.439Z" fill="url(#paint_linear_23_152_0)" fill-opacity="1.000000" fill-rule="evenodd"/>
		<path id="Polygon 5" d="M617.691 246.908L667.324 332.945L717.018 246.943L617.691 246.908ZM621.736 249.246L667.326 328.273L712.971 249.279L621.736 249.246Z" fill="url(#paint_linear_23_153_0)" fill-opacity="1.000000" fill-rule="evenodd"/>
		<path id="Polygon 3" d="M291.438 83.4922L288.219 81.7598L291.801 81.0352L620.553 14.5859L622.844 14.123L623.229 16.4277L667.744 283.533L668.23 286.449L291.438 83.4922ZM665.143 282.133L295.02 82.7676L620.938 16.8906L665.143 282.133Z" fill="url(#paint_linear_23_154_0)" fill-opacity="1.000000" fill-rule="evenodd"/>
		<path id="Polygon 6" d="M357.721 2.90039L359.162 0.130859L360.277 3.04688L492.604 348.744L494.629 354.031L490.604 350.051L283.551 145.295L357.721 2.90039ZM358.836 5.81445L488.578 344.762L286.42 144.846L358.836 5.81445Z" fill="url(#paint_linear_23_155_0)" fill-opacity="1.000000" fill-rule="evenodd"/>
		<path id="Polygon 4" d="M662.465 280.158L662.893 282.889L664.973 281.068L739.287 216.033L623.414 15.3359L620.172 9.71875L621.174 16.127L662.465 280.158ZM664.545 278.338L736.305 215.539L624.418 21.7441L664.545 278.338Z" fill="url(#paint_linear_23_156_0)" fill-opacity="1.000000" fill-rule="evenodd"/>
		<path id="Polygon 7" d="M168.207 282.447L658.109 282.449L288.85 82.8633L55.2695 78.8672L168.207 282.447ZM166.832 284.783L52.5723 78.8203L51.2617 76.4629L53.9609 76.5078L289.459 80.5371L663.023 282.449L667.346 284.785L662.432 284.785L166.832 284.783Z" fill="url(#paint_linear_23_157_0)" fill-opacity="1.000000" fill-rule="evenodd"/>
	</g>
	<g clip-path="url(#clip1_6501)">
		<path id="Vector" d="M323.52 196.166L311.67 196.166L311.67 171.996L289.463 171.996L289.463 196.166L277.613 196.166L277.613 140.137L289.463 140.137L289.463 162.109L311.67 162.109L311.67 140.137L323.52 140.137L323.52 196.166ZM338.01 140.137L348.682 140.137L348.682 167.209C348.682 168.518 348.654 169.982 348.604 171.604C348.551 173.227 348.498 174.822 348.445 176.391C348.395 177.908 348.342 179.242 348.289 180.393C348.236 181.492 348.184 182.25 348.133 182.668L348.367 182.668L374.264 140.137L388.467 140.137L388.467 196.166L377.873 196.166L377.873 169.25C377.873 167.838 377.898 166.295 377.951 164.619C378.004 162.893 378.057 161.246 378.107 159.676C378.213 158.107 378.291 156.746 378.344 155.596C378.449 154.393 378.527 153.607 378.58 153.242L378.266 153.242L352.291 196.166L338.01 196.166L338.01 140.137ZM403.004 140.137L413.676 140.137L413.676 167.209C413.676 168.518 413.648 169.982 413.598 171.604C413.545 173.227 413.492 174.822 413.439 176.391C413.387 177.908 413.336 179.242 413.283 180.393C413.23 181.492 413.178 182.25 413.125 182.668L413.361 182.668L439.258 140.137L453.461 140.137L453.461 196.166L442.867 196.166L442.867 169.25C442.867 167.838 442.893 166.295 442.945 164.619C442.998 162.893 443.051 161.246 443.102 159.676C443.207 158.107 443.285 156.746 443.338 155.596C443.443 154.393 443.521 153.607 443.574 153.242L443.26 153.242L417.285 196.166L403.004 196.166L403.004 140.137ZM467.998 140.137L478.67 140.137L478.67 167.209C478.67 168.518 478.643 169.982 478.59 171.604C478.539 173.227 478.486 174.822 478.434 176.391C478.381 177.908 478.328 179.242 478.277 180.393C478.225 181.492 478.172 182.25 478.119 182.668L478.355 182.668L504.252 140.137L518.453 140.137L518.453 196.166L507.861 196.166L507.861 169.25C507.861 167.838 507.885 166.295 507.939 164.619C507.992 162.893 508.045 161.246 508.094 159.676C508.201 158.107 508.279 156.746 508.332 155.596C508.436 154.393 508.516 153.607 508.566 153.242L508.254 153.242L482.279 196.166L467.998 196.166L467.998 140.137ZM578.896 196.166L567.049 196.166L567.049 171.996L544.838 171.996L544.838 196.166L532.99 196.166L532.99 140.137L544.838 140.137L544.838 162.109L567.049 162.109L567.049 140.137L578.896 140.137L578.896 196.166Z" fill="#FF0000" fill-opacity="1.000000" fill-rule="nonzero"/>
		<path id="Vector" d="M277.328 214.857L277.328 205.869L284.441 205.869L284.441 214.857L282.539 214.857L282.539 207.455L279.229 207.455L279.229 214.857L277.328 214.857ZM293.041 205.869C294.199 205.869 295.043 206.121 295.57 206.623C296.107 207.119 296.377 207.803 296.377 208.676C296.377 209.07 296.318 209.449 296.201 209.809C296.084 210.162 295.887 210.48 295.609 210.766C295.34 211.043 294.984 211.262 294.539 211.42C294.094 211.58 293.545 211.66 292.891 211.66L292.072 211.66L292.072 214.857L290.17 214.857L290.17 205.869L293.041 205.869ZM292.939 207.43L292.072 207.43L292.072 210.098L292.701 210.098C293.062 210.098 293.373 210.053 293.633 209.961C293.893 209.867 294.094 209.721 294.236 209.52C294.379 209.318 294.451 209.059 294.451 208.738C294.451 208.295 294.328 207.967 294.086 207.758C293.842 207.539 293.461 207.43 292.939 207.43ZM309.695 210.35C309.695 211.047 309.607 211.68 309.432 212.252C309.264 212.814 309.002 213.301 308.65 213.711C308.307 214.123 307.861 214.438 307.316 214.656C306.779 214.873 306.145 214.982 305.414 214.982C304.686 214.982 304.047 214.873 303.502 214.656C302.965 214.43 302.52 214.115 302.166 213.711C301.822 213.301 301.562 212.809 301.387 212.238C301.219 211.668 301.135 211.035 301.135 210.338C301.135 209.406 301.285 208.596 301.588 207.908C301.898 207.221 302.369 206.688 302.998 206.309C303.635 205.924 304.445 205.73 305.428 205.73C306.4 205.73 307.203 205.924 307.832 206.309C308.461 206.688 308.928 207.225 309.229 207.92C309.539 208.609 309.695 209.418 309.695 210.35ZM303.137 210.35C303.137 210.98 303.217 211.521 303.375 211.975C303.535 212.428 303.783 212.775 304.119 213.02C304.453 213.262 304.887 213.385 305.414 213.385C305.961 213.385 306.396 213.262 306.725 213.02C307.061 212.775 307.303 212.428 307.455 211.975C307.613 211.521 307.693 210.98 307.693 210.35C307.693 209.402 307.518 208.658 307.164 208.121C306.812 207.586 306.232 207.316 305.428 207.316C304.891 207.316 304.453 207.438 304.119 207.682C303.783 207.926 303.535 208.273 303.375 208.727C303.217 209.18 303.137 209.721 303.137 210.35ZM318.82 214.857L316.656 207.807L316.605 207.807C316.613 207.975 316.627 208.227 316.643 208.562C316.66 208.898 316.676 209.26 316.693 209.645C316.711 210.023 316.719 210.367 316.719 210.678L316.719 214.857L315.02 214.857L315.02 205.869L317.613 205.869L319.74 212.742L319.777 212.742L322.031 205.869L324.625 205.869L324.625 214.857L322.85 214.857L322.85 210.602C322.85 210.316 322.854 209.99 322.861 209.621C322.879 209.25 322.891 208.902 322.9 208.576C322.916 208.24 322.93 207.988 322.938 207.82L322.887 207.82L320.57 214.857L318.82 214.857ZM330.357 214.857L330.357 205.869L332.258 205.869L332.258 209.318L332.875 209.318C333.705 209.318 334.389 209.436 334.926 209.67C335.463 209.906 335.857 210.229 336.109 210.641C336.371 211.051 336.5 211.521 336.5 212.051C336.5 212.637 336.371 213.141 336.109 213.561C335.85 213.98 335.447 214.303 334.902 214.529C334.365 214.748 333.668 214.857 332.812 214.857L330.357 214.857ZM332.762 213.297C333.324 213.297 333.764 213.203 334.082 213.02C334.41 212.834 334.574 212.512 334.574 212.051C334.574 211.73 334.498 211.488 334.348 211.32C334.205 211.152 333.99 211.039 333.705 210.98C333.42 210.912 333.076 210.879 332.674 210.879L332.258 210.879L332.258 213.297L332.762 213.297ZM337.596 214.857L337.596 205.869L339.496 205.869L339.496 214.857L337.596 214.857ZM356.533 214.857L345.227 214.857L345.227 205.869L347.129 205.869L347.129 213.271L349.924 213.271L349.924 205.869L351.836 205.869L351.836 213.271L354.631 213.271L354.631 205.869L356.533 205.869L356.533 214.857ZM369.375 214.857L367.475 214.857L367.475 207.455L365.271 207.455C365.221 207.842 365.166 208.26 365.107 208.713C365.057 209.168 364.998 209.629 364.93 210.098C364.873 210.561 364.809 211 364.742 211.42C364.674 211.832 364.607 212.197 364.541 212.516C364.432 213.035 364.285 213.48 364.1 213.85C363.924 214.219 363.676 214.5 363.357 214.693C363.047 214.887 362.639 214.982 362.137 214.982C361.969 214.982 361.809 214.971 361.658 214.945C361.506 214.92 361.363 214.887 361.23 214.844L361.23 213.283C361.338 213.316 361.443 213.346 361.545 213.371C361.652 213.396 361.771 213.41 361.896 213.41C362.064 213.41 362.203 213.355 362.312 213.246C362.422 213.137 362.518 212.951 362.602 212.691C362.686 212.424 362.77 212.055 362.854 211.584C362.895 211.383 362.945 211.098 363.004 210.729C363.064 210.35 363.131 209.91 363.205 209.406C363.289 208.895 363.375 208.34 363.457 207.744C363.541 207.141 363.621 206.516 363.697 205.869L369.375 205.869L369.375 214.857ZM380.277 214.857L375.104 214.857L375.104 205.869L380.277 205.869L380.277 207.43L377.006 207.43L377.006 209.406L380.051 209.406L380.051 210.967L377.006 210.967L377.006 213.283L380.277 213.283L380.277 214.857ZM392.975 214.857L391.074 214.857L391.074 210.98L387.512 210.98L387.512 214.857L385.611 214.857L385.611 205.869L387.512 205.869L387.512 209.395L391.074 209.395L391.074 205.869L392.975 205.869L392.975 214.857ZM406.062 214.857L404.162 214.857L404.162 210.98L400.6 210.98L400.6 214.857L398.699 214.857L398.699 205.869L400.6 205.869L400.6 209.395L404.162 209.395L404.162 205.869L406.062 205.869L406.062 214.857ZM411.787 214.857L411.787 205.869L413.688 205.869L413.688 209.318L414.305 209.318C415.135 209.318 415.82 209.436 416.357 209.67C416.895 209.906 417.289 210.229 417.539 210.641C417.801 211.051 417.93 211.521 417.93 212.051C417.93 212.637 417.801 213.141 417.539 213.561C417.279 213.98 416.877 214.303 416.332 214.529C415.795 214.748 415.098 214.857 414.242 214.857L411.787 214.857ZM414.191 213.297C414.754 213.297 415.193 213.203 415.514 213.02C415.84 212.834 416.004 212.512 416.004 212.051C416.004 211.73 415.928 211.488 415.777 211.32C415.635 211.152 415.42 211.039 415.135 210.98C414.85 210.912 414.506 210.879 414.104 210.879L413.688 210.879L413.688 213.297L414.191 213.297ZM419.025 214.857L419.025 205.869L420.926 205.869L420.926 214.857L419.025 214.857ZM433.896 202.91C433.854 203.346 433.732 203.732 433.531 204.068C433.33 204.396 433.016 204.652 432.586 204.836C432.158 205.021 431.584 205.113 430.861 205.113C430.123 205.113 429.545 205.025 429.125 204.85C428.713 204.664 428.42 204.408 428.244 204.082C428.066 203.754 427.963 203.363 427.93 202.91L429.604 202.91C429.645 203.371 429.764 203.678 429.955 203.83C430.148 203.98 430.463 204.057 430.9 204.057C431.262 204.057 431.555 203.977 431.781 203.816C432.016 203.648 432.154 203.346 432.197 202.91L433.896 202.91ZM426.658 205.869L428.369 205.869L428.369 210.211C428.369 210.422 428.365 210.656 428.357 210.916C428.35 211.178 428.34 211.434 428.332 211.686C428.324 211.928 428.314 212.143 428.307 212.326C428.299 212.504 428.289 212.625 428.281 212.691L428.318 212.691L432.475 205.869L434.752 205.869L434.752 214.857L433.053 214.857L433.053 210.539C433.053 210.312 433.057 210.064 433.064 209.797C433.074 209.52 433.082 209.256 433.09 209.004C433.107 208.752 433.119 208.533 433.129 208.348C433.145 208.156 433.158 208.029 433.166 207.971L433.115 207.971L428.949 214.857L426.658 214.857L426.658 205.869ZM457.676 214.857L455.51 207.807L455.461 207.807C455.469 207.975 455.48 208.227 455.498 208.562C455.514 208.898 455.531 209.26 455.549 209.645C455.564 210.023 455.572 210.367 455.572 210.678L455.572 214.857L453.873 214.857L453.873 205.869L456.467 205.869L458.594 212.742L458.633 212.742L460.885 205.869L463.479 205.869L463.479 214.857L461.703 214.857L461.703 210.602C461.703 210.316 461.709 209.99 461.717 209.621C461.732 209.25 461.746 208.902 461.754 208.576C461.771 208.24 461.783 207.988 461.793 207.82L461.742 207.82L459.426 214.857L457.676 214.857ZM477.369 210.35C477.369 211.047 477.281 211.68 477.105 212.252C476.938 212.814 476.678 213.301 476.324 213.711C475.98 214.123 475.535 214.438 474.99 214.656C474.453 214.873 473.818 214.982 473.09 214.982C472.359 214.982 471.721 214.873 471.176 214.656C470.639 214.43 470.193 214.115 469.842 213.711C469.496 213.301 469.236 212.809 469.061 212.238C468.893 211.668 468.809 211.035 468.809 210.338C468.809 209.406 468.959 208.596 469.262 207.908C469.572 207.221 470.043 206.688 470.672 206.309C471.311 205.924 472.119 205.73 473.102 205.73C474.074 205.73 474.877 205.924 475.506 206.309C476.135 206.688 476.602 207.225 476.904 207.92C477.215 208.609 477.369 209.418 477.369 210.35ZM470.811 210.35C470.811 210.98 470.891 211.521 471.049 211.975C471.209 212.428 471.457 212.775 471.793 213.02C472.129 213.262 472.561 213.385 473.09 213.385C473.635 213.385 474.07 213.262 474.398 213.02C474.734 212.775 474.977 212.428 475.129 211.975C475.287 211.521 475.367 210.98 475.367 210.35C475.367 209.402 475.191 208.658 474.838 208.121C474.486 207.586 473.906 207.316 473.102 207.316C472.564 207.316 472.129 207.438 471.793 207.682C471.457 207.926 471.209 208.273 471.049 208.727C470.891 209.18 470.811 209.721 470.811 210.35ZM490.057 214.857L488.156 214.857L488.156 210.98L484.594 210.98L484.594 214.857L482.693 214.857L482.693 205.869L484.594 205.869L484.594 209.395L488.156 209.395L488.156 205.869L490.057 205.869L490.057 214.857ZM495.781 205.869L497.494 205.869L497.494 210.211C497.494 210.422 497.488 210.656 497.48 210.916C497.473 211.178 497.465 211.434 497.455 211.686C497.447 211.928 497.439 212.143 497.43 212.326C497.422 212.504 497.414 212.625 497.404 212.691L497.443 212.691L501.598 205.869L503.875 205.869L503.875 214.857L502.176 214.857L502.176 210.539C502.176 210.312 502.18 210.064 502.189 209.797C502.197 209.52 502.205 209.256 502.215 209.004C502.23 208.752 502.244 208.533 502.252 208.348C502.268 208.156 502.281 208.029 502.289 207.971L502.24 207.971L498.072 214.857L495.781 214.857L495.781 205.869ZM513.07 214.857L511.166 214.857L511.166 207.455L508.725 207.455L508.725 205.869L515.51 205.869L515.51 207.455L513.07 207.455L513.07 214.857ZM528.271 210.35C528.271 211.047 528.184 211.68 528.006 212.252C527.84 212.814 527.576 213.301 527.227 213.711C526.883 214.123 526.439 214.438 525.893 214.656C525.354 214.873 524.719 214.982 523.988 214.982C523.26 214.982 522.625 214.873 522.078 214.656C521.539 214.43 521.096 214.115 520.742 213.711C520.398 213.301 520.139 212.809 519.963 212.238C519.795 211.668 519.711 211.035 519.711 210.338C519.711 209.406 519.863 208.596 520.164 207.908C520.473 207.221 520.943 206.688 521.574 206.309C522.213 205.924 523.021 205.73 524.004 205.73C524.979 205.73 525.779 205.924 526.406 206.309C527.037 206.688 527.502 207.225 527.803 207.92C528.115 208.609 528.271 209.418 528.271 210.35ZM521.713 210.35C521.713 210.98 521.791 211.521 521.951 211.975C522.109 212.428 522.359 212.775 522.695 213.02C523.029 213.262 523.461 213.385 523.988 213.385C524.535 213.385 524.971 213.262 525.301 213.02C525.635 212.775 525.879 212.428 526.031 211.975C526.191 211.521 526.27 210.98 526.27 210.35C526.27 209.402 526.092 208.658 525.74 208.121C525.389 207.586 524.809 207.316 524.004 207.316C523.465 207.316 523.029 207.438 522.695 207.682C522.359 207.926 522.109 208.273 521.951 208.727C521.791 209.18 521.713 209.721 521.713 210.35ZM536.465 205.869C537.623 205.869 538.467 206.121 538.996 206.623C539.533 207.119 539.801 207.803 539.801 208.676C539.801 209.07 539.744 209.449 539.627 209.809C539.506 210.162 539.311 210.48 539.035 210.766C538.766 211.043 538.406 211.262 537.963 211.42C537.518 211.58 536.967 211.66 536.314 211.66L535.496 211.66L535.496 214.857L533.596 214.857L533.596 205.869L536.465 205.869ZM536.365 207.43L535.496 207.43L535.496 210.098L536.123 210.098C536.486 210.098 536.797 210.053 537.057 209.961C537.318 209.867 537.518 209.721 537.662 209.52C537.805 209.318 537.875 209.059 537.875 208.738C537.875 208.295 537.754 207.967 537.51 207.758C537.266 207.539 536.887 207.43 536.365 207.43ZM544.961 205.869L546.674 205.869L546.674 210.211C546.674 210.422 546.67 210.656 546.66 210.916C546.652 211.178 546.645 211.434 546.635 211.686C546.627 211.928 546.621 212.143 546.609 212.326C546.604 212.504 546.592 212.625 546.586 212.691L546.625 212.691L550.779 205.869L553.055 205.869L553.055 214.857L551.357 214.857L551.357 210.539C551.357 210.312 551.359 210.064 551.371 209.797C551.379 209.52 551.385 209.256 551.396 209.004C551.41 208.752 551.424 208.533 551.432 208.348C551.449 208.156 551.463 208.029 551.471 207.971L551.42 207.971L547.252 214.857L544.961 214.857L544.961 205.869ZM566.15 214.857L564.25 214.857L564.25 210.98L560.688 210.98L560.688 214.857L558.787 214.857L558.787 205.869L560.688 205.869L560.688 209.395L564.25 209.395L564.25 205.869L566.15 205.869L566.15 214.857ZM577.555 205.869L577.555 207.441L573.775 207.441L573.775 214.857L571.875 214.857L571.875 205.869L577.555 205.869Z" fill="#FF0000" fill-opacity="1.000000" fill-rule="nonzero"/>
		<path id="Vector" d="M277.328 214.857L277.328 205.869L284.441 205.869L284.441 214.857L282.539 214.857L282.539 207.455L279.229 207.455L279.229 214.857L277.328 214.857ZM293.041 205.869C294.199 205.869 295.043 206.121 295.57 206.623C296.107 207.119 296.377 207.803 296.377 208.676C296.377 209.07 296.318 209.449 296.201 209.809C296.084 210.162 295.887 210.48 295.609 210.766C295.34 211.043 294.984 211.262 294.539 211.42C294.094 211.58 293.545 211.66 292.891 211.66L292.072 211.66L292.072 214.857L290.17 214.857L290.17 205.869L293.041 205.869ZM292.939 207.43L292.072 207.43L292.072 210.098L292.701 210.098C293.062 210.098 293.373 210.053 293.633 209.961C293.893 209.867 294.094 209.721 294.236 209.52C294.379 209.318 294.451 209.059 294.451 208.738C294.451 208.295 294.328 207.967 294.086 207.758C293.842 207.539 293.461 207.43 292.939 207.43ZM309.695 210.35C309.695 211.047 309.607 211.68 309.432 212.252C309.264 212.814 309.002 213.301 308.65 213.711C308.307 214.123 307.861 214.438 307.316 214.656C306.779 214.873 306.145 214.982 305.414 214.982C304.686 214.982 304.047 214.873 303.502 214.656C302.965 214.43 302.52 214.115 302.166 213.711C301.822 213.301 301.562 212.809 301.387 212.238C301.219 211.668 301.135 211.035 301.135 210.338C301.135 209.406 301.285 208.596 301.588 207.908C301.898 207.221 302.369 206.688 302.998 206.309C303.635 205.924 304.445 205.73 305.428 205.73C306.4 205.73 307.203 205.924 307.832 206.309C308.461 206.688 308.928 207.225 309.229 207.92C309.539 208.609 309.695 209.418 309.695 210.35ZM303.137 210.35C303.137 210.98 303.217 211.521 303.375 211.975C303.535 212.428 303.783 212.775 304.119 213.02C304.453 213.262 304.887 213.385 305.414 213.385C305.961 213.385 306.396 213.262 306.725 213.02C307.061 212.775 307.303 212.428 307.455 211.975C307.613 211.521 307.693 210.98 307.693 210.35C307.693 209.402 307.518 208.658 307.164 208.121C306.812 207.586 306.232 207.316 305.428 207.316C304.891 207.316 304.453 207.438 304.119 207.682C303.783 207.926 303.535 208.273 303.375 208.727C303.217 209.18 303.137 209.721 303.137 210.35ZM318.82 214.857L316.656 207.807L316.605 207.807C316.613 207.975 316.627 208.227 316.643 208.562C316.66 208.898 316.676 209.26 316.693 209.645C316.711 210.023 316.719 210.367 316.719 210.678L316.719 214.857L315.02 214.857L315.02 205.869L317.613 205.869L319.74 212.742L319.777 212.742L322.031 205.869L324.625 205.869L324.625 214.857L322.85 214.857L322.85 210.602C322.85 210.316 322.854 209.99 322.861 209.621C322.879 209.25 322.891 208.902 322.9 208.576C322.916 208.24 322.93 207.988 322.938 207.82L322.887 207.82L320.57 214.857L318.82 214.857ZM330.357 214.857L330.357 205.869L332.258 205.869L332.258 209.318L332.875 209.318C333.705 209.318 334.389 209.436 334.926 209.67C335.463 209.906 335.857 210.229 336.109 210.641C336.371 211.051 336.5 211.521 336.5 212.051C336.5 212.637 336.371 213.141 336.109 213.561C335.85 213.98 335.447 214.303 334.902 214.529C334.365 214.748 333.668 214.857 332.812 214.857L330.357 214.857ZM332.762 213.297C333.324 213.297 333.764 213.203 334.082 213.02C334.41 212.834 334.574 212.512 334.574 212.051C334.574 211.73 334.498 211.488 334.348 211.32C334.205 211.152 333.99 211.039 333.705 210.98C333.42 210.912 333.076 210.879 332.674 210.879L332.258 210.879L332.258 213.297L332.762 213.297ZM337.596 214.857L337.596 205.869L339.496 205.869L339.496 214.857L337.596 214.857ZM356.533 214.857L345.227 214.857L345.227 205.869L347.129 205.869L347.129 213.271L349.924 213.271L349.924 205.869L351.836 205.869L351.836 213.271L354.631 213.271L354.631 205.869L356.533 205.869L356.533 214.857ZM369.375 214.857L367.475 214.857L367.475 207.455L365.271 207.455C365.221 207.842 365.166 208.26 365.107 208.713C365.057 209.168 364.998 209.629 364.93 210.098C364.873 210.561 364.809 211 364.742 211.42C364.674 211.832 364.607 212.197 364.541 212.516C364.432 213.035 364.285 213.48 364.1 213.85C363.924 214.219 363.676 214.5 363.357 214.693C363.047 214.887 362.639 214.982 362.137 214.982C361.969 214.982 361.809 214.971 361.658 214.945C361.506 214.92 361.363 214.887 361.23 214.844L361.23 213.283C361.338 213.316 361.443 213.346 361.545 213.371C361.652 213.396 361.771 213.41 361.896 213.41C362.064 213.41 362.203 213.355 362.312 213.246C362.422 213.137 362.518 212.951 362.602 212.691C362.686 212.424 362.77 212.055 362.854 211.584C362.895 211.383 362.945 211.098 363.004 210.729C363.064 210.35 363.131 209.91 363.205 209.406C363.289 208.895 363.375 208.34 363.457 207.744C363.541 207.141 363.621 206.516 363.697 205.869L369.375 205.869L369.375 214.857ZM380.277 214.857L375.104 214.857L375.104 205.869L380.277 205.869L380.277 207.43L377.006 207.43L377.006 209.406L380.051 209.406L380.051 210.967L377.006 210.967L377.006 213.283L380.277 213.283L380.277 214.857ZM392.975 214.857L391.074 214.857L391.074 210.98L387.512 210.98L387.512 214.857L385.611 214.857L385.611 205.869L387.512 205.869L387.512 209.395L391.074 209.395L391.074 205.869L392.975 205.869L392.975 214.857ZM406.062 214.857L404.162 214.857L404.162 210.98L400.6 210.98L400.6 214.857L398.699 214.857L398.699 205.869L400.6 205.869L400.6 209.395L404.162 209.395L404.162 205.869L406.062 205.869L406.062 214.857ZM411.787 214.857L411.787 205.869L413.688 205.869L413.688 209.318L414.305 209.318C415.135 209.318 415.82 209.436 416.357 209.67C416.895 209.906 417.289 210.229 417.539 210.641C417.801 211.051 417.93 211.521 417.93 212.051C417.93 212.637 417.801 213.141 417.539 213.561C417.279 213.98 416.877 214.303 416.332 214.529C415.795 214.748 415.098 214.857 414.242 214.857L411.787 214.857ZM414.191 213.297C414.754 213.297 415.193 213.203 415.514 213.02C415.84 212.834 416.004 212.512 416.004 212.051C416.004 211.73 415.928 211.488 415.777 211.32C415.635 211.152 415.42 211.039 415.135 210.98C414.85 210.912 414.506 210.879 414.104 210.879L413.688 210.879L413.688 213.297L414.191 213.297ZM419.025 214.857L419.025 205.869L420.926 205.869L420.926 214.857L419.025 214.857ZM433.896 202.91C433.854 203.346 433.732 203.732 433.531 204.068C433.33 204.396 433.016 204.652 432.586 204.836C432.158 205.021 431.584 205.113 430.861 205.113C430.123 205.113 429.545 205.025 429.125 204.85C428.713 204.664 428.42 204.408 428.244 204.082C428.066 203.754 427.963 203.363 427.93 202.91L429.604 202.91C429.645 203.371 429.764 203.678 429.955 203.83C430.148 203.98 430.463 204.057 430.9 204.057C431.262 204.057 431.555 203.977 431.781 203.816C432.016 203.648 432.154 203.346 432.197 202.91L433.896 202.91ZM426.658 205.869L428.369 205.869L428.369 210.211C428.369 210.422 428.365 210.656 428.357 210.916C428.35 211.178 428.34 211.434 428.332 211.686C428.324 211.928 428.314 212.143 428.307 212.326C428.299 212.504 428.289 212.625 428.281 212.691L428.318 212.691L432.475 205.869L434.752 205.869L434.752 214.857L433.053 214.857L433.053 210.539C433.053 210.312 433.057 210.064 433.064 209.797C433.074 209.52 433.082 209.256 433.09 209.004C433.107 208.752 433.119 208.533 433.129 208.348C433.145 208.156 433.158 208.029 433.166 207.971L433.115 207.971L428.949 214.857L426.658 214.857L426.658 205.869ZM457.676 214.857L455.51 207.807L455.461 207.807C455.469 207.975 455.48 208.227 455.498 208.562C455.514 208.898 455.531 209.26 455.549 209.645C455.564 210.023 455.572 210.367 455.572 210.678L455.572 214.857L453.873 214.857L453.873 205.869L456.467 205.869L458.594 212.742L458.633 212.742L460.885 205.869L463.479 205.869L463.479 214.857L461.703 214.857L461.703 210.602C461.703 210.316 461.709 209.99 461.717 209.621C461.732 209.25 461.746 208.902 461.754 208.576C461.771 208.24 461.783 207.988 461.793 207.82L461.742 207.82L459.426 214.857L457.676 214.857ZM477.369 210.35C477.369 211.047 477.281 211.68 477.105 212.252C476.938 212.814 476.678 213.301 476.324 213.711C475.98 214.123 475.535 214.438 474.99 214.656C474.453 214.873 473.818 214.982 473.09 214.982C472.359 214.982 471.721 214.873 471.176 214.656C470.639 214.43 470.193 214.115 469.842 213.711C469.496 213.301 469.236 212.809 469.061 212.238C468.893 211.668 468.809 211.035 468.809 210.338C468.809 209.406 468.959 208.596 469.262 207.908C469.572 207.221 470.043 206.688 470.672 206.309C471.311 205.924 472.119 205.73 473.102 205.73C474.074 205.73 474.877 205.924 475.506 206.309C476.135 206.688 476.602 207.225 476.904 207.92C477.215 208.609 477.369 209.418 477.369 210.35ZM470.811 210.35C470.811 210.98 470.891 211.521 471.049 211.975C471.209 212.428 471.457 212.775 471.793 213.02C472.129 213.262 472.561 213.385 473.09 213.385C473.635 213.385 474.07 213.262 474.398 213.02C474.734 212.775 474.977 212.428 475.129 211.975C475.287 211.521 475.367 210.98 475.367 210.35C475.367 209.402 475.191 208.658 474.838 208.121C474.486 207.586 473.906 207.316 473.102 207.316C472.564 207.316 472.129 207.438 471.793 207.682C471.457 207.926 471.209 208.273 471.049 208.727C470.891 209.18 470.811 209.721 470.811 210.35ZM490.057 214.857L488.156 214.857L488.156 210.98L484.594 210.98L484.594 214.857L482.693 214.857L482.693 205.869L484.594 205.869L484.594 209.395L488.156 209.395L488.156 205.869L490.057 205.869L490.057 214.857ZM495.781 205.869L497.494 205.869L497.494 210.211C497.494 210.422 497.488 210.656 497.48 210.916C497.473 211.178 497.465 211.434 497.455 211.686C497.447 211.928 497.439 212.143 497.43 212.326C497.422 212.504 497.414 212.625 497.404 212.691L497.443 212.691L501.598 205.869L503.875 205.869L503.875 214.857L502.176 214.857L502.176 210.539C502.176 210.312 502.18 210.064 502.189 209.797C502.197 209.52 502.205 209.256 502.215 209.004C502.23 208.752 502.244 208.533 502.252 208.348C502.268 208.156 502.281 208.029 502.289 207.971L502.24 207.971L498.072 214.857L495.781 214.857L495.781 205.869ZM513.07 214.857L511.166 214.857L511.166 207.455L508.725 207.455L508.725 205.869L515.51 205.869L515.51 207.455L513.07 207.455L513.07 214.857ZM528.271 210.35C528.271 211.047 528.184 211.68 528.006 212.252C527.84 212.814 527.576 213.301 527.227 213.711C526.883 214.123 526.439 214.438 525.893 214.656C525.354 214.873 524.719 214.982 523.988 214.982C523.26 214.982 522.625 214.873 522.078 214.656C521.539 214.43 521.096 214.115 520.742 213.711C520.398 213.301 520.139 212.809 519.963 212.238C519.795 211.668 519.711 211.035 519.711 210.338C519.711 209.406 519.863 208.596 520.164 207.908C520.473 207.221 520.943 206.688 521.574 206.309C522.213 205.924 523.021 205.73 524.004 205.73C524.979 205.73 525.779 205.924 526.406 206.309C527.037 206.688 527.502 207.225 527.803 207.92C528.115 208.609 528.271 209.418 528.271 210.35ZM521.713 210.35C521.713 210.98 521.791 211.521 521.951 211.975C522.109 212.428 522.359 212.775 522.695 213.02C523.029 213.262 523.461 213.385 523.988 213.385C524.535 213.385 524.971 213.262 525.301 213.02C525.635 212.775 525.879 212.428 526.031 211.975C526.191 211.521 526.27 210.98 526.27 210.35C526.27 209.402 526.092 208.658 525.74 208.121C525.389 207.586 524.809 207.316 524.004 207.316C523.465 207.316 523.029 207.438 522.695 207.682C522.359 207.926 522.109 208.273 521.951 208.727C521.791 209.18 521.713 209.721 521.713 210.35ZM536.465 205.869C537.623 205.869 538.467 206.121 538.996 206.623C539.533 207.119 539.801 207.803 539.801 208.676C539.801 209.07 539.744 209.449 539.627 209.809C539.506 210.162 539.311 210.48 539.035 210.766C538.766 211.043 538.406 211.262 537.963 211.42C537.518 211.58 536.967 211.66 536.314 211.66L535.496 211.66L535.496 214.857L533.596 214.857L533.596 205.869L536.465 205.869ZM536.365 207.43L535.496 207.43L535.496 210.098L536.123 210.098C536.486 210.098 536.797 210.053 537.057 209.961C537.318 209.867 537.518 209.721 537.662 209.52C537.805 209.318 537.875 209.059 537.875 208.738C537.875 208.295 537.754 207.967 537.51 207.758C537.266 207.539 536.887 207.43 536.365 207.43ZM544.961 205.869L546.674 205.869L546.674 210.211C546.674 210.422 546.67 210.656 546.66 210.916C546.652 211.178 546.645 211.434 546.635 211.686C546.627 211.928 546.621 212.143 546.609 212.326C546.604 212.504 546.592 212.625 546.586 212.691L546.625 212.691L550.779 205.869L553.055 205.869L553.055 214.857L551.357 214.857L551.357 210.539C551.357 210.312 551.359 210.064 551.371 209.797C551.379 209.52 551.385 209.256 551.396 209.004C551.41 208.752 551.424 208.533 551.432 208.348C551.449 208.156 551.463 208.029 551.471 207.971L551.42 207.971L547.252 214.857L544.961 214.857L544.961 205.869ZM566.15 214.857L564.25 214.857L564.25 210.98L560.688 210.98L560.688 214.857L558.787 214.857L558.787 205.869L560.688 205.869L560.688 209.395L564.25 209.395L564.25 205.869L566.15 205.869L566.15 214.857ZM577.555 205.869L577.555 207.441L573.775 207.441L573.775 214.857L571.875 214.857L571.875 205.869L577.555 205.869Z" fill="#FF0000" fill-opacity="1.000000" fill-rule="nonzero"/>
		<path id="Vector" d="M288.846 131.121L288.846 136.391L286.5 136.391L286.5 133.049L278.066 133.049L278.066 121.578L280.492 121.578L280.492 131.025L284.717 131.025L284.717 121.578L287.143 121.578L287.143 131.121L288.846 131.121ZM298.73 121.578L300.916 121.578L300.916 127.121C300.916 127.389 300.91 127.689 300.898 128.021C300.889 128.354 300.877 128.68 300.867 129.002C300.855 129.312 300.846 129.584 300.836 129.82C300.824 130.045 300.812 130.201 300.803 130.287L300.852 130.287L306.152 121.578L309.061 121.578L309.061 133.049L306.891 133.049L306.891 127.539C306.891 127.25 306.896 126.934 306.908 126.592C306.918 126.238 306.93 125.9 306.939 125.58C306.961 125.258 306.977 124.98 306.988 124.744C307.01 124.498 307.025 124.338 307.035 124.262L306.973 124.262L301.654 133.049L298.73 133.049L298.73 121.578ZM326.623 121.418L326.623 122.832C327.877 122.865 328.873 123.084 329.611 123.49C330.361 123.887 330.896 124.4 331.219 125.033C331.551 125.664 331.717 126.355 331.717 127.105C331.717 127.588 331.631 128.08 331.459 128.584C331.299 129.086 331.02 129.553 330.623 129.98C330.238 130.398 329.719 130.742 329.066 131.01C328.412 131.277 327.598 131.422 326.623 131.443L326.623 133.211L324.439 133.211L324.439 131.443C323.453 131.422 322.629 131.277 321.965 131.01C321.311 130.742 320.791 130.393 320.406 129.965C320.021 129.537 319.748 129.076 319.586 128.584C319.426 128.08 319.346 127.588 319.346 127.105C319.346 126.549 319.438 126.018 319.619 125.516C319.801 125.012 320.09 124.562 320.486 124.166C320.883 123.77 321.408 123.453 322.061 123.217C322.715 122.982 323.508 122.854 324.439 122.832L324.439 121.418L326.623 121.418ZM324.439 124.729C323.742 124.76 323.186 124.883 322.768 125.098C322.361 125.301 322.066 125.574 321.885 125.916C321.713 126.26 321.627 126.65 321.627 127.09C321.627 127.572 321.723 127.994 321.916 128.359C322.119 128.713 322.426 128.996 322.832 129.211C323.25 129.414 323.785 129.531 324.439 129.564L324.439 124.729ZM326.623 129.564C327.277 129.531 327.807 129.414 328.215 129.211C328.631 128.996 328.938 128.713 329.129 128.359C329.334 127.994 329.436 127.572 329.436 127.09C329.436 126.65 329.344 126.26 329.162 125.916C328.99 125.574 328.695 125.301 328.277 125.098C327.871 124.883 327.32 124.76 326.623 124.729L326.623 129.564ZM345.666 121.578C347.145 121.578 348.221 121.9 348.896 122.543C349.58 123.176 349.924 124.047 349.924 125.162C349.924 125.664 349.848 126.146 349.699 126.607C349.549 127.057 349.297 127.465 348.943 127.828C348.602 128.182 348.146 128.461 347.578 128.664C347.01 128.867 346.309 128.969 345.473 128.969L344.43 128.969L344.43 133.049L342.004 133.049L342.004 121.578L345.666 121.578ZM345.537 123.57L344.43 123.57L344.43 126.977L345.232 126.977C345.693 126.977 346.09 126.918 346.422 126.801C346.754 126.682 347.01 126.494 347.193 126.238C347.375 125.98 347.465 125.648 347.465 125.242C347.465 124.674 347.311 124.256 347 123.988C346.689 123.711 346.201 123.57 345.537 123.57ZM370.615 127.299C370.615 128.188 370.502 128.996 370.277 129.725C370.062 130.441 369.73 131.062 369.281 131.588C368.842 132.113 368.275 132.514 367.578 132.793C366.893 133.07 366.084 133.211 365.152 133.211C364.221 133.211 363.406 133.07 362.711 132.793C362.025 132.504 361.457 132.102 361.008 131.588C360.568 131.062 360.236 130.436 360.012 129.709C359.797 128.98 359.689 128.172 359.689 127.281C359.689 126.094 359.883 125.061 360.268 124.182C360.664 123.303 361.264 122.623 362.068 122.141C362.883 121.648 363.916 121.402 365.168 121.402C366.41 121.402 367.434 121.648 368.236 122.141C369.041 122.623 369.635 123.309 370.02 124.197C370.416 125.076 370.615 126.109 370.615 127.299ZM362.244 127.299C362.244 128.102 362.346 128.793 362.549 129.371C362.754 129.949 363.07 130.393 363.498 130.703C363.926 131.016 364.479 131.17 365.152 131.17C365.85 131.17 366.406 131.016 366.822 130.703C367.252 130.393 367.562 129.949 367.754 129.371C367.959 128.793 368.061 128.102 368.061 127.299C368.061 126.088 367.836 125.141 367.385 124.455C366.936 123.77 366.197 123.426 365.168 123.426C364.482 123.426 363.926 123.582 363.498 123.893C363.07 124.203 362.754 124.648 362.549 125.227C362.346 125.805 362.244 126.494 362.244 127.299ZM384.67 121.578C385.688 121.578 386.539 121.676 387.225 121.869C387.92 122.051 388.439 122.355 388.783 122.783C389.137 123.201 389.312 123.77 389.312 124.486C389.312 124.916 389.244 125.307 389.104 125.66C388.965 126.014 388.762 126.303 388.494 126.527C388.236 126.752 387.92 126.896 387.545 126.961L387.545 127.041C387.932 127.117 388.279 127.25 388.59 127.443C388.9 127.635 389.146 127.914 389.328 128.277C389.512 128.643 389.602 129.125 389.602 129.725C389.602 130.42 389.43 131.02 389.088 131.523C388.756 132.016 388.273 132.396 387.643 132.664C387.01 132.922 386.26 133.049 385.393 133.049L381.104 133.049L381.104 121.578L384.67 121.578ZM384.943 126.125C385.65 126.125 386.137 126.014 386.404 125.789C386.684 125.562 386.822 125.236 386.822 124.809C386.822 124.369 386.662 124.053 386.34 123.859C386.02 123.668 385.512 123.57 384.814 123.57L383.529 123.57L383.529 126.125L384.943 126.125ZM383.529 128.053L383.529 131.041L385.119 131.041C385.848 131.041 386.357 130.902 386.646 130.623C386.936 130.334 387.08 129.955 387.08 129.482C387.08 129.193 387.016 128.941 386.887 128.729C386.77 128.514 386.561 128.348 386.26 128.23C385.961 128.111 385.553 128.053 385.039 128.053L383.529 128.053ZM400.01 133.049L400.01 121.578L402.436 121.578L402.436 125.98L403.223 125.98C404.283 125.98 405.156 126.131 405.842 126.432C406.527 126.73 407.031 127.143 407.352 127.668C407.684 128.193 407.85 128.793 407.85 129.467C407.85 130.217 407.684 130.859 407.352 131.395C407.02 131.93 406.506 132.342 405.811 132.633C405.125 132.91 404.234 133.049 403.143 133.049L400.01 133.049ZM403.078 131.057C403.797 131.057 404.359 130.939 404.766 130.703C405.184 130.469 405.393 130.057 405.393 129.467C405.393 129.061 405.295 128.75 405.104 128.535C404.92 128.32 404.648 128.176 404.283 128.102C403.92 128.016 403.48 127.973 402.967 127.973L402.436 127.973L402.436 131.057L403.078 131.057ZM409.248 133.049L409.248 121.578L411.674 121.578L411.674 133.049L409.248 133.049ZM429.285 133.049L422.682 133.049L422.682 121.578L429.285 121.578L429.285 123.57L425.107 123.57L425.107 126.094L428.996 126.094L428.996 128.086L425.107 128.086L425.107 131.041L429.285 131.041L429.285 133.049ZM455.688 121.578C457.164 121.578 458.242 121.9 458.916 122.543C459.602 123.176 459.943 124.047 459.943 125.162C459.943 125.664 459.869 126.146 459.719 126.607C459.568 127.057 459.318 127.465 458.965 127.828C458.621 128.182 458.166 128.461 457.598 128.664C457.031 128.867 456.33 128.969 455.494 128.969L454.449 128.969L454.449 133.049L452.023 133.049L452.023 121.578L455.688 121.578ZM455.559 123.57L454.449 123.57L454.449 126.977L455.254 126.977C455.713 126.977 456.109 126.918 456.441 126.801C456.773 126.682 457.031 126.494 457.213 126.238C457.395 125.98 457.486 125.648 457.486 125.242C457.486 124.674 457.33 124.256 457.02 123.988C456.709 123.711 456.223 123.57 455.559 123.57ZM476.828 133.049L470.225 133.049L470.225 121.578L476.828 121.578L476.828 123.57L472.65 123.57L472.65 126.094L476.539 126.094L476.539 128.086L472.65 128.086L472.65 131.041L476.828 131.041L476.828 133.049ZM501.754 133.049L487.328 133.049L487.328 121.578L489.754 121.578L489.754 131.025L493.32 131.025L493.32 121.578L495.762 121.578L495.762 131.025L499.328 131.025L499.328 121.578L501.754 121.578L501.754 133.049ZM519.363 133.049L512.76 133.049L512.76 121.578L519.363 121.578L519.363 123.57L515.188 123.57L515.188 126.094L519.072 126.094L519.072 128.086L515.188 128.086L515.188 131.041L519.363 131.041L519.363 133.049ZM539.262 133.049L536.834 133.049L536.834 128.102L532.289 128.102L532.289 133.049L529.863 133.049L529.863 121.578L532.289 121.578L532.289 126.078L536.834 126.078L536.834 121.578L539.262 121.578L539.262 133.049ZM550.258 121.578L552.445 121.578L552.445 127.121C552.445 127.389 552.439 127.689 552.428 128.021C552.418 128.354 552.406 128.68 552.396 129.002C552.385 129.312 552.375 129.584 552.365 129.82C552.354 130.045 552.344 130.201 552.332 130.287L552.383 130.287L557.682 121.578L560.59 121.578L560.59 133.049L558.424 133.049L558.424 127.539C558.424 127.25 558.426 126.934 558.438 126.592C558.447 126.238 558.459 125.9 558.469 125.58C558.49 125.258 558.508 124.98 558.52 124.744C558.539 124.498 558.555 124.338 558.564 124.262L558.5 124.262L553.184 133.049L550.258 133.049L550.258 121.578ZM575.453 128.648L572.773 133.049L570.072 133.049L573.334 128.006C573.025 127.877 572.713 127.689 572.4 127.443C572.092 127.186 571.834 126.848 571.631 126.432C571.426 126.002 571.326 125.479 571.326 124.855C571.326 123.797 571.707 122.988 572.465 122.43C573.227 121.863 574.295 121.578 575.662 121.578L579.393 121.578L579.393 133.049L576.963 133.049L576.963 128.648L575.453 128.648ZM575.758 123.57C575.344 123.57 574.982 123.619 574.684 123.715C574.393 123.812 574.17 123.967 574.008 124.182C573.857 124.396 573.783 124.68 573.783 125.033C573.783 125.537 573.949 125.938 574.283 126.238C574.623 126.527 575.139 126.672 575.826 126.672L576.963 126.672L576.963 123.57L575.758 123.57Z" fill="#FF0000" fill-opacity="1.000000" fill-rule="nonzero"/>
		<path id="Vector" d="M288.846 131.121L288.846 136.391L286.5 136.391L286.5 133.049L278.066 133.049L278.066 121.578L280.492 121.578L280.492 131.025L284.717 131.025L284.717 121.578L287.143 121.578L287.143 131.121L288.846 131.121ZM298.73 121.578L300.916 121.578L300.916 127.121C300.916 127.389 300.91 127.689 300.898 128.021C300.889 128.354 300.877 128.68 300.867 129.002C300.855 129.312 300.846 129.584 300.836 129.82C300.824 130.045 300.812 130.201 300.803 130.287L300.852 130.287L306.152 121.578L309.061 121.578L309.061 133.049L306.891 133.049L306.891 127.539C306.891 127.25 306.896 126.934 306.908 126.592C306.918 126.238 306.93 125.9 306.939 125.58C306.961 125.258 306.977 124.98 306.988 124.744C307.01 124.498 307.025 124.338 307.035 124.262L306.973 124.262L301.654 133.049L298.73 133.049L298.73 121.578ZM326.623 121.418L326.623 122.832C327.877 122.865 328.873 123.084 329.611 123.49C330.361 123.887 330.896 124.4 331.219 125.033C331.551 125.664 331.717 126.355 331.717 127.105C331.717 127.588 331.631 128.08 331.459 128.584C331.299 129.086 331.02 129.553 330.623 129.98C330.238 130.398 329.719 130.742 329.066 131.01C328.412 131.277 327.598 131.422 326.623 131.443L326.623 133.211L324.439 133.211L324.439 131.443C323.453 131.422 322.629 131.277 321.965 131.01C321.311 130.742 320.791 130.393 320.406 129.965C320.021 129.537 319.748 129.076 319.586 128.584C319.426 128.08 319.346 127.588 319.346 127.105C319.346 126.549 319.438 126.018 319.619 125.516C319.801 125.012 320.09 124.562 320.486 124.166C320.883 123.77 321.408 123.453 322.061 123.217C322.715 122.982 323.508 122.854 324.439 122.832L324.439 121.418L326.623 121.418ZM324.439 124.729C323.742 124.76 323.186 124.883 322.768 125.098C322.361 125.301 322.066 125.574 321.885 125.916C321.713 126.26 321.627 126.65 321.627 127.09C321.627 127.572 321.723 127.994 321.916 128.359C322.119 128.713 322.426 128.996 322.832 129.211C323.25 129.414 323.785 129.531 324.439 129.564L324.439 124.729ZM326.623 129.564C327.277 129.531 327.807 129.414 328.215 129.211C328.631 128.996 328.938 128.713 329.129 128.359C329.334 127.994 329.436 127.572 329.436 127.09C329.436 126.65 329.344 126.26 329.162 125.916C328.99 125.574 328.695 125.301 328.277 125.098C327.871 124.883 327.32 124.76 326.623 124.729L326.623 129.564ZM345.666 121.578C347.145 121.578 348.221 121.9 348.896 122.543C349.58 123.176 349.924 124.047 349.924 125.162C349.924 125.664 349.848 126.146 349.699 126.607C349.549 127.057 349.297 127.465 348.943 127.828C348.602 128.182 348.146 128.461 347.578 128.664C347.01 128.867 346.309 128.969 345.473 128.969L344.43 128.969L344.43 133.049L342.004 133.049L342.004 121.578L345.666 121.578ZM345.537 123.57L344.43 123.57L344.43 126.977L345.232 126.977C345.693 126.977 346.09 126.918 346.422 126.801C346.754 126.682 347.01 126.494 347.193 126.238C347.375 125.98 347.465 125.648 347.465 125.242C347.465 124.674 347.311 124.256 347 123.988C346.689 123.711 346.201 123.57 345.537 123.57ZM370.615 127.299C370.615 128.188 370.502 128.996 370.277 129.725C370.062 130.441 369.73 131.062 369.281 131.588C368.842 132.113 368.275 132.514 367.578 132.793C366.893 133.07 366.084 133.211 365.152 133.211C364.221 133.211 363.406 133.07 362.711 132.793C362.025 132.504 361.457 132.102 361.008 131.588C360.568 131.062 360.236 130.436 360.012 129.709C359.797 128.98 359.689 128.172 359.689 127.281C359.689 126.094 359.883 125.061 360.268 124.182C360.664 123.303 361.264 122.623 362.068 122.141C362.883 121.648 363.916 121.402 365.168 121.402C366.41 121.402 367.434 121.648 368.236 122.141C369.041 122.623 369.635 123.309 370.02 124.197C370.416 125.076 370.615 126.109 370.615 127.299ZM362.244 127.299C362.244 128.102 362.346 128.793 362.549 129.371C362.754 129.949 363.07 130.393 363.498 130.703C363.926 131.016 364.479 131.17 365.152 131.17C365.85 131.17 366.406 131.016 366.822 130.703C367.252 130.393 367.562 129.949 367.754 129.371C367.959 128.793 368.061 128.102 368.061 127.299C368.061 126.088 367.836 125.141 367.385 124.455C366.936 123.77 366.197 123.426 365.168 123.426C364.482 123.426 363.926 123.582 363.498 123.893C363.07 124.203 362.754 124.648 362.549 125.227C362.346 125.805 362.244 126.494 362.244 127.299ZM384.67 121.578C385.688 121.578 386.539 121.676 387.225 121.869C387.92 122.051 388.439 122.355 388.783 122.783C389.137 123.201 389.312 123.77 389.312 124.486C389.312 124.916 389.244 125.307 389.104 125.66C388.965 126.014 388.762 126.303 388.494 126.527C388.236 126.752 387.92 126.896 387.545 126.961L387.545 127.041C387.932 127.117 388.279 127.25 388.59 127.443C388.9 127.635 389.146 127.914 389.328 128.277C389.512 128.643 389.602 129.125 389.602 129.725C389.602 130.42 389.43 131.02 389.088 131.523C388.756 132.016 388.273 132.396 387.643 132.664C387.01 132.922 386.26 133.049 385.393 133.049L381.104 133.049L381.104 121.578L384.67 121.578ZM384.943 126.125C385.65 126.125 386.137 126.014 386.404 125.789C386.684 125.562 386.822 125.236 386.822 124.809C386.822 124.369 386.662 124.053 386.34 123.859C386.02 123.668 385.512 123.57 384.814 123.57L383.529 123.57L383.529 126.125L384.943 126.125ZM383.529 128.053L383.529 131.041L385.119 131.041C385.848 131.041 386.357 130.902 386.646 130.623C386.936 130.334 387.08 129.955 387.08 129.482C387.08 129.193 387.016 128.941 386.887 128.729C386.77 128.514 386.561 128.348 386.26 128.23C385.961 128.111 385.553 128.053 385.039 128.053L383.529 128.053ZM400.01 133.049L400.01 121.578L402.436 121.578L402.436 125.98L403.223 125.98C404.283 125.98 405.156 126.131 405.842 126.432C406.527 126.73 407.031 127.143 407.352 127.668C407.684 128.193 407.85 128.793 407.85 129.467C407.85 130.217 407.684 130.859 407.352 131.395C407.02 131.93 406.506 132.342 405.811 132.633C405.125 132.91 404.234 133.049 403.143 133.049L400.01 133.049ZM403.078 131.057C403.797 131.057 404.359 130.939 404.766 130.703C405.184 130.469 405.393 130.057 405.393 129.467C405.393 129.061 405.295 128.75 405.104 128.535C404.92 128.32 404.648 128.176 404.283 128.102C403.92 128.016 403.48 127.973 402.967 127.973L402.436 127.973L402.436 131.057L403.078 131.057ZM409.248 133.049L409.248 121.578L411.674 121.578L411.674 133.049L409.248 133.049ZM429.285 133.049L422.682 133.049L422.682 121.578L429.285 121.578L429.285 123.57L425.107 123.57L425.107 126.094L428.996 126.094L428.996 128.086L425.107 128.086L425.107 131.041L429.285 131.041L429.285 133.049ZM455.688 121.578C457.164 121.578 458.242 121.9 458.916 122.543C459.602 123.176 459.943 124.047 459.943 125.162C459.943 125.664 459.869 126.146 459.719 126.607C459.568 127.057 459.318 127.465 458.965 127.828C458.621 128.182 458.166 128.461 457.598 128.664C457.031 128.867 456.33 128.969 455.494 128.969L454.449 128.969L454.449 133.049L452.023 133.049L452.023 121.578L455.688 121.578ZM455.559 123.57L454.449 123.57L454.449 126.977L455.254 126.977C455.713 126.977 456.109 126.918 456.441 126.801C456.773 126.682 457.031 126.494 457.213 126.238C457.395 125.98 457.486 125.648 457.486 125.242C457.486 124.674 457.33 124.256 457.02 123.988C456.709 123.711 456.223 123.57 455.559 123.57ZM476.828 133.049L470.225 133.049L470.225 121.578L476.828 121.578L476.828 123.57L472.65 123.57L472.65 126.094L476.539 126.094L476.539 128.086L472.65 128.086L472.65 131.041L476.828 131.041L476.828 133.049ZM501.754 133.049L487.328 133.049L487.328 121.578L489.754 121.578L489.754 131.025L493.32 131.025L493.32 121.578L495.762 121.578L495.762 131.025L499.328 131.025L499.328 121.578L501.754 121.578L501.754 133.049ZM519.363 133.049L512.76 133.049L512.76 121.578L519.363 121.578L519.363 123.57L515.188 123.57L515.188 126.094L519.072 126.094L519.072 128.086L515.188 128.086L515.188 131.041L519.363 131.041L519.363 133.049ZM539.262 133.049L536.834 133.049L536.834 128.102L532.289 128.102L532.289 133.049L529.863 133.049L529.863 121.578L532.289 121.578L532.289 126.078L536.834 126.078L536.834 121.578L539.262 121.578L539.262 133.049ZM550.258 121.578L552.445 121.578L552.445 127.121C552.445 127.389 552.439 127.689 552.428 128.021C552.418 128.354 552.406 128.68 552.396 129.002C552.385 129.312 552.375 129.584 552.365 129.82C552.354 130.045 552.344 130.201 552.332 130.287L552.383 130.287L557.682 121.578L560.59 121.578L560.59 133.049L558.424 133.049L558.424 127.539C558.424 127.25 558.426 126.934 558.438 126.592C558.447 126.238 558.459 125.9 558.469 125.58C558.49 125.258 558.508 124.98 558.52 124.744C558.539 124.498 558.555 124.338 558.564 124.262L558.5 124.262L553.184 133.049L550.258 133.049L550.258 121.578ZM575.453 128.648L572.773 133.049L570.072 133.049L573.334 128.006C573.025 127.877 572.713 127.689 572.4 127.443C572.092 127.186 571.834 126.848 571.631 126.432C571.426 126.002 571.326 125.479 571.326 124.855C571.326 123.797 571.707 122.988 572.465 122.43C573.227 121.863 574.295 121.578 575.662 121.578L579.393 121.578L579.393 133.049L576.963 133.049L576.963 128.648L575.453 128.648ZM575.758 123.57C575.344 123.57 574.982 123.619 574.684 123.715C574.393 123.812 574.17 123.967 574.008 124.182C573.857 124.396 573.783 124.68 573.783 125.033C573.783 125.537 573.949 125.938 574.283 126.238C574.623 126.527 575.139 126.672 575.826 126.672L576.963 126.672L576.963 123.57L575.758 123.57Z" fill="#FF0000" fill-opacity="1.000000" fill-rule="nonzero"/>
		<path id="Vector" d="M231.297 149.207C231.297 148.424 231.338 147.211 232.102 147.211C233.283 147.211 239.301 155.826 240.492 157.244C241.545 158.492 248.191 166.768 248.191 167.766L248.191 168.367C248.191 169.477 241.598 177.145 240.514 178.51C238.99 180.422 234.258 187.525 231.699 187.525C231.537 186.828 231.297 186.852 231.297 186.127L231.297 177.746L200.121 177.746C194.031 177.746 189.861 173.77 189.861 167.766L189.861 167.168C189.861 162.652 194.666 158.387 199.518 158.387L231.297 158.387L231.297 149.207L231.297 149.207ZM182.219 167.766L182.219 169.562C182.219 176.068 187.994 181.865 192.703 183.906C198.146 186.264 208.588 185.33 216.209 185.33C214.262 188.217 206.467 191.916 201.326 191.916L197.102 191.916C192.104 191.916 184.09 187.381 182.016 184.533C180.117 181.922 179.127 181.223 177.494 177.842C176.363 175.496 175.379 172.104 175.379 168.766L175.379 166.969C175.379 155.379 186.502 144.217 198.309 144.217L201.525 144.217C206.184 144.217 214.67 148.227 216.41 150.803C208.375 150.803 198.227 149.875 192.41 152.336C187.193 154.545 182.217 160.428 182.217 167.766L182.217 167.766L182.219 167.766ZM160.295 167.566C160.295 156.516 165.697 146.74 171.307 141.174C174.562 137.941 177.758 135.305 182.146 133.168C185.42 131.574 192.219 129.25 196.902 129.25L200.32 129.25C204.926 129.25 210.262 130.508 213.531 131.906C215.693 132.83 217.117 133.336 219.029 134.434C220.658 135.371 222.393 136.664 223.854 137.43L223.854 145.812C222.453 144.881 221.232 143.209 219.43 142.021C217.723 140.898 216.334 140.035 214.336 139.092C211.373 137.693 205.543 135.836 201.328 135.836L197.707 135.836C189.049 135.836 180.834 140.9 176.436 145.266C172.137 149.531 166.934 158.018 166.934 166.371L166.934 169.365C166.934 185.211 181.928 200.299 197.908 200.299L200.725 200.299C205.932 200.299 210.52 198.629 214 196.906C215.938 195.943 217.598 195.051 219.285 193.77C220.029 193.199 223.467 190.225 223.855 190.121L223.855 197.904C223.855 199.098 216.389 203.314 214.83 203.92C211.879 205.062 206.785 206.887 202.734 206.887L197.102 206.887C186.293 206.887 176.623 200.232 171.105 194.76C165.16 188.861 160.295 179.342 160.295 167.568L160.295 167.568L160.295 167.566ZM202.934 215.266C205.707 215.266 211.43 213.943 213.711 213.186C217.129 212.047 219.611 210.963 222.582 209.414C228.24 206.461 232.543 202.506 236.357 197.738C240.084 193.088 243.67 187.939 247.537 183.484C249.225 181.541 258.045 170.891 258.045 168.764L258.045 166.967C258.045 162.807 249.854 154.883 247.465 151.719C243.826 146.898 239.381 142.518 235.799 137.75C229.553 129.436 215.84 120.865 201.324 120.865L197.904 120.865C173.592 120.865 151.844 142.756 151.844 166.967L151.844 168.764C151.844 193.381 173.414 215.266 198.105 215.266L202.934 215.266L202.934 215.266Z" fill="#FF0000" fill-opacity="1.000000" fill-rule="evenodd"/>
	</g>
</svg>
