<svg width="352.000000" height="188.000000" viewBox="0 0 352 188" fill="none" xmlns="http://www.w3.org/2000/svg" xmlns:xlink="http://www.w3.org/1999/xlink">
	<desc>
			Created with Pixso.
	</desc>
	<defs>
		<linearGradient id="paint_linear_1_7273_0" x1="22.000038" y1="163.999939" x2="329.999908" y2="57.273132" gradientUnits="userSpaceOnUse">
			<stop stop-color="#FFFFFF" stop-opacity="0.000000"/>
			<stop offset="1.000000" stop-color="#FFFFFF"/>
		</linearGradient>
		<linearGradient id="paint_linear_1_7274_0" x1="110.611237" y1="96.230698" x2="229.304977" y2="122.749649" gradientUnits="userSpaceOnUse">
			<stop stop-color="#FF0000"/>
			<stop offset="1.000000" stop-color="#FF0000" stop-opacity="0.141176"/>
		</linearGradient>
		<linearGradient id="paint_linear_1_7275_0" x1="42.302971" y1="134.461487" x2="67.877861" y2="157.080582" gradientUnits="userSpaceOnUse">
			<stop stop-color="#FF0000"/>
			<stop offset="1.000000" stop-color="#FF0000" stop-opacity="0.141176"/>
		</linearGradient>
		<linearGradient id="paint_linear_1_7276_0" x1="280.302979" y1="134.461487" x2="305.877869" y2="157.080582" gradientUnits="userSpaceOnUse">
			<stop stop-color="#FF0000"/>
			<stop offset="1.000000" stop-color="#FF0000" stop-opacity="0.141176"/>
		</linearGradient>
		<linearGradient id="paint_linear_1_7277_0" x1="15.384056" y1="1.000000" x2="208.999451" y2="1.000000" gradientUnits="userSpaceOnUse">
			<stop stop-color="#FFFFFF" stop-opacity="0.000000"/>
			<stop offset="0.526042" stop-color="#FFFFFF"/>
			<stop offset="1.000000" stop-color="#FFFFFF" stop-opacity="0.000000"/>
		</linearGradient>
		<linearGradient id="paint_linear_1_7278_0" x1="322.384064" y1="1.000000" x2="515.999451" y2="1.000000" gradientUnits="userSpaceOnUse">
			<stop stop-color="#FFFFFF" stop-opacity="0.000000"/>
			<stop offset="0.526042" stop-color="#FFFFFF"/>
			<stop offset="1.000000" stop-color="#FFFFFF" stop-opacity="0.000000"/>
		</linearGradient>
		<linearGradient id="paint_linear_1_7279_0" x1="-13.331085" y1="163.000000" x2="350.998932" y2="163.000000" gradientUnits="userSpaceOnUse">
			<stop stop-color="#FFFFFF" stop-opacity="0.000000"/>
			<stop offset="0.114117" stop-color="#FFFFFF"/>
			<stop offset="0.928587" stop-color="#FFFFFF"/>
			<stop offset="1.000000" stop-color="#FFFFFF" stop-opacity="0.000000"/>
		</linearGradient>
	</defs>
	<path id="Rectangle 542" d="M22 48.6016C22 48.6016 104.992 76.9512 176 48.6016C247.008 20.25 330 48.6016 330 48.6016L330 164L22 164L22 48.6016Z" fill="url(#paint_linear_1_7273_0)" fill-opacity="1.000000" fill-rule="nonzero"/>
	<path id="1 700 000 000 ₽" d="M254.73 112.896L254.73 115.464L258.354 115.464L258.354 112.896L262.05 112.896L262.05 110.568L258.354 110.568L258.354 108.696L259.914 108.696C261.578 108.696 262.89 108.448 263.85 107.952Q265.215 107.258 265.85 106.148Q265.896 106.067 265.938 105.984C266.354 105.168 266.562 104.296 266.562 103.368C266.562 101.8 266.05 100.568 265.026 99.672C264.018 98.776 262.41 98.328 260.202 98.328L254.73 98.328L254.73 105.72L252.81 105.72L252.81 108.696L254.73 108.696L254.73 110.568L252.81 110.568L252.81 112.896L254.73 112.896ZM258.354 105.72L259.554 105.72C260.242 105.72 260.834 105.648 261.33 105.504C261.826 105.344 262.21 105.096 262.482 104.76C262.754 104.424 262.89 104 262.89 103.488C262.89 102.752 262.658 102.208 262.194 101.856C261.73 101.488 261.002 101.304 260.01 101.304L258.354 101.304L258.354 105.72ZM115.902 107.472C115.902 111.6 117.942 115.752 122.526 115.752C127.086 115.752 129.15 111.6 129.15 107.472C129.15 103.344 127.086 99.216 122.526 99.216C117.942 99.216 115.902 103.344 115.902 107.472ZM130.785 107.472C130.785 111.6 132.825 115.752 137.409 115.752C141.969 115.752 144.033 111.6 144.033 107.472C144.033 103.344 141.969 99.216 137.409 99.216C132.825 99.216 130.785 103.344 130.785 107.472ZM151.808 107.472C151.808 111.6 153.848 115.752 158.432 115.752C162.992 115.752 165.056 111.6 165.056 107.472C165.056 103.344 162.992 99.216 158.432 99.216C153.848 99.216 151.808 103.344 151.808 107.472ZM166.691 107.472C166.691 111.6 168.731 115.752 173.315 115.752C177.875 115.752 179.939 111.6 179.939 107.472C179.939 103.344 177.875 99.216 173.315 99.216C168.731 99.216 166.691 103.344 166.691 107.472ZM181.574 107.472C181.574 111.6 183.614 115.752 188.198 115.752C192.758 115.752 194.822 111.6 194.822 107.472C194.822 103.344 192.758 99.216 188.198 99.216C183.614 99.216 181.574 103.344 181.574 107.472ZM202.597 107.472C202.597 111.6 204.637 115.752 209.221 115.752C213.781 115.752 215.845 111.6 215.845 107.472C215.845 103.344 213.781 99.216 209.221 99.216C204.637 99.216 202.597 103.344 202.597 107.472ZM217.48 107.472C217.48 111.6 219.52 115.752 224.104 115.752C228.664 115.752 230.728 111.6 230.728 107.472C230.728 103.344 228.664 99.216 224.104 99.216C219.52 99.216 217.48 103.344 217.48 107.472ZM232.363 107.472C232.363 111.6 234.403 115.752 238.987 115.752C243.547 115.752 245.611 111.6 245.611 107.472C245.611 103.344 243.547 99.216 238.987 99.216C234.403 99.216 232.363 103.344 232.363 107.472ZM90.872 115.464L94.28 115.464L94.28 99.456L91.304 99.456L86.264 104.52L88.208 106.56L90.872 103.848L90.872 115.464ZM104.912 115.464L108.656 115.464L114.608 101.832L114.608 99.456L102.584 99.456L102.584 102.456L110.648 102.456L104.912 115.464ZM125.67 107.472C125.67 110.424 124.806 112.728 122.526 112.728C120.222 112.728 119.358 110.424 119.358 107.472C119.358 104.52 120.222 102.24 122.526 102.24C124.806 102.24 125.67 104.52 125.67 107.472ZM140.553 107.472C140.553 110.424 139.689 112.728 137.409 112.728C135.105 112.728 134.241 110.424 134.241 107.472C134.241 104.52 135.105 102.24 137.409 102.24C139.689 102.24 140.553 104.52 140.553 107.472ZM161.576 107.472C161.576 110.424 160.712 112.728 158.432 112.728C156.128 112.728 155.264 110.424 155.264 107.472C155.264 104.52 156.128 102.24 158.432 102.24C160.712 102.24 161.576 104.52 161.576 107.472ZM176.459 107.472C176.459 110.424 175.595 112.728 173.315 112.728C171.011 112.728 170.147 110.424 170.147 107.472C170.147 104.52 171.011 102.24 173.315 102.24C175.595 102.24 176.459 104.52 176.459 107.472ZM191.342 107.472C191.342 110.424 190.478 112.728 188.198 112.728C185.894 112.728 185.03 110.424 185.03 107.472C185.03 104.52 185.894 102.24 188.198 102.24C190.478 102.24 191.342 104.52 191.342 107.472ZM212.365 107.472C212.365 110.424 211.501 112.728 209.221 112.728C206.917 112.728 206.053 110.424 206.053 107.472C206.053 104.52 206.917 102.24 209.221 102.24C211.501 102.24 212.365 104.52 212.365 107.472ZM227.248 107.472C227.248 110.424 226.384 112.728 224.104 112.728C221.8 112.728 220.936 110.424 220.936 107.472C220.936 104.52 221.8 102.24 224.104 102.24C226.384 102.24 227.248 104.52 227.248 107.472ZM242.131 107.472C242.131 110.424 241.267 112.728 238.987 112.728C236.683 112.728 235.819 110.424 235.819 107.472C235.819 104.52 236.683 102.24 238.987 102.24C241.267 102.24 242.131 104.52 242.131 107.472Z" fill="url(#paint_linear_1_7274_0)" fill-opacity="0.800000" fill-rule="evenodd"/>
	<path id="2018" d="M38.3909 148.91L38.3909 150.098L46.6349 150.098L46.6349 148.766L40.7489 148.766Q42.0089 147.776 43.0709 146.858Q44.1329 145.922 44.9069 145.04C45.4349 144.44 45.8429 143.846 46.1309 143.258Q46.5443 142.431 46.578 141.589Q46.5809 141.515 46.5809 141.44C46.5809 140.84 46.4609 140.318 46.2209 139.874Q45.9842 139.413 45.6353 139.064Q45.4802 138.909 45.3029 138.776C44.9309 138.488 44.5049 138.272 44.0249 138.128C43.5449 137.984 43.0529 137.912 42.5489 137.912Q41.5408 137.912 40.6334 138.214Q40.3906 138.295 40.1549 138.398C39.4229 138.722 38.8289 139.19 38.3729 139.802L39.2909 140.756C39.6389 140.3 40.0889 139.934 40.6409 139.658C41.1929 139.382 41.8289 139.244 42.5489 139.244Q42.7923 139.244 43.0308 139.278Q43.2509 139.31 43.4669 139.37C43.7669 139.454 44.0309 139.586 44.2589 139.766Q44.3714 139.85 44.4699 139.949Q44.6864 140.165 44.8349 140.45C44.9789 140.726 45.0509 141.056 45.0509 141.44C45.0509 141.956 44.9069 142.478 44.6189 143.006C44.3309 143.522 43.9049 144.08 43.3409 144.68Q42.4949 145.562 41.2529 146.606Q40.0109 147.632 38.3909 148.91ZM51.403 149.756C51.979 150.128 52.681 150.314 53.509 150.314C54.325 150.314 55.021 150.128 55.597 149.756C56.185 149.384 56.659 148.904 57.019 148.316C57.391 147.716 57.661 147.05 57.829 146.318C58.009 145.574 58.099 144.836 58.099 144.104C58.099 143.372 58.009 142.64 57.829 141.908C57.661 141.164 57.391 140.498 57.019 139.91C56.659 139.322 56.185 138.842 55.597 138.47C55.021 138.098 54.325 137.912 53.509 137.912Q52.267 137.912 51.403 138.47C50.827 138.842 50.353 139.322 49.981 139.91C49.609 140.498 49.339 141.164 49.171 141.908C49.003 142.64 48.919 143.372 48.919 144.104Q48.919 145.202 49.171 146.318C49.339 147.05 49.609 147.716 49.981 148.316C50.353 148.904 50.827 149.384 51.403 149.756ZM68.6681 150.098C69.1961 150.242 69.7601 150.314 70.3601 150.314C70.9481 150.314 71.5001 150.242 72.0161 150.098C72.5441 149.942 73.0001 149.726 73.3841 149.45C73.7801 149.174 74.0921 148.832 74.3201 148.424C74.5481 148.016 74.6621 147.56 74.6621 147.056C74.6621 146.66 74.5841 146.294 74.4281 145.958C74.2721 145.622 74.0621 145.322 73.7981 145.058C73.5341 144.782 73.2281 144.548 72.8801 144.356C72.5321 144.164 72.1721 144.014 71.8001 143.906C72.1481 143.81 72.4841 143.678 72.8081 143.51C73.1321 143.342 73.4141 143.144 73.6541 142.916C73.9061 142.676 74.1041 142.4 74.2481 142.088C74.4041 141.776 74.4821 141.422 74.4821 141.026Q74.4821 140.249 74.1344 139.688Q74.1196 139.664 74.1041 139.64Q73.9476 139.382 73.747 139.165Q73.486 138.882 73.1501 138.668C72.7661 138.404 72.3281 138.212 71.8361 138.092C71.3441 137.972 70.8521 137.912 70.3601 137.912C69.8561 137.912 69.3581 137.972 68.8661 138.092C68.3861 138.212 67.9481 138.404 67.5521 138.668Q67.2881 138.841 67.0695 139.06Q66.8111 139.318 66.6161 139.64C66.3761 140.024 66.2561 140.486 66.2561 141.026C66.2561 141.422 66.3281 141.776 66.4721 142.088C66.6281 142.4 66.8261 142.676 67.0661 142.916C67.3181 143.144 67.6001 143.342 67.9121 143.51C68.2361 143.678 68.5721 143.81 68.9201 143.906C68.5481 144.014 68.1881 144.164 67.8401 144.356C67.4921 144.548 67.1861 144.782 66.9221 145.058C66.6581 145.322 66.4481 145.622 66.2921 145.958C66.1361 146.294 66.0581 146.66 66.0581 147.056C66.0581 147.572 66.1721 148.034 66.4001 148.442C66.6281 148.838 66.9341 149.18 67.3181 149.468C67.7021 149.744 68.1521 149.954 68.6681 150.098ZM62.2265 140.072L62.2265 150.098L63.7205 150.098L63.7205 138.092L62.4065 138.092L59.4005 141.188L60.3005 142.106L62.2265 140.072ZM54.949 148.568C54.565 148.844 54.085 148.982 53.509 148.982Q52.6839 148.982 52.1051 148.604Q52.0778 148.587 52.051 148.568Q51.9697 148.507 51.8926 148.441Q51.4241 148.039 51.115 147.452C50.875 146.984 50.701 146.462 50.593 145.886C50.497 145.298 50.449 144.704 50.449 144.104Q50.449 143.204 50.593 142.34C50.701 141.752 50.875 141.23 51.115 140.774C51.355 140.318 51.667 139.952 52.051 139.676Q52.111 139.632 52.1739 139.593Q52.7324 139.244 53.509 139.244C54.085 139.244 54.565 139.388 54.949 139.676C55.345 139.952 55.663 140.318 55.903 140.774C56.143 141.23 56.311 141.752 56.407 142.34C56.515 142.916 56.569 143.504 56.569 144.104Q56.569 144.653 56.5088 145.195Q56.4702 145.542 56.407 145.886C56.311 146.462 56.143 146.984 55.903 147.452C55.663 147.908 55.345 148.28 54.949 148.568ZM71.0801 143.132C70.7801 143.204 70.5401 143.258 70.3601 143.294C70.1801 143.258 69.9401 143.204 69.6401 143.132C69.3521 143.048 69.0641 142.928 68.7761 142.772Q68.5813 142.653 68.4104 142.507Q68.2181 142.342 68.0561 142.142C67.8521 141.89 67.7501 141.584 67.7501 141.224Q67.7501 140.759 67.9456 140.401Q67.9468 140.398 67.9481 140.396C68.0921 140.144 68.2781 139.934 68.5061 139.766C68.7461 139.598 69.0221 139.472 69.3341 139.388C69.6581 139.292 70.0001 139.244 70.3601 139.244C70.7201 139.244 71.0561 139.292 71.3681 139.388C71.6921 139.472 71.9681 139.598 72.1961 139.766C72.4361 139.934 72.6221 140.144 72.7541 140.396C72.8981 140.636 72.9701 140.912 72.9701 141.224C72.9701 141.584 72.8681 141.89 72.6641 142.142C72.4601 142.394 72.2201 142.604 71.9441 142.772C71.6681 142.928 71.3801 143.048 71.0801 143.132ZM71.4221 148.838Q70.9181 148.982 70.3601 148.982C69.9881 148.982 69.6281 148.934 69.2801 148.838C68.9441 148.742 68.6441 148.604 68.3801 148.424C68.1281 148.244 67.9241 148.028 67.7681 147.776C67.6241 147.512 67.5521 147.218 67.5521 146.894C67.5521 146.498 67.6601 146.162 67.8761 145.886C68.1041 145.598 68.3681 145.364 68.6681 145.184C68.9801 144.992 69.2921 144.848 69.6041 144.752C69.9281 144.656 70.1801 144.596 70.3601 144.572C70.5401 144.596 70.7861 144.656 71.0981 144.752C71.4221 144.848 71.7341 144.992 72.0341 145.184C72.3341 145.364 72.5921 145.598 72.8081 145.886C73.0361 146.162 73.1501 146.498 73.1501 146.894C73.1501 147.218 73.0721 147.512 72.9161 147.776C72.7721 148.028 72.5681 148.244 72.3041 148.424C72.0521 148.604 71.7581 148.742 71.4221 148.838Z" fill="#64686A" fill-opacity="1.000000" fill-rule="evenodd"/>
	<path id="2021" d="M276.329 148.91L276.329 150.098L284.573 150.098L284.573 148.766L278.687 148.766Q279.947 147.776 281.009 146.858Q282.071 145.922 282.845 145.04C283.373 144.44 283.781 143.846 284.069 143.258Q284.483 142.431 284.516 141.589Q284.519 141.515 284.519 141.44C284.519 140.84 284.399 140.318 284.159 139.874Q283.923 139.413 283.574 139.064Q283.419 138.909 283.241 138.776C282.869 138.488 282.443 138.272 281.963 138.128C281.483 137.984 280.991 137.912 280.487 137.912Q279.479 137.912 278.572 138.214Q278.329 138.295 278.093 138.398C277.361 138.722 276.767 139.19 276.311 139.802L277.229 140.756C277.577 140.3 278.027 139.934 278.579 139.658C279.131 139.382 279.767 139.244 280.487 139.244Q280.731 139.244 280.969 139.278Q281.189 139.31 281.405 139.37C281.705 139.454 281.969 139.586 282.197 139.766Q282.31 139.85 282.408 139.949Q282.625 140.165 282.773 140.45Q282.989 140.864 282.989 141.44C282.989 141.956 282.845 142.478 282.557 143.006C282.269 143.522 281.843 144.08 281.279 144.68Q280.433 145.562 279.191 146.606Q277.949 147.632 276.329 148.91ZM289.341 149.756C289.917 150.128 290.619 150.314 291.447 150.314C292.263 150.314 292.959 150.128 293.535 149.756C294.123 149.384 294.597 148.904 294.957 148.316C295.329 147.716 295.599 147.05 295.767 146.318C295.947 145.574 296.037 144.836 296.037 144.104C296.037 143.372 295.947 142.64 295.767 141.908C295.599 141.164 295.329 140.498 294.957 139.91C294.597 139.322 294.123 138.842 293.535 138.47C292.959 138.098 292.263 137.912 291.447 137.912Q290.205 137.912 289.341 138.47C288.765 138.842 288.291 139.322 287.919 139.91C287.547 140.498 287.277 141.164 287.109 141.908C286.941 142.64 286.857 143.372 286.857 144.104Q286.857 145.202 287.109 146.318C287.277 147.05 287.547 147.716 287.919 148.316C288.291 148.904 288.765 149.384 289.341 149.756ZM297.933 148.91L297.933 150.098L306.177 150.098L306.177 148.766L300.291 148.766Q301.551 147.776 302.613 146.858Q303.675 145.922 304.449 145.04Q305.241 144.14 305.673 143.258C305.973 142.658 306.123 142.052 306.123 141.44C306.123 140.84 306.003 140.318 305.763 139.874Q305.526 139.413 305.177 139.064Q305.022 138.909 304.845 138.776C304.473 138.488 304.047 138.272 303.567 138.128C303.087 137.984 302.595 137.912 302.091 137.912Q301.083 137.912 300.175 138.214Q299.933 138.295 299.697 138.398C298.965 138.722 298.371 139.19 297.915 139.802L298.833 140.756C299.181 140.3 299.631 139.934 300.183 139.658C300.735 139.382 301.371 139.244 302.091 139.244Q302.334 139.244 302.573 139.278Q302.793 139.31 303.009 139.37C303.309 139.454 303.573 139.586 303.801 139.766C304.041 139.946 304.233 140.174 304.377 140.45C304.521 140.726 304.593 141.056 304.593 141.44C304.593 141.956 304.449 142.478 304.161 143.006C303.873 143.522 303.447 144.08 302.883 144.68C302.319 145.268 301.623 145.91 300.795 146.606Q299.553 147.632 297.933 148.91ZM310.747 140.072L310.747 150.098L312.241 150.098L312.241 138.092L310.927 138.092L307.921 141.188L308.821 142.106L310.747 140.072ZM292.887 148.568C292.503 148.844 292.023 148.982 291.447 148.982Q290.622 148.982 290.044 148.604Q290.016 148.587 289.989 148.568Q289.908 148.507 289.831 148.441Q289.363 148.039 289.053 147.452C288.813 146.984 288.639 146.462 288.531 145.886C288.435 145.298 288.387 144.704 288.387 144.104Q288.387 143.204 288.531 142.34C288.639 141.752 288.813 141.23 289.053 140.774C289.293 140.318 289.605 139.952 289.989 139.676Q290.05 139.632 290.112 139.593Q290.671 139.244 291.447 139.244C292.023 139.244 292.503 139.388 292.887 139.676C293.283 139.952 293.601 140.318 293.841 140.774C294.081 141.23 294.249 141.752 294.345 142.34C294.453 142.916 294.507 143.504 294.507 144.104Q294.507 144.653 294.447 145.195Q294.409 145.542 294.345 145.886C294.249 146.462 294.081 146.984 293.841 147.452C293.601 147.908 293.283 148.28 292.887 148.568Z" fill="#64686A" fill-opacity="1.000000" fill-rule="evenodd"/>
	<path id="Line 9" d="M23 1L23 187" stroke="url(#paint_linear_1_7277_0)" stroke-opacity="1.000000" stroke-width="2.000000" stroke-linecap="round"/>
	<path id="Line 10" d="M330 1L330 187" stroke="url(#paint_linear_1_7278_0)" stroke-opacity="1.000000" stroke-width="2.000000" stroke-linecap="round"/>
	<path id="Line 11" d="M1 163L351 163" stroke="url(#paint_linear_1_7279_0)" stroke-opacity="1.000000" stroke-width="2.000000" stroke-linecap="round"/>
</svg>
