<svg width="1311" height="761" viewBox="0 0 1311 761" fill="none" xmlns="http://www.w3.org/2000/svg">
<path d="M0.265625 144.062H1310.27" stroke="url(#paint0_linear_1_1465)" stroke-width="1.10083" stroke-dasharray="4 4"/>
<path d="M0.265625 119.062H1310.27" stroke="url(#paint1_linear_1_1465)" stroke-width="1.10083" stroke-dasharray="4 4"/>
<path d="M0.265625 94.0625H1310.27" stroke="url(#paint2_linear_1_1465)" stroke-width="1.10083" stroke-dasharray="4 4"/>
<path d="M0.265625 290.062H1310.27" stroke="url(#paint3_linear_1_1465)" stroke-width="1.10083" stroke-dasharray="4 4"/>
<path d="M0.265625 438.062H1310.27" stroke="url(#paint4_linear_1_1465)" stroke-width="1.10083" stroke-dasharray="4 4"/>
<path d="M0.265625 339.062H1310.27" stroke="url(#paint5_linear_1_1465)" stroke-width="1.10083" stroke-dasharray="4 4"/>
<path d="M0.265625 193.062H1310.27" stroke="url(#paint6_linear_1_1465)" stroke-width="1.10083" stroke-dasharray="4 4"/>
<path d="M0.265625 388.062H1310.27" stroke="url(#paint7_linear_1_1465)" stroke-width="1.10083" stroke-dasharray="4 4"/>
<path d="M0.265625 487.062H1310.27" stroke="url(#paint8_linear_1_1465)" stroke-width="1.10083" stroke-dasharray="4 4"/>
<path d="M0.265625 364.062H1310.27" stroke="url(#paint9_linear_1_1465)" stroke-width="1.10083" stroke-dasharray="4 4"/>
<path d="M0.265625 242.062H1310.27" stroke="url(#paint10_linear_1_1465)" stroke-width="1.10083" stroke-dasharray="4 4"/>
<path d="M0.265625 315.062H1310.27" stroke="url(#paint11_linear_1_1465)" stroke-width="1.10083" stroke-dasharray="4 4"/>
<path d="M0.265625 536.062H1310.27" stroke="url(#paint12_linear_1_1465)" stroke-width="1.10083" stroke-dasharray="4 4"/>
<path d="M0.265625 609.062H1310.27" stroke="url(#paint13_linear_1_1465)" stroke-width="1.10083" stroke-dasharray="4 4"/>
<path d="M0.265625 413.062H1310.27" stroke="url(#paint14_linear_1_1465)" stroke-width="1.10083" stroke-dasharray="4 4"/>
<path d="M0.265625 218.062H1310.27" stroke="url(#paint15_linear_1_1465)" stroke-width="1.10083" stroke-dasharray="4 4"/>
<path d="M0.265625 512.062H1310.27" stroke="url(#paint16_linear_1_1465)" stroke-width="1.10083" stroke-dasharray="4 4"/>
<path d="M0.265625 585.062H1310.27" stroke="url(#paint17_linear_1_1465)" stroke-width="1.10083" stroke-dasharray="4 4"/>
<path d="M0.265625 169.062H1310.27" stroke="url(#paint18_linear_1_1465)" stroke-width="1.10083" stroke-dasharray="4 4"/>
<path d="M0.265625 463.062H1310.27" stroke="url(#paint19_linear_1_1465)" stroke-width="1.10083" stroke-dasharray="4 4"/>
<path d="M0.265625 267.062H1310.27" stroke="url(#paint20_linear_1_1465)" stroke-width="1.10083" stroke-dasharray="4 4"/>
<path d="M0.265625 561.062H1310.27" stroke="url(#paint21_linear_1_1465)" stroke-width="1.10083" stroke-dasharray="4 4"/>
<path d="M0.265625 634.062H1310.27" stroke="url(#paint22_linear_1_1465)" stroke-width="1.10083" stroke-dasharray="4 4"/>
<line x1="48.2656" y1="1.0625" x2="48.2657" y2="759.062" stroke="url(#paint23_linear_1_1465)" stroke-width="2" stroke-linecap="round"/>
<line x1="199.266" y1="1.0625" x2="199.266" y2="759.062" stroke="url(#paint24_linear_1_1465)" stroke-width="2" stroke-linecap="round"/>
<line x1="350.266" y1="1.0625" x2="350.266" y2="759.062" stroke="url(#paint25_linear_1_1465)" stroke-width="2" stroke-linecap="round"/>
<line x1="501.266" y1="1.0625" x2="501.266" y2="759.062" stroke="url(#paint26_linear_1_1465)" stroke-width="2" stroke-linecap="round"/>
<line x1="652.266" y1="1.0625" x2="652.266" y2="759.062" stroke="url(#paint27_linear_1_1465)" stroke-width="2" stroke-linecap="round"/>
<line x1="803.266" y1="1.0625" x2="803.266" y2="759.062" stroke="url(#paint28_linear_1_1465)" stroke-width="2" stroke-linecap="round"/>
<line x1="954.266" y1="1.0625" x2="954.266" y2="759.062" stroke="url(#paint29_linear_1_1465)" stroke-width="2" stroke-linecap="round"/>
<line x1="1105.27" y1="1.0625" x2="1105.27" y2="759.062" stroke="url(#paint30_linear_1_1465)" stroke-width="2" stroke-linecap="round"/>
<line x1="1256.27" y1="1.0625" x2="1256.27" y2="759.062" stroke="url(#paint31_linear_1_1465)" stroke-width="2" stroke-linecap="round"/>
<path d="M350.726 684.732C349.898 684.732 349.196 684.546 348.62 684.174C348.044 683.802 347.57 683.322 347.198 682.734C346.826 682.134 346.556 681.468 346.388 680.736C346.22 679.992 346.136 679.254 346.136 678.522C346.136 677.79 346.22 677.058 346.388 676.326C346.556 675.582 346.826 674.916 347.198 674.328C347.57 673.74 348.044 673.26 348.62 672.888C349.196 672.516 349.898 672.33 350.726 672.33C351.542 672.33 352.238 672.516 352.814 672.888C353.402 673.26 353.876 673.74 354.236 674.328C354.608 674.916 354.878 675.582 355.046 676.326C355.226 677.058 355.316 677.79 355.316 678.522C355.316 679.254 355.226 679.992 355.046 680.736C354.878 681.468 354.608 682.134 354.236 682.734C353.876 683.322 353.402 683.802 352.814 684.174C352.238 684.546 351.542 684.732 350.726 684.732ZM350.726 683.4C351.302 683.4 351.782 683.262 352.166 682.986C352.562 682.698 352.88 682.326 353.12 681.87C353.36 681.402 353.528 680.88 353.624 680.304C353.732 679.716 353.786 679.122 353.786 678.522C353.786 677.922 353.732 677.334 353.624 676.758C353.528 676.17 353.36 675.648 353.12 675.192C352.88 674.736 352.562 674.37 352.166 674.094C351.782 673.806 351.302 673.662 350.726 673.662C350.15 673.662 349.664 673.806 349.268 674.094C348.884 674.37 348.572 674.736 348.332 675.192C348.092 675.648 347.918 676.17 347.81 676.758C347.714 677.334 347.666 677.922 347.666 678.522C347.666 679.122 347.714 679.716 347.81 680.304C347.918 680.88 348.092 681.402 348.332 681.87C348.572 682.326 348.884 682.698 349.268 682.986C349.664 683.262 350.15 683.4 350.726 683.4Z" fill="#64686A"/>
<path d="M497.41 684.516V683.328C498.49 682.476 499.444 681.708 500.272 681.024C501.1 680.328 501.796 679.686 502.36 679.098C502.924 678.498 503.35 677.94 503.638 677.424C503.926 676.896 504.07 676.374 504.07 675.858C504.07 675.474 503.998 675.144 503.854 674.868C503.71 674.592 503.518 674.364 503.278 674.184C503.05 674.004 502.786 673.872 502.486 673.788C502.186 673.704 501.88 673.662 501.568 673.662C500.848 673.662 500.212 673.8 499.66 674.076C499.108 674.352 498.658 674.718 498.31 675.174L497.392 674.22C497.848 673.608 498.442 673.14 499.174 672.816C499.918 672.492 500.716 672.33 501.568 672.33C502.072 672.33 502.564 672.402 503.044 672.546C503.524 672.69 503.95 672.906 504.322 673.194C504.706 673.482 505.012 673.848 505.24 674.292C505.48 674.736 505.6 675.258 505.6 675.858C505.6 676.47 505.45 677.076 505.15 677.676C504.862 678.264 504.454 678.858 503.926 679.458C503.41 680.046 502.798 680.652 502.09 681.276C501.382 681.888 500.608 682.524 499.768 683.184H505.654V684.516H497.41Z" fill="#64686A"/>
<path d="M653.992 684.516V681.474H648.286V680.232L653.434 672.51H655.486V680.16H657.178V681.474H655.486V684.516H653.992ZM653.992 673.896L649.78 680.16H653.992V673.896Z" fill="#64686A"/>
<path d="M803.955 684.732C803.115 684.732 802.401 684.564 801.813 684.228C801.225 683.88 800.745 683.424 800.373 682.86C800.013 682.284 799.749 681.624 799.581 680.88C799.413 680.136 799.329 679.356 799.329 678.54C799.329 677.724 799.425 676.944 799.617 676.2C799.809 675.444 800.103 674.784 800.499 674.22C800.907 673.644 801.417 673.188 802.029 672.852C802.641 672.504 803.367 672.33 804.207 672.33C804.987 672.33 805.641 672.468 806.169 672.744C806.709 673.008 807.165 673.35 807.537 673.77L806.781 674.886C806.469 674.526 806.121 674.232 805.737 674.004C805.353 673.776 804.843 673.662 804.207 673.662C803.631 673.662 803.127 673.8 802.695 674.076C802.275 674.34 801.921 674.694 801.633 675.138C801.357 675.582 801.153 676.086 801.021 676.65C800.889 677.214 800.823 677.79 800.823 678.378C800.823 678.462 800.823 678.54 800.823 678.612C800.823 678.684 800.829 678.762 800.841 678.846C800.973 678.642 801.147 678.432 801.363 678.216C801.591 677.988 801.855 677.784 802.155 677.604C802.455 677.424 802.779 677.274 803.127 677.154C803.487 677.034 803.859 676.974 804.243 676.974C804.783 676.974 805.287 677.058 805.755 677.226C806.235 677.382 806.655 677.622 807.015 677.946C807.375 678.258 807.657 678.654 807.861 679.134C808.065 679.614 808.167 680.172 808.167 680.808C808.167 681.336 808.071 681.84 807.879 682.32C807.687 682.788 807.411 683.202 807.051 683.562C806.691 683.922 806.247 684.21 805.719 684.426C805.203 684.63 804.615 684.732 803.955 684.732ZM803.901 683.4C804.369 683.4 804.771 683.322 805.107 683.166C805.455 683.01 805.743 682.812 805.971 682.572C806.199 682.32 806.367 682.044 806.475 681.744C806.595 681.444 806.655 681.15 806.655 680.862C806.655 680.418 806.583 680.034 806.439 679.71C806.295 679.386 806.097 679.116 805.845 678.9C805.593 678.684 805.299 678.528 804.963 678.432C804.627 678.324 804.267 678.27 803.883 678.27C803.283 678.27 802.713 678.438 802.173 678.774C801.645 679.098 801.213 679.53 800.877 680.07C800.913 680.442 800.991 680.826 801.111 681.222C801.243 681.618 801.423 681.978 801.651 682.302C801.891 682.626 802.191 682.89 802.551 683.094C802.923 683.298 803.373 683.4 803.901 683.4Z" fill="#64686A"/>
<path d="M954.737 684.732C954.137 684.732 953.573 684.66 953.045 684.516C952.529 684.372 952.079 684.162 951.695 683.886C951.311 683.598 951.005 683.256 950.777 682.86C950.549 682.452 950.435 681.99 950.435 681.474C950.435 681.078 950.513 680.712 950.669 680.376C950.825 680.04 951.035 679.74 951.299 679.476C951.563 679.2 951.869 678.966 952.217 678.774C952.565 678.582 952.925 678.432 953.297 678.324C952.949 678.228 952.613 678.096 952.289 677.928C951.977 677.76 951.695 677.562 951.443 677.334C951.203 677.094 951.005 676.818 950.849 676.506C950.705 676.194 950.633 675.84 950.633 675.444C950.633 674.904 950.753 674.442 950.993 674.058C951.233 673.662 951.545 673.338 951.929 673.086C952.325 672.822 952.763 672.63 953.243 672.51C953.735 672.39 954.233 672.33 954.737 672.33C955.229 672.33 955.721 672.39 956.213 672.51C956.705 672.63 957.143 672.822 957.527 673.086C957.923 673.338 958.241 673.662 958.481 674.058C958.733 674.442 958.859 674.904 958.859 675.444C958.859 675.84 958.781 676.194 958.625 676.506C958.481 676.818 958.283 677.094 958.031 677.334C957.791 677.562 957.509 677.76 957.185 677.928C956.861 678.096 956.525 678.228 956.177 678.324C956.549 678.432 956.909 678.582 957.257 678.774C957.605 678.966 957.911 679.2 958.175 679.476C958.439 679.74 958.649 680.04 958.805 680.376C958.961 680.712 959.039 681.078 959.039 681.474C959.039 681.978 958.925 682.434 958.697 682.842C958.469 683.25 958.157 683.592 957.761 683.868C957.377 684.144 956.921 684.36 956.393 684.516C955.877 684.66 955.325 684.732 954.737 684.732ZM954.737 677.712C954.917 677.676 955.157 677.622 955.457 677.55C955.757 677.466 956.045 677.346 956.321 677.19C956.597 677.022 956.837 676.812 957.041 676.56C957.245 676.308 957.347 676.002 957.347 675.642C957.347 675.33 957.275 675.054 957.131 674.814C956.999 674.562 956.813 674.352 956.573 674.184C956.345 674.016 956.069 673.89 955.745 673.806C955.433 673.71 955.097 673.662 954.737 673.662C954.377 673.662 954.035 673.71 953.711 673.806C953.399 673.89 953.123 674.016 952.883 674.184C952.655 674.352 952.469 674.562 952.325 674.814C952.193 675.054 952.127 675.33 952.127 675.642C952.127 676.002 952.229 676.308 952.433 676.56C952.637 676.812 952.877 677.022 953.153 677.19C953.441 677.346 953.729 677.466 954.017 677.55C954.317 677.622 954.557 677.676 954.737 677.712ZM954.737 683.4C955.109 683.4 955.463 683.352 955.799 683.256C956.135 683.16 956.429 683.022 956.681 682.842C956.945 682.662 957.149 682.446 957.293 682.194C957.449 681.93 957.527 681.636 957.527 681.312C957.527 680.916 957.413 680.58 957.185 680.304C956.969 680.016 956.711 679.782 956.411 679.602C956.111 679.41 955.799 679.266 955.475 679.17C955.163 679.074 954.917 679.014 954.737 678.99C954.557 679.014 954.305 679.074 953.981 679.17C953.669 679.266 953.357 679.41 953.045 679.602C952.745 679.782 952.481 680.016 952.253 680.304C952.037 680.58 951.929 680.916 951.929 681.312C951.929 681.636 952.001 681.93 952.145 682.194C952.301 682.446 952.505 682.662 952.757 682.842C953.021 683.022 953.321 683.16 953.657 683.256C954.005 683.352 954.365 683.4 954.737 683.4Z" fill="#64686A"/>
<path d="M1101.87 684.516V674.49L1099.95 676.524L1099.05 675.606L1102.05 672.51H1103.37V684.516H1101.87ZM1110.28 684.732C1109.45 684.732 1108.75 684.546 1108.17 684.174C1107.59 683.802 1107.12 683.322 1106.75 682.734C1106.38 682.134 1106.11 681.468 1105.94 680.736C1105.77 679.992 1105.69 679.254 1105.69 678.522C1105.69 677.79 1105.77 677.058 1105.94 676.326C1106.11 675.582 1106.38 674.916 1106.75 674.328C1107.12 673.74 1107.59 673.26 1108.17 672.888C1108.75 672.516 1109.45 672.33 1110.28 672.33C1111.09 672.33 1111.79 672.516 1112.36 672.888C1112.95 673.26 1113.43 673.74 1113.79 674.328C1114.16 674.916 1114.43 675.582 1114.6 676.326C1114.78 677.058 1114.87 677.79 1114.87 678.522C1114.87 679.254 1114.78 679.992 1114.6 680.736C1114.43 681.468 1114.16 682.134 1113.79 682.734C1113.43 683.322 1112.95 683.802 1112.36 684.174C1111.79 684.546 1111.09 684.732 1110.28 684.732ZM1110.28 683.4C1110.85 683.4 1111.33 683.262 1111.72 682.986C1112.11 682.698 1112.43 682.326 1112.67 681.87C1112.91 681.402 1113.08 680.88 1113.17 680.304C1113.28 679.716 1113.34 679.122 1113.34 678.522C1113.34 677.922 1113.28 677.334 1113.17 676.758C1113.08 676.17 1112.91 675.648 1112.67 675.192C1112.43 674.736 1112.11 674.37 1111.72 674.094C1111.33 673.806 1110.85 673.662 1110.28 673.662C1109.7 673.662 1109.21 673.806 1108.82 674.094C1108.43 674.37 1108.12 674.736 1107.88 675.192C1107.64 675.648 1107.47 676.17 1107.36 676.758C1107.26 677.334 1107.22 677.922 1107.22 678.522C1107.22 679.122 1107.26 679.716 1107.36 680.304C1107.47 680.88 1107.64 681.402 1107.88 681.87C1108.12 682.326 1108.43 682.698 1108.82 682.986C1109.21 683.262 1109.7 683.4 1110.28 683.4Z" fill="#64686A"/>
<path d="M252.47 149.148V147.96C253.55 147.108 254.504 146.34 255.332 145.656C256.16 144.96 256.856 144.318 257.42 143.73C257.984 143.13 258.41 142.572 258.698 142.056C258.986 141.528 259.13 141.006 259.13 140.49C259.13 140.106 259.058 139.776 258.914 139.5C258.77 139.224 258.578 138.996 258.338 138.816C258.11 138.636 257.846 138.504 257.546 138.42C257.246 138.336 256.94 138.294 256.628 138.294C255.908 138.294 255.272 138.432 254.72 138.708C254.168 138.984 253.718 139.35 253.37 139.806L252.452 138.852C252.908 138.24 253.502 137.772 254.234 137.448C254.978 137.124 255.776 136.962 256.628 136.962C257.132 136.962 257.624 137.034 258.104 137.178C258.584 137.322 259.01 137.538 259.382 137.826C259.766 138.114 260.072 138.48 260.3 138.924C260.54 139.368 260.66 139.89 260.66 140.49C260.66 141.102 260.51 141.708 260.21 142.308C259.922 142.896 259.514 143.49 258.986 144.09C258.47 144.678 257.858 145.284 257.15 145.908C256.442 146.52 255.668 147.156 254.828 147.816H260.714V149.148H252.47ZM267.588 149.364C266.76 149.364 266.058 149.178 265.482 148.806C264.906 148.434 264.432 147.954 264.06 147.366C263.688 146.766 263.418 146.1 263.25 145.368C263.082 144.624 262.998 143.886 262.998 143.154C262.998 142.422 263.082 141.69 263.25 140.958C263.418 140.214 263.688 139.548 264.06 138.96C264.432 138.372 264.906 137.892 265.482 137.52C266.058 137.148 266.76 136.962 267.588 136.962C268.404 136.962 269.1 137.148 269.676 137.52C270.264 137.892 270.738 138.372 271.098 138.96C271.47 139.548 271.74 140.214 271.908 140.958C272.088 141.69 272.178 142.422 272.178 143.154C272.178 143.886 272.088 144.624 271.908 145.368C271.74 146.1 271.47 146.766 271.098 147.366C270.738 147.954 270.264 148.434 269.676 148.806C269.1 149.178 268.404 149.364 267.588 149.364ZM267.588 148.032C268.164 148.032 268.644 147.894 269.028 147.618C269.424 147.33 269.742 146.958 269.982 146.502C270.222 146.034 270.39 145.512 270.486 144.936C270.594 144.348 270.648 143.754 270.648 143.154C270.648 142.554 270.594 141.966 270.486 141.39C270.39 140.802 270.222 140.28 269.982 139.824C269.742 139.368 269.424 139.002 269.028 138.726C268.644 138.438 268.164 138.294 267.588 138.294C267.012 138.294 266.526 138.438 266.13 138.726C265.746 139.002 265.434 139.368 265.194 139.824C264.954 140.28 264.78 140.802 264.672 141.39C264.576 141.966 264.528 142.554 264.528 143.154C264.528 143.754 264.576 144.348 264.672 144.936C264.78 145.512 264.954 146.034 265.194 146.502C265.434 146.958 265.746 147.33 266.13 147.618C266.526 147.894 267.012 148.032 267.588 148.032ZM274.074 149.148V147.96C275.154 147.108 276.108 146.34 276.936 145.656C277.764 144.96 278.46 144.318 279.024 143.73C279.588 143.13 280.014 142.572 280.302 142.056C280.59 141.528 280.734 141.006 280.734 140.49C280.734 140.106 280.662 139.776 280.518 139.5C280.374 139.224 280.182 138.996 279.942 138.816C279.714 138.636 279.45 138.504 279.15 138.42C278.85 138.336 278.544 138.294 278.232 138.294C277.512 138.294 276.876 138.432 276.324 138.708C275.772 138.984 275.322 139.35 274.974 139.806L274.056 138.852C274.512 138.24 275.106 137.772 275.838 137.448C276.582 137.124 277.38 136.962 278.232 136.962C278.736 136.962 279.228 137.034 279.708 137.178C280.188 137.322 280.614 137.538 280.986 137.826C281.37 138.114 281.676 138.48 281.904 138.924C282.144 139.368 282.264 139.89 282.264 140.49C282.264 141.102 282.114 141.708 281.814 142.308C281.526 142.896 281.118 143.49 280.59 144.09C280.074 144.678 279.462 145.284 278.754 145.908C278.046 146.52 277.272 147.156 276.432 147.816H282.318V149.148H274.074ZM284.656 149.148V147.96C285.736 147.108 286.69 146.34 287.518 145.656C288.346 144.96 289.042 144.318 289.606 143.73C290.17 143.13 290.596 142.572 290.884 142.056C291.172 141.528 291.316 141.006 291.316 140.49C291.316 140.106 291.244 139.776 291.1 139.5C290.956 139.224 290.764 138.996 290.524 138.816C290.296 138.636 290.032 138.504 289.732 138.42C289.432 138.336 289.126 138.294 288.814 138.294C288.094 138.294 287.458 138.432 286.906 138.708C286.354 138.984 285.904 139.35 285.556 139.806L284.638 138.852C285.094 138.24 285.688 137.772 286.42 137.448C287.164 137.124 287.962 136.962 288.814 136.962C289.318 136.962 289.81 137.034 290.29 137.178C290.77 137.322 291.196 137.538 291.568 137.826C291.952 138.114 292.258 138.48 292.486 138.924C292.726 139.368 292.846 139.89 292.846 140.49C292.846 141.102 292.696 141.708 292.396 142.308C292.108 142.896 291.7 143.49 291.172 144.09C290.656 144.678 290.044 145.284 289.336 145.908C288.628 146.52 287.854 147.156 287.014 147.816H292.9V149.148H284.656Z" fill="#64686A"/>
<path d="M252.486 198.148V196.96C253.566 196.108 254.52 195.34 255.348 194.656C256.176 193.96 256.872 193.318 257.436 192.73C258 192.13 258.426 191.572 258.714 191.056C259.002 190.528 259.146 190.006 259.146 189.49C259.146 189.106 259.074 188.776 258.93 188.5C258.786 188.224 258.594 187.996 258.354 187.816C258.126 187.636 257.862 187.504 257.562 187.42C257.262 187.336 256.956 187.294 256.644 187.294C255.924 187.294 255.288 187.432 254.736 187.708C254.184 187.984 253.734 188.35 253.386 188.806L252.468 187.852C252.924 187.24 253.518 186.772 254.25 186.448C254.994 186.124 255.792 185.962 256.644 185.962C257.148 185.962 257.64 186.034 258.12 186.178C258.6 186.322 259.026 186.538 259.398 186.826C259.782 187.114 260.088 187.48 260.316 187.924C260.556 188.368 260.676 188.89 260.676 189.49C260.676 190.102 260.526 190.708 260.226 191.308C259.938 191.896 259.53 192.49 259.002 193.09C258.486 193.678 257.874 194.284 257.166 194.908C256.458 195.52 255.684 196.156 254.844 196.816H260.73V198.148H252.486ZM269.134 198.364C268.306 198.364 267.604 198.178 267.028 197.806C266.452 197.434 265.978 196.954 265.606 196.366C265.234 195.766 264.964 195.1 264.796 194.368C264.628 193.624 264.544 192.886 264.544 192.154C264.544 191.422 264.628 190.69 264.796 189.958C264.964 189.214 265.234 188.548 265.606 187.96C265.978 187.372 266.452 186.892 267.028 186.52C267.604 186.148 268.306 185.962 269.134 185.962C269.95 185.962 270.646 186.148 271.222 186.52C271.81 186.892 272.284 187.372 272.644 187.96C273.016 188.548 273.286 189.214 273.454 189.958C273.634 190.69 273.724 191.422 273.724 192.154C273.724 192.886 273.634 193.624 273.454 194.368C273.286 195.1 273.016 195.766 272.644 196.366C272.284 196.954 271.81 197.434 271.222 197.806C270.646 198.178 269.95 198.364 269.134 198.364ZM269.134 197.032C269.71 197.032 270.19 196.894 270.574 196.618C270.97 196.33 271.288 195.958 271.528 195.502C271.768 195.034 271.936 194.512 272.032 193.936C272.14 193.348 272.194 192.754 272.194 192.154C272.194 191.554 272.14 190.966 272.032 190.39C271.936 189.802 271.768 189.28 271.528 188.824C271.288 188.368 270.97 188.002 270.574 187.726C270.19 187.438 269.71 187.294 269.134 187.294C268.558 187.294 268.072 187.438 267.676 187.726C267.292 188.002 266.98 188.368 266.74 188.824C266.5 189.28 266.326 189.802 266.218 190.39C266.122 190.966 266.074 191.554 266.074 192.154C266.074 192.754 266.122 193.348 266.218 193.936C266.326 194.512 266.5 195.034 266.74 195.502C266.98 195.958 267.292 196.33 267.676 196.618C268.072 196.894 268.558 197.032 269.134 197.032ZM279.381 198.148V188.122L277.455 190.156L276.555 189.238L279.561 186.142H280.875V198.148H279.381ZM289.045 198.364C288.445 198.364 287.881 198.292 287.353 198.148C286.837 198.004 286.387 197.794 286.003 197.518C285.619 197.23 285.313 196.888 285.085 196.492C284.857 196.084 284.743 195.622 284.743 195.106C284.743 194.71 284.821 194.344 284.977 194.008C285.133 193.672 285.343 193.372 285.607 193.108C285.871 192.832 286.177 192.598 286.525 192.406C286.873 192.214 287.233 192.064 287.605 191.956C287.257 191.86 286.921 191.728 286.597 191.56C286.285 191.392 286.003 191.194 285.751 190.966C285.511 190.726 285.313 190.45 285.157 190.138C285.013 189.826 284.941 189.472 284.941 189.076C284.941 188.536 285.061 188.074 285.301 187.69C285.541 187.294 285.853 186.97 286.237 186.718C286.633 186.454 287.071 186.262 287.551 186.142C288.043 186.022 288.541 185.962 289.045 185.962C289.537 185.962 290.029 186.022 290.521 186.142C291.013 186.262 291.451 186.454 291.835 186.718C292.231 186.97 292.549 187.294 292.789 187.69C293.041 188.074 293.167 188.536 293.167 189.076C293.167 189.472 293.089 189.826 292.933 190.138C292.789 190.45 292.591 190.726 292.339 190.966C292.099 191.194 291.817 191.392 291.493 191.56C291.169 191.728 290.833 191.86 290.485 191.956C290.857 192.064 291.217 192.214 291.565 192.406C291.913 192.598 292.219 192.832 292.483 193.108C292.747 193.372 292.957 193.672 293.113 194.008C293.269 194.344 293.347 194.71 293.347 195.106C293.347 195.61 293.233 196.066 293.005 196.474C292.777 196.882 292.465 197.224 292.069 197.5C291.685 197.776 291.229 197.992 290.701 198.148C290.185 198.292 289.633 198.364 289.045 198.364ZM289.045 191.344C289.225 191.308 289.465 191.254 289.765 191.182C290.065 191.098 290.353 190.978 290.629 190.822C290.905 190.654 291.145 190.444 291.349 190.192C291.553 189.94 291.655 189.634 291.655 189.274C291.655 188.962 291.583 188.686 291.439 188.446C291.307 188.194 291.121 187.984 290.881 187.816C290.653 187.648 290.377 187.522 290.053 187.438C289.741 187.342 289.405 187.294 289.045 187.294C288.685 187.294 288.343 187.342 288.019 187.438C287.707 187.522 287.431 187.648 287.191 187.816C286.963 187.984 286.777 188.194 286.633 188.446C286.501 188.686 286.435 188.962 286.435 189.274C286.435 189.634 286.537 189.94 286.741 190.192C286.945 190.444 287.185 190.654 287.461 190.822C287.749 190.978 288.037 191.098 288.325 191.182C288.625 191.254 288.865 191.308 289.045 191.344ZM289.045 197.032C289.417 197.032 289.771 196.984 290.107 196.888C290.443 196.792 290.737 196.654 290.989 196.474C291.253 196.294 291.457 196.078 291.601 195.826C291.757 195.562 291.835 195.268 291.835 194.944C291.835 194.548 291.721 194.212 291.493 193.936C291.277 193.648 291.019 193.414 290.719 193.234C290.419 193.042 290.107 192.898 289.783 192.802C289.471 192.706 289.225 192.646 289.045 192.622C288.865 192.646 288.613 192.706 288.289 192.802C287.977 192.898 287.665 193.042 287.353 193.234C287.053 193.414 286.789 193.648 286.561 193.936C286.345 194.212 286.237 194.548 286.237 194.944C286.237 195.268 286.309 195.562 286.453 195.826C286.609 196.078 286.813 196.294 287.065 196.474C287.329 196.654 287.629 196.792 287.965 196.888C288.313 196.984 288.673 197.032 289.045 197.032Z" fill="#64686A"/>
<path d="M252.31 247.148V245.96C253.39 245.108 254.344 244.34 255.172 243.656C256 242.96 256.696 242.318 257.26 241.73C257.824 241.13 258.25 240.572 258.538 240.056C258.826 239.528 258.97 239.006 258.97 238.49C258.97 238.106 258.898 237.776 258.754 237.5C258.61 237.224 258.418 236.996 258.178 236.816C257.95 236.636 257.686 236.504 257.386 236.42C257.086 236.336 256.78 236.294 256.468 236.294C255.748 236.294 255.112 236.432 254.56 236.708C254.008 236.984 253.558 237.35 253.21 237.806L252.292 236.852C252.748 236.24 253.342 235.772 254.074 235.448C254.818 235.124 255.616 234.962 256.468 234.962C256.972 234.962 257.464 235.034 257.944 235.178C258.424 235.322 258.85 235.538 259.222 235.826C259.606 236.114 259.912 236.48 260.14 236.924C260.38 237.368 260.5 237.89 260.5 238.49C260.5 239.102 260.35 239.708 260.05 240.308C259.762 240.896 259.354 241.49 258.826 242.09C258.31 242.678 257.698 243.284 256.99 243.908C256.282 244.52 255.508 245.156 254.668 245.816H260.554V247.148H252.31ZM268.958 247.364C268.13 247.364 267.428 247.178 266.852 246.806C266.276 246.434 265.802 245.954 265.43 245.366C265.058 244.766 264.788 244.1 264.62 243.368C264.452 242.624 264.368 241.886 264.368 241.154C264.368 240.422 264.452 239.69 264.62 238.958C264.788 238.214 265.058 237.548 265.43 236.96C265.802 236.372 266.276 235.892 266.852 235.52C267.428 235.148 268.13 234.962 268.958 234.962C269.774 234.962 270.47 235.148 271.046 235.52C271.634 235.892 272.108 236.372 272.468 236.96C272.84 237.548 273.11 238.214 273.278 238.958C273.458 239.69 273.548 240.422 273.548 241.154C273.548 241.886 273.458 242.624 273.278 243.368C273.11 244.1 272.84 244.766 272.468 245.366C272.108 245.954 271.634 246.434 271.046 246.806C270.47 247.178 269.774 247.364 268.958 247.364ZM268.958 246.032C269.534 246.032 270.014 245.894 270.398 245.618C270.794 245.33 271.112 244.958 271.352 244.502C271.592 244.034 271.76 243.512 271.856 242.936C271.964 242.348 272.018 241.754 272.018 241.154C272.018 240.554 271.964 239.966 271.856 239.39C271.76 238.802 271.592 238.28 271.352 237.824C271.112 237.368 270.794 237.002 270.398 236.726C270.014 236.438 269.534 236.294 268.958 236.294C268.382 236.294 267.896 236.438 267.5 236.726C267.116 237.002 266.804 237.368 266.564 237.824C266.324 238.28 266.15 238.802 266.042 239.39C265.946 239.966 265.898 240.554 265.898 241.154C265.898 241.754 265.946 242.348 266.042 242.936C266.15 243.512 266.324 244.034 266.564 244.502C266.804 244.958 267.116 245.33 267.5 245.618C267.896 245.894 268.382 246.032 268.958 246.032ZM279.205 247.148V237.122L277.279 239.156L276.379 238.238L279.385 235.142H280.699V247.148H279.205ZM289.175 247.364C288.335 247.364 287.621 247.196 287.033 246.86C286.445 246.512 285.965 246.056 285.593 245.492C285.233 244.916 284.969 244.256 284.801 243.512C284.633 242.768 284.549 241.988 284.549 241.172C284.549 240.356 284.645 239.576 284.837 238.832C285.029 238.076 285.323 237.416 285.719 236.852C286.127 236.276 286.637 235.82 287.249 235.484C287.861 235.136 288.587 234.962 289.427 234.962C290.207 234.962 290.861 235.1 291.389 235.376C291.929 235.64 292.385 235.982 292.757 236.402L292.001 237.518C291.689 237.158 291.341 236.864 290.957 236.636C290.573 236.408 290.063 236.294 289.427 236.294C288.851 236.294 288.347 236.432 287.915 236.708C287.495 236.972 287.141 237.326 286.853 237.77C286.577 238.214 286.373 238.718 286.241 239.282C286.109 239.846 286.043 240.422 286.043 241.01C286.043 241.094 286.043 241.172 286.043 241.244C286.043 241.316 286.049 241.394 286.061 241.478C286.193 241.274 286.367 241.064 286.583 240.848C286.811 240.62 287.075 240.416 287.375 240.236C287.675 240.056 287.999 239.906 288.347 239.786C288.707 239.666 289.079 239.606 289.463 239.606C290.003 239.606 290.507 239.69 290.975 239.858C291.455 240.014 291.875 240.254 292.235 240.578C292.595 240.89 292.877 241.286 293.081 241.766C293.285 242.246 293.387 242.804 293.387 243.44C293.387 243.968 293.291 244.472 293.099 244.952C292.907 245.42 292.631 245.834 292.271 246.194C291.911 246.554 291.467 246.842 290.939 247.058C290.423 247.262 289.835 247.364 289.175 247.364ZM289.121 246.032C289.589 246.032 289.991 245.954 290.327 245.798C290.675 245.642 290.963 245.444 291.191 245.204C291.419 244.952 291.587 244.676 291.695 244.376C291.815 244.076 291.875 243.782 291.875 243.494C291.875 243.05 291.803 242.666 291.659 242.342C291.515 242.018 291.317 241.748 291.065 241.532C290.813 241.316 290.519 241.16 290.183 241.064C289.847 240.956 289.487 240.902 289.103 240.902C288.503 240.902 287.933 241.07 287.393 241.406C286.865 241.73 286.433 242.162 286.097 242.702C286.133 243.074 286.211 243.458 286.331 243.854C286.463 244.25 286.643 244.61 286.871 244.934C287.111 245.258 287.411 245.522 287.771 245.726C288.143 245.93 288.593 246.032 289.121 246.032Z" fill="#64686A"/>
<path d="M252.907 296.148V294.96C253.987 294.108 254.941 293.34 255.769 292.656C256.597 291.96 257.293 291.318 257.857 290.73C258.421 290.13 258.847 289.572 259.135 289.056C259.423 288.528 259.567 288.006 259.567 287.49C259.567 287.106 259.495 286.776 259.351 286.5C259.207 286.224 259.015 285.996 258.775 285.816C258.547 285.636 258.283 285.504 257.983 285.42C257.683 285.336 257.377 285.294 257.065 285.294C256.345 285.294 255.709 285.432 255.157 285.708C254.605 285.984 254.155 286.35 253.807 286.806L252.889 285.852C253.345 285.24 253.939 284.772 254.671 284.448C255.415 284.124 256.213 283.962 257.065 283.962C257.569 283.962 258.061 284.034 258.541 284.178C259.021 284.322 259.447 284.538 259.819 284.826C260.203 285.114 260.509 285.48 260.737 285.924C260.977 286.368 261.097 286.89 261.097 287.49C261.097 288.102 260.947 288.708 260.647 289.308C260.359 289.896 259.951 290.49 259.423 291.09C258.907 291.678 258.295 292.284 257.587 292.908C256.879 293.52 256.105 294.156 255.265 294.816H261.151V296.148H252.907ZM269.555 296.364C268.727 296.364 268.025 296.178 267.449 295.806C266.873 295.434 266.399 294.954 266.027 294.366C265.655 293.766 265.385 293.1 265.217 292.368C265.049 291.624 264.965 290.886 264.965 290.154C264.965 289.422 265.049 288.69 265.217 287.958C265.385 287.214 265.655 286.548 266.027 285.96C266.399 285.372 266.873 284.892 267.449 284.52C268.025 284.148 268.727 283.962 269.555 283.962C270.371 283.962 271.067 284.148 271.643 284.52C272.231 284.892 272.705 285.372 273.065 285.96C273.437 286.548 273.707 287.214 273.875 287.958C274.055 288.69 274.145 289.422 274.145 290.154C274.145 290.886 274.055 291.624 273.875 292.368C273.707 293.1 273.437 293.766 273.065 294.366C272.705 294.954 272.231 295.434 271.643 295.806C271.067 296.178 270.371 296.364 269.555 296.364ZM269.555 295.032C270.131 295.032 270.611 294.894 270.995 294.618C271.391 294.33 271.709 293.958 271.949 293.502C272.189 293.034 272.357 292.512 272.453 291.936C272.561 291.348 272.615 290.754 272.615 290.154C272.615 289.554 272.561 288.966 272.453 288.39C272.357 287.802 272.189 287.28 271.949 286.824C271.709 286.368 271.391 286.002 270.995 285.726C270.611 285.438 270.131 285.294 269.555 285.294C268.979 285.294 268.493 285.438 268.097 285.726C267.713 286.002 267.401 286.368 267.161 286.824C266.921 287.28 266.747 287.802 266.639 288.39C266.543 288.966 266.495 289.554 266.495 290.154C266.495 290.754 266.543 291.348 266.639 291.936C266.747 292.512 266.921 293.034 267.161 293.502C267.401 293.958 267.713 294.33 268.097 294.618C268.493 294.894 268.979 295.032 269.555 295.032ZM279.803 296.148V286.122L277.877 288.156L276.977 287.238L279.983 284.142H281.297V296.148H279.803ZM290.511 296.148V293.106H284.805V291.864L289.953 284.142H292.005V291.792H293.697V293.106H292.005V296.148H290.511ZM290.511 285.528L286.299 291.792H290.511V285.528Z" fill="#64686A"/>
<path d="M252.362 345.148V343.96C253.442 343.108 254.396 342.34 255.224 341.656C256.052 340.96 256.748 340.318 257.312 339.73C257.876 339.13 258.302 338.572 258.59 338.056C258.878 337.528 259.022 337.006 259.022 336.49C259.022 336.106 258.95 335.776 258.806 335.5C258.662 335.224 258.47 334.996 258.23 334.816C258.002 334.636 257.738 334.504 257.438 334.42C257.138 334.336 256.832 334.294 256.52 334.294C255.8 334.294 255.164 334.432 254.612 334.708C254.06 334.984 253.61 335.35 253.262 335.806L252.344 334.852C252.8 334.24 253.394 333.772 254.126 333.448C254.87 333.124 255.668 332.962 256.52 332.962C257.024 332.962 257.516 333.034 257.996 333.178C258.476 333.322 258.902 333.538 259.274 333.826C259.658 334.114 259.964 334.48 260.192 334.924C260.432 335.368 260.552 335.89 260.552 336.49C260.552 337.102 260.402 337.708 260.102 338.308C259.814 338.896 259.406 339.49 258.878 340.09C258.362 340.678 257.75 341.284 257.042 341.908C256.334 342.52 255.56 343.156 254.72 343.816H260.606V345.148H252.362ZM269.01 345.364C268.182 345.364 267.48 345.178 266.904 344.806C266.328 344.434 265.854 343.954 265.482 343.366C265.11 342.766 264.84 342.1 264.672 341.368C264.504 340.624 264.42 339.886 264.42 339.154C264.42 338.422 264.504 337.69 264.672 336.958C264.84 336.214 265.11 335.548 265.482 334.96C265.854 334.372 266.328 333.892 266.904 333.52C267.48 333.148 268.182 332.962 269.01 332.962C269.826 332.962 270.522 333.148 271.098 333.52C271.686 333.892 272.16 334.372 272.52 334.96C272.892 335.548 273.162 336.214 273.33 336.958C273.51 337.69 273.6 338.422 273.6 339.154C273.6 339.886 273.51 340.624 273.33 341.368C273.162 342.1 272.892 342.766 272.52 343.366C272.16 343.954 271.686 344.434 271.098 344.806C270.522 345.178 269.826 345.364 269.01 345.364ZM269.01 344.032C269.586 344.032 270.066 343.894 270.45 343.618C270.846 343.33 271.164 342.958 271.404 342.502C271.644 342.034 271.812 341.512 271.908 340.936C272.016 340.348 272.07 339.754 272.07 339.154C272.07 338.554 272.016 337.966 271.908 337.39C271.812 336.802 271.644 336.28 271.404 335.824C271.164 335.368 270.846 335.002 270.45 334.726C270.066 334.438 269.586 334.294 269.01 334.294C268.434 334.294 267.948 334.438 267.552 334.726C267.168 335.002 266.856 335.368 266.616 335.824C266.376 336.28 266.202 336.802 266.094 337.39C265.998 337.966 265.95 338.554 265.95 339.154C265.95 339.754 265.998 340.348 266.094 340.936C266.202 341.512 266.376 342.034 266.616 342.502C266.856 342.958 267.168 343.33 267.552 343.618C267.948 343.894 268.434 344.032 269.01 344.032ZM279.258 345.148V335.122L277.332 337.156L276.432 336.238L279.438 333.142H280.752V345.148H279.258ZM284.656 345.148V343.96C285.736 343.108 286.69 342.34 287.518 341.656C288.346 340.96 289.042 340.318 289.606 339.73C290.17 339.13 290.596 338.572 290.884 338.056C291.172 337.528 291.316 337.006 291.316 336.49C291.316 336.106 291.244 335.776 291.1 335.5C290.956 335.224 290.764 334.996 290.524 334.816C290.296 334.636 290.032 334.504 289.732 334.42C289.432 334.336 289.126 334.294 288.814 334.294C288.094 334.294 287.458 334.432 286.906 334.708C286.354 334.984 285.904 335.35 285.556 335.806L284.638 334.852C285.094 334.24 285.688 333.772 286.42 333.448C287.164 333.124 287.962 332.962 288.814 332.962C289.318 332.962 289.81 333.034 290.29 333.178C290.77 333.322 291.196 333.538 291.568 333.826C291.952 334.114 292.258 334.48 292.486 334.924C292.726 335.368 292.846 335.89 292.846 336.49C292.846 337.102 292.696 337.708 292.396 338.308C292.108 338.896 291.7 339.49 291.172 340.09C290.656 340.678 290.044 341.284 289.336 341.908C288.628 342.52 287.854 343.156 287.014 343.816H292.9V345.148H284.656Z" fill="#64686A"/>
<path d="M252.193 394.148V392.96C253.273 392.108 254.227 391.34 255.055 390.656C255.883 389.96 256.579 389.318 257.143 388.73C257.707 388.13 258.133 387.572 258.421 387.056C258.709 386.528 258.853 386.006 258.853 385.49C258.853 385.106 258.781 384.776 258.637 384.5C258.493 384.224 258.301 383.996 258.061 383.816C257.833 383.636 257.569 383.504 257.269 383.42C256.969 383.336 256.663 383.294 256.351 383.294C255.631 383.294 254.995 383.432 254.443 383.708C253.891 383.984 253.441 384.35 253.093 384.806L252.175 383.852C252.631 383.24 253.225 382.772 253.957 382.448C254.701 382.124 255.499 381.962 256.351 381.962C256.855 381.962 257.347 382.034 257.827 382.178C258.307 382.322 258.733 382.538 259.105 382.826C259.489 383.114 259.795 383.48 260.023 383.924C260.263 384.368 260.383 384.89 260.383 385.49C260.383 386.102 260.233 386.708 259.933 387.308C259.645 387.896 259.237 388.49 258.709 389.09C258.193 389.678 257.581 390.284 256.873 390.908C256.165 391.52 255.391 392.156 254.551 392.816H260.437V394.148H252.193ZM268.751 394.364C267.923 394.364 267.221 394.178 266.645 393.806C266.069 393.434 265.595 392.954 265.223 392.366C264.851 391.766 264.581 391.1 264.413 390.368C264.245 389.624 264.161 388.886 264.161 388.154C264.161 387.422 264.245 386.69 264.413 385.958C264.581 385.214 264.851 384.548 265.223 383.96C265.595 383.372 266.069 382.892 266.645 382.52C267.221 382.148 267.923 381.962 268.751 381.962C269.567 381.962 270.263 382.148 270.839 382.52C271.427 382.892 271.901 383.372 272.261 383.96C272.633 384.548 272.903 385.214 273.071 385.958C273.251 386.69 273.341 387.422 273.341 388.154C273.341 388.886 273.251 389.624 273.071 390.368C272.903 391.1 272.633 391.766 272.261 392.366C271.901 392.954 271.427 393.434 270.839 393.806C270.263 394.178 269.567 394.364 268.751 394.364ZM268.751 393.032C269.327 393.032 269.807 392.894 270.191 392.618C270.587 392.33 270.905 391.958 271.145 391.502C271.385 391.034 271.553 390.512 271.649 389.936C271.757 389.348 271.811 388.754 271.811 388.154C271.811 387.554 271.757 386.966 271.649 386.39C271.553 385.802 271.385 385.28 271.145 384.824C270.905 384.368 270.587 384.002 270.191 383.726C269.807 383.438 269.327 383.294 268.751 383.294C268.175 383.294 267.689 383.438 267.293 383.726C266.909 384.002 266.597 384.368 266.357 384.824C266.117 385.28 265.943 385.802 265.835 386.39C265.739 386.966 265.691 387.554 265.691 388.154C265.691 388.754 265.739 389.348 265.835 389.936C265.943 390.512 266.117 391.034 266.357 391.502C266.597 391.958 266.909 392.33 267.293 392.618C267.689 392.894 268.175 393.032 268.751 393.032ZM278.909 394.148V384.122L276.983 386.156L276.083 385.238L279.089 382.142H280.403V394.148H278.909ZM288.752 394.364C287.924 394.364 287.222 394.178 286.646 393.806C286.07 393.434 285.596 392.954 285.224 392.366C284.852 391.766 284.582 391.1 284.414 390.368C284.246 389.624 284.162 388.886 284.162 388.154C284.162 387.422 284.246 386.69 284.414 385.958C284.582 385.214 284.852 384.548 285.224 383.96C285.596 383.372 286.07 382.892 286.646 382.52C287.222 382.148 287.924 381.962 288.752 381.962C289.568 381.962 290.264 382.148 290.84 382.52C291.428 382.892 291.902 383.372 292.262 383.96C292.634 384.548 292.904 385.214 293.072 385.958C293.252 386.69 293.342 387.422 293.342 388.154C293.342 388.886 293.252 389.624 293.072 390.368C292.904 391.1 292.634 391.766 292.262 392.366C291.902 392.954 291.428 393.434 290.84 393.806C290.264 394.178 289.568 394.364 288.752 394.364ZM288.752 393.032C289.328 393.032 289.808 392.894 290.192 392.618C290.588 392.33 290.906 391.958 291.146 391.502C291.386 391.034 291.554 390.512 291.65 389.936C291.758 389.348 291.812 388.754 291.812 388.154C291.812 387.554 291.758 386.966 291.65 386.39C291.554 385.802 291.386 385.28 291.146 384.824C290.906 384.368 290.588 384.002 290.192 383.726C289.808 383.438 289.328 383.294 288.752 383.294C288.176 383.294 287.69 383.438 287.294 383.726C286.91 384.002 286.598 384.368 286.358 384.824C286.118 385.28 285.944 385.802 285.836 386.39C285.74 386.966 285.692 387.554 285.692 388.154C285.692 388.754 285.74 389.348 285.836 389.936C285.944 390.512 286.118 391.034 286.358 391.502C286.598 391.958 286.91 392.33 287.294 392.618C287.69 392.894 288.176 393.032 288.752 393.032Z" fill="#64686A"/>
<path d="M252.154 443.148V441.96C253.234 441.108 254.188 440.34 255.016 439.656C255.844 438.96 256.54 438.318 257.104 437.73C257.668 437.13 258.094 436.572 258.382 436.056C258.67 435.528 258.814 435.006 258.814 434.49C258.814 434.106 258.742 433.776 258.598 433.5C258.454 433.224 258.262 432.996 258.022 432.816C257.794 432.636 257.53 432.504 257.23 432.42C256.93 432.336 256.624 432.294 256.312 432.294C255.592 432.294 254.956 432.432 254.404 432.708C253.852 432.984 253.402 433.35 253.054 433.806L252.136 432.852C252.592 432.24 253.186 431.772 253.918 431.448C254.662 431.124 255.46 430.962 256.312 430.962C256.816 430.962 257.308 431.034 257.788 431.178C258.268 431.322 258.694 431.538 259.066 431.826C259.45 432.114 259.756 432.48 259.984 432.924C260.224 433.368 260.344 433.89 260.344 434.49C260.344 435.102 260.194 435.708 259.894 436.308C259.606 436.896 259.198 437.49 258.67 438.09C258.154 438.678 257.542 439.284 256.834 439.908C256.126 440.52 255.352 441.156 254.512 441.816H260.398V443.148H252.154ZM267.272 443.364C266.444 443.364 265.742 443.178 265.166 442.806C264.59 442.434 264.116 441.954 263.744 441.366C263.372 440.766 263.102 440.1 262.934 439.368C262.766 438.624 262.682 437.886 262.682 437.154C262.682 436.422 262.766 435.69 262.934 434.958C263.102 434.214 263.372 433.548 263.744 432.96C264.116 432.372 264.59 431.892 265.166 431.52C265.742 431.148 266.444 430.962 267.272 430.962C268.088 430.962 268.784 431.148 269.36 431.52C269.948 431.892 270.422 432.372 270.782 432.96C271.154 433.548 271.424 434.214 271.592 434.958C271.772 435.69 271.862 436.422 271.862 437.154C271.862 437.886 271.772 438.624 271.592 439.368C271.424 440.1 271.154 440.766 270.782 441.366C270.422 441.954 269.948 442.434 269.36 442.806C268.784 443.178 268.088 443.364 267.272 443.364ZM267.272 442.032C267.848 442.032 268.328 441.894 268.712 441.618C269.108 441.33 269.426 440.958 269.666 440.502C269.906 440.034 270.074 439.512 270.17 438.936C270.278 438.348 270.332 437.754 270.332 437.154C270.332 436.554 270.278 435.966 270.17 435.39C270.074 434.802 269.906 434.28 269.666 433.824C269.426 433.368 269.108 433.002 268.712 432.726C268.328 432.438 267.848 432.294 267.272 432.294C266.696 432.294 266.21 432.438 265.814 432.726C265.43 433.002 265.118 433.368 264.878 433.824C264.638 434.28 264.464 434.802 264.356 435.39C264.26 435.966 264.212 436.554 264.212 437.154C264.212 437.754 264.26 438.348 264.356 438.936C264.464 439.512 264.638 440.034 264.878 440.502C265.118 440.958 265.43 441.33 265.814 441.618C266.21 441.894 266.696 442.032 267.272 442.032ZM278.293 443.364C277.465 443.364 276.763 443.178 276.187 442.806C275.611 442.434 275.137 441.954 274.765 441.366C274.393 440.766 274.123 440.1 273.955 439.368C273.787 438.624 273.703 437.886 273.703 437.154C273.703 436.422 273.787 435.69 273.955 434.958C274.123 434.214 274.393 433.548 274.765 432.96C275.137 432.372 275.611 431.892 276.187 431.52C276.763 431.148 277.465 430.962 278.293 430.962C279.109 430.962 279.805 431.148 280.381 431.52C280.969 431.892 281.443 432.372 281.803 432.96C282.175 433.548 282.445 434.214 282.613 434.958C282.793 435.69 282.883 436.422 282.883 437.154C282.883 437.886 282.793 438.624 282.613 439.368C282.445 440.1 282.175 440.766 281.803 441.366C281.443 441.954 280.969 442.434 280.381 442.806C279.805 443.178 279.109 443.364 278.293 443.364ZM278.293 442.032C278.869 442.032 279.349 441.894 279.733 441.618C280.129 441.33 280.447 440.958 280.687 440.502C280.927 440.034 281.095 439.512 281.191 438.936C281.299 438.348 281.353 437.754 281.353 437.154C281.353 436.554 281.299 435.966 281.191 435.39C281.095 434.802 280.927 434.28 280.687 433.824C280.447 433.368 280.129 433.002 279.733 432.726C279.349 432.438 278.869 432.294 278.293 432.294C277.717 432.294 277.231 432.438 276.835 432.726C276.451 433.002 276.139 433.368 275.899 433.824C275.659 434.28 275.485 434.802 275.377 435.39C275.281 435.966 275.233 436.554 275.233 437.154C275.233 437.754 275.281 438.348 275.377 438.936C275.485 439.512 275.659 440.034 275.899 440.502C276.139 440.958 276.451 441.33 276.835 441.618C277.231 441.894 277.717 442.032 278.293 442.032ZM289.045 443.364C288.445 443.364 287.881 443.292 287.353 443.148C286.837 443.004 286.387 442.794 286.003 442.518C285.619 442.23 285.313 441.888 285.085 441.492C284.857 441.084 284.743 440.622 284.743 440.106C284.743 439.71 284.821 439.344 284.977 439.008C285.133 438.672 285.343 438.372 285.607 438.108C285.871 437.832 286.177 437.598 286.525 437.406C286.873 437.214 287.233 437.064 287.605 436.956C287.257 436.86 286.921 436.728 286.597 436.56C286.285 436.392 286.003 436.194 285.751 435.966C285.511 435.726 285.313 435.45 285.157 435.138C285.013 434.826 284.941 434.472 284.941 434.076C284.941 433.536 285.061 433.074 285.301 432.69C285.541 432.294 285.853 431.97 286.237 431.718C286.633 431.454 287.071 431.262 287.551 431.142C288.043 431.022 288.541 430.962 289.045 430.962C289.537 430.962 290.029 431.022 290.521 431.142C291.013 431.262 291.451 431.454 291.835 431.718C292.231 431.97 292.549 432.294 292.789 432.69C293.041 433.074 293.167 433.536 293.167 434.076C293.167 434.472 293.089 434.826 292.933 435.138C292.789 435.45 292.591 435.726 292.339 435.966C292.099 436.194 291.817 436.392 291.493 436.56C291.169 436.728 290.833 436.86 290.485 436.956C290.857 437.064 291.217 437.214 291.565 437.406C291.913 437.598 292.219 437.832 292.483 438.108C292.747 438.372 292.957 438.672 293.113 439.008C293.269 439.344 293.347 439.71 293.347 440.106C293.347 440.61 293.233 441.066 293.005 441.474C292.777 441.882 292.465 442.224 292.069 442.5C291.685 442.776 291.229 442.992 290.701 443.148C290.185 443.292 289.633 443.364 289.045 443.364ZM289.045 436.344C289.225 436.308 289.465 436.254 289.765 436.182C290.065 436.098 290.353 435.978 290.629 435.822C290.905 435.654 291.145 435.444 291.349 435.192C291.553 434.94 291.655 434.634 291.655 434.274C291.655 433.962 291.583 433.686 291.439 433.446C291.307 433.194 291.121 432.984 290.881 432.816C290.653 432.648 290.377 432.522 290.053 432.438C289.741 432.342 289.405 432.294 289.045 432.294C288.685 432.294 288.343 432.342 288.019 432.438C287.707 432.522 287.431 432.648 287.191 432.816C286.963 432.984 286.777 433.194 286.633 433.446C286.501 433.686 286.435 433.962 286.435 434.274C286.435 434.634 286.537 434.94 286.741 435.192C286.945 435.444 287.185 435.654 287.461 435.822C287.749 435.978 288.037 436.098 288.325 436.182C288.625 436.254 288.865 436.308 289.045 436.344ZM289.045 442.032C289.417 442.032 289.771 441.984 290.107 441.888C290.443 441.792 290.737 441.654 290.989 441.474C291.253 441.294 291.457 441.078 291.601 440.826C291.757 440.562 291.835 440.268 291.835 439.944C291.835 439.548 291.721 439.212 291.493 438.936C291.277 438.648 291.019 438.414 290.719 438.234C290.419 438.042 290.107 437.898 289.783 437.802C289.471 437.706 289.225 437.646 289.045 437.622C288.865 437.646 288.613 437.706 288.289 437.802C287.977 437.898 287.665 438.042 287.353 438.234C287.053 438.414 286.789 438.648 286.561 438.936C286.345 439.212 286.237 439.548 286.237 439.944C286.237 440.268 286.309 440.562 286.453 440.826C286.609 441.078 286.813 441.294 287.065 441.474C287.329 441.654 287.629 441.792 287.965 441.888C288.313 441.984 288.673 442.032 289.045 442.032Z" fill="#64686A"/>
<path d="M251.978 492.148V490.96C253.058 490.108 254.012 489.34 254.84 488.656C255.668 487.96 256.364 487.318 256.928 486.73C257.492 486.13 257.918 485.572 258.206 485.056C258.494 484.528 258.638 484.006 258.638 483.49C258.638 483.106 258.566 482.776 258.422 482.5C258.278 482.224 258.086 481.996 257.846 481.816C257.618 481.636 257.354 481.504 257.054 481.42C256.754 481.336 256.448 481.294 256.136 481.294C255.416 481.294 254.78 481.432 254.228 481.708C253.676 481.984 253.226 482.35 252.878 482.806L251.96 481.852C252.416 481.24 253.01 480.772 253.742 480.448C254.486 480.124 255.284 479.962 256.136 479.962C256.64 479.962 257.132 480.034 257.612 480.178C258.092 480.322 258.518 480.538 258.89 480.826C259.274 481.114 259.58 481.48 259.808 481.924C260.048 482.368 260.168 482.89 260.168 483.49C260.168 484.102 260.018 484.708 259.718 485.308C259.43 485.896 259.022 486.49 258.494 487.09C257.978 487.678 257.366 488.284 256.658 488.908C255.95 489.52 255.176 490.156 254.336 490.816H260.222V492.148H251.978ZM267.096 492.364C266.268 492.364 265.566 492.178 264.99 491.806C264.414 491.434 263.94 490.954 263.568 490.366C263.196 489.766 262.926 489.1 262.758 488.368C262.59 487.624 262.506 486.886 262.506 486.154C262.506 485.422 262.59 484.69 262.758 483.958C262.926 483.214 263.196 482.548 263.568 481.96C263.94 481.372 264.414 480.892 264.99 480.52C265.566 480.148 266.268 479.962 267.096 479.962C267.912 479.962 268.608 480.148 269.184 480.52C269.772 480.892 270.246 481.372 270.606 481.96C270.978 482.548 271.248 483.214 271.416 483.958C271.596 484.69 271.686 485.422 271.686 486.154C271.686 486.886 271.596 487.624 271.416 488.368C271.248 489.1 270.978 489.766 270.606 490.366C270.246 490.954 269.772 491.434 269.184 491.806C268.608 492.178 267.912 492.364 267.096 492.364ZM267.096 491.032C267.672 491.032 268.152 490.894 268.536 490.618C268.932 490.33 269.25 489.958 269.49 489.502C269.73 489.034 269.898 488.512 269.994 487.936C270.102 487.348 270.156 486.754 270.156 486.154C270.156 485.554 270.102 484.966 269.994 484.39C269.898 483.802 269.73 483.28 269.49 482.824C269.25 482.368 268.932 482.002 268.536 481.726C268.152 481.438 267.672 481.294 267.096 481.294C266.52 481.294 266.034 481.438 265.638 481.726C265.254 482.002 264.942 482.368 264.702 482.824C264.462 483.28 264.288 483.802 264.18 484.39C264.084 484.966 264.036 485.554 264.036 486.154C264.036 486.754 264.084 487.348 264.18 487.936C264.288 488.512 264.462 489.034 264.702 489.502C264.942 489.958 265.254 490.33 265.638 490.618C266.034 490.894 266.52 491.032 267.096 491.032ZM278.117 492.364C277.289 492.364 276.587 492.178 276.011 491.806C275.435 491.434 274.961 490.954 274.589 490.366C274.217 489.766 273.947 489.1 273.779 488.368C273.611 487.624 273.527 486.886 273.527 486.154C273.527 485.422 273.611 484.69 273.779 483.958C273.947 483.214 274.217 482.548 274.589 481.96C274.961 481.372 275.435 480.892 276.011 480.52C276.587 480.148 277.289 479.962 278.117 479.962C278.933 479.962 279.629 480.148 280.205 480.52C280.793 480.892 281.267 481.372 281.627 481.96C281.999 482.548 282.269 483.214 282.437 483.958C282.617 484.69 282.707 485.422 282.707 486.154C282.707 486.886 282.617 487.624 282.437 488.368C282.269 489.1 281.999 489.766 281.627 490.366C281.267 490.954 280.793 491.434 280.205 491.806C279.629 492.178 278.933 492.364 278.117 492.364ZM278.117 491.032C278.693 491.032 279.173 490.894 279.557 490.618C279.953 490.33 280.271 489.958 280.511 489.502C280.751 489.034 280.919 488.512 281.015 487.936C281.123 487.348 281.177 486.754 281.177 486.154C281.177 485.554 281.123 484.966 281.015 484.39C280.919 483.802 280.751 483.28 280.511 482.824C280.271 482.368 279.953 482.002 279.557 481.726C279.173 481.438 278.693 481.294 278.117 481.294C277.541 481.294 277.055 481.438 276.659 481.726C276.275 482.002 275.963 482.368 275.723 482.824C275.483 483.28 275.309 483.802 275.201 484.39C275.105 484.966 275.057 485.554 275.057 486.154C275.057 486.754 275.105 487.348 275.201 487.936C275.309 488.512 275.483 489.034 275.723 489.502C275.963 489.958 276.275 490.33 276.659 490.618C277.055 490.894 277.541 491.032 278.117 491.032ZM289.175 492.364C288.335 492.364 287.621 492.196 287.033 491.86C286.445 491.512 285.965 491.056 285.593 490.492C285.233 489.916 284.969 489.256 284.801 488.512C284.633 487.768 284.549 486.988 284.549 486.172C284.549 485.356 284.645 484.576 284.837 483.832C285.029 483.076 285.323 482.416 285.719 481.852C286.127 481.276 286.637 480.82 287.249 480.484C287.861 480.136 288.587 479.962 289.427 479.962C290.207 479.962 290.861 480.1 291.389 480.376C291.929 480.64 292.385 480.982 292.757 481.402L292.001 482.518C291.689 482.158 291.341 481.864 290.957 481.636C290.573 481.408 290.063 481.294 289.427 481.294C288.851 481.294 288.347 481.432 287.915 481.708C287.495 481.972 287.141 482.326 286.853 482.77C286.577 483.214 286.373 483.718 286.241 484.282C286.109 484.846 286.043 485.422 286.043 486.01C286.043 486.094 286.043 486.172 286.043 486.244C286.043 486.316 286.049 486.394 286.061 486.478C286.193 486.274 286.367 486.064 286.583 485.848C286.811 485.62 287.075 485.416 287.375 485.236C287.675 485.056 287.999 484.906 288.347 484.786C288.707 484.666 289.079 484.606 289.463 484.606C290.003 484.606 290.507 484.69 290.975 484.858C291.455 485.014 291.875 485.254 292.235 485.578C292.595 485.89 292.877 486.286 293.081 486.766C293.285 487.246 293.387 487.804 293.387 488.44C293.387 488.968 293.291 489.472 293.099 489.952C292.907 490.42 292.631 490.834 292.271 491.194C291.911 491.554 291.467 491.842 290.939 492.058C290.423 492.262 289.835 492.364 289.175 492.364ZM289.121 491.032C289.589 491.032 289.991 490.954 290.327 490.798C290.675 490.642 290.963 490.444 291.191 490.204C291.419 489.952 291.587 489.676 291.695 489.376C291.815 489.076 291.875 488.782 291.875 488.494C291.875 488.05 291.803 487.666 291.659 487.342C291.515 487.018 291.317 486.748 291.065 486.532C290.813 486.316 290.519 486.16 290.183 486.064C289.847 485.956 289.487 485.902 289.103 485.902C288.503 485.902 287.933 486.07 287.393 486.406C286.865 486.73 286.433 487.162 286.097 487.702C286.133 488.074 286.211 488.458 286.331 488.854C286.463 489.25 286.643 489.61 286.871 489.934C287.111 490.258 287.411 490.522 287.771 490.726C288.143 490.93 288.593 491.032 289.121 491.032Z" fill="#64686A"/>
<path d="M252.576 541.148V539.96C253.656 539.108 254.61 538.34 255.438 537.656C256.266 536.96 256.962 536.318 257.526 535.73C258.09 535.13 258.516 534.572 258.804 534.056C259.092 533.528 259.236 533.006 259.236 532.49C259.236 532.106 259.164 531.776 259.02 531.5C258.876 531.224 258.684 530.996 258.444 530.816C258.216 530.636 257.952 530.504 257.652 530.42C257.352 530.336 257.046 530.294 256.734 530.294C256.014 530.294 255.378 530.432 254.826 530.708C254.274 530.984 253.824 531.35 253.476 531.806L252.558 530.852C253.014 530.24 253.608 529.772 254.34 529.448C255.084 529.124 255.882 528.962 256.734 528.962C257.238 528.962 257.73 529.034 258.21 529.178C258.69 529.322 259.116 529.538 259.488 529.826C259.872 530.114 260.178 530.48 260.406 530.924C260.646 531.368 260.766 531.89 260.766 532.49C260.766 533.102 260.616 533.708 260.316 534.308C260.028 534.896 259.62 535.49 259.092 536.09C258.576 536.678 257.964 537.284 257.256 537.908C256.548 538.52 255.774 539.156 254.934 539.816H260.82V541.148H252.576ZM267.694 541.364C266.866 541.364 266.164 541.178 265.588 540.806C265.012 540.434 264.538 539.954 264.166 539.366C263.794 538.766 263.524 538.1 263.356 537.368C263.188 536.624 263.104 535.886 263.104 535.154C263.104 534.422 263.188 533.69 263.356 532.958C263.524 532.214 263.794 531.548 264.166 530.96C264.538 530.372 265.012 529.892 265.588 529.52C266.164 529.148 266.866 528.962 267.694 528.962C268.51 528.962 269.206 529.148 269.782 529.52C270.37 529.892 270.844 530.372 271.204 530.96C271.576 531.548 271.846 532.214 272.014 532.958C272.194 533.69 272.284 534.422 272.284 535.154C272.284 535.886 272.194 536.624 272.014 537.368C271.846 538.1 271.576 538.766 271.204 539.366C270.844 539.954 270.37 540.434 269.782 540.806C269.206 541.178 268.51 541.364 267.694 541.364ZM267.694 540.032C268.27 540.032 268.75 539.894 269.134 539.618C269.53 539.33 269.848 538.958 270.088 538.502C270.328 538.034 270.496 537.512 270.592 536.936C270.7 536.348 270.754 535.754 270.754 535.154C270.754 534.554 270.7 533.966 270.592 533.39C270.496 532.802 270.328 532.28 270.088 531.824C269.848 531.368 269.53 531.002 269.134 530.726C268.75 530.438 268.27 530.294 267.694 530.294C267.118 530.294 266.632 530.438 266.236 530.726C265.852 531.002 265.54 531.368 265.3 531.824C265.06 532.28 264.886 532.802 264.778 533.39C264.682 533.966 264.634 534.554 264.634 535.154C264.634 535.754 264.682 536.348 264.778 536.936C264.886 537.512 265.06 538.034 265.3 538.502C265.54 538.958 265.852 539.33 266.236 539.618C266.632 539.894 267.118 540.032 267.694 540.032ZM278.715 541.364C277.887 541.364 277.185 541.178 276.609 540.806C276.033 540.434 275.559 539.954 275.187 539.366C274.815 538.766 274.545 538.1 274.377 537.368C274.209 536.624 274.125 535.886 274.125 535.154C274.125 534.422 274.209 533.69 274.377 532.958C274.545 532.214 274.815 531.548 275.187 530.96C275.559 530.372 276.033 529.892 276.609 529.52C277.185 529.148 277.887 528.962 278.715 528.962C279.531 528.962 280.227 529.148 280.803 529.52C281.391 529.892 281.865 530.372 282.225 530.96C282.597 531.548 282.867 532.214 283.035 532.958C283.215 533.69 283.305 534.422 283.305 535.154C283.305 535.886 283.215 536.624 283.035 537.368C282.867 538.1 282.597 538.766 282.225 539.366C281.865 539.954 281.391 540.434 280.803 540.806C280.227 541.178 279.531 541.364 278.715 541.364ZM278.715 540.032C279.291 540.032 279.771 539.894 280.155 539.618C280.551 539.33 280.869 538.958 281.109 538.502C281.349 538.034 281.517 537.512 281.613 536.936C281.721 536.348 281.775 535.754 281.775 535.154C281.775 534.554 281.721 533.966 281.613 533.39C281.517 532.802 281.349 532.28 281.109 531.824C280.869 531.368 280.551 531.002 280.155 530.726C279.771 530.438 279.291 530.294 278.715 530.294C278.139 530.294 277.653 530.438 277.257 530.726C276.873 531.002 276.561 531.368 276.321 531.824C276.081 532.28 275.907 532.802 275.799 533.39C275.703 533.966 275.655 534.554 275.655 535.154C275.655 535.754 275.703 536.348 275.799 536.936C275.907 537.512 276.081 538.034 276.321 538.502C276.561 538.958 276.873 539.33 277.257 539.618C277.653 539.894 278.139 540.032 278.715 540.032ZM290.511 541.148V538.106H284.805V536.864L289.953 529.142H292.005V536.792H293.697V538.106H292.005V541.148H290.511ZM290.511 530.528L286.299 536.792H290.511V530.528Z" fill="#64686A"/>
<path d="M252.031 590.148V588.96C253.111 588.108 254.065 587.34 254.893 586.656C255.721 585.96 256.417 585.318 256.981 584.73C257.545 584.13 257.971 583.572 258.259 583.056C258.547 582.528 258.691 582.006 258.691 581.49C258.691 581.106 258.619 580.776 258.475 580.5C258.331 580.224 258.139 579.996 257.899 579.816C257.671 579.636 257.407 579.504 257.107 579.42C256.807 579.336 256.501 579.294 256.189 579.294C255.469 579.294 254.833 579.432 254.281 579.708C253.729 579.984 253.279 580.35 252.931 580.806L252.013 579.852C252.469 579.24 253.063 578.772 253.795 578.448C254.539 578.124 255.337 577.962 256.189 577.962C256.693 577.962 257.185 578.034 257.665 578.178C258.145 578.322 258.571 578.538 258.943 578.826C259.327 579.114 259.633 579.48 259.861 579.924C260.101 580.368 260.221 580.89 260.221 581.49C260.221 582.102 260.071 582.708 259.771 583.308C259.483 583.896 259.075 584.49 258.547 585.09C258.031 585.678 257.419 586.284 256.711 586.908C256.003 587.52 255.229 588.156 254.389 588.816H260.275V590.148H252.031ZM267.149 590.364C266.321 590.364 265.619 590.178 265.043 589.806C264.467 589.434 263.993 588.954 263.621 588.366C263.249 587.766 262.979 587.1 262.811 586.368C262.643 585.624 262.559 584.886 262.559 584.154C262.559 583.422 262.643 582.69 262.811 581.958C262.979 581.214 263.249 580.548 263.621 579.96C263.993 579.372 264.467 578.892 265.043 578.52C265.619 578.148 266.321 577.962 267.149 577.962C267.965 577.962 268.661 578.148 269.237 578.52C269.825 578.892 270.299 579.372 270.659 579.96C271.031 580.548 271.301 581.214 271.469 581.958C271.649 582.69 271.739 583.422 271.739 584.154C271.739 584.886 271.649 585.624 271.469 586.368C271.301 587.1 271.031 587.766 270.659 588.366C270.299 588.954 269.825 589.434 269.237 589.806C268.661 590.178 267.965 590.364 267.149 590.364ZM267.149 589.032C267.725 589.032 268.205 588.894 268.589 588.618C268.985 588.33 269.303 587.958 269.543 587.502C269.783 587.034 269.951 586.512 270.047 585.936C270.155 585.348 270.209 584.754 270.209 584.154C270.209 583.554 270.155 582.966 270.047 582.39C269.951 581.802 269.783 581.28 269.543 580.824C269.303 580.368 268.985 580.002 268.589 579.726C268.205 579.438 267.725 579.294 267.149 579.294C266.573 579.294 266.087 579.438 265.691 579.726C265.307 580.002 264.995 580.368 264.755 580.824C264.515 581.28 264.341 581.802 264.233 582.39C264.137 582.966 264.089 583.554 264.089 584.154C264.089 584.754 264.137 585.348 264.233 585.936C264.341 586.512 264.515 587.034 264.755 587.502C264.995 587.958 265.307 588.33 265.691 588.618C266.087 588.894 266.573 589.032 267.149 589.032ZM278.17 590.364C277.342 590.364 276.64 590.178 276.064 589.806C275.488 589.434 275.014 588.954 274.642 588.366C274.27 587.766 274 587.1 273.832 586.368C273.664 585.624 273.58 584.886 273.58 584.154C273.58 583.422 273.664 582.69 273.832 581.958C274 581.214 274.27 580.548 274.642 579.96C275.014 579.372 275.488 578.892 276.064 578.52C276.64 578.148 277.342 577.962 278.17 577.962C278.986 577.962 279.682 578.148 280.258 578.52C280.846 578.892 281.32 579.372 281.68 579.96C282.052 580.548 282.322 581.214 282.49 581.958C282.67 582.69 282.76 583.422 282.76 584.154C282.76 584.886 282.67 585.624 282.49 586.368C282.322 587.1 282.052 587.766 281.68 588.366C281.32 588.954 280.846 589.434 280.258 589.806C279.682 590.178 278.986 590.364 278.17 590.364ZM278.17 589.032C278.746 589.032 279.226 588.894 279.61 588.618C280.006 588.33 280.324 587.958 280.564 587.502C280.804 587.034 280.972 586.512 281.068 585.936C281.176 585.348 281.23 584.754 281.23 584.154C281.23 583.554 281.176 582.966 281.068 582.39C280.972 581.802 280.804 581.28 280.564 580.824C280.324 580.368 280.006 580.002 279.61 579.726C279.226 579.438 278.746 579.294 278.17 579.294C277.594 579.294 277.108 579.438 276.712 579.726C276.328 580.002 276.016 580.368 275.776 580.824C275.536 581.28 275.362 581.802 275.254 582.39C275.158 582.966 275.11 583.554 275.11 584.154C275.11 584.754 275.158 585.348 275.254 585.936C275.362 586.512 275.536 587.034 275.776 587.502C276.016 587.958 276.328 588.33 276.712 588.618C277.108 588.894 277.594 589.032 278.17 589.032ZM284.656 590.148V588.96C285.736 588.108 286.69 587.34 287.518 586.656C288.346 585.96 289.042 585.318 289.606 584.73C290.17 584.13 290.596 583.572 290.884 583.056C291.172 582.528 291.316 582.006 291.316 581.49C291.316 581.106 291.244 580.776 291.1 580.5C290.956 580.224 290.764 579.996 290.524 579.816C290.296 579.636 290.032 579.504 289.732 579.42C289.432 579.336 289.126 579.294 288.814 579.294C288.094 579.294 287.458 579.432 286.906 579.708C286.354 579.984 285.904 580.35 285.556 580.806L284.638 579.852C285.094 579.24 285.688 578.772 286.42 578.448C287.164 578.124 287.962 577.962 288.814 577.962C289.318 577.962 289.81 578.034 290.29 578.178C290.77 578.322 291.196 578.538 291.568 578.826C291.952 579.114 292.258 579.48 292.486 579.924C292.726 580.368 292.846 580.89 292.846 581.49C292.846 582.102 292.696 582.708 292.396 583.308C292.108 583.896 291.7 584.49 291.172 585.09C290.656 585.678 290.044 586.284 289.336 586.908C288.628 587.52 287.854 588.156 287.014 588.816H292.9V590.148H284.656Z" fill="#64686A"/>
<path d="M251.591 639.148V637.96C252.671 637.108 253.625 636.34 254.453 635.656C255.281 634.96 255.977 634.318 256.541 633.73C257.105 633.13 257.531 632.572 257.819 632.056C258.107 631.528 258.251 631.006 258.251 630.49C258.251 630.106 258.179 629.776 258.035 629.5C257.891 629.224 257.699 628.996 257.459 628.816C257.231 628.636 256.967 628.504 256.667 628.42C256.367 628.336 256.061 628.294 255.749 628.294C255.029 628.294 254.393 628.432 253.841 628.708C253.289 628.984 252.839 629.35 252.491 629.806L251.573 628.852C252.029 628.24 252.623 627.772 253.355 627.448C254.099 627.124 254.897 626.962 255.749 626.962C256.253 626.962 256.745 627.034 257.225 627.178C257.705 627.322 258.131 627.538 258.503 627.826C258.887 628.114 259.193 628.48 259.421 628.924C259.661 629.368 259.781 629.89 259.781 630.49C259.781 631.102 259.631 631.708 259.331 632.308C259.043 632.896 258.635 633.49 258.107 634.09C257.591 634.678 256.979 635.284 256.271 635.908C255.563 636.52 254.789 637.156 253.949 637.816H259.835V639.148H251.591ZM266.709 639.364C265.881 639.364 265.179 639.178 264.603 638.806C264.027 638.434 263.553 637.954 263.181 637.366C262.809 636.766 262.539 636.1 262.371 635.368C262.203 634.624 262.119 633.886 262.119 633.154C262.119 632.422 262.203 631.69 262.371 630.958C262.539 630.214 262.809 629.548 263.181 628.96C263.553 628.372 264.027 627.892 264.603 627.52C265.179 627.148 265.881 626.962 266.709 626.962C267.525 626.962 268.221 627.148 268.797 627.52C269.385 627.892 269.859 628.372 270.219 628.96C270.591 629.548 270.861 630.214 271.029 630.958C271.209 631.69 271.299 632.422 271.299 633.154C271.299 633.886 271.209 634.624 271.029 635.368C270.861 636.1 270.591 636.766 270.219 637.366C269.859 637.954 269.385 638.434 268.797 638.806C268.221 639.178 267.525 639.364 266.709 639.364ZM266.709 638.032C267.285 638.032 267.765 637.894 268.149 637.618C268.545 637.33 268.863 636.958 269.103 636.502C269.343 636.034 269.511 635.512 269.607 634.936C269.715 634.348 269.769 633.754 269.769 633.154C269.769 632.554 269.715 631.966 269.607 631.39C269.511 630.802 269.343 630.28 269.103 629.824C268.863 629.368 268.545 629.002 268.149 628.726C267.765 628.438 267.285 628.294 266.709 628.294C266.133 628.294 265.647 628.438 265.251 628.726C264.867 629.002 264.555 629.368 264.315 629.824C264.075 630.28 263.901 630.802 263.793 631.39C263.697 631.966 263.649 632.554 263.649 633.154C263.649 633.754 263.697 634.348 263.793 634.936C263.901 635.512 264.075 636.034 264.315 636.502C264.555 636.958 264.867 637.33 265.251 637.618C265.647 637.894 266.133 638.032 266.709 638.032ZM277.731 639.364C276.903 639.364 276.201 639.178 275.625 638.806C275.049 638.434 274.575 637.954 274.203 637.366C273.831 636.766 273.561 636.1 273.393 635.368C273.225 634.624 273.141 633.886 273.141 633.154C273.141 632.422 273.225 631.69 273.393 630.958C273.561 630.214 273.831 629.548 274.203 628.96C274.575 628.372 275.049 627.892 275.625 627.52C276.201 627.148 276.903 626.962 277.731 626.962C278.547 626.962 279.243 627.148 279.819 627.52C280.407 627.892 280.881 628.372 281.241 628.96C281.613 629.548 281.883 630.214 282.051 630.958C282.231 631.69 282.321 632.422 282.321 633.154C282.321 633.886 282.231 634.624 282.051 635.368C281.883 636.1 281.613 636.766 281.241 637.366C280.881 637.954 280.407 638.434 279.819 638.806C279.243 639.178 278.547 639.364 277.731 639.364ZM277.731 638.032C278.307 638.032 278.787 637.894 279.171 637.618C279.567 637.33 279.885 636.958 280.125 636.502C280.365 636.034 280.533 635.512 280.629 634.936C280.737 634.348 280.791 633.754 280.791 633.154C280.791 632.554 280.737 631.966 280.629 631.39C280.533 630.802 280.365 630.28 280.125 629.824C279.885 629.368 279.567 629.002 279.171 628.726C278.787 628.438 278.307 628.294 277.731 628.294C277.155 628.294 276.669 628.438 276.273 628.726C275.889 629.002 275.577 629.368 275.337 629.824C275.097 630.28 274.923 630.802 274.815 631.39C274.719 631.966 274.671 632.554 274.671 633.154C274.671 633.754 274.719 634.348 274.815 634.936C274.923 635.512 275.097 636.034 275.337 636.502C275.577 636.958 275.889 637.33 276.273 637.618C276.669 637.894 277.155 638.032 277.731 638.032ZM288.752 639.364C287.924 639.364 287.222 639.178 286.646 638.806C286.07 638.434 285.596 637.954 285.224 637.366C284.852 636.766 284.582 636.1 284.414 635.368C284.246 634.624 284.162 633.886 284.162 633.154C284.162 632.422 284.246 631.69 284.414 630.958C284.582 630.214 284.852 629.548 285.224 628.96C285.596 628.372 286.07 627.892 286.646 627.52C287.222 627.148 287.924 626.962 288.752 626.962C289.568 626.962 290.264 627.148 290.84 627.52C291.428 627.892 291.902 628.372 292.262 628.96C292.634 629.548 292.904 630.214 293.072 630.958C293.252 631.69 293.342 632.422 293.342 633.154C293.342 633.886 293.252 634.624 293.072 635.368C292.904 636.1 292.634 636.766 292.262 637.366C291.902 637.954 291.428 638.434 290.84 638.806C290.264 639.178 289.568 639.364 288.752 639.364ZM288.752 638.032C289.328 638.032 289.808 637.894 290.192 637.618C290.588 637.33 290.906 636.958 291.146 636.502C291.386 636.034 291.554 635.512 291.65 634.936C291.758 634.348 291.812 633.754 291.812 633.154C291.812 632.554 291.758 631.966 291.65 631.39C291.554 630.802 291.386 630.28 291.146 629.824C290.906 629.368 290.588 629.002 290.192 628.726C289.808 628.438 289.328 628.294 288.752 628.294C288.176 628.294 287.69 628.438 287.294 628.726C286.91 629.002 286.598 629.368 286.358 629.824C286.118 630.28 285.944 630.802 285.836 631.39C285.74 631.966 285.692 632.554 285.692 633.154C285.692 633.754 285.74 634.348 285.836 634.936C285.944 635.512 286.118 636.034 286.358 636.502C286.598 636.958 286.91 637.33 287.294 637.618C287.69 637.894 288.176 638.032 288.752 638.032Z" fill="#64686A"/>
<rect x="350.27" y="628.523" width="224.221" height="9.95996" fill="url(#paint32_linear_1_1465)"/>
<rect x="350.27" y="359.445" width="224.221" height="9.95996" fill="url(#paint33_linear_1_1465)"/>
<rect x="350.27" y="237.141" width="224.221" height="9.95996" fill="url(#paint34_linear_1_1465)"/>
<rect x="350.27" y="212.68" width="224.221" height="9.95996" fill="url(#paint35_linear_1_1465)"/>
<rect x="350.27" y="139.289" width="224.221" height="9.95996" fill="url(#paint36_linear_1_1465)"/>
<rect x="350.27" y="188.219" width="299.363" height="9.95996" fill="white"/>
<rect x="350.27" y="163.75" width="373.872" height="9.95996" fill="url(#paint37_linear_1_1465)"/>
<rect x="350.27" y="334.984" width="299.363" height="9.95996" fill="url(#paint38_linear_1_1465)"/>
<rect x="350.27" y="261.602" width="449.95" height="9.95996" fill="url(#paint39_linear_1_1465)"/>
<rect x="350.27" y="604.062" width="148.705" height="9.95996" fill="url(#paint40_linear_1_1465)"/>
<rect x="350.27" y="579.594" width="72.5518" height="9.95996" fill="url(#paint41_linear_1_1465)"/>
<rect x="350.27" y="555.133" width="72.5518" height="9.95996" fill="url(#paint42_linear_1_1465)"/>
<rect x="350.27" y="506.211" width="72.5518" height="9.95996" fill="url(#paint43_linear_1_1465)"/>
<rect x="350.27" y="383.906" width="72.5518" height="9.95996" fill="url(#paint44_linear_1_1465)"/>
<rect x="350.27" y="530.672" width="148.705" height="9.95996" fill="url(#paint45_linear_1_1465)"/>
<rect x="350.27" y="481.75" width="148.705" height="9.95996" fill="url(#paint46_linear_1_1465)"/>
<rect x="350.27" y="432.828" width="148.705" height="9.95996" fill="url(#paint47_linear_1_1465)"/>
<rect x="350.27" y="286.062" width="148.705" height="9.95996" fill="url(#paint48_linear_1_1465)"/>
<rect x="350.27" y="408.367" width="148.705" height="9.95996" fill="url(#paint49_linear_1_1465)"/>
<rect x="350.27" y="457.289" width="373.804" height="9.95996" fill="url(#paint50_linear_1_1465)"/>
<rect x="350.27" y="310.523" width="750.835" height="9.95996" fill="url(#paint51_linear_1_1465)"/>
<rect x="575.49" y="628.523" width="148.853" height="9.95996" fill="url(#paint52_linear_1_1465)" fill-opacity="0.8"/>
<rect x="423.822" y="579.594" width="76.1533" height="9.95996" fill="url(#paint53_linear_1_1465)" fill-opacity="0.8"/>
<rect x="423.822" y="506.211" width="76.1533" height="9.95996" fill="url(#paint54_linear_1_1465)" fill-opacity="0.8"/>
<rect x="500.096" y="408.367" width="76.1533" height="9.95996" fill="url(#paint55_linear_1_1465)" fill-opacity="0.8"/>
<rect x="725.143" y="457.289" width="76.1533" height="9.95996" fill="url(#paint56_linear_1_1465)" fill-opacity="0.8"/>
<rect x="575.572" y="359.445" width="76.1533" height="9.95996" fill="url(#paint57_linear_1_1465)" fill-opacity="0.8"/>
<rect x="575.572" y="237.141" width="76.1533" height="9.95996" fill="url(#paint58_linear_1_1465)" fill-opacity="0.8"/>
<rect x="575.572" y="212.68" width="76.1533" height="9.95996" fill="url(#paint59_linear_1_1465)" fill-opacity="0.8"/>
<rect x="725.143" y="163.75" width="76.1533" height="9.95996" fill="url(#paint60_linear_1_1465)" fill-opacity="0.8"/>
<rect x="650.633" y="334.984" width="76.1533" height="9.95996" fill="url(#paint61_linear_1_1465)" fill-opacity="0.8"/>
<rect x="423.822" y="555.141" width="151.669" height="9.95996" fill="url(#paint62_linear_1_1465)" fill-opacity="0.8"/>
<rect x="423.822" y="383.906" width="151.669" height="9.95996" fill="url(#paint63_linear_1_1465)" fill-opacity="0.8"/>
<rect x="499.975" y="530.672" width="151.193" height="9.95996" fill="url(#paint64_linear_1_1465)" fill-opacity="0.8"/>
<rect x="499.975" y="481.75" width="151.193" height="9.95996" fill="url(#paint65_linear_1_1465)" fill-opacity="0.8"/>
<rect x="499.975" y="286.062" width="151.193" height="9.95996" fill="url(#paint66_linear_1_1465)" fill-opacity="0.8"/>
<path d="M1115.74 113.062L1111.56 107.854L1109.64 109.75V113.062H1107.84V101.47H1109.64V107.638L1115.74 101.47H1118.02L1112.88 106.727L1118.04 113.062H1115.74ZM1122.28 113.062V103.054H1118.92V101.47H1127.46V103.054H1124.08V113.062H1122.28ZM1129.82 113.062V101.47H1131.62V106.294H1137.67V101.47H1139.47V113.062H1137.67V107.878H1131.62V113.062H1129.82Z" fill="#64686A"/>
<rect x="1160.27" y="100.062" width="12" height="12" fill="white"/>
<path d="M1184.35 111.574C1184.62 111.526 1184.86 111.43 1185.07 111.286C1185.29 111.142 1185.49 110.91 1185.67 110.59C1185.86 110.27 1186.03 109.838 1186.17 109.294C1186.31 108.75 1186.44 108.046 1186.55 107.182L1187.3 101.47H1195.36V111.479H1196.71V116.015H1194.91V113.062H1186.15V116.015H1184.35V111.574ZM1188.35 107.398C1188.21 108.502 1187.99 109.374 1187.71 110.014C1187.43 110.654 1187.09 111.142 1186.67 111.479H1193.56V103.054H1188.88L1188.35 107.398ZM1201.28 113.062V103.054H1197.92V101.47H1206.46V103.054H1203.08V113.062H1201.28ZM1208.82 113.062V101.47H1210.62V106.294H1216.67V101.47H1218.47V113.062H1216.67V107.878H1210.62V113.062H1208.82Z" fill="#64686A"/>
<rect x="1239.27" y="100.062" width="12" height="12" fill="url(#paint67_linear_1_1465)" fill-opacity="0.8"/>
<defs>
<linearGradient id="paint0_linear_1_1465" x1="1310.27" y1="144.062" x2="0.265625" y2="144.062" gradientUnits="userSpaceOnUse">
<stop stop-color="white" stop-opacity="0"/>
<stop offset="0.186886" stop-color="white"/>
<stop offset="0.520833" stop-color="white" stop-opacity="0.69"/>
<stop offset="0.810556" stop-color="white"/>
<stop offset="1" stop-color="white" stop-opacity="0"/>
</linearGradient>
<linearGradient id="paint1_linear_1_1465" x1="1310.27" y1="119.062" x2="0.265625" y2="119.062" gradientUnits="userSpaceOnUse">
<stop stop-color="white" stop-opacity="0"/>
<stop offset="0.186886" stop-color="white"/>
<stop offset="0.520833" stop-color="white" stop-opacity="0.69"/>
<stop offset="0.810556" stop-color="white"/>
<stop offset="1" stop-color="white" stop-opacity="0"/>
</linearGradient>
<linearGradient id="paint2_linear_1_1465" x1="1310.27" y1="94.0625" x2="0.265625" y2="94.0625" gradientUnits="userSpaceOnUse">
<stop stop-color="white" stop-opacity="0"/>
<stop offset="0.186886" stop-color="white"/>
<stop offset="0.520833" stop-color="white" stop-opacity="0.69"/>
<stop offset="0.810556" stop-color="white"/>
<stop offset="1" stop-color="white" stop-opacity="0"/>
</linearGradient>
<linearGradient id="paint3_linear_1_1465" x1="1310.27" y1="290.062" x2="0.265625" y2="290.062" gradientUnits="userSpaceOnUse">
<stop stop-color="white" stop-opacity="0"/>
<stop offset="0.186886" stop-color="white"/>
<stop offset="0.520833" stop-color="white" stop-opacity="0.69"/>
<stop offset="0.810556" stop-color="white"/>
<stop offset="1" stop-color="white" stop-opacity="0"/>
</linearGradient>
<linearGradient id="paint4_linear_1_1465" x1="1310.27" y1="438.062" x2="0.265625" y2="438.062" gradientUnits="userSpaceOnUse">
<stop stop-color="white" stop-opacity="0"/>
<stop offset="0.186886" stop-color="white"/>
<stop offset="0.520833" stop-color="white" stop-opacity="0.69"/>
<stop offset="0.810556" stop-color="white"/>
<stop offset="1" stop-color="white" stop-opacity="0"/>
</linearGradient>
<linearGradient id="paint5_linear_1_1465" x1="1310.27" y1="339.062" x2="0.265625" y2="339.062" gradientUnits="userSpaceOnUse">
<stop stop-color="white" stop-opacity="0"/>
<stop offset="0.186886" stop-color="white"/>
<stop offset="0.520833" stop-color="white" stop-opacity="0.69"/>
<stop offset="0.810556" stop-color="white"/>
<stop offset="1" stop-color="white" stop-opacity="0"/>
</linearGradient>
<linearGradient id="paint6_linear_1_1465" x1="1310.27" y1="193.062" x2="0.265625" y2="193.062" gradientUnits="userSpaceOnUse">
<stop stop-color="white" stop-opacity="0"/>
<stop offset="0.186886" stop-color="white"/>
<stop offset="0.520833" stop-color="white" stop-opacity="0.69"/>
<stop offset="0.810556" stop-color="white"/>
<stop offset="1" stop-color="white" stop-opacity="0"/>
</linearGradient>
<linearGradient id="paint7_linear_1_1465" x1="1310.27" y1="388.062" x2="0.265625" y2="388.062" gradientUnits="userSpaceOnUse">
<stop stop-color="white" stop-opacity="0"/>
<stop offset="0.186886" stop-color="white"/>
<stop offset="0.520833" stop-color="white" stop-opacity="0.69"/>
<stop offset="0.810556" stop-color="white"/>
<stop offset="1" stop-color="white" stop-opacity="0"/>
</linearGradient>
<linearGradient id="paint8_linear_1_1465" x1="1310.27" y1="487.062" x2="0.265625" y2="487.062" gradientUnits="userSpaceOnUse">
<stop stop-color="white" stop-opacity="0"/>
<stop offset="0.186886" stop-color="white"/>
<stop offset="0.520833" stop-color="white" stop-opacity="0.69"/>
<stop offset="0.810556" stop-color="white"/>
<stop offset="1" stop-color="white" stop-opacity="0"/>
</linearGradient>
<linearGradient id="paint9_linear_1_1465" x1="1310.27" y1="364.062" x2="0.265625" y2="364.062" gradientUnits="userSpaceOnUse">
<stop stop-color="white" stop-opacity="0"/>
<stop offset="0.186886" stop-color="white"/>
<stop offset="0.520833" stop-color="white" stop-opacity="0.69"/>
<stop offset="0.810556" stop-color="white"/>
<stop offset="1" stop-color="white" stop-opacity="0"/>
</linearGradient>
<linearGradient id="paint10_linear_1_1465" x1="1310.27" y1="242.062" x2="0.265625" y2="242.062" gradientUnits="userSpaceOnUse">
<stop stop-color="white" stop-opacity="0"/>
<stop offset="0.186886" stop-color="white"/>
<stop offset="0.520833" stop-color="white" stop-opacity="0.69"/>
<stop offset="0.810556" stop-color="white"/>
<stop offset="1" stop-color="white" stop-opacity="0"/>
</linearGradient>
<linearGradient id="paint11_linear_1_1465" x1="1310.27" y1="315.062" x2="0.265625" y2="315.062" gradientUnits="userSpaceOnUse">
<stop stop-color="white" stop-opacity="0"/>
<stop offset="0.186886" stop-color="white"/>
<stop offset="0.520833" stop-color="white" stop-opacity="0.69"/>
<stop offset="0.810556" stop-color="white"/>
<stop offset="1" stop-color="white" stop-opacity="0"/>
</linearGradient>
<linearGradient id="paint12_linear_1_1465" x1="1310.27" y1="536.062" x2="0.265625" y2="536.062" gradientUnits="userSpaceOnUse">
<stop stop-color="white" stop-opacity="0"/>
<stop offset="0.186886" stop-color="white"/>
<stop offset="0.520833" stop-color="white" stop-opacity="0.69"/>
<stop offset="0.810556" stop-color="white"/>
<stop offset="1" stop-color="white" stop-opacity="0"/>
</linearGradient>
<linearGradient id="paint13_linear_1_1465" x1="1310.27" y1="609.062" x2="0.265625" y2="609.062" gradientUnits="userSpaceOnUse">
<stop stop-color="white" stop-opacity="0"/>
<stop offset="0.186886" stop-color="white"/>
<stop offset="0.520833" stop-color="white" stop-opacity="0.69"/>
<stop offset="0.810556" stop-color="white"/>
<stop offset="1" stop-color="white" stop-opacity="0"/>
</linearGradient>
<linearGradient id="paint14_linear_1_1465" x1="1310.27" y1="413.062" x2="0.265625" y2="413.062" gradientUnits="userSpaceOnUse">
<stop stop-color="white" stop-opacity="0"/>
<stop offset="0.186886" stop-color="white"/>
<stop offset="0.520833" stop-color="white" stop-opacity="0.69"/>
<stop offset="0.810556" stop-color="white"/>
<stop offset="1" stop-color="white" stop-opacity="0"/>
</linearGradient>
<linearGradient id="paint15_linear_1_1465" x1="1310.27" y1="218.062" x2="0.265625" y2="218.062" gradientUnits="userSpaceOnUse">
<stop stop-color="white" stop-opacity="0"/>
<stop offset="0.186886" stop-color="white"/>
<stop offset="0.520833" stop-color="white" stop-opacity="0.69"/>
<stop offset="0.810556" stop-color="white"/>
<stop offset="1" stop-color="white" stop-opacity="0"/>
</linearGradient>
<linearGradient id="paint16_linear_1_1465" x1="1310.27" y1="512.062" x2="0.265625" y2="512.062" gradientUnits="userSpaceOnUse">
<stop stop-color="white" stop-opacity="0"/>
<stop offset="0.186886" stop-color="white"/>
<stop offset="0.520833" stop-color="white" stop-opacity="0.69"/>
<stop offset="0.810556" stop-color="white"/>
<stop offset="1" stop-color="white" stop-opacity="0"/>
</linearGradient>
<linearGradient id="paint17_linear_1_1465" x1="1310.27" y1="585.062" x2="0.265625" y2="585.062" gradientUnits="userSpaceOnUse">
<stop stop-color="white" stop-opacity="0"/>
<stop offset="0.186886" stop-color="white"/>
<stop offset="0.520833" stop-color="white" stop-opacity="0.69"/>
<stop offset="0.810556" stop-color="white"/>
<stop offset="1" stop-color="white" stop-opacity="0"/>
</linearGradient>
<linearGradient id="paint18_linear_1_1465" x1="1310.27" y1="169.062" x2="0.265625" y2="169.062" gradientUnits="userSpaceOnUse">
<stop stop-color="white" stop-opacity="0"/>
<stop offset="0.186886" stop-color="white"/>
<stop offset="0.520833" stop-color="white" stop-opacity="0.69"/>
<stop offset="0.810556" stop-color="white"/>
<stop offset="1" stop-color="white" stop-opacity="0"/>
</linearGradient>
<linearGradient id="paint19_linear_1_1465" x1="1310.27" y1="463.062" x2="0.265625" y2="463.062" gradientUnits="userSpaceOnUse">
<stop stop-color="white" stop-opacity="0"/>
<stop offset="0.186886" stop-color="white"/>
<stop offset="0.520833" stop-color="white" stop-opacity="0.69"/>
<stop offset="0.810556" stop-color="white"/>
<stop offset="1" stop-color="white" stop-opacity="0"/>
</linearGradient>
<linearGradient id="paint20_linear_1_1465" x1="1310.27" y1="267.062" x2="0.265625" y2="267.062" gradientUnits="userSpaceOnUse">
<stop stop-color="white" stop-opacity="0"/>
<stop offset="0.186886" stop-color="white"/>
<stop offset="0.520833" stop-color="white" stop-opacity="0.69"/>
<stop offset="0.810556" stop-color="white"/>
<stop offset="1" stop-color="white" stop-opacity="0"/>
</linearGradient>
<linearGradient id="paint21_linear_1_1465" x1="1310.27" y1="561.062" x2="0.265625" y2="561.062" gradientUnits="userSpaceOnUse">
<stop stop-color="white" stop-opacity="0"/>
<stop offset="0.186886" stop-color="white"/>
<stop offset="0.520833" stop-color="white" stop-opacity="0.69"/>
<stop offset="0.810556" stop-color="white"/>
<stop offset="1" stop-color="white" stop-opacity="0"/>
</linearGradient>
<linearGradient id="paint22_linear_1_1465" x1="1310.27" y1="634.062" x2="0.265625" y2="634.062" gradientUnits="userSpaceOnUse">
<stop stop-color="white" stop-opacity="0"/>
<stop offset="0.186886" stop-color="white"/>
<stop offset="0.520833" stop-color="white" stop-opacity="0.69"/>
<stop offset="0.810556" stop-color="white"/>
<stop offset="1" stop-color="white" stop-opacity="0"/>
</linearGradient>
<linearGradient id="paint23_linear_1_1465" x1="47.2656" y1="-31.0541" x2="47.2658" y2="760.062" gradientUnits="userSpaceOnUse">
<stop stop-color="white" stop-opacity="0"/>
<stop offset="0.526042" stop-color="white"/>
<stop offset="1" stop-color="white" stop-opacity="0"/>
</linearGradient>
<linearGradient id="paint24_linear_1_1465" x1="198.266" y1="-31.0541" x2="198.266" y2="760.062" gradientUnits="userSpaceOnUse">
<stop stop-color="white" stop-opacity="0"/>
<stop offset="0.526042" stop-color="white"/>
<stop offset="1" stop-color="white" stop-opacity="0"/>
</linearGradient>
<linearGradient id="paint25_linear_1_1465" x1="349.266" y1="-31.0541" x2="349.266" y2="760.062" gradientUnits="userSpaceOnUse">
<stop stop-color="white" stop-opacity="0"/>
<stop offset="0.526042" stop-color="white"/>
<stop offset="1" stop-color="white" stop-opacity="0"/>
</linearGradient>
<linearGradient id="paint26_linear_1_1465" x1="500.266" y1="-31.0541" x2="500.266" y2="760.062" gradientUnits="userSpaceOnUse">
<stop stop-color="white" stop-opacity="0"/>
<stop offset="0.526042" stop-color="white"/>
<stop offset="1" stop-color="white" stop-opacity="0"/>
</linearGradient>
<linearGradient id="paint27_linear_1_1465" x1="651.266" y1="-31.0541" x2="651.266" y2="760.062" gradientUnits="userSpaceOnUse">
<stop stop-color="white" stop-opacity="0"/>
<stop offset="0.526042" stop-color="white"/>
<stop offset="1" stop-color="white" stop-opacity="0"/>
</linearGradient>
<linearGradient id="paint28_linear_1_1465" x1="802.266" y1="-31.0541" x2="802.266" y2="760.062" gradientUnits="userSpaceOnUse">
<stop stop-color="white" stop-opacity="0"/>
<stop offset="0.526042" stop-color="white"/>
<stop offset="1" stop-color="white" stop-opacity="0"/>
</linearGradient>
<linearGradient id="paint29_linear_1_1465" x1="953.266" y1="-31.0541" x2="953.266" y2="760.062" gradientUnits="userSpaceOnUse">
<stop stop-color="white" stop-opacity="0"/>
<stop offset="0.526042" stop-color="white"/>
<stop offset="1" stop-color="white" stop-opacity="0"/>
</linearGradient>
<linearGradient id="paint30_linear_1_1465" x1="1104.27" y1="-31.0541" x2="1104.27" y2="760.062" gradientUnits="userSpaceOnUse">
<stop stop-color="white" stop-opacity="0"/>
<stop offset="0.526042" stop-color="white"/>
<stop offset="1" stop-color="white" stop-opacity="0"/>
</linearGradient>
<linearGradient id="paint31_linear_1_1465" x1="1255.27" y1="-31.0541" x2="1255.27" y2="760.062" gradientUnits="userSpaceOnUse">
<stop stop-color="white" stop-opacity="0"/>
<stop offset="0.526042" stop-color="white"/>
<stop offset="1" stop-color="white" stop-opacity="0"/>
</linearGradient>
<linearGradient id="paint32_linear_1_1465" x1="350.267" y1="638.483" x2="574.564" y2="638.483" gradientUnits="userSpaceOnUse">
<stop stop-color="white"/>
<stop offset="0.478148" stop-color="white" stop-opacity="0.52"/>
<stop offset="1" stop-color="white"/>
</linearGradient>
<linearGradient id="paint33_linear_1_1465" x1="350.267" y1="369.405" x2="574.564" y2="369.405" gradientUnits="userSpaceOnUse">
<stop stop-color="white"/>
<stop offset="0.478148" stop-color="white" stop-opacity="0.52"/>
<stop offset="1" stop-color="white"/>
</linearGradient>
<linearGradient id="paint34_linear_1_1465" x1="350.267" y1="247.101" x2="574.564" y2="247.101" gradientUnits="userSpaceOnUse">
<stop stop-color="white"/>
<stop offset="0.478148" stop-color="white" stop-opacity="0.52"/>
<stop offset="1" stop-color="white"/>
</linearGradient>
<linearGradient id="paint35_linear_1_1465" x1="350.267" y1="222.64" x2="574.564" y2="222.64" gradientUnits="userSpaceOnUse">
<stop stop-color="white"/>
<stop offset="0.478148" stop-color="white" stop-opacity="0.52"/>
<stop offset="1" stop-color="white"/>
</linearGradient>
<linearGradient id="paint36_linear_1_1465" x1="350.267" y1="149.249" x2="574.564" y2="149.249" gradientUnits="userSpaceOnUse">
<stop stop-color="white"/>
<stop offset="0.478148" stop-color="white" stop-opacity="0.52"/>
<stop offset="1" stop-color="white"/>
</linearGradient>
<linearGradient id="paint37_linear_1_1465" x1="350.265" y1="173.71" x2="724.265" y2="173.71" gradientUnits="userSpaceOnUse">
<stop stop-color="white"/>
<stop offset="0.478148" stop-color="white" stop-opacity="0.52"/>
<stop offset="1" stop-color="white"/>
</linearGradient>
<linearGradient id="paint38_linear_1_1465" x1="350.266" y1="344.944" x2="649.731" y2="344.944" gradientUnits="userSpaceOnUse">
<stop stop-color="white"/>
<stop offset="0.478148" stop-color="white" stop-opacity="0.52"/>
<stop offset="1" stop-color="white"/>
</linearGradient>
<linearGradient id="paint39_linear_1_1465" x1="350.264" y1="271.561" x2="800.368" y2="271.561" gradientUnits="userSpaceOnUse">
<stop stop-color="white"/>
<stop offset="0.478148" stop-color="white" stop-opacity="0.52"/>
<stop offset="1" stop-color="white"/>
</linearGradient>
<linearGradient id="paint40_linear_1_1465" x1="350.268" y1="614.022" x2="499.024" y2="614.022" gradientUnits="userSpaceOnUse">
<stop stop-color="white"/>
<stop offset="0.478148" stop-color="white" stop-opacity="0.52"/>
<stop offset="1" stop-color="white"/>
</linearGradient>
<linearGradient id="paint41_linear_1_1465" x1="350.269" y1="589.554" x2="422.845" y2="589.554" gradientUnits="userSpaceOnUse">
<stop stop-color="white"/>
<stop offset="0.478148" stop-color="white" stop-opacity="0.52"/>
<stop offset="1" stop-color="white"/>
</linearGradient>
<linearGradient id="paint42_linear_1_1465" x1="350.269" y1="565.093" x2="422.845" y2="565.093" gradientUnits="userSpaceOnUse">
<stop stop-color="white"/>
<stop offset="0.478148" stop-color="white" stop-opacity="0.52"/>
<stop offset="1" stop-color="white"/>
</linearGradient>
<linearGradient id="paint43_linear_1_1465" x1="350.269" y1="516.171" x2="422.845" y2="516.171" gradientUnits="userSpaceOnUse">
<stop stop-color="white"/>
<stop offset="0.478148" stop-color="white" stop-opacity="0.52"/>
<stop offset="1" stop-color="white"/>
</linearGradient>
<linearGradient id="paint44_linear_1_1465" x1="350.269" y1="393.866" x2="422.845" y2="393.866" gradientUnits="userSpaceOnUse">
<stop stop-color="white"/>
<stop offset="0.478148" stop-color="white" stop-opacity="0.52"/>
<stop offset="1" stop-color="white"/>
</linearGradient>
<linearGradient id="paint45_linear_1_1465" x1="350.268" y1="540.632" x2="499.024" y2="540.632" gradientUnits="userSpaceOnUse">
<stop stop-color="white"/>
<stop offset="0.478148" stop-color="white" stop-opacity="0.52"/>
<stop offset="1" stop-color="white"/>
</linearGradient>
<linearGradient id="paint46_linear_1_1465" x1="350.268" y1="491.71" x2="499.024" y2="491.71" gradientUnits="userSpaceOnUse">
<stop stop-color="white"/>
<stop offset="0.478148" stop-color="white" stop-opacity="0.52"/>
<stop offset="1" stop-color="white"/>
</linearGradient>
<linearGradient id="paint47_linear_1_1465" x1="350.268" y1="442.788" x2="499.024" y2="442.788" gradientUnits="userSpaceOnUse">
<stop stop-color="white"/>
<stop offset="0.478148" stop-color="white" stop-opacity="0.52"/>
<stop offset="1" stop-color="white"/>
</linearGradient>
<linearGradient id="paint48_linear_1_1465" x1="350.268" y1="296.022" x2="499.024" y2="296.022" gradientUnits="userSpaceOnUse">
<stop stop-color="white"/>
<stop offset="0.478148" stop-color="white" stop-opacity="0.52"/>
<stop offset="1" stop-color="white"/>
</linearGradient>
<linearGradient id="paint49_linear_1_1465" x1="350.268" y1="418.327" x2="499.024" y2="418.327" gradientUnits="userSpaceOnUse">
<stop stop-color="white"/>
<stop offset="0.478148" stop-color="white" stop-opacity="0.52"/>
<stop offset="1" stop-color="white"/>
</linearGradient>
<linearGradient id="paint50_linear_1_1465" x1="350.265" y1="467.249" x2="724.196" y2="467.249" gradientUnits="userSpaceOnUse">
<stop stop-color="white"/>
<stop offset="0.478148" stop-color="white" stop-opacity="0.52"/>
<stop offset="1" stop-color="white"/>
</linearGradient>
<linearGradient id="paint51_linear_1_1465" x1="350.26" y1="320.483" x2="1101.35" y2="320.483" gradientUnits="userSpaceOnUse">
<stop stop-color="white"/>
<stop offset="0.478148" stop-color="white" stop-opacity="0.52"/>
<stop offset="1" stop-color="white"/>
</linearGradient>
<linearGradient id="paint52_linear_1_1465" x1="575.731" y1="633.349" x2="724.284" y2="633.349" gradientUnits="userSpaceOnUse">
<stop stop-color="#FF0000" stop-opacity="0.52"/>
<stop offset="1" stop-color="#FF0000"/>
</linearGradient>
<linearGradient id="paint53_linear_1_1465" x1="423.945" y1="584.42" x2="499.945" y2="584.42" gradientUnits="userSpaceOnUse">
<stop stop-color="#FF0000" stop-opacity="0.52"/>
<stop offset="1" stop-color="#FF0000"/>
</linearGradient>
<linearGradient id="paint54_linear_1_1465" x1="423.945" y1="511.037" x2="499.945" y2="511.037" gradientUnits="userSpaceOnUse">
<stop stop-color="#FF0000" stop-opacity="0.52"/>
<stop offset="1" stop-color="#FF0000"/>
</linearGradient>
<linearGradient id="paint55_linear_1_1465" x1="500.219" y1="413.193" x2="576.219" y2="413.193" gradientUnits="userSpaceOnUse">
<stop stop-color="#FF0000" stop-opacity="0.52"/>
<stop offset="1" stop-color="#FF0000"/>
</linearGradient>
<linearGradient id="paint56_linear_1_1465" x1="725.266" y1="462.115" x2="801.266" y2="462.115" gradientUnits="userSpaceOnUse">
<stop stop-color="#FF0000" stop-opacity="0.52"/>
<stop offset="1" stop-color="#FF0000"/>
</linearGradient>
<linearGradient id="paint57_linear_1_1465" x1="575.695" y1="364.271" x2="651.695" y2="364.271" gradientUnits="userSpaceOnUse">
<stop stop-color="#FF0000" stop-opacity="0.52"/>
<stop offset="1" stop-color="#FF0000"/>
</linearGradient>
<linearGradient id="paint58_linear_1_1465" x1="575.695" y1="241.967" x2="651.695" y2="241.967" gradientUnits="userSpaceOnUse">
<stop stop-color="#FF0000" stop-opacity="0.52"/>
<stop offset="1" stop-color="#FF0000"/>
</linearGradient>
<linearGradient id="paint59_linear_1_1465" x1="575.695" y1="217.506" x2="651.695" y2="217.506" gradientUnits="userSpaceOnUse">
<stop stop-color="#FF0000" stop-opacity="0.52"/>
<stop offset="1" stop-color="#FF0000"/>
</linearGradient>
<linearGradient id="paint60_linear_1_1465" x1="725.266" y1="168.576" x2="801.266" y2="168.576" gradientUnits="userSpaceOnUse">
<stop stop-color="#FF0000" stop-opacity="0.52"/>
<stop offset="1" stop-color="#FF0000"/>
</linearGradient>
<linearGradient id="paint61_linear_1_1465" x1="650.756" y1="339.81" x2="726.756" y2="339.81" gradientUnits="userSpaceOnUse">
<stop stop-color="#FF0000" stop-opacity="0.52"/>
<stop offset="1" stop-color="#FF0000"/>
</linearGradient>
<linearGradient id="paint62_linear_1_1465" x1="424.067" y1="559.967" x2="575.431" y2="559.967" gradientUnits="userSpaceOnUse">
<stop stop-color="#FF0000" stop-opacity="0.52"/>
<stop offset="1" stop-color="#FF0000"/>
</linearGradient>
<linearGradient id="paint63_linear_1_1465" x1="424.067" y1="388.732" x2="575.431" y2="388.732" gradientUnits="userSpaceOnUse">
<stop stop-color="#FF0000" stop-opacity="0.52"/>
<stop offset="1" stop-color="#FF0000"/>
</linearGradient>
<linearGradient id="paint64_linear_1_1465" x1="500.219" y1="535.498" x2="651.108" y2="535.498" gradientUnits="userSpaceOnUse">
<stop stop-color="#FF0000" stop-opacity="0.52"/>
<stop offset="1" stop-color="#FF0000"/>
</linearGradient>
<linearGradient id="paint65_linear_1_1465" x1="500.219" y1="486.576" x2="651.108" y2="486.576" gradientUnits="userSpaceOnUse">
<stop stop-color="#FF0000" stop-opacity="0.52"/>
<stop offset="1" stop-color="#FF0000"/>
</linearGradient>
<linearGradient id="paint66_linear_1_1465" x1="500.219" y1="290.888" x2="651.108" y2="290.888" gradientUnits="userSpaceOnUse">
<stop stop-color="#FF0000" stop-opacity="0.52"/>
<stop offset="1" stop-color="#FF0000"/>
</linearGradient>
<linearGradient id="paint67_linear_1_1465" x1="1239.29" y1="105.877" x2="1251.26" y2="105.877" gradientUnits="userSpaceOnUse">
<stop stop-color="#FF0000" stop-opacity="0.52"/>
<stop offset="1" stop-color="#FF0000"/>
</linearGradient>
</defs>
</svg>
