<svg width="15.498535" height="6.661133" viewBox="0 0 15.4985 6.66113" fill="none" xmlns="http://www.w3.org/2000/svg" xmlns:xlink="http://www.w3.org/1999/xlink">
	<desc>
			Created with Pixso.
	</desc>
	<defs/>
	<path id="Arrow 1" d="M1.20947 3.33057L3.68457 5.80566C3.88232 6.00342 3.88232 6.31445 3.68457 6.5127C3.48633 6.71045 3.17529 6.71045 2.97754 6.5127L0.148926 3.68408C-0.0493164 3.48633 -0.0493164 3.1748 0.148926 2.97705L2.97754 0.148438C3.17529 -0.0493164 3.48633 -0.0493164 3.68457 0.148438C3.88232 0.34668 3.88232 0.657715 3.68457 0.855469L1.20947 3.33057Z" fill="#5A5E61" fill-opacity="1.000000" fill-rule="nonzero"/>
	<path id="Arrow 1" d="M15.4985 3.83057L0.502441 3.83057L0.502441 2.83057L15.4985 2.83057L15.4985 3.83057ZM1.20947 3.33057L3.68457 5.80566C3.88232 6.00342 3.88232 6.31445 3.68457 6.5127C3.48633 6.71045 3.17529 6.71045 2.97754 6.5127L0.148926 3.68408C-0.0493164 3.48633 -0.0493164 3.1748 0.148926 2.97705L2.97754 0.148438C3.17529 -0.0493164 3.48633 -0.0493164 3.68457 0.148438C3.88232 0.34668 3.88232 0.657715 3.68457 0.855469L1.20947 3.33057Z" fill="#5A5E61" fill-opacity="1.000000" fill-rule="evenodd"/>
</svg>
