<svg width="391" height="690" viewBox="0 0 391 690" fill="none" xmlns="http://www.w3.org/2000/svg">
<line x1="12.6602" y1="1.6875" x2="12.6602" y2="678.318" stroke="url(#paint0_linear_1_3192)" stroke-width="2" stroke-linecap="round"/>
<line x1="58.6602" y1="1.6875" x2="58.6602" y2="678.318" stroke="url(#paint1_linear_1_3192)" stroke-opacity="0.5" stroke-width="2" stroke-linecap="round"/>
<line x1="104.66" y1="1.6875" x2="104.66" y2="678.318" stroke="url(#paint2_linear_1_3192)" stroke-width="2" stroke-linecap="round"/>
<line x1="150.66" y1="1.6875" x2="150.66" y2="678.318" stroke="url(#paint3_linear_1_3192)" stroke-width="2" stroke-linecap="round"/>
<line x1="196.66" y1="1.6875" x2="196.66" y2="678.318" stroke="url(#paint4_linear_1_3192)" stroke-width="2" stroke-linecap="round"/>
<line x1="242.66" y1="1.6875" x2="242.66" y2="678.318" stroke="url(#paint5_linear_1_3192)" stroke-width="2" stroke-linecap="round"/>
<line x1="288.66" y1="1.6875" x2="288.66" y2="678.318" stroke="url(#paint6_linear_1_3192)" stroke-width="2" stroke-linecap="round"/>
<line x1="334.66" y1="1.6875" x2="334.66" y2="678.318" stroke="url(#paint7_linear_1_3192)" stroke-width="2" stroke-linecap="round"/>
<line x1="380.66" y1="1.6875" x2="380.66" y2="678.318" stroke="url(#paint8_linear_1_3192)" stroke-width="2" stroke-linecap="round"/>
<path d="M0.535156 51.6562H390.793" stroke="url(#paint9_linear_1_3192)" stroke-width="1.10083" stroke-dasharray="4 4"/>
<path d="M0.535156 76.6562H390.793" stroke="url(#paint10_linear_1_3192)" stroke-width="1.10083" stroke-dasharray="4 4"/>
<path d="M0.535156 101.656H390.793" stroke="url(#paint11_linear_1_3192)" stroke-width="1.10083" stroke-dasharray="4 4"/>
<path d="M0.535156 126.656H390.793" stroke="url(#paint12_linear_1_3192)" stroke-width="1.10083" stroke-dasharray="4 4"/>
<path d="M0.535156 151.656H390.793" stroke="url(#paint13_linear_1_3192)" stroke-width="1.10083" stroke-dasharray="4 4"/>
<path d="M0.535156 176.656H390.793" stroke="url(#paint14_linear_1_3192)" stroke-width="1.10083" stroke-dasharray="4 4"/>
<path d="M0.535156 201.656H390.793" stroke="url(#paint15_linear_1_3192)" stroke-width="1.10083" stroke-dasharray="4 4"/>
<path d="M0.535156 226.656H390.793" stroke="url(#paint16_linear_1_3192)" stroke-width="1.10083" stroke-dasharray="4 4"/>
<path d="M0.535156 251.656H390.793" stroke="url(#paint17_linear_1_3192)" stroke-width="1.10083" stroke-dasharray="4 4"/>
<path d="M0.535156 276.656H390.793" stroke="url(#paint18_linear_1_3192)" stroke-width="1.10083" stroke-dasharray="4 4"/>
<path d="M0.535156 301.656H390.793" stroke="url(#paint19_linear_1_3192)" stroke-width="1.10083" stroke-dasharray="4 4"/>
<path d="M0.535156 326.656H390.793" stroke="url(#paint20_linear_1_3192)" stroke-width="1.10083" stroke-dasharray="4 4"/>
<path d="M0.535156 351.656H390.793" stroke="url(#paint21_linear_1_3192)" stroke-width="1.10083" stroke-dasharray="4 4"/>
<path d="M0.535156 376.656H390.793" stroke="url(#paint22_linear_1_3192)" stroke-width="1.10083" stroke-dasharray="4 4"/>
<path d="M0.535156 401.656H390.793" stroke="url(#paint23_linear_1_3192)" stroke-width="1.10083" stroke-dasharray="4 4"/>
<path d="M0.535156 426.656H390.793" stroke="url(#paint24_linear_1_3192)" stroke-width="1.10083" stroke-dasharray="4 4"/>
<path d="M0.535156 451.656H390.793" stroke="url(#paint25_linear_1_3192)" stroke-width="1.10083" stroke-dasharray="4 4"/>
<path d="M0.535156 476.656H390.793" stroke="url(#paint26_linear_1_3192)" stroke-width="1.10083" stroke-dasharray="4 4"/>
<path d="M0.535156 501.656H390.793" stroke="url(#paint27_linear_1_3192)" stroke-width="1.10083" stroke-dasharray="4 4"/>
<path d="M0.535156 526.656H390.793" stroke="url(#paint28_linear_1_3192)" stroke-width="1.10083" stroke-dasharray="4 4"/>
<path d="M0.535156 551.656H390.793" stroke="url(#paint29_linear_1_3192)" stroke-width="1.10083" stroke-dasharray="4 4"/>
<path d="M0.535156 576.656H390.793" stroke="url(#paint30_linear_1_3192)" stroke-width="1.10083" stroke-dasharray="4 4"/>
<path d="M0.535156 601.656H390.793" stroke="url(#paint31_linear_1_3192)" stroke-width="1.10083" stroke-dasharray="4 4"/>
<path d="M46.3835 107.039V105.983C47.3435 105.226 48.1915 104.543 48.9275 103.935C49.6635 103.316 50.2822 102.746 50.7835 102.223C51.2849 101.69 51.6635 101.194 51.9195 100.735C52.1755 100.266 52.3035 99.8017 52.3035 99.3431C52.3035 99.0017 52.2395 98.7084 52.1115 98.4631C51.9835 98.2177 51.8129 98.0151 51.5995 97.8551C51.3969 97.6951 51.1622 97.5777 50.8955 97.5031C50.6289 97.4284 50.3569 97.3911 50.0795 97.3911C49.4395 97.3911 48.8742 97.5137 48.3835 97.7591C47.8929 98.0044 47.4929 98.3297 47.1835 98.7351L46.3675 97.8871C46.7729 97.3431 47.3009 96.9271 47.9515 96.6391C48.6129 96.3511 49.3222 96.2071 50.0795 96.2071C50.5275 96.2071 50.9649 96.2711 51.3915 96.3991C51.8182 96.5271 52.1969 96.7191 52.5275 96.9751C52.8689 97.2311 53.1409 97.5564 53.3435 97.9511C53.5569 98.3457 53.6635 98.8097 53.6635 99.3431C53.6635 99.8871 53.5302 100.426 53.2635 100.959C53.0075 101.482 52.6449 102.01 52.1755 102.543C51.7169 103.066 51.1729 103.604 50.5435 104.159C49.9142 104.703 49.2262 105.268 48.4795 105.855H53.7115V107.039H46.3835ZM59.8218 107.231C59.0858 107.231 58.4618 107.066 57.9498 106.735C57.4378 106.404 57.0164 105.978 56.6858 105.455C56.3551 104.922 56.1151 104.33 55.9658 103.679C55.8164 103.018 55.7418 102.362 55.7418 101.711C55.7418 101.06 55.8164 100.41 55.9658 99.7591C56.1151 99.0977 56.3551 98.5057 56.6858 97.9831C57.0164 97.4604 57.4378 97.0337 57.9498 96.7031C58.4618 96.3724 59.0858 96.2071 59.8218 96.2071C60.5471 96.2071 61.1658 96.3724 61.6778 96.7031C62.2004 97.0337 62.6218 97.4604 62.9418 97.9831C63.2724 98.5057 63.5124 99.0977 63.6618 99.7591C63.8218 100.41 63.9018 101.06 63.9018 101.711C63.9018 102.362 63.8218 103.018 63.6618 103.679C63.5124 104.33 63.2724 104.922 62.9418 105.455C62.6218 105.978 62.2004 106.404 61.6778 106.735C61.1658 107.066 60.5471 107.231 59.8218 107.231ZM59.8218 106.047C60.3338 106.047 60.7604 105.924 61.1018 105.679C61.4538 105.423 61.7364 105.092 61.9498 104.687C62.1631 104.271 62.3124 103.807 62.3978 103.295C62.4938 102.772 62.5418 102.244 62.5418 101.711C62.5418 101.178 62.4938 100.655 62.3978 100.143C62.3124 99.6204 62.1631 99.1564 61.9498 98.7511C61.7364 98.3457 61.4538 98.0204 61.1018 97.7751C60.7604 97.5191 60.3338 97.3911 59.8218 97.3911C59.3098 97.3911 58.8778 97.5191 58.5258 97.7751C58.1844 98.0204 57.9071 98.3457 57.6938 98.7511C57.4804 99.1564 57.3258 99.6204 57.2298 100.143C57.1444 100.655 57.1018 101.178 57.1018 101.711C57.1018 102.244 57.1444 102.772 57.2298 103.295C57.3258 103.807 57.4804 104.271 57.6938 104.687C57.9071 105.092 58.1844 105.423 58.5258 105.679C58.8778 105.924 59.3098 106.047 59.8218 106.047ZM65.5867 107.039V105.983C66.5467 105.226 67.3947 104.543 68.1307 103.935C68.8667 103.316 69.4853 102.746 69.9867 102.223C70.488 101.69 70.8667 101.194 71.1227 100.735C71.3787 100.266 71.5067 99.8017 71.5067 99.3431C71.5067 99.0017 71.4427 98.7084 71.3147 98.4631C71.1867 98.2177 71.016 98.0151 70.8027 97.8551C70.6 97.6951 70.3653 97.5777 70.0987 97.5031C69.832 97.4284 69.56 97.3911 69.2827 97.3911C68.6427 97.3911 68.0773 97.5137 67.5867 97.7591C67.096 98.0044 66.696 98.3297 66.3867 98.7351L65.5707 97.8871C65.976 97.3431 66.504 96.9271 67.1547 96.6391C67.816 96.3511 68.5253 96.2071 69.2827 96.2071C69.7307 96.2071 70.168 96.2711 70.5947 96.3991C71.0213 96.5271 71.4 96.7191 71.7307 96.9751C72.072 97.2311 72.344 97.5564 72.5467 97.9511C72.76 98.3457 72.8667 98.8097 72.8667 99.3431C72.8667 99.8871 72.7333 100.426 72.4667 100.959C72.2107 101.482 71.848 102.01 71.3787 102.543C70.92 103.066 70.376 103.604 69.7467 104.159C69.1173 104.703 68.4293 105.268 67.6827 105.855H72.9147V107.039H65.5867ZM74.9929 107.039V105.983C75.9529 105.226 76.8009 104.543 77.5369 103.935C78.2729 103.316 78.8916 102.746 79.3929 102.223C79.8942 101.69 80.2729 101.194 80.5289 100.735C80.7849 100.266 80.9129 99.8017 80.9129 99.3431C80.9129 99.0017 80.8489 98.7084 80.7209 98.4631C80.5929 98.2177 80.4222 98.0151 80.2089 97.8551C80.0062 97.6951 79.7716 97.5777 79.5049 97.5031C79.2382 97.4284 78.9662 97.3911 78.6889 97.3911C78.0489 97.3911 77.4836 97.5137 76.9929 97.7591C76.5022 98.0044 76.1022 98.3297 75.7929 98.7351L74.9769 97.8871C75.3822 97.3431 75.9102 96.9271 76.5609 96.6391C77.2222 96.3511 77.9316 96.2071 78.6889 96.2071C79.1369 96.2071 79.5742 96.2711 80.0009 96.3991C80.4276 96.5271 80.8062 96.7191 81.1369 96.9751C81.4782 97.2311 81.7502 97.5564 81.9529 97.9511C82.1662 98.3457 82.2729 98.8097 82.2729 99.3431C82.2729 99.8871 82.1396 100.426 81.8729 100.959C81.6169 101.482 81.2542 102.01 80.7849 102.543C80.3262 103.066 79.7822 103.604 79.1529 104.159C78.5236 104.703 77.8356 105.268 77.0889 105.855H82.3209V107.039H74.9929Z" fill="#64686A"/>
<path d="M46.3973 144.039V142.983C47.3573 142.226 48.2053 141.543 48.9413 140.935C49.6773 140.316 50.2959 139.746 50.7973 139.223C51.2986 138.69 51.6773 138.194 51.9333 137.735C52.1893 137.266 52.3173 136.802 52.3173 136.343C52.3173 136.002 52.2533 135.708 52.1253 135.463C51.9973 135.218 51.8266 135.015 51.6133 134.855C51.4106 134.695 51.1759 134.578 50.9093 134.503C50.6426 134.428 50.3706 134.391 50.0933 134.391C49.4533 134.391 48.8879 134.514 48.3973 134.759C47.9066 135.004 47.5066 135.33 47.1973 135.735L46.3813 134.887C46.7866 134.343 47.3146 133.927 47.9653 133.639C48.6266 133.351 49.3359 133.207 50.0933 133.207C50.5413 133.207 50.9786 133.271 51.4053 133.399C51.8319 133.527 52.2106 133.719 52.5413 133.975C52.8826 134.231 53.1546 134.556 53.3573 134.951C53.5706 135.346 53.6773 135.81 53.6773 136.343C53.6773 136.887 53.5439 137.426 53.2773 137.959C53.0213 138.482 52.6586 139.01 52.1893 139.543C51.7306 140.066 51.1866 140.604 50.5573 141.159C49.9279 141.703 49.2399 142.268 48.4933 142.855H53.7253V144.039H46.3973ZM61.1955 144.231C60.4595 144.231 59.8355 144.066 59.3235 143.735C58.8115 143.404 58.3902 142.978 58.0595 142.455C57.7289 141.922 57.4889 141.33 57.3395 140.679C57.1902 140.018 57.1155 139.362 57.1155 138.711C57.1155 138.06 57.1902 137.41 57.3395 136.759C57.4889 136.098 57.7289 135.506 58.0595 134.983C58.3902 134.46 58.8115 134.034 59.3235 133.703C59.8355 133.372 60.4595 133.207 61.1955 133.207C61.9209 133.207 62.5395 133.372 63.0515 133.703C63.5742 134.034 63.9955 134.46 64.3155 134.983C64.6462 135.506 64.8862 136.098 65.0355 136.759C65.1955 137.41 65.2755 138.06 65.2755 138.711C65.2755 139.362 65.1955 140.018 65.0355 140.679C64.8862 141.33 64.6462 141.922 64.3155 142.455C63.9955 142.978 63.5742 143.404 63.0515 143.735C62.5395 144.066 61.9209 144.231 61.1955 144.231ZM61.1955 143.047C61.7075 143.047 62.1342 142.924 62.4755 142.679C62.8275 142.423 63.1102 142.092 63.3235 141.687C63.5369 141.271 63.6862 140.807 63.7715 140.295C63.8675 139.772 63.9155 139.244 63.9155 138.711C63.9155 138.178 63.8675 137.655 63.7715 137.143C63.6862 136.62 63.5369 136.156 63.3235 135.751C63.1102 135.346 62.8275 135.02 62.4755 134.775C62.1342 134.519 61.7075 134.391 61.1955 134.391C60.6835 134.391 60.2515 134.519 59.8995 134.775C59.5582 135.02 59.2809 135.346 59.0675 135.751C58.8542 136.156 58.6995 136.62 58.6035 137.143C58.5182 137.655 58.4755 138.178 58.4755 138.711C58.4755 139.244 58.5182 139.772 58.6035 140.295C58.6995 140.807 58.8542 141.271 59.0675 141.687C59.2809 142.092 59.5582 142.423 59.8995 142.679C60.2515 142.924 60.6835 143.047 61.1955 143.047ZM70.3044 144.039V135.127L68.5924 136.935L67.7924 136.119L70.4644 133.367H71.6324V144.039H70.3044ZM78.8943 144.231C78.3609 144.231 77.8596 144.167 77.3903 144.039C76.9316 143.911 76.5316 143.724 76.1903 143.479C75.8489 143.223 75.5769 142.919 75.3743 142.567C75.1716 142.204 75.0703 141.794 75.0703 141.335C75.0703 140.983 75.1396 140.658 75.2783 140.359C75.4169 140.06 75.6036 139.794 75.8383 139.559C76.0729 139.314 76.3449 139.106 76.6543 138.935C76.9636 138.764 77.2836 138.631 77.6143 138.535C77.3049 138.45 77.0063 138.332 76.7183 138.183C76.4409 138.034 76.1903 137.858 75.9663 137.655C75.7529 137.442 75.5769 137.196 75.4383 136.919C75.3103 136.642 75.2463 136.327 75.2463 135.975C75.2463 135.495 75.3529 135.084 75.5663 134.743C75.7796 134.391 76.0569 134.103 76.3983 133.879C76.7503 133.644 77.1396 133.474 77.5663 133.367C78.0036 133.26 78.4463 133.207 78.8943 133.207C79.3316 133.207 79.7689 133.26 80.2063 133.367C80.6436 133.474 81.0329 133.644 81.3743 133.879C81.7263 134.103 82.0089 134.391 82.2223 134.743C82.4463 135.084 82.5583 135.495 82.5583 135.975C82.5583 136.327 82.4889 136.642 82.3503 136.919C82.2223 137.196 82.0463 137.442 81.8223 137.655C81.6089 137.858 81.3583 138.034 81.0703 138.183C80.7823 138.332 80.4836 138.45 80.1743 138.535C80.5049 138.631 80.8249 138.764 81.1343 138.935C81.4436 139.106 81.7156 139.314 81.9503 139.559C82.1849 139.794 82.3716 140.06 82.5103 140.359C82.6489 140.658 82.7183 140.983 82.7183 141.335C82.7183 141.783 82.6169 142.188 82.4143 142.551C82.2116 142.914 81.9343 143.218 81.5823 143.463C81.2409 143.708 80.8356 143.9 80.3663 144.039C79.9076 144.167 79.4169 144.231 78.8943 144.231ZM78.8943 137.991C79.0543 137.959 79.2676 137.911 79.5343 137.847C79.8009 137.772 80.0569 137.666 80.3023 137.527C80.5476 137.378 80.7609 137.191 80.9423 136.967C81.1236 136.743 81.2143 136.471 81.2143 136.151C81.2143 135.874 81.1503 135.628 81.0223 135.415C80.9049 135.191 80.7396 135.004 80.5263 134.855C80.3236 134.706 80.0783 134.594 79.7903 134.519C79.5129 134.434 79.2143 134.391 78.8943 134.391C78.5743 134.391 78.2703 134.434 77.9823 134.519C77.7049 134.594 77.4596 134.706 77.2463 134.855C77.0436 135.004 76.8783 135.191 76.7503 135.415C76.6329 135.628 76.5743 135.874 76.5743 136.151C76.5743 136.471 76.6649 136.743 76.8463 136.967C77.0276 137.191 77.2409 137.378 77.4863 137.527C77.7423 137.666 77.9983 137.772 78.2543 137.847C78.5209 137.911 78.7343 137.959 78.8943 137.991ZM78.8943 143.047C79.2249 143.047 79.5396 143.004 79.8383 142.919C80.1369 142.834 80.3983 142.711 80.6223 142.551C80.8569 142.391 81.0383 142.199 81.1663 141.975C81.3049 141.74 81.3743 141.479 81.3743 141.191C81.3743 140.839 81.2729 140.54 81.0703 140.295C80.8783 140.039 80.6489 139.831 80.3823 139.671C80.1156 139.5 79.8383 139.372 79.5503 139.287C79.2729 139.202 79.0543 139.148 78.8943 139.127C78.7343 139.148 78.5103 139.202 78.2223 139.287C77.9449 139.372 77.6676 139.5 77.3903 139.671C77.1236 139.831 76.8889 140.039 76.6863 140.295C76.4943 140.54 76.3983 140.839 76.3983 141.191C76.3983 141.479 76.4623 141.74 76.5903 141.975C76.7289 142.199 76.9103 142.391 77.1343 142.551C77.3689 142.711 77.6356 142.834 77.9343 142.919C78.2436 143.004 78.5636 143.047 78.8943 143.047Z" fill="#64686A"/>
<path d="M46.241 194.039V192.983C47.201 192.226 48.049 191.543 48.785 190.935C49.521 190.316 50.1397 189.746 50.641 189.223C51.1424 188.69 51.521 188.194 51.777 187.735C52.033 187.266 52.161 186.802 52.161 186.343C52.161 186.002 52.097 185.708 51.969 185.463C51.841 185.218 51.6704 185.015 51.457 184.855C51.2544 184.695 51.0197 184.578 50.753 184.503C50.4864 184.428 50.2144 184.391 49.937 184.391C49.297 184.391 48.7317 184.514 48.241 184.759C47.7504 185.004 47.3504 185.33 47.041 185.735L46.225 184.887C46.6304 184.343 47.1584 183.927 47.809 183.639C48.4704 183.351 49.1797 183.207 49.937 183.207C50.385 183.207 50.8224 183.271 51.249 183.399C51.6757 183.527 52.0544 183.719 52.385 183.975C52.7264 184.231 52.9984 184.556 53.201 184.951C53.4144 185.346 53.521 185.81 53.521 186.343C53.521 186.887 53.3877 187.426 53.121 187.959C52.865 188.482 52.5024 189.01 52.033 189.543C51.5744 190.066 51.0304 190.604 50.401 191.159C49.7717 191.703 49.0837 192.268 48.337 192.855H53.569V194.039H46.241ZM61.0393 194.231C60.3033 194.231 59.6793 194.066 59.1673 193.735C58.6553 193.404 58.2339 192.978 57.9033 192.455C57.5726 191.922 57.3326 191.33 57.1833 190.679C57.0339 190.018 56.9593 189.362 56.9593 188.711C56.9593 188.06 57.0339 187.41 57.1833 186.759C57.3326 186.098 57.5726 185.506 57.9033 184.983C58.2339 184.46 58.6553 184.034 59.1673 183.703C59.6793 183.372 60.3033 183.207 61.0393 183.207C61.7646 183.207 62.3833 183.372 62.8953 183.703C63.4179 184.034 63.8393 184.46 64.1593 184.983C64.4899 185.506 64.7299 186.098 64.8793 186.759C65.0393 187.41 65.1193 188.06 65.1193 188.711C65.1193 189.362 65.0393 190.018 64.8793 190.679C64.7299 191.33 64.4899 191.922 64.1593 192.455C63.8393 192.978 63.4179 193.404 62.8953 193.735C62.3833 194.066 61.7646 194.231 61.0393 194.231ZM61.0393 193.047C61.5513 193.047 61.9779 192.924 62.3193 192.679C62.6713 192.423 62.9539 192.092 63.1673 191.687C63.3806 191.271 63.5299 190.807 63.6153 190.295C63.7113 189.772 63.7593 189.244 63.7593 188.711C63.7593 188.178 63.7113 187.655 63.6153 187.143C63.5299 186.62 63.3806 186.156 63.1673 185.751C62.9539 185.346 62.6713 185.02 62.3193 184.775C61.9779 184.519 61.5513 184.391 61.0393 184.391C60.5273 184.391 60.0953 184.519 59.7433 184.775C59.4019 185.02 59.1246 185.346 58.9113 185.751C58.6979 186.156 58.5433 186.62 58.4473 187.143C58.3619 187.655 58.3193 188.178 58.3193 188.711C58.3193 189.244 58.3619 189.772 58.4473 190.295C58.5433 190.807 58.6979 191.271 58.9113 191.687C59.1246 192.092 59.4019 192.423 59.7433 192.679C60.0953 192.924 60.5273 193.047 61.0393 193.047ZM70.1482 194.039V185.127L68.4362 186.935L67.6362 186.119L70.3082 183.367H71.4762V194.039H70.1482ZM79.01 194.231C78.2634 194.231 77.6287 194.082 77.106 193.783C76.5834 193.474 76.1567 193.068 75.826 192.567C75.506 192.055 75.2714 191.468 75.122 190.807C74.9727 190.146 74.898 189.452 74.898 188.727C74.898 188.002 74.9834 187.308 75.154 186.647C75.3247 185.975 75.586 185.388 75.938 184.887C76.3007 184.375 76.754 183.97 77.298 183.671C77.842 183.362 78.4874 183.207 79.234 183.207C79.9274 183.207 80.5087 183.33 80.978 183.575C81.458 183.81 81.8634 184.114 82.194 184.487L81.522 185.479C81.2447 185.159 80.9354 184.898 80.594 184.695C80.2527 184.492 79.7994 184.391 79.234 184.391C78.722 184.391 78.274 184.514 77.89 184.759C77.5167 184.994 77.202 185.308 76.946 185.703C76.7007 186.098 76.5194 186.546 76.402 187.047C76.2847 187.548 76.226 188.06 76.226 188.583C76.226 188.658 76.226 188.727 76.226 188.791C76.226 188.855 76.2314 188.924 76.242 188.999C76.3594 188.818 76.514 188.631 76.706 188.439C76.9087 188.236 77.1434 188.055 77.41 187.895C77.6767 187.735 77.9647 187.602 78.274 187.495C78.594 187.388 78.9247 187.335 79.266 187.335C79.746 187.335 80.194 187.41 80.61 187.559C81.0367 187.698 81.41 187.911 81.73 188.199C82.05 188.476 82.3007 188.828 82.482 189.255C82.6634 189.682 82.754 190.178 82.754 190.743C82.754 191.212 82.6687 191.66 82.498 192.087C82.3274 192.503 82.082 192.871 81.762 193.191C81.442 193.511 81.0474 193.767 80.578 193.959C80.1194 194.14 79.5967 194.231 79.01 194.231ZM78.962 193.047C79.378 193.047 79.7354 192.978 80.034 192.839C80.3434 192.7 80.5994 192.524 80.802 192.311C81.0047 192.087 81.154 191.842 81.25 191.575C81.3567 191.308 81.41 191.047 81.41 190.791C81.41 190.396 81.346 190.055 81.218 189.767C81.09 189.479 80.914 189.239 80.69 189.047C80.466 188.855 80.2047 188.716 79.906 188.631C79.6074 188.535 79.2874 188.487 78.946 188.487C78.4127 188.487 77.906 188.636 77.426 188.935C76.9567 189.223 76.5727 189.607 76.274 190.087C76.306 190.418 76.3754 190.759 76.482 191.111C76.5994 191.463 76.7594 191.783 76.962 192.071C77.1754 192.359 77.442 192.594 77.762 192.775C78.0927 192.956 78.4927 193.047 78.962 193.047Z" fill="#64686A"/>
<path d="M46.7723 244.039V242.983C47.7323 242.226 48.5803 241.543 49.3163 240.935C50.0523 240.316 50.6709 239.746 51.1723 239.223C51.6736 238.69 52.0523 238.194 52.3083 237.735C52.5643 237.266 52.6923 236.802 52.6923 236.343C52.6923 236.002 52.6283 235.708 52.5003 235.463C52.3723 235.218 52.2016 235.015 51.9883 234.855C51.7856 234.695 51.5509 234.578 51.2843 234.503C51.0176 234.428 50.7456 234.391 50.4683 234.391C49.8283 234.391 49.2629 234.514 48.7723 234.759C48.2816 235.004 47.8816 235.33 47.5723 235.735L46.7563 234.887C47.1616 234.343 47.6896 233.927 48.3403 233.639C49.0016 233.351 49.7109 233.207 50.4683 233.207C50.9163 233.207 51.3536 233.271 51.7803 233.399C52.2069 233.527 52.5856 233.719 52.9163 233.975C53.2576 234.231 53.5296 234.556 53.7323 234.951C53.9456 235.346 54.0523 235.81 54.0523 236.343C54.0523 236.887 53.9189 237.426 53.6523 237.959C53.3963 238.482 53.0336 239.01 52.5643 239.543C52.1056 240.066 51.5616 240.604 50.9323 241.159C50.3029 241.703 49.6149 242.268 48.8683 242.855H54.1003V244.039H46.7723ZM61.5705 244.231C60.8345 244.231 60.2105 244.066 59.6985 243.735C59.1865 243.404 58.7652 242.978 58.4345 242.455C58.1039 241.922 57.8639 241.33 57.7145 240.679C57.5652 240.018 57.4905 239.362 57.4905 238.711C57.4905 238.06 57.5652 237.41 57.7145 236.759C57.8639 236.098 58.1039 235.506 58.4345 234.983C58.7652 234.46 59.1865 234.034 59.6985 233.703C60.2105 233.372 60.8345 233.207 61.5705 233.207C62.2959 233.207 62.9145 233.372 63.4265 233.703C63.9492 234.034 64.3705 234.46 64.6905 234.983C65.0212 235.506 65.2612 236.098 65.4105 236.759C65.5705 237.41 65.6505 238.06 65.6505 238.711C65.6505 239.362 65.5705 240.018 65.4105 240.679C65.2612 241.33 65.0212 241.922 64.6905 242.455C64.3705 242.978 63.9492 243.404 63.4265 243.735C62.9145 244.066 62.2959 244.231 61.5705 244.231ZM61.5705 243.047C62.0825 243.047 62.5092 242.924 62.8505 242.679C63.2025 242.423 63.4852 242.092 63.6985 241.687C63.9119 241.271 64.0612 240.807 64.1465 240.295C64.2425 239.772 64.2905 239.244 64.2905 238.711C64.2905 238.178 64.2425 237.655 64.1465 237.143C64.0612 236.62 63.9119 236.156 63.6985 235.751C63.4852 235.346 63.2025 235.02 62.8505 234.775C62.5092 234.519 62.0825 234.391 61.5705 234.391C61.0585 234.391 60.6265 234.519 60.2745 234.775C59.9332 235.02 59.6559 235.346 59.4425 235.751C59.2292 236.156 59.0745 236.62 58.9785 237.143C58.8932 237.655 58.8505 238.178 58.8505 238.711C58.8505 239.244 58.8932 239.772 58.9785 240.295C59.0745 240.807 59.2292 241.271 59.4425 241.687C59.6559 242.092 59.9332 242.423 60.2745 242.679C60.6265 242.924 61.0585 243.047 61.5705 243.047ZM70.6794 244.039V235.127L68.9674 236.935L68.1674 236.119L70.8394 233.367H72.0074V244.039H70.6794ZM80.1973 244.039V241.335H75.1253V240.231L79.7013 233.367H81.5253V240.167H83.0293V241.335H81.5253V244.039H80.1973ZM80.1973 234.599L76.4533 240.167H80.1973V234.599Z" fill="#64686A"/>
<path d="M46.2879 294.039V292.983C47.2479 292.226 48.0959 291.543 48.8319 290.935C49.5679 290.316 50.1866 289.746 50.6879 289.223C51.1892 288.69 51.5679 288.194 51.8239 287.735C52.0799 287.266 52.2079 286.802 52.2079 286.343C52.2079 286.002 52.1439 285.708 52.0159 285.463C51.8879 285.218 51.7172 285.015 51.5039 284.855C51.3012 284.695 51.0666 284.578 50.7999 284.503C50.5332 284.428 50.2612 284.391 49.9839 284.391C49.3439 284.391 48.7786 284.514 48.2879 284.759C47.7972 285.004 47.3972 285.33 47.0879 285.735L46.2719 284.887C46.6772 284.343 47.2052 283.927 47.8559 283.639C48.5172 283.351 49.2266 283.207 49.9839 283.207C50.4319 283.207 50.8692 283.271 51.2959 283.399C51.7226 283.527 52.1012 283.719 52.4319 283.975C52.7732 284.231 53.0452 284.556 53.2479 284.951C53.4612 285.346 53.5679 285.81 53.5679 286.343C53.5679 286.887 53.4346 287.426 53.1679 287.959C52.9119 288.482 52.5492 289.01 52.0799 289.543C51.6212 290.066 51.0772 290.604 50.4479 291.159C49.8186 291.703 49.1306 292.268 48.3839 292.855H53.6159V294.039H46.2879ZM61.0862 294.231C60.3502 294.231 59.7262 294.066 59.2142 293.735C58.7022 293.404 58.2808 292.978 57.9502 292.455C57.6195 291.922 57.3795 291.33 57.2302 290.679C57.0808 290.018 57.0062 289.362 57.0062 288.711C57.0062 288.06 57.0808 287.41 57.2302 286.759C57.3795 286.098 57.6195 285.506 57.9502 284.983C58.2808 284.46 58.7022 284.034 59.2142 283.703C59.7262 283.372 60.3502 283.207 61.0862 283.207C61.8115 283.207 62.4302 283.372 62.9422 283.703C63.4648 284.034 63.8862 284.46 64.2062 284.983C64.5368 285.506 64.7768 286.098 64.9262 286.759C65.0862 287.41 65.1662 288.06 65.1662 288.711C65.1662 289.362 65.0862 290.018 64.9262 290.679C64.7768 291.33 64.5368 291.922 64.2062 292.455C63.8862 292.978 63.4648 293.404 62.9422 293.735C62.4302 294.066 61.8115 294.231 61.0862 294.231ZM61.0862 293.047C61.5982 293.047 62.0248 292.924 62.3662 292.679C62.7182 292.423 63.0008 292.092 63.2142 291.687C63.4275 291.271 63.5768 290.807 63.6622 290.295C63.7582 289.772 63.8062 289.244 63.8062 288.711C63.8062 288.178 63.7582 287.655 63.6622 287.143C63.5768 286.62 63.4275 286.156 63.2142 285.751C63.0008 285.346 62.7182 285.02 62.3662 284.775C62.0248 284.519 61.5982 284.391 61.0862 284.391C60.5742 284.391 60.1422 284.519 59.7902 284.775C59.4488 285.02 59.1715 285.346 58.9582 285.751C58.7448 286.156 58.5902 286.62 58.4942 287.143C58.4088 287.655 58.3662 288.178 58.3662 288.711C58.3662 289.244 58.4088 289.772 58.4942 290.295C58.5902 290.807 58.7448 291.271 58.9582 291.687C59.1715 292.092 59.4488 292.423 59.7902 292.679C60.1422 292.924 60.5742 293.047 61.0862 293.047ZM70.195 294.039V285.127L68.483 286.935L67.683 286.119L70.355 283.367H71.523V294.039H70.195ZM74.9929 294.039V292.983C75.9529 292.226 76.8009 291.543 77.5369 290.935C78.2729 290.316 78.8916 289.746 79.3929 289.223C79.8942 288.69 80.2729 288.194 80.5289 287.735C80.7849 287.266 80.9129 286.802 80.9129 286.343C80.9129 286.002 80.8489 285.708 80.7209 285.463C80.5929 285.218 80.4222 285.015 80.2089 284.855C80.0062 284.695 79.7716 284.578 79.5049 284.503C79.2382 284.428 78.9662 284.391 78.6889 284.391C78.0489 284.391 77.4836 284.514 76.9929 284.759C76.5022 285.004 76.1022 285.33 75.7929 285.735L74.9769 284.887C75.3822 284.343 75.9102 283.927 76.5609 283.639C77.2222 283.351 77.9316 283.207 78.6889 283.207C79.1369 283.207 79.5742 283.271 80.0009 283.399C80.4276 283.527 80.8062 283.719 81.1369 283.975C81.4782 284.231 81.7502 284.556 81.9529 284.951C82.1662 285.346 82.2729 285.81 82.2729 286.343C82.2729 286.887 82.1396 287.426 81.8729 287.959C81.6169 288.482 81.2542 289.01 80.7849 289.543C80.3262 290.066 79.7822 290.604 79.1529 291.159C78.5236 291.703 77.8356 292.268 77.0889 292.855H82.3209V294.039H74.9929Z" fill="#64686A"/>
<path d="M46.1373 344.039V342.983C47.0973 342.226 47.9453 341.543 48.6813 340.935C49.4173 340.316 50.0359 339.746 50.5373 339.223C51.0386 338.69 51.4173 338.194 51.6733 337.735C51.9293 337.266 52.0573 336.802 52.0573 336.343C52.0573 336.002 51.9933 335.708 51.8653 335.463C51.7373 335.218 51.5666 335.015 51.3533 334.855C51.1506 334.695 50.9159 334.578 50.6493 334.503C50.3826 334.428 50.1106 334.391 49.8333 334.391C49.1933 334.391 48.6279 334.514 48.1373 334.759C47.6466 335.004 47.2466 335.33 46.9373 335.735L46.1213 334.887C46.5266 334.343 47.0546 333.927 47.7053 333.639C48.3666 333.351 49.0759 333.207 49.8333 333.207C50.2813 333.207 50.7186 333.271 51.1453 333.399C51.5719 333.527 51.9506 333.719 52.2813 333.975C52.6226 334.231 52.8946 334.556 53.0973 334.951C53.3106 335.346 53.4173 335.81 53.4173 336.343C53.4173 336.887 53.2839 337.426 53.0173 337.959C52.7613 338.482 52.3986 339.01 51.9293 339.543C51.4706 340.066 50.9266 340.604 50.2973 341.159C49.6679 341.703 48.9799 342.268 48.2333 342.855H53.4653V344.039H46.1373ZM60.8555 344.231C60.1195 344.231 59.4955 344.066 58.9835 343.735C58.4715 343.404 58.0502 342.978 57.7195 342.455C57.3889 341.922 57.1489 341.33 56.9995 340.679C56.8502 340.018 56.7755 339.362 56.7755 338.711C56.7755 338.06 56.8502 337.41 56.9995 336.759C57.1489 336.098 57.3889 335.506 57.7195 334.983C58.0502 334.46 58.4715 334.034 58.9835 333.703C59.4955 333.372 60.1195 333.207 60.8555 333.207C61.5809 333.207 62.1995 333.372 62.7115 333.703C63.2342 334.034 63.6555 334.46 63.9755 334.983C64.3062 335.506 64.5462 336.098 64.6955 336.759C64.8555 337.41 64.9355 338.06 64.9355 338.711C64.9355 339.362 64.8555 340.018 64.6955 340.679C64.5462 341.33 64.3062 341.922 63.9755 342.455C63.6555 342.978 63.2342 343.404 62.7115 343.735C62.1995 344.066 61.5809 344.231 60.8555 344.231ZM60.8555 343.047C61.3675 343.047 61.7942 342.924 62.1355 342.679C62.4875 342.423 62.7702 342.092 62.9835 341.687C63.1969 341.271 63.3462 340.807 63.4315 340.295C63.5275 339.772 63.5755 339.244 63.5755 338.711C63.5755 338.178 63.5275 337.655 63.4315 337.143C63.3462 336.62 63.1969 336.156 62.9835 335.751C62.7702 335.346 62.4875 335.02 62.1355 334.775C61.7942 334.519 61.3675 334.391 60.8555 334.391C60.3435 334.391 59.9115 334.519 59.5595 334.775C59.2182 335.02 58.9409 335.346 58.7275 335.751C58.5142 336.156 58.3595 336.62 58.2635 337.143C58.1782 337.655 58.1355 338.178 58.1355 338.711C58.1355 339.244 58.1782 339.772 58.2635 340.295C58.3595 340.807 58.5142 341.271 58.7275 341.687C58.9409 342.092 59.2182 342.423 59.5595 342.679C59.9115 342.924 60.3435 343.047 60.8555 343.047ZM69.8844 344.039V335.127L68.1724 336.935L67.3724 336.119L70.0444 333.367H71.2124V344.039H69.8844ZM78.6343 344.231C77.8983 344.231 77.2743 344.066 76.7623 343.735C76.2503 343.404 75.8289 342.978 75.4983 342.455C75.1676 341.922 74.9276 341.33 74.7783 340.679C74.6289 340.018 74.5543 339.362 74.5543 338.711C74.5543 338.06 74.6289 337.41 74.7783 336.759C74.9276 336.098 75.1676 335.506 75.4983 334.983C75.8289 334.46 76.2503 334.034 76.7623 333.703C77.2743 333.372 77.8983 333.207 78.6343 333.207C79.3596 333.207 79.9783 333.372 80.4903 333.703C81.0129 334.034 81.4343 334.46 81.7543 334.983C82.0849 335.506 82.3249 336.098 82.4743 336.759C82.6343 337.41 82.7143 338.06 82.7143 338.711C82.7143 339.362 82.6343 340.018 82.4743 340.679C82.3249 341.33 82.0849 341.922 81.7543 342.455C81.4343 342.978 81.0129 343.404 80.4903 343.735C79.9783 344.066 79.3596 344.231 78.6343 344.231ZM78.6343 343.047C79.1463 343.047 79.5729 342.924 79.9143 342.679C80.2663 342.423 80.5489 342.092 80.7623 341.687C80.9756 341.271 81.1249 340.807 81.2103 340.295C81.3063 339.772 81.3543 339.244 81.3543 338.711C81.3543 338.178 81.3063 337.655 81.2103 337.143C81.1249 336.62 80.9756 336.156 80.7623 335.751C80.5489 335.346 80.2663 335.02 79.9143 334.775C79.5729 334.519 79.1463 334.391 78.6343 334.391C78.1223 334.391 77.6903 334.519 77.3383 334.775C76.9969 335.02 76.7196 335.346 76.5063 335.751C76.2929 336.156 76.1383 336.62 76.0423 337.143C75.9569 337.655 75.9143 338.178 75.9143 338.711C75.9143 339.244 75.9569 339.772 76.0423 340.295C76.1383 340.807 76.2929 341.271 76.5063 341.687C76.7196 342.092 76.9969 342.423 77.3383 342.679C77.6903 342.924 78.1223 343.047 78.6343 343.047Z" fill="#64686A"/>
<path d="M46.1023 407.039V405.983C47.0623 405.226 47.9103 404.543 48.6463 403.935C49.3823 403.316 50.0009 402.746 50.5023 402.223C51.0036 401.69 51.3823 401.194 51.6383 400.735C51.8943 400.266 52.0223 399.802 52.0223 399.343C52.0223 399.002 51.9583 398.708 51.8303 398.463C51.7023 398.218 51.5316 398.015 51.3183 397.855C51.1156 397.695 50.8809 397.578 50.6143 397.503C50.3476 397.428 50.0756 397.391 49.7983 397.391C49.1583 397.391 48.5929 397.514 48.1023 397.759C47.6116 398.004 47.2116 398.33 46.9023 398.735L46.0863 397.887C46.4916 397.343 47.0196 396.927 47.6703 396.639C48.3316 396.351 49.0409 396.207 49.7983 396.207C50.2463 396.207 50.6836 396.271 51.1103 396.399C51.5369 396.527 51.9156 396.719 52.2463 396.975C52.5876 397.231 52.8596 397.556 53.0623 397.951C53.2756 398.346 53.3823 398.81 53.3823 399.343C53.3823 399.887 53.2489 400.426 52.9823 400.959C52.7263 401.482 52.3636 402.01 51.8943 402.543C51.4356 403.066 50.8916 403.604 50.2623 404.159C49.6329 404.703 48.9449 405.268 48.1983 405.855H53.4303V407.039H46.1023ZM59.5405 407.231C58.8045 407.231 58.1805 407.066 57.6685 406.735C57.1565 406.404 56.7352 405.978 56.4045 405.455C56.0739 404.922 55.8339 404.33 55.6845 403.679C55.5352 403.018 55.4605 402.362 55.4605 401.711C55.4605 401.06 55.5352 400.41 55.6845 399.759C55.8339 399.098 56.0739 398.506 56.4045 397.983C56.7352 397.46 57.1565 397.034 57.6685 396.703C58.1805 396.372 58.8045 396.207 59.5405 396.207C60.2659 396.207 60.8845 396.372 61.3965 396.703C61.9192 397.034 62.3405 397.46 62.6605 397.983C62.9912 398.506 63.2312 399.098 63.3805 399.759C63.5405 400.41 63.6205 401.06 63.6205 401.711C63.6205 402.362 63.5405 403.018 63.3805 403.679C63.2312 404.33 62.9912 404.922 62.6605 405.455C62.3405 405.978 61.9192 406.404 61.3965 406.735C60.8845 407.066 60.2659 407.231 59.5405 407.231ZM59.5405 406.047C60.0525 406.047 60.4792 405.924 60.8205 405.679C61.1725 405.423 61.4552 405.092 61.6685 404.687C61.8819 404.271 62.0312 403.807 62.1165 403.295C62.2125 402.772 62.2605 402.244 62.2605 401.711C62.2605 401.178 62.2125 400.655 62.1165 400.143C62.0312 399.62 61.8819 399.156 61.6685 398.751C61.4552 398.346 61.1725 398.02 60.8205 397.775C60.4792 397.519 60.0525 397.391 59.5405 397.391C59.0285 397.391 58.5965 397.519 58.2445 397.775C57.9032 398.02 57.6259 398.346 57.4125 398.751C57.1992 399.156 57.0445 399.62 56.9485 400.143C56.8632 400.655 56.8205 401.178 56.8205 401.711C56.8205 402.244 56.8632 402.772 56.9485 403.295C57.0445 403.807 57.1992 404.271 57.4125 404.687C57.6259 405.092 57.9032 405.423 58.2445 405.679C58.5965 405.924 59.0285 406.047 59.5405 406.047ZM69.3374 407.231C68.6014 407.231 67.9774 407.066 67.4654 406.735C66.9534 406.404 66.5321 405.978 66.2014 405.455C65.8707 404.922 65.6307 404.33 65.4814 403.679C65.3321 403.018 65.2574 402.362 65.2574 401.711C65.2574 401.06 65.3321 400.41 65.4814 399.759C65.6307 399.098 65.8707 398.506 66.2014 397.983C66.5321 397.46 66.9534 397.034 67.4654 396.703C67.9774 396.372 68.6014 396.207 69.3374 396.207C70.0627 396.207 70.6814 396.372 71.1934 396.703C71.7161 397.034 72.1374 397.46 72.4574 397.983C72.7881 398.506 73.0281 399.098 73.1774 399.759C73.3374 400.41 73.4174 401.06 73.4174 401.711C73.4174 402.362 73.3374 403.018 73.1774 403.679C73.0281 404.33 72.7881 404.922 72.4574 405.455C72.1374 405.978 71.7161 406.404 71.1934 406.735C70.6814 407.066 70.0627 407.231 69.3374 407.231ZM69.3374 406.047C69.8494 406.047 70.2761 405.924 70.6174 405.679C70.9694 405.423 71.2521 405.092 71.4654 404.687C71.6787 404.271 71.8281 403.807 71.9134 403.295C72.0094 402.772 72.0574 402.244 72.0574 401.711C72.0574 401.178 72.0094 400.655 71.9134 400.143C71.8281 399.62 71.6787 399.156 71.4654 398.751C71.2521 398.346 70.9694 398.02 70.6174 397.775C70.2761 397.519 69.8494 397.391 69.3374 397.391C68.8254 397.391 68.3934 397.519 68.0414 397.775C67.7001 398.02 67.4227 398.346 67.2094 398.751C66.9961 399.156 66.8414 399.62 66.7454 400.143C66.6601 400.655 66.6174 401.178 66.6174 401.711C66.6174 402.244 66.6601 402.772 66.7454 403.295C66.8414 403.807 66.9961 404.271 67.2094 404.687C67.4227 405.092 67.7001 405.423 68.0414 405.679C68.3934 405.924 68.8254 406.047 69.3374 406.047ZM78.8943 407.231C78.3609 407.231 77.8596 407.167 77.3903 407.039C76.9316 406.911 76.5316 406.724 76.1903 406.479C75.8489 406.223 75.5769 405.919 75.3743 405.567C75.1716 405.204 75.0703 404.794 75.0703 404.335C75.0703 403.983 75.1396 403.658 75.2783 403.359C75.4169 403.06 75.6036 402.794 75.8383 402.559C76.0729 402.314 76.3449 402.106 76.6543 401.935C76.9636 401.764 77.2836 401.631 77.6143 401.535C77.3049 401.45 77.0063 401.332 76.7183 401.183C76.4409 401.034 76.1903 400.858 75.9663 400.655C75.7529 400.442 75.5769 400.196 75.4383 399.919C75.3103 399.642 75.2463 399.327 75.2463 398.975C75.2463 398.495 75.3529 398.084 75.5663 397.743C75.7796 397.391 76.0569 397.103 76.3983 396.879C76.7503 396.644 77.1396 396.474 77.5663 396.367C78.0036 396.26 78.4463 396.207 78.8943 396.207C79.3316 396.207 79.7689 396.26 80.2063 396.367C80.6436 396.474 81.0329 396.644 81.3743 396.879C81.7263 397.103 82.0089 397.391 82.2223 397.743C82.4463 398.084 82.5583 398.495 82.5583 398.975C82.5583 399.327 82.4889 399.642 82.3503 399.919C82.2223 400.196 82.0463 400.442 81.8223 400.655C81.6089 400.858 81.3583 401.034 81.0703 401.183C80.7823 401.332 80.4836 401.45 80.1743 401.535C80.5049 401.631 80.8249 401.764 81.1343 401.935C81.4436 402.106 81.7156 402.314 81.9503 402.559C82.1849 402.794 82.3716 403.06 82.5103 403.359C82.6489 403.658 82.7183 403.983 82.7183 404.335C82.7183 404.783 82.6169 405.188 82.4143 405.551C82.2116 405.914 81.9343 406.218 81.5823 406.463C81.2409 406.708 80.8356 406.9 80.3663 407.039C79.9076 407.167 79.4169 407.231 78.8943 407.231ZM78.8943 400.991C79.0543 400.959 79.2676 400.911 79.5343 400.847C79.8009 400.772 80.0569 400.666 80.3023 400.527C80.5476 400.378 80.7609 400.191 80.9423 399.967C81.1236 399.743 81.2143 399.471 81.2143 399.151C81.2143 398.874 81.1503 398.628 81.0223 398.415C80.9049 398.191 80.7396 398.004 80.5263 397.855C80.3236 397.706 80.0783 397.594 79.7903 397.519C79.5129 397.434 79.2143 397.391 78.8943 397.391C78.5743 397.391 78.2703 397.434 77.9823 397.519C77.7049 397.594 77.4596 397.706 77.2463 397.855C77.0436 398.004 76.8783 398.191 76.7503 398.415C76.6329 398.628 76.5743 398.874 76.5743 399.151C76.5743 399.471 76.6649 399.743 76.8463 399.967C77.0276 400.191 77.2409 400.378 77.4863 400.527C77.7423 400.666 77.9983 400.772 78.2543 400.847C78.5209 400.911 78.7343 400.959 78.8943 400.991ZM78.8943 406.047C79.2249 406.047 79.5396 406.004 79.8383 405.919C80.1369 405.834 80.3983 405.711 80.6223 405.551C80.8569 405.391 81.0383 405.199 81.1663 404.975C81.3049 404.74 81.3743 404.479 81.3743 404.191C81.3743 403.839 81.2729 403.54 81.0703 403.295C80.8783 403.039 80.6489 402.831 80.3823 402.671C80.1156 402.5 79.8383 402.372 79.5503 402.287C79.2729 402.202 79.0543 402.148 78.8943 402.127C78.7343 402.148 78.5103 402.202 78.2223 402.287C77.9449 402.372 77.6676 402.5 77.3903 402.671C77.1236 402.831 76.8889 403.039 76.6863 403.295C76.4943 403.54 76.3983 403.839 76.3983 404.191C76.3983 404.479 76.4623 404.74 76.5903 404.975C76.7289 405.199 76.9103 405.391 77.1343 405.551C77.3689 405.711 77.6356 405.834 77.9343 405.919C78.2436 406.004 78.5636 406.047 78.8943 406.047Z" fill="#64686A"/>
<path d="M45.946 457.039V455.983C46.906 455.226 47.754 454.543 48.49 453.935C49.226 453.316 49.8447 452.746 50.346 452.223C50.8474 451.69 51.226 451.194 51.482 450.735C51.738 450.266 51.866 449.802 51.866 449.343C51.866 449.002 51.802 448.708 51.674 448.463C51.546 448.218 51.3754 448.015 51.162 447.855C50.9594 447.695 50.7247 447.578 50.458 447.503C50.1914 447.428 49.9194 447.391 49.642 447.391C49.002 447.391 48.4367 447.514 47.946 447.759C47.4554 448.004 47.0554 448.33 46.746 448.735L45.93 447.887C46.3354 447.343 46.8634 446.927 47.514 446.639C48.1754 446.351 48.8847 446.207 49.642 446.207C50.09 446.207 50.5274 446.271 50.954 446.399C51.3807 446.527 51.7594 446.719 52.09 446.975C52.4314 447.231 52.7034 447.556 52.906 447.951C53.1194 448.346 53.226 448.81 53.226 449.343C53.226 449.887 53.0927 450.426 52.826 450.959C52.57 451.482 52.2074 452.01 51.738 452.543C51.2794 453.066 50.7354 453.604 50.106 454.159C49.4767 454.703 48.7887 455.268 48.042 455.855H53.274V457.039H45.946ZM59.3843 457.231C58.6483 457.231 58.0243 457.066 57.5123 456.735C57.0003 456.404 56.5789 455.978 56.2483 455.455C55.9176 454.922 55.6776 454.33 55.5283 453.679C55.3789 453.018 55.3043 452.362 55.3043 451.711C55.3043 451.06 55.3789 450.41 55.5283 449.759C55.6776 449.098 55.9176 448.506 56.2483 447.983C56.5789 447.46 57.0003 447.034 57.5123 446.703C58.0243 446.372 58.6483 446.207 59.3843 446.207C60.1096 446.207 60.7283 446.372 61.2403 446.703C61.7629 447.034 62.1843 447.46 62.5043 447.983C62.8349 448.506 63.0749 449.098 63.2243 449.759C63.3843 450.41 63.4643 451.06 63.4643 451.711C63.4643 452.362 63.3843 453.018 63.2243 453.679C63.0749 454.33 62.8349 454.922 62.5043 455.455C62.1843 455.978 61.7629 456.404 61.2403 456.735C60.7283 457.066 60.1096 457.231 59.3843 457.231ZM59.3843 456.047C59.8963 456.047 60.3229 455.924 60.6643 455.679C61.0163 455.423 61.2989 455.092 61.5123 454.687C61.7256 454.271 61.8749 453.807 61.9603 453.295C62.0563 452.772 62.1043 452.244 62.1043 451.711C62.1043 451.178 62.0563 450.655 61.9603 450.143C61.8749 449.62 61.7256 449.156 61.5123 448.751C61.2989 448.346 61.0163 448.02 60.6643 447.775C60.3229 447.519 59.8963 447.391 59.3843 447.391C58.8723 447.391 58.4403 447.519 58.0883 447.775C57.7469 448.02 57.4696 448.346 57.2563 448.751C57.0429 449.156 56.8883 449.62 56.7923 450.143C56.7069 450.655 56.6643 451.178 56.6643 451.711C56.6643 452.244 56.7069 452.772 56.7923 453.295C56.8883 453.807 57.0429 454.271 57.2563 454.687C57.4696 455.092 57.7469 455.423 58.0883 455.679C58.4403 455.924 58.8723 456.047 59.3843 456.047ZM69.1812 457.231C68.4452 457.231 67.8212 457.066 67.3092 456.735C66.7972 456.404 66.3758 455.978 66.0452 455.455C65.7145 454.922 65.4745 454.33 65.3252 453.679C65.1758 453.018 65.1012 452.362 65.1012 451.711C65.1012 451.06 65.1758 450.41 65.3252 449.759C65.4745 449.098 65.7145 448.506 66.0452 447.983C66.3758 447.46 66.7972 447.034 67.3092 446.703C67.8212 446.372 68.4452 446.207 69.1812 446.207C69.9065 446.207 70.5252 446.372 71.0372 446.703C71.5598 447.034 71.9812 447.46 72.3012 447.983C72.6318 448.506 72.8718 449.098 73.0212 449.759C73.1812 450.41 73.2612 451.06 73.2612 451.711C73.2612 452.362 73.1812 453.018 73.0212 453.679C72.8718 454.33 72.6318 454.922 72.3012 455.455C71.9812 455.978 71.5598 456.404 71.0372 456.735C70.5252 457.066 69.9065 457.231 69.1812 457.231ZM69.1812 456.047C69.6932 456.047 70.1198 455.924 70.4612 455.679C70.8132 455.423 71.0958 455.092 71.3092 454.687C71.5225 454.271 71.6718 453.807 71.7572 453.295C71.8532 452.772 71.9012 452.244 71.9012 451.711C71.9012 451.178 71.8532 450.655 71.7572 450.143C71.6718 449.62 71.5225 449.156 71.3092 448.751C71.0958 448.346 70.8132 448.02 70.4612 447.775C70.1198 447.519 69.6932 447.391 69.1812 447.391C68.6692 447.391 68.2372 447.519 67.8852 447.775C67.5438 448.02 67.2665 448.346 67.0532 448.751C66.8398 449.156 66.6852 449.62 66.5892 450.143C66.5038 450.655 66.4612 451.178 66.4612 451.711C66.4612 452.244 66.5038 452.772 66.5892 453.295C66.6852 453.807 66.8398 454.271 67.0532 454.687C67.2665 455.092 67.5438 455.423 67.8852 455.679C68.2372 455.924 68.6692 456.047 69.1812 456.047ZM79.01 457.231C78.2634 457.231 77.6287 457.082 77.106 456.783C76.5834 456.474 76.1567 456.068 75.826 455.567C75.506 455.055 75.2714 454.468 75.122 453.807C74.9727 453.146 74.898 452.452 74.898 451.727C74.898 451.002 74.9834 450.308 75.154 449.647C75.3247 448.975 75.586 448.388 75.938 447.887C76.3007 447.375 76.754 446.97 77.298 446.671C77.842 446.362 78.4874 446.207 79.234 446.207C79.9274 446.207 80.5087 446.33 80.978 446.575C81.458 446.81 81.8634 447.114 82.194 447.487L81.522 448.479C81.2447 448.159 80.9354 447.898 80.594 447.695C80.2527 447.492 79.7994 447.391 79.234 447.391C78.722 447.391 78.274 447.514 77.89 447.759C77.5167 447.994 77.202 448.308 76.946 448.703C76.7007 449.098 76.5194 449.546 76.402 450.047C76.2847 450.548 76.226 451.06 76.226 451.583C76.226 451.658 76.226 451.727 76.226 451.791C76.226 451.855 76.2314 451.924 76.242 451.999C76.3594 451.818 76.514 451.631 76.706 451.439C76.9087 451.236 77.1434 451.055 77.41 450.895C77.6767 450.735 77.9647 450.602 78.274 450.495C78.594 450.388 78.9247 450.335 79.266 450.335C79.746 450.335 80.194 450.41 80.61 450.559C81.0367 450.698 81.41 450.911 81.73 451.199C82.05 451.476 82.3007 451.828 82.482 452.255C82.6634 452.682 82.754 453.178 82.754 453.743C82.754 454.212 82.6687 454.66 82.498 455.087C82.3274 455.503 82.082 455.871 81.762 456.191C81.442 456.511 81.0474 456.767 80.578 456.959C80.1194 457.14 79.5967 457.231 79.01 457.231ZM78.962 456.047C79.378 456.047 79.7354 455.978 80.034 455.839C80.3434 455.7 80.5994 455.524 80.802 455.311C81.0047 455.087 81.154 454.842 81.25 454.575C81.3567 454.308 81.41 454.047 81.41 453.791C81.41 453.396 81.346 453.055 81.218 452.767C81.09 452.479 80.914 452.239 80.69 452.047C80.466 451.855 80.2047 451.716 79.906 451.631C79.6074 451.535 79.2874 451.487 78.946 451.487C78.4127 451.487 77.906 451.636 77.426 451.935C76.9567 452.223 76.5727 452.607 76.274 453.087C76.306 453.418 76.3754 453.759 76.482 454.111C76.5994 454.463 76.7594 454.783 76.962 455.071C77.1754 455.359 77.442 455.594 77.762 455.775C78.0927 455.956 78.4927 456.047 78.962 456.047Z" fill="#64686A"/>
<path d="M46.4773 507.039V505.983C47.4373 505.226 48.2853 504.543 49.0213 503.935C49.7573 503.316 50.3759 502.746 50.8773 502.223C51.3786 501.69 51.7573 501.194 52.0133 500.735C52.2693 500.266 52.3973 499.802 52.3973 499.343C52.3973 499.002 52.3333 498.708 52.2053 498.463C52.0773 498.218 51.9066 498.015 51.6933 497.855C51.4906 497.695 51.2559 497.578 50.9893 497.503C50.7226 497.428 50.4506 497.391 50.1733 497.391C49.5333 497.391 48.9679 497.514 48.4773 497.759C47.9866 498.004 47.5866 498.33 47.2773 498.735L46.4613 497.887C46.8666 497.343 47.3946 496.927 48.0453 496.639C48.7066 496.351 49.4159 496.207 50.1733 496.207C50.6213 496.207 51.0586 496.271 51.4853 496.399C51.9119 496.527 52.2906 496.719 52.6213 496.975C52.9626 497.231 53.2346 497.556 53.4373 497.951C53.6506 498.346 53.7573 498.81 53.7573 499.343C53.7573 499.887 53.6239 500.426 53.3573 500.959C53.1013 501.482 52.7386 502.01 52.2693 502.543C51.8106 503.066 51.2666 503.604 50.6373 504.159C50.0079 504.703 49.3199 505.268 48.5733 505.855H53.8053V507.039H46.4773ZM59.9155 507.231C59.1795 507.231 58.5555 507.066 58.0435 506.735C57.5315 506.404 57.1102 505.978 56.7795 505.455C56.4489 504.922 56.2089 504.33 56.0595 503.679C55.9102 503.018 55.8355 502.362 55.8355 501.711C55.8355 501.06 55.9102 500.41 56.0595 499.759C56.2089 499.098 56.4489 498.506 56.7795 497.983C57.1102 497.46 57.5315 497.034 58.0435 496.703C58.5555 496.372 59.1795 496.207 59.9155 496.207C60.6409 496.207 61.2595 496.372 61.7715 496.703C62.2942 497.034 62.7155 497.46 63.0355 497.983C63.3662 498.506 63.6062 499.098 63.7555 499.759C63.9155 500.41 63.9955 501.06 63.9955 501.711C63.9955 502.362 63.9155 503.018 63.7555 503.679C63.6062 504.33 63.3662 504.922 63.0355 505.455C62.7155 505.978 62.2942 506.404 61.7715 506.735C61.2595 507.066 60.6409 507.231 59.9155 507.231ZM59.9155 506.047C60.4275 506.047 60.8542 505.924 61.1955 505.679C61.5475 505.423 61.8302 505.092 62.0435 504.687C62.2569 504.271 62.4062 503.807 62.4915 503.295C62.5875 502.772 62.6355 502.244 62.6355 501.711C62.6355 501.178 62.5875 500.655 62.4915 500.143C62.4062 499.62 62.2569 499.156 62.0435 498.751C61.8302 498.346 61.5475 498.02 61.1955 497.775C60.8542 497.519 60.4275 497.391 59.9155 497.391C59.4035 497.391 58.9715 497.519 58.6195 497.775C58.2782 498.02 58.0009 498.346 57.7875 498.751C57.5742 499.156 57.4195 499.62 57.3235 500.143C57.2382 500.655 57.1955 501.178 57.1955 501.711C57.1955 502.244 57.2382 502.772 57.3235 503.295C57.4195 503.807 57.5742 504.271 57.7875 504.687C58.0009 505.092 58.2782 505.423 58.6195 505.679C58.9715 505.924 59.4035 506.047 59.9155 506.047ZM69.7124 507.231C68.9764 507.231 68.3524 507.066 67.8404 506.735C67.3284 506.404 66.9071 505.978 66.5764 505.455C66.2457 504.922 66.0057 504.33 65.8564 503.679C65.7071 503.018 65.6324 502.362 65.6324 501.711C65.6324 501.06 65.7071 500.41 65.8564 499.759C66.0057 499.098 66.2457 498.506 66.5764 497.983C66.9071 497.46 67.3284 497.034 67.8404 496.703C68.3524 496.372 68.9764 496.207 69.7124 496.207C70.4377 496.207 71.0564 496.372 71.5684 496.703C72.0911 497.034 72.5124 497.46 72.8324 497.983C73.1631 498.506 73.4031 499.098 73.5524 499.759C73.7124 500.41 73.7924 501.06 73.7924 501.711C73.7924 502.362 73.7124 503.018 73.5524 503.679C73.4031 504.33 73.1631 504.922 72.8324 505.455C72.5124 505.978 72.0911 506.404 71.5684 506.735C71.0564 507.066 70.4377 507.231 69.7124 507.231ZM69.7124 506.047C70.2244 506.047 70.6511 505.924 70.9924 505.679C71.3444 505.423 71.6271 505.092 71.8404 504.687C72.0537 504.271 72.2031 503.807 72.2884 503.295C72.3844 502.772 72.4324 502.244 72.4324 501.711C72.4324 501.178 72.3844 500.655 72.2884 500.143C72.2031 499.62 72.0537 499.156 71.8404 498.751C71.6271 498.346 71.3444 498.02 70.9924 497.775C70.6511 497.519 70.2244 497.391 69.7124 497.391C69.2004 497.391 68.7684 497.519 68.4164 497.775C68.0751 498.02 67.7977 498.346 67.5844 498.751C67.3711 499.156 67.2164 499.62 67.1204 500.143C67.0351 500.655 66.9924 501.178 66.9924 501.711C66.9924 502.244 67.0351 502.772 67.1204 503.295C67.2164 503.807 67.3711 504.271 67.5844 504.687C67.7977 505.092 68.0751 505.423 68.4164 505.679C68.7684 505.924 69.2004 506.047 69.7124 506.047ZM80.1973 507.039V504.335H75.1253V503.231L79.7013 496.367H81.5253V503.167H83.0293V504.335H81.5253V507.039H80.1973ZM80.1973 497.599L76.4533 503.167H80.1973V497.599Z" fill="#64686A"/>
<path d="M45.9929 557.039V555.983C46.9529 555.226 47.8009 554.543 48.5369 553.935C49.2729 553.316 49.8916 552.746 50.3929 552.223C50.8942 551.69 51.2729 551.194 51.5289 550.735C51.7849 550.266 51.9129 549.802 51.9129 549.343C51.9129 549.002 51.8489 548.708 51.7209 548.463C51.5929 548.218 51.4222 548.015 51.2089 547.855C51.0062 547.695 50.7716 547.578 50.5049 547.503C50.2382 547.428 49.9662 547.391 49.6889 547.391C49.0489 547.391 48.4836 547.514 47.9929 547.759C47.5022 548.004 47.1022 548.33 46.7929 548.735L45.9769 547.887C46.3822 547.343 46.9102 546.927 47.5609 546.639C48.2222 546.351 48.9316 546.207 49.6889 546.207C50.1369 546.207 50.5742 546.271 51.0009 546.399C51.4276 546.527 51.8062 546.719 52.1369 546.975C52.4782 547.231 52.7502 547.556 52.9529 547.951C53.1662 548.346 53.2729 548.81 53.2729 549.343C53.2729 549.887 53.1396 550.426 52.8729 550.959C52.6169 551.482 52.2542 552.01 51.7849 552.543C51.3262 553.066 50.7822 553.604 50.1529 554.159C49.5236 554.703 48.8356 555.268 48.0889 555.855H53.3209V557.039H45.9929ZM59.4312 557.231C58.6952 557.231 58.0712 557.066 57.5592 556.735C57.0472 556.404 56.6258 555.978 56.2952 555.455C55.9645 554.922 55.7245 554.33 55.5752 553.679C55.4258 553.018 55.3512 552.362 55.3512 551.711C55.3512 551.06 55.4258 550.41 55.5752 549.759C55.7245 549.098 55.9645 548.506 56.2952 547.983C56.6258 547.46 57.0472 547.034 57.5592 546.703C58.0712 546.372 58.6952 546.207 59.4312 546.207C60.1565 546.207 60.7752 546.372 61.2872 546.703C61.8098 547.034 62.2312 547.46 62.5512 547.983C62.8818 548.506 63.1218 549.098 63.2712 549.759C63.4312 550.41 63.5112 551.06 63.5112 551.711C63.5112 552.362 63.4312 553.018 63.2712 553.679C63.1218 554.33 62.8818 554.922 62.5512 555.455C62.2312 555.978 61.8098 556.404 61.2872 556.735C60.7752 557.066 60.1565 557.231 59.4312 557.231ZM59.4312 556.047C59.9432 556.047 60.3698 555.924 60.7112 555.679C61.0632 555.423 61.3458 555.092 61.5592 554.687C61.7725 554.271 61.9218 553.807 62.0072 553.295C62.1032 552.772 62.1512 552.244 62.1512 551.711C62.1512 551.178 62.1032 550.655 62.0072 550.143C61.9218 549.62 61.7725 549.156 61.5592 548.751C61.3458 548.346 61.0632 548.02 60.7112 547.775C60.3698 547.519 59.9432 547.391 59.4312 547.391C58.9192 547.391 58.4872 547.519 58.1352 547.775C57.7938 548.02 57.5165 548.346 57.3032 548.751C57.0898 549.156 56.9352 549.62 56.8392 550.143C56.7538 550.655 56.7112 551.178 56.7112 551.711C56.7112 552.244 56.7538 552.772 56.8392 553.295C56.9352 553.807 57.0898 554.271 57.3032 554.687C57.5165 555.092 57.7938 555.423 58.1352 555.679C58.4872 555.924 58.9192 556.047 59.4312 556.047ZM69.228 557.231C68.492 557.231 67.868 557.066 67.356 556.735C66.844 556.404 66.4227 555.978 66.092 555.455C65.7614 554.922 65.5214 554.33 65.372 553.679C65.2227 553.018 65.148 552.362 65.148 551.711C65.148 551.06 65.2227 550.41 65.372 549.759C65.5214 549.098 65.7614 548.506 66.092 547.983C66.4227 547.46 66.844 547.034 67.356 546.703C67.868 546.372 68.492 546.207 69.228 546.207C69.9534 546.207 70.572 546.372 71.084 546.703C71.6067 547.034 72.028 547.46 72.348 547.983C72.6787 548.506 72.9187 549.098 73.068 549.759C73.228 550.41 73.308 551.06 73.308 551.711C73.308 552.362 73.228 553.018 73.068 553.679C72.9187 554.33 72.6787 554.922 72.348 555.455C72.028 555.978 71.6067 556.404 71.084 556.735C70.572 557.066 69.9534 557.231 69.228 557.231ZM69.228 556.047C69.74 556.047 70.1667 555.924 70.508 555.679C70.86 555.423 71.1427 555.092 71.356 554.687C71.5694 554.271 71.7187 553.807 71.804 553.295C71.9 552.772 71.948 552.244 71.948 551.711C71.948 551.178 71.9 550.655 71.804 550.143C71.7187 549.62 71.5694 549.156 71.356 548.751C71.1427 548.346 70.86 548.02 70.508 547.775C70.1667 547.519 69.74 547.391 69.228 547.391C68.716 547.391 68.284 547.519 67.932 547.775C67.5907 548.02 67.3134 548.346 67.1 548.751C66.8867 549.156 66.732 549.62 66.636 550.143C66.5507 550.655 66.508 551.178 66.508 551.711C66.508 552.244 66.5507 552.772 66.636 553.295C66.732 553.807 66.8867 554.271 67.1 554.687C67.3134 555.092 67.5907 555.423 67.932 555.679C68.284 555.924 68.716 556.047 69.228 556.047ZM74.9929 557.039V555.983C75.9529 555.226 76.8009 554.543 77.5369 553.935C78.2729 553.316 78.8916 552.746 79.3929 552.223C79.8942 551.69 80.2729 551.194 80.5289 550.735C80.7849 550.266 80.9129 549.802 80.9129 549.343C80.9129 549.002 80.8489 548.708 80.7209 548.463C80.5929 548.218 80.4222 548.015 80.2089 547.855C80.0062 547.695 79.7716 547.578 79.5049 547.503C79.2382 547.428 78.9662 547.391 78.6889 547.391C78.0489 547.391 77.4836 547.514 76.9929 547.759C76.5022 548.004 76.1022 548.33 75.7929 548.735L74.9769 547.887C75.3822 547.343 75.9102 546.927 76.5609 546.639C77.2222 546.351 77.9316 546.207 78.6889 546.207C79.1369 546.207 79.5742 546.271 80.0009 546.399C80.4276 546.527 80.8062 546.719 81.1369 546.975C81.4782 547.231 81.7502 547.556 81.9529 547.951C82.1662 548.346 82.2729 548.81 82.2729 549.343C82.2729 549.887 82.1396 550.426 81.8729 550.959C81.6169 551.482 81.2542 552.01 80.7849 552.543C80.3262 553.066 79.7822 553.604 79.1529 554.159C78.5236 554.703 77.8356 555.268 77.0889 555.855H82.3209V557.039H74.9929Z" fill="#64686A"/>
<path d="M45.6023 607.039V605.983C46.5623 605.226 47.4103 604.543 48.1463 603.935C48.8823 603.316 49.5009 602.746 50.0023 602.223C50.5036 601.69 50.8823 601.194 51.1383 600.735C51.3943 600.266 51.5223 599.802 51.5223 599.343C51.5223 599.002 51.4583 598.708 51.3303 598.463C51.2023 598.218 51.0316 598.015 50.8183 597.855C50.6156 597.695 50.3809 597.578 50.1143 597.503C49.8476 597.428 49.5756 597.391 49.2983 597.391C48.6583 597.391 48.0929 597.514 47.6023 597.759C47.1116 598.004 46.7116 598.33 46.4023 598.735L45.5863 597.887C45.9916 597.343 46.5196 596.927 47.1703 596.639C47.8316 596.351 48.5409 596.207 49.2983 596.207C49.7463 596.207 50.1836 596.271 50.6103 596.399C51.0369 596.527 51.4156 596.719 51.7463 596.975C52.0876 597.231 52.3596 597.556 52.5623 597.951C52.7756 598.346 52.8823 598.81 52.8823 599.343C52.8823 599.887 52.7489 600.426 52.4823 600.959C52.2263 601.482 51.8636 602.01 51.3943 602.543C50.9356 603.066 50.3916 603.604 49.7623 604.159C49.1329 604.703 48.4449 605.268 47.6983 605.855H52.9303V607.039H45.6023ZM59.0405 607.231C58.3045 607.231 57.6805 607.066 57.1685 606.735C56.6565 606.404 56.2352 605.978 55.9045 605.455C55.5739 604.922 55.3339 604.33 55.1845 603.679C55.0352 603.018 54.9605 602.362 54.9605 601.711C54.9605 601.06 55.0352 600.41 55.1845 599.759C55.3339 599.098 55.5739 598.506 55.9045 597.983C56.2352 597.46 56.6565 597.034 57.1685 596.703C57.6805 596.372 58.3045 596.207 59.0405 596.207C59.7659 596.207 60.3845 596.372 60.8965 596.703C61.4192 597.034 61.8405 597.46 62.1605 597.983C62.4912 598.506 62.7312 599.098 62.8805 599.759C63.0405 600.41 63.1205 601.06 63.1205 601.711C63.1205 602.362 63.0405 603.018 62.8805 603.679C62.7312 604.33 62.4912 604.922 62.1605 605.455C61.8405 605.978 61.4192 606.404 60.8965 606.735C60.3845 607.066 59.7659 607.231 59.0405 607.231ZM59.0405 606.047C59.5525 606.047 59.9792 605.924 60.3205 605.679C60.6725 605.423 60.9552 605.092 61.1685 604.687C61.3819 604.271 61.5312 603.807 61.6165 603.295C61.7125 602.772 61.7605 602.244 61.7605 601.711C61.7605 601.178 61.7125 600.655 61.6165 600.143C61.5312 599.62 61.3819 599.156 61.1685 598.751C60.9552 598.346 60.6725 598.02 60.3205 597.775C59.9792 597.519 59.5525 597.391 59.0405 597.391C58.5285 597.391 58.0965 597.519 57.7445 597.775C57.4032 598.02 57.1259 598.346 56.9125 598.751C56.6992 599.156 56.5445 599.62 56.4485 600.143C56.3632 600.655 56.3205 601.178 56.3205 601.711C56.3205 602.244 56.3632 602.772 56.4485 603.295C56.5445 603.807 56.6992 604.271 56.9125 604.687C57.1259 605.092 57.4032 605.423 57.7445 605.679C58.0965 605.924 58.5285 606.047 59.0405 606.047ZM68.8374 607.231C68.1014 607.231 67.4774 607.066 66.9654 606.735C66.4534 606.404 66.0321 605.978 65.7014 605.455C65.3707 604.922 65.1307 604.33 64.9814 603.679C64.8321 603.018 64.7574 602.362 64.7574 601.711C64.7574 601.06 64.8321 600.41 64.9814 599.759C65.1307 599.098 65.3707 598.506 65.7014 597.983C66.0321 597.46 66.4534 597.034 66.9654 596.703C67.4774 596.372 68.1014 596.207 68.8374 596.207C69.5627 596.207 70.1814 596.372 70.6934 596.703C71.2161 597.034 71.6374 597.46 71.9574 597.983C72.2881 598.506 72.5281 599.098 72.6774 599.759C72.8374 600.41 72.9174 601.06 72.9174 601.711C72.9174 602.362 72.8374 603.018 72.6774 603.679C72.5281 604.33 72.2881 604.922 71.9574 605.455C71.6374 605.978 71.2161 606.404 70.6934 606.735C70.1814 607.066 69.5627 607.231 68.8374 607.231ZM68.8374 606.047C69.3494 606.047 69.7761 605.924 70.1174 605.679C70.4694 605.423 70.7521 605.092 70.9654 604.687C71.1787 604.271 71.3281 603.807 71.4134 603.295C71.5094 602.772 71.5574 602.244 71.5574 601.711C71.5574 601.178 71.5094 600.655 71.4134 600.143C71.3281 599.62 71.1787 599.156 70.9654 598.751C70.7521 598.346 70.4694 598.02 70.1174 597.775C69.7761 597.519 69.3494 597.391 68.8374 597.391C68.3254 597.391 67.8934 597.519 67.5414 597.775C67.2001 598.02 66.9227 598.346 66.7094 598.751C66.4961 599.156 66.3414 599.62 66.2454 600.143C66.1601 600.655 66.1174 601.178 66.1174 601.711C66.1174 602.244 66.1601 602.772 66.2454 603.295C66.3414 603.807 66.4961 604.271 66.7094 604.687C66.9227 605.092 67.2001 605.423 67.5414 605.679C67.8934 605.924 68.3254 606.047 68.8374 606.047ZM78.6343 607.231C77.8983 607.231 77.2743 607.066 76.7623 606.735C76.2503 606.404 75.8289 605.978 75.4983 605.455C75.1676 604.922 74.9276 604.33 74.7783 603.679C74.6289 603.018 74.5543 602.362 74.5543 601.711C74.5543 601.06 74.6289 600.41 74.7783 599.759C74.9276 599.098 75.1676 598.506 75.4983 597.983C75.8289 597.46 76.2503 597.034 76.7623 596.703C77.2743 596.372 77.8983 596.207 78.6343 596.207C79.3596 596.207 79.9783 596.372 80.4903 596.703C81.0129 597.034 81.4343 597.46 81.7543 597.983C82.0849 598.506 82.3249 599.098 82.4743 599.759C82.6343 600.41 82.7143 601.06 82.7143 601.711C82.7143 602.362 82.6343 603.018 82.4743 603.679C82.3249 604.33 82.0849 604.922 81.7543 605.455C81.4343 605.978 81.0129 606.404 80.4903 606.735C79.9783 607.066 79.3596 607.231 78.6343 607.231ZM78.6343 606.047C79.1463 606.047 79.5729 605.924 79.9143 605.679C80.2663 605.423 80.5489 605.092 80.7623 604.687C80.9756 604.271 81.1249 603.807 81.2103 603.295C81.3063 602.772 81.3543 602.244 81.3543 601.711C81.3543 601.178 81.3063 600.655 81.2103 600.143C81.1249 599.62 80.9756 599.156 80.7623 598.751C80.5489 598.346 80.2663 598.02 79.9143 597.775C79.5729 597.519 79.1463 597.391 78.6343 597.391C78.1223 597.391 77.6903 597.519 77.3383 597.775C76.9969 598.02 76.7196 598.346 76.5063 598.751C76.2929 599.156 76.1383 599.62 76.0423 600.143C75.9569 600.655 75.9143 601.178 75.9143 601.711C75.9143 602.244 75.9569 602.772 76.0423 603.295C76.1383 603.807 76.2929 604.271 76.5063 604.687C76.7196 605.092 76.9969 605.423 77.3383 605.679C77.6903 605.924 78.1223 606.047 78.6343 606.047Z" fill="#64686A"/>
<rect x="103.535" y="99.0391" width="69.0602" height="6" fill="url(#paint32_linear_1_3192)"/>
<rect x="103.535" y="124.039" width="115.153" height="6" fill="url(#paint33_linear_1_3192)"/>
<rect x="103.535" y="149.039" width="92.2041" height="6" fill="white"/>
<rect x="103.535" y="174.039" width="69.0602" height="6" fill="url(#paint34_linear_1_3192)"/>
<rect x="103.535" y="199.039" width="69.0602" height="6" fill="url(#paint35_linear_1_3192)"/>
<rect x="103.535" y="224.039" width="138.585" height="6" fill="url(#paint36_linear_1_3192)"/>
<rect x="103.535" y="249.039" width="45.8013" height="6" fill="url(#paint37_linear_1_3192)"/>
<rect x="103.535" y="274.039" width="231.258" height="6" fill="url(#paint38_linear_1_3192)"/>
<rect x="103.535" y="299.039" width="92.2041" height="6" fill="url(#paint39_linear_1_3192)"/>
<rect x="103.535" y="324.039" width="69.0602" height="6" fill="url(#paint40_linear_1_3192)"/>
<rect x="103.535" y="349.039" width="22.346" height="6" fill="url(#paint41_linear_1_3192)"/>
<rect x="103.535" y="374.039" width="45.8013" height="6" fill="url(#paint42_linear_1_3192)"/>
<rect x="103.535" y="399.039" width="45.8013" height="6" fill="url(#paint43_linear_1_3192)"/>
<rect x="103.535" y="424.039" width="115.132" height="6" fill="url(#paint44_linear_1_3192)"/>
<rect x="103.535" y="449.039" width="45.8013" height="6" fill="url(#paint45_linear_1_3192)"/>
<rect x="103.535" y="474.039" width="22.346" height="6" fill="url(#paint46_linear_1_3192)"/>
<rect x="103.535" y="499.039" width="45.8013" height="6" fill="url(#paint47_linear_1_3192)"/>
<rect x="103.535" y="524.039" width="22.346" height="6" fill="url(#paint48_linear_1_3192)"/>
<rect x="103.535" y="549.039" width="22.346" height="6" fill="url(#paint49_linear_1_3192)"/>
<rect x="103.535" y="574.039" width="45.8013" height="6" fill="url(#paint50_linear_1_3192)"/>
<rect x="103.535" y="599.039" width="69.0602" height="6" fill="url(#paint51_linear_1_3192)"/>
<rect x="172.909" y="599.039" width="45.8467" height="6" fill="url(#paint52_linear_1_3192)" fill-opacity="0.8"/>
<rect x="126.198" y="549.039" width="23.4553" height="6" fill="url(#paint53_linear_1_3192)" fill-opacity="0.8"/>
<rect x="126.198" y="474.039" width="23.4553" height="6" fill="url(#paint54_linear_1_3192)" fill-opacity="0.8"/>
<rect x="149.69" y="374.039" width="23.4553" height="6" fill="url(#paint55_linear_1_3192)" fill-opacity="0.8"/>
<rect x="219.003" y="424.039" width="23.4553" height="6" fill="url(#paint56_linear_1_3192)" fill-opacity="0.8"/>
<rect x="172.933" y="324.039" width="23.4553" height="6" fill="url(#paint57_linear_1_3192)" fill-opacity="0.8"/>
<rect x="172.933" y="199.039" width="23.4553" height="6" fill="url(#paint58_linear_1_3192)" fill-opacity="0.8"/>
<rect x="172.933" y="174.578" width="23.4553" height="6" fill="url(#paint59_linear_1_3192)" fill-opacity="0.8"/>
<rect x="219.003" y="124.039" width="23.4553" height="6" fill="url(#paint60_linear_1_3192)" fill-opacity="0.8"/>
<rect x="196.05" y="304.422" width="23.4553" height="6" fill="url(#paint61_linear_1_3192)" fill-opacity="0.8"/>
<rect x="126.198" y="524.039" width="46.7142" height="6" fill="url(#paint62_linear_1_3192)" fill-opacity="0.8"/>
<rect x="126.198" y="349.039" width="46.7142" height="6" fill="url(#paint63_linear_1_3192)" fill-opacity="0.8"/>
<rect x="149.659" y="499.039" width="46.5677" height="6" fill="url(#paint64_linear_1_3192)" fill-opacity="0.8"/>
<rect x="149.659" y="449.039" width="46.5677" height="6" fill="url(#paint65_linear_1_3192)" fill-opacity="0.8"/>
<rect x="149.659" y="251.195" width="46.5677" height="6" fill="url(#paint66_linear_1_3192)" fill-opacity="0.8"/>
<path d="M104.72 631.848C103.984 631.848 103.36 631.683 102.848 631.352C102.336 631.022 101.915 630.595 101.584 630.072C101.254 629.539 101.014 628.947 100.864 628.296C100.715 627.635 100.64 626.979 100.64 626.328C100.64 625.678 100.715 625.027 100.864 624.376C101.014 623.715 101.254 623.123 101.584 622.6C101.915 622.078 102.336 621.651 102.848 621.32C103.36 620.99 103.984 620.824 104.72 620.824C105.446 620.824 106.064 620.99 106.576 621.32C107.099 621.651 107.52 622.078 107.84 622.6C108.171 623.123 108.411 623.715 108.56 624.376C108.72 625.027 108.8 625.678 108.8 626.328C108.8 626.979 108.72 627.635 108.56 628.296C108.411 628.947 108.171 629.539 107.84 630.072C107.52 630.595 107.099 631.022 106.576 631.352C106.064 631.683 105.446 631.848 104.72 631.848ZM104.72 630.664C105.232 630.664 105.659 630.542 106 630.296C106.352 630.04 106.635 629.71 106.848 629.304C107.062 628.888 107.211 628.424 107.296 627.912C107.392 627.39 107.44 626.862 107.44 626.328C107.44 625.795 107.392 625.272 107.296 624.76C107.211 624.238 107.062 623.774 106.848 623.368C106.635 622.963 106.352 622.638 106 622.392C105.659 622.136 105.232 622.008 104.72 622.008C104.208 622.008 103.776 622.136 103.424 622.392C103.083 622.638 102.806 622.963 102.592 623.368C102.379 623.774 102.224 624.238 102.128 624.76C102.043 625.272 102 625.795 102 626.328C102 626.862 102.043 627.39 102.128 627.912C102.224 628.424 102.379 628.888 102.592 629.304C102.806 629.71 103.083 630.04 103.424 630.296C103.776 630.542 104.208 630.664 104.72 630.664Z" fill="#64686A"/>
<path d="M146.884 631.656V630.6C147.844 629.843 148.692 629.16 149.428 628.552C150.164 627.934 150.782 627.363 151.284 626.84C151.785 626.307 152.164 625.811 152.42 625.352C152.676 624.883 152.804 624.419 152.804 623.96C152.804 623.619 152.74 623.326 152.612 623.08C152.484 622.835 152.313 622.632 152.1 622.472C151.897 622.312 151.662 622.195 151.396 622.12C151.129 622.046 150.857 622.008 150.58 622.008C149.94 622.008 149.374 622.131 148.884 622.376C148.393 622.622 147.993 622.947 147.684 623.352L146.868 622.504C147.273 621.96 147.801 621.544 148.452 621.256C149.113 620.968 149.822 620.824 150.58 620.824C151.028 620.824 151.465 620.888 151.892 621.016C152.318 621.144 152.697 621.336 153.028 621.592C153.369 621.848 153.641 622.174 153.844 622.568C154.057 622.963 154.164 623.427 154.164 623.96C154.164 624.504 154.03 625.043 153.764 625.576C153.508 626.099 153.145 626.627 152.676 627.16C152.217 627.683 151.673 628.222 151.044 628.776C150.414 629.32 149.726 629.886 148.98 630.472H154.212V631.656H146.884Z" fill="#64686A"/>
<path d="M196.846 631.656V628.952H191.774V627.848L196.35 620.984H198.174V627.784H199.678V628.952H198.174V631.656H196.846ZM196.846 622.216L193.102 627.784H196.846V622.216Z" fill="#64686A"/>
<path d="M241.924 631.848C241.177 631.848 240.543 631.699 240.02 631.4C239.497 631.091 239.071 630.686 238.74 630.184C238.42 629.672 238.185 629.086 238.036 628.424C237.887 627.763 237.812 627.07 237.812 626.344C237.812 625.619 237.897 624.926 238.068 624.264C238.239 623.592 238.5 623.006 238.852 622.504C239.215 621.992 239.668 621.587 240.212 621.288C240.756 620.979 241.401 620.824 242.148 620.824C242.841 620.824 243.423 620.947 243.892 621.192C244.372 621.427 244.777 621.731 245.108 622.104L244.436 623.096C244.159 622.776 243.849 622.515 243.508 622.312C243.167 622.11 242.713 622.008 242.148 622.008C241.636 622.008 241.188 622.131 240.804 622.376C240.431 622.611 240.116 622.926 239.86 623.32C239.615 623.715 239.433 624.163 239.316 624.664C239.199 625.166 239.14 625.678 239.14 626.2C239.14 626.275 239.14 626.344 239.14 626.408C239.14 626.472 239.145 626.542 239.156 626.616C239.273 626.435 239.428 626.248 239.62 626.056C239.823 625.854 240.057 625.672 240.324 625.512C240.591 625.352 240.879 625.219 241.188 625.112C241.508 625.006 241.839 624.952 242.18 624.952C242.66 624.952 243.108 625.027 243.524 625.176C243.951 625.315 244.324 625.528 244.644 625.816C244.964 626.094 245.215 626.446 245.396 626.872C245.577 627.299 245.668 627.795 245.668 628.36C245.668 628.83 245.583 629.278 245.412 629.704C245.241 630.12 244.996 630.488 244.676 630.808C244.356 631.128 243.961 631.384 243.492 631.576C243.033 631.758 242.511 631.848 241.924 631.848ZM241.876 630.664C242.292 630.664 242.649 630.595 242.948 630.456C243.257 630.318 243.513 630.142 243.716 629.928C243.919 629.704 244.068 629.459 244.164 629.192C244.271 628.926 244.324 628.664 244.324 628.408C244.324 628.014 244.26 627.672 244.132 627.384C244.004 627.096 243.828 626.856 243.604 626.664C243.38 626.472 243.119 626.334 242.82 626.248C242.521 626.152 242.201 626.104 241.86 626.104C241.327 626.104 240.82 626.254 240.34 626.552C239.871 626.84 239.487 627.224 239.188 627.704C239.22 628.035 239.289 628.376 239.396 628.728C239.513 629.08 239.673 629.4 239.876 629.688C240.089 629.976 240.356 630.211 240.676 630.392C241.007 630.574 241.407 630.664 241.876 630.664Z" fill="#64686A"/>
<path d="M287.73 631.848C287.197 631.848 286.696 631.784 286.226 631.656C285.768 631.528 285.368 631.342 285.026 631.096C284.685 630.84 284.413 630.536 284.21 630.184C284.008 629.822 283.906 629.411 283.906 628.952C283.906 628.6 283.976 628.275 284.114 627.976C284.253 627.678 284.44 627.411 284.674 627.176C284.909 626.931 285.181 626.723 285.49 626.552C285.8 626.382 286.12 626.248 286.45 626.152C286.141 626.067 285.842 625.95 285.554 625.8C285.277 625.651 285.026 625.475 284.802 625.272C284.589 625.059 284.413 624.814 284.274 624.536C284.146 624.259 284.082 623.944 284.082 623.592C284.082 623.112 284.189 622.702 284.402 622.36C284.616 622.008 284.893 621.72 285.234 621.496C285.586 621.262 285.976 621.091 286.402 620.984C286.84 620.878 287.282 620.824 287.73 620.824C288.168 620.824 288.605 620.878 289.042 620.984C289.48 621.091 289.869 621.262 290.21 621.496C290.562 621.72 290.845 622.008 291.058 622.36C291.282 622.702 291.394 623.112 291.394 623.592C291.394 623.944 291.325 624.259 291.186 624.536C291.058 624.814 290.882 625.059 290.658 625.272C290.445 625.475 290.194 625.651 289.906 625.8C289.618 625.95 289.32 626.067 289.01 626.152C289.341 626.248 289.661 626.382 289.97 626.552C290.28 626.723 290.552 626.931 290.786 627.176C291.021 627.411 291.208 627.678 291.346 627.976C291.485 628.275 291.554 628.6 291.554 628.952C291.554 629.4 291.453 629.806 291.25 630.168C291.048 630.531 290.77 630.835 290.418 631.08C290.077 631.326 289.672 631.518 289.202 631.656C288.744 631.784 288.253 631.848 287.73 631.848ZM287.73 625.608C287.89 625.576 288.104 625.528 288.37 625.464C288.637 625.39 288.893 625.283 289.138 625.144C289.384 624.995 289.597 624.808 289.778 624.584C289.96 624.36 290.05 624.088 290.05 623.768C290.05 623.491 289.986 623.246 289.858 623.032C289.741 622.808 289.576 622.622 289.362 622.472C289.16 622.323 288.914 622.211 288.626 622.136C288.349 622.051 288.05 622.008 287.73 622.008C287.41 622.008 287.106 622.051 286.818 622.136C286.541 622.211 286.296 622.323 286.082 622.472C285.88 622.622 285.714 622.808 285.586 623.032C285.469 623.246 285.41 623.491 285.41 623.768C285.41 624.088 285.501 624.36 285.682 624.584C285.864 624.808 286.077 624.995 286.322 625.144C286.578 625.283 286.834 625.39 287.09 625.464C287.357 625.528 287.57 625.576 287.73 625.608ZM287.73 630.664C288.061 630.664 288.376 630.622 288.674 630.536C288.973 630.451 289.234 630.328 289.458 630.168C289.693 630.008 289.874 629.816 290.002 629.592C290.141 629.358 290.21 629.096 290.21 628.808C290.21 628.456 290.109 628.158 289.906 627.912C289.714 627.656 289.485 627.448 289.218 627.288C288.952 627.118 288.674 626.99 288.386 626.904C288.109 626.819 287.89 626.766 287.73 626.744C287.57 626.766 287.346 626.819 287.058 626.904C286.781 626.99 286.504 627.118 286.226 627.288C285.96 627.448 285.725 627.656 285.522 627.912C285.33 628.158 285.234 628.456 285.234 628.808C285.234 629.096 285.298 629.358 285.426 629.592C285.565 629.816 285.746 630.008 285.97 630.168C286.205 630.328 286.472 630.451 286.77 630.536C287.08 630.622 287.4 630.664 287.73 630.664Z" fill="#64686A"/>
<path d="M329.961 631.656V622.744L328.249 624.552L327.449 623.736L330.121 620.984H331.289V631.656H329.961ZM337.431 631.848C336.695 631.848 336.071 631.683 335.559 631.352C335.047 631.022 334.626 630.595 334.295 630.072C333.964 629.539 333.724 628.947 333.575 628.296C333.426 627.635 333.351 626.979 333.351 626.328C333.351 625.678 333.426 625.027 333.575 624.376C333.724 623.715 333.964 623.123 334.295 622.6C334.626 622.078 335.047 621.651 335.559 621.32C336.071 620.99 336.695 620.824 337.431 620.824C338.156 620.824 338.775 620.99 339.287 621.32C339.81 621.651 340.231 622.078 340.551 622.6C340.882 623.123 341.122 623.715 341.271 624.376C341.431 625.027 341.511 625.678 341.511 626.328C341.511 626.979 341.431 627.635 341.271 628.296C341.122 628.947 340.882 629.539 340.551 630.072C340.231 630.595 339.81 631.022 339.287 631.352C338.775 631.683 338.156 631.848 337.431 631.848ZM337.431 630.664C337.943 630.664 338.37 630.542 338.711 630.296C339.063 630.04 339.346 629.71 339.559 629.304C339.772 628.888 339.922 628.424 340.007 627.912C340.103 627.39 340.151 626.862 340.151 626.328C340.151 625.795 340.103 625.272 340.007 624.76C339.922 624.238 339.772 623.774 339.559 623.368C339.346 622.963 339.063 622.638 338.711 622.392C338.37 622.136 337.943 622.008 337.431 622.008C336.919 622.008 336.487 622.136 336.135 622.392C335.794 622.638 335.516 622.963 335.303 623.368C335.09 623.774 334.935 624.238 334.839 624.76C334.754 625.272 334.711 625.795 334.711 626.328C334.711 626.862 334.754 627.39 334.839 627.912C334.935 628.424 335.09 628.888 335.303 629.304C335.516 629.71 335.794 630.04 336.135 630.296C336.487 630.542 336.919 630.664 337.431 630.664Z" fill="#64686A"/>
<path d="M235.64 68.6875L232.856 65.2155L231.576 66.4795V68.6875H230.376V60.9595H231.576V65.0715L235.64 60.9595H237.16L233.736 64.4635L237.176 68.6875H235.64ZM240.003 68.6875V62.0155H237.763V60.9595H243.459V62.0155H241.203V68.6875H240.003ZM245.032 68.6875V60.9595H246.232V64.1755H250.264V60.9595H251.464V68.6875H250.264V65.2315H246.232V68.6875H245.032Z" fill="#64686A"/>
<rect x="265.66" y="57.6875" width="12" height="12" fill="white"/>
<path d="M285.714 67.6955C285.895 67.6635 286.055 67.5995 286.194 67.5035C286.343 67.4075 286.476 67.2528 286.594 67.0395C286.722 66.8262 286.834 66.5382 286.93 66.1755C287.026 65.8128 287.111 65.3435 287.186 64.7675L287.682 60.9595H293.058V67.6315H293.954V70.6555H292.754V68.6875H286.914V70.6555H285.714V67.6955ZM288.386 64.9115C288.29 65.6475 288.146 66.2288 287.954 66.6555C287.772 67.0822 287.543 67.4075 287.266 67.6315H291.858V62.0155H288.738L288.386 64.9115ZM297.003 68.6875V62.0155H294.763V60.9595H300.459V62.0155H298.203V68.6875H297.003ZM302.032 68.6875V60.9595H303.232V64.1755H307.264V60.9595H308.464V68.6875H307.264V65.2315H303.232V68.6875H302.032Z" fill="#64686A"/>
<rect x="322.66" y="57.6875" width="12" height="12" fill="url(#paint67_linear_1_3192)" fill-opacity="0.8"/>
<defs>
<linearGradient id="paint0_linear_1_3192" x1="11.6602" y1="-27.0976" x2="11.6603" y2="679.318" gradientUnits="userSpaceOnUse">
<stop stop-color="white" stop-opacity="0"/>
<stop offset="0.526042" stop-color="white"/>
<stop offset="1" stop-color="white" stop-opacity="0"/>
</linearGradient>
<linearGradient id="paint1_linear_1_3192" x1="57.6602" y1="-27.0976" x2="57.6603" y2="679.318" gradientUnits="userSpaceOnUse">
<stop stop-color="white" stop-opacity="0"/>
<stop offset="0.526042" stop-color="white"/>
<stop offset="1" stop-color="white" stop-opacity="0"/>
</linearGradient>
<linearGradient id="paint2_linear_1_3192" x1="103.66" y1="-27.0976" x2="103.66" y2="679.318" gradientUnits="userSpaceOnUse">
<stop stop-color="white" stop-opacity="0"/>
<stop offset="0.526042" stop-color="white"/>
<stop offset="1" stop-color="white" stop-opacity="0"/>
</linearGradient>
<linearGradient id="paint3_linear_1_3192" x1="149.66" y1="-27.0976" x2="149.66" y2="679.318" gradientUnits="userSpaceOnUse">
<stop stop-color="white" stop-opacity="0"/>
<stop offset="0.526042" stop-color="white"/>
<stop offset="1" stop-color="white" stop-opacity="0"/>
</linearGradient>
<linearGradient id="paint4_linear_1_3192" x1="195.66" y1="-27.0976" x2="195.66" y2="679.318" gradientUnits="userSpaceOnUse">
<stop stop-color="white" stop-opacity="0"/>
<stop offset="0.526042" stop-color="white"/>
<stop offset="1" stop-color="white" stop-opacity="0"/>
</linearGradient>
<linearGradient id="paint5_linear_1_3192" x1="241.66" y1="-27.0976" x2="241.66" y2="679.318" gradientUnits="userSpaceOnUse">
<stop stop-color="white" stop-opacity="0"/>
<stop offset="0.526042" stop-color="white"/>
<stop offset="1" stop-color="white" stop-opacity="0"/>
</linearGradient>
<linearGradient id="paint6_linear_1_3192" x1="287.66" y1="-27.0976" x2="287.66" y2="679.318" gradientUnits="userSpaceOnUse">
<stop stop-color="white" stop-opacity="0"/>
<stop offset="0.526042" stop-color="white"/>
<stop offset="1" stop-color="white" stop-opacity="0"/>
</linearGradient>
<linearGradient id="paint7_linear_1_3192" x1="333.66" y1="-27.0976" x2="333.66" y2="679.318" gradientUnits="userSpaceOnUse">
<stop stop-color="white" stop-opacity="0"/>
<stop offset="0.526042" stop-color="white"/>
<stop offset="1" stop-color="white" stop-opacity="0"/>
</linearGradient>
<linearGradient id="paint8_linear_1_3192" x1="379.66" y1="-27.0976" x2="379.66" y2="679.318" gradientUnits="userSpaceOnUse">
<stop stop-color="white" stop-opacity="0"/>
<stop offset="0.526042" stop-color="white"/>
<stop offset="1" stop-color="white" stop-opacity="0"/>
</linearGradient>
<linearGradient id="paint9_linear_1_3192" x1="390.793" y1="51.6562" x2="0.535156" y2="51.6562" gradientUnits="userSpaceOnUse">
<stop stop-color="white" stop-opacity="0"/>
<stop offset="0.186886" stop-color="white"/>
<stop offset="0.520833" stop-color="white" stop-opacity="0.69"/>
<stop offset="0.810556" stop-color="white"/>
<stop offset="1" stop-color="white" stop-opacity="0"/>
</linearGradient>
<linearGradient id="paint10_linear_1_3192" x1="390.793" y1="76.6562" x2="0.535156" y2="76.6562" gradientUnits="userSpaceOnUse">
<stop stop-color="white" stop-opacity="0"/>
<stop offset="0.186886" stop-color="white"/>
<stop offset="0.520833" stop-color="white" stop-opacity="0.69"/>
<stop offset="0.810556" stop-color="white"/>
<stop offset="1" stop-color="white" stop-opacity="0"/>
</linearGradient>
<linearGradient id="paint11_linear_1_3192" x1="390.793" y1="101.656" x2="0.535156" y2="101.656" gradientUnits="userSpaceOnUse">
<stop stop-color="white" stop-opacity="0"/>
<stop offset="0.186886" stop-color="white"/>
<stop offset="0.520833" stop-color="white" stop-opacity="0.69"/>
<stop offset="0.810556" stop-color="white"/>
<stop offset="1" stop-color="white" stop-opacity="0"/>
</linearGradient>
<linearGradient id="paint12_linear_1_3192" x1="390.793" y1="126.656" x2="0.535156" y2="126.656" gradientUnits="userSpaceOnUse">
<stop stop-color="white" stop-opacity="0"/>
<stop offset="0.186886" stop-color="white"/>
<stop offset="0.520833" stop-color="white" stop-opacity="0.69"/>
<stop offset="0.810556" stop-color="white"/>
<stop offset="1" stop-color="white" stop-opacity="0"/>
</linearGradient>
<linearGradient id="paint13_linear_1_3192" x1="390.793" y1="151.656" x2="0.535156" y2="151.656" gradientUnits="userSpaceOnUse">
<stop stop-color="white" stop-opacity="0"/>
<stop offset="0.186886" stop-color="white"/>
<stop offset="0.520833" stop-color="white" stop-opacity="0.69"/>
<stop offset="0.810556" stop-color="white"/>
<stop offset="1" stop-color="white" stop-opacity="0"/>
</linearGradient>
<linearGradient id="paint14_linear_1_3192" x1="390.793" y1="176.656" x2="0.535156" y2="176.656" gradientUnits="userSpaceOnUse">
<stop stop-color="white" stop-opacity="0"/>
<stop offset="0.186886" stop-color="white"/>
<stop offset="0.520833" stop-color="white" stop-opacity="0.69"/>
<stop offset="0.810556" stop-color="white"/>
<stop offset="1" stop-color="white" stop-opacity="0"/>
</linearGradient>
<linearGradient id="paint15_linear_1_3192" x1="390.793" y1="201.656" x2="0.535156" y2="201.656" gradientUnits="userSpaceOnUse">
<stop stop-color="white" stop-opacity="0"/>
<stop offset="0.186886" stop-color="white"/>
<stop offset="0.520833" stop-color="white" stop-opacity="0.69"/>
<stop offset="0.810556" stop-color="white"/>
<stop offset="1" stop-color="white" stop-opacity="0"/>
</linearGradient>
<linearGradient id="paint16_linear_1_3192" x1="390.793" y1="226.656" x2="0.535156" y2="226.656" gradientUnits="userSpaceOnUse">
<stop stop-color="white" stop-opacity="0"/>
<stop offset="0.186886" stop-color="white"/>
<stop offset="0.520833" stop-color="white" stop-opacity="0.69"/>
<stop offset="0.810556" stop-color="white"/>
<stop offset="1" stop-color="white" stop-opacity="0"/>
</linearGradient>
<linearGradient id="paint17_linear_1_3192" x1="390.793" y1="251.656" x2="0.535156" y2="251.656" gradientUnits="userSpaceOnUse">
<stop stop-color="white" stop-opacity="0"/>
<stop offset="0.186886" stop-color="white"/>
<stop offset="0.520833" stop-color="white" stop-opacity="0.69"/>
<stop offset="0.810556" stop-color="white"/>
<stop offset="1" stop-color="white" stop-opacity="0"/>
</linearGradient>
<linearGradient id="paint18_linear_1_3192" x1="390.793" y1="276.656" x2="0.535156" y2="276.656" gradientUnits="userSpaceOnUse">
<stop stop-color="white" stop-opacity="0"/>
<stop offset="0.186886" stop-color="white"/>
<stop offset="0.520833" stop-color="white" stop-opacity="0.69"/>
<stop offset="0.810556" stop-color="white"/>
<stop offset="1" stop-color="white" stop-opacity="0"/>
</linearGradient>
<linearGradient id="paint19_linear_1_3192" x1="390.793" y1="301.656" x2="0.535156" y2="301.656" gradientUnits="userSpaceOnUse">
<stop stop-color="white" stop-opacity="0"/>
<stop offset="0.186886" stop-color="white"/>
<stop offset="0.520833" stop-color="white" stop-opacity="0.69"/>
<stop offset="0.810556" stop-color="white"/>
<stop offset="1" stop-color="white" stop-opacity="0"/>
</linearGradient>
<linearGradient id="paint20_linear_1_3192" x1="390.793" y1="326.656" x2="0.535156" y2="326.656" gradientUnits="userSpaceOnUse">
<stop stop-color="white" stop-opacity="0"/>
<stop offset="0.186886" stop-color="white"/>
<stop offset="0.520833" stop-color="white" stop-opacity="0.69"/>
<stop offset="0.810556" stop-color="white"/>
<stop offset="1" stop-color="white" stop-opacity="0"/>
</linearGradient>
<linearGradient id="paint21_linear_1_3192" x1="390.793" y1="351.656" x2="0.535156" y2="351.656" gradientUnits="userSpaceOnUse">
<stop stop-color="white" stop-opacity="0"/>
<stop offset="0.186886" stop-color="white"/>
<stop offset="0.520833" stop-color="white" stop-opacity="0.69"/>
<stop offset="0.810556" stop-color="white"/>
<stop offset="1" stop-color="white" stop-opacity="0"/>
</linearGradient>
<linearGradient id="paint22_linear_1_3192" x1="390.793" y1="376.656" x2="0.535156" y2="376.656" gradientUnits="userSpaceOnUse">
<stop stop-color="white" stop-opacity="0"/>
<stop offset="0.186886" stop-color="white"/>
<stop offset="0.520833" stop-color="white" stop-opacity="0.69"/>
<stop offset="0.810556" stop-color="white"/>
<stop offset="1" stop-color="white" stop-opacity="0"/>
</linearGradient>
<linearGradient id="paint23_linear_1_3192" x1="390.793" y1="401.656" x2="0.535156" y2="401.656" gradientUnits="userSpaceOnUse">
<stop stop-color="white" stop-opacity="0"/>
<stop offset="0.186886" stop-color="white"/>
<stop offset="0.520833" stop-color="white" stop-opacity="0.69"/>
<stop offset="0.810556" stop-color="white"/>
<stop offset="1" stop-color="white" stop-opacity="0"/>
</linearGradient>
<linearGradient id="paint24_linear_1_3192" x1="390.793" y1="426.656" x2="0.535156" y2="426.656" gradientUnits="userSpaceOnUse">
<stop stop-color="white" stop-opacity="0"/>
<stop offset="0.186886" stop-color="white"/>
<stop offset="0.520833" stop-color="white" stop-opacity="0.69"/>
<stop offset="0.810556" stop-color="white"/>
<stop offset="1" stop-color="white" stop-opacity="0"/>
</linearGradient>
<linearGradient id="paint25_linear_1_3192" x1="390.793" y1="451.656" x2="0.535156" y2="451.656" gradientUnits="userSpaceOnUse">
<stop stop-color="white" stop-opacity="0"/>
<stop offset="0.186886" stop-color="white"/>
<stop offset="0.520833" stop-color="white" stop-opacity="0.69"/>
<stop offset="0.810556" stop-color="white"/>
<stop offset="1" stop-color="white" stop-opacity="0"/>
</linearGradient>
<linearGradient id="paint26_linear_1_3192" x1="390.793" y1="476.656" x2="0.535156" y2="476.656" gradientUnits="userSpaceOnUse">
<stop stop-color="white" stop-opacity="0"/>
<stop offset="0.186886" stop-color="white"/>
<stop offset="0.520833" stop-color="white" stop-opacity="0.69"/>
<stop offset="0.810556" stop-color="white"/>
<stop offset="1" stop-color="white" stop-opacity="0"/>
</linearGradient>
<linearGradient id="paint27_linear_1_3192" x1="390.793" y1="501.656" x2="0.535156" y2="501.656" gradientUnits="userSpaceOnUse">
<stop stop-color="white" stop-opacity="0"/>
<stop offset="0.186886" stop-color="white"/>
<stop offset="0.520833" stop-color="white" stop-opacity="0.69"/>
<stop offset="0.810556" stop-color="white"/>
<stop offset="1" stop-color="white" stop-opacity="0"/>
</linearGradient>
<linearGradient id="paint28_linear_1_3192" x1="390.793" y1="526.656" x2="0.535156" y2="526.656" gradientUnits="userSpaceOnUse">
<stop stop-color="white" stop-opacity="0"/>
<stop offset="0.186886" stop-color="white"/>
<stop offset="0.520833" stop-color="white" stop-opacity="0.69"/>
<stop offset="0.810556" stop-color="white"/>
<stop offset="1" stop-color="white" stop-opacity="0"/>
</linearGradient>
<linearGradient id="paint29_linear_1_3192" x1="390.793" y1="551.656" x2="0.535156" y2="551.656" gradientUnits="userSpaceOnUse">
<stop stop-color="white" stop-opacity="0"/>
<stop offset="0.186886" stop-color="white"/>
<stop offset="0.520833" stop-color="white" stop-opacity="0.69"/>
<stop offset="0.810556" stop-color="white"/>
<stop offset="1" stop-color="white" stop-opacity="0"/>
</linearGradient>
<linearGradient id="paint30_linear_1_3192" x1="390.793" y1="576.656" x2="0.535156" y2="576.656" gradientUnits="userSpaceOnUse">
<stop stop-color="white" stop-opacity="0"/>
<stop offset="0.186886" stop-color="white"/>
<stop offset="0.520833" stop-color="white" stop-opacity="0.69"/>
<stop offset="0.810556" stop-color="white"/>
<stop offset="1" stop-color="white" stop-opacity="0"/>
</linearGradient>
<linearGradient id="paint31_linear_1_3192" x1="390.793" y1="601.656" x2="0.535156" y2="601.656" gradientUnits="userSpaceOnUse">
<stop stop-color="white" stop-opacity="0"/>
<stop offset="0.186886" stop-color="white"/>
<stop offset="0.520833" stop-color="white" stop-opacity="0.69"/>
<stop offset="0.810556" stop-color="white"/>
<stop offset="1" stop-color="white" stop-opacity="0"/>
</linearGradient>
<linearGradient id="paint32_linear_1_3192" x1="103.534" y1="105.039" x2="172.618" y2="105.039" gradientUnits="userSpaceOnUse">
<stop stop-color="white"/>
<stop offset="0.478148" stop-color="white" stop-opacity="0.52"/>
<stop offset="1" stop-color="white"/>
</linearGradient>
<linearGradient id="paint33_linear_1_3192" x1="103.534" y1="130.039" x2="218.726" y2="130.039" gradientUnits="userSpaceOnUse">
<stop stop-color="white"/>
<stop offset="0.478148" stop-color="white" stop-opacity="0.52"/>
<stop offset="1" stop-color="white"/>
</linearGradient>
<linearGradient id="paint34_linear_1_3192" x1="103.534" y1="180.039" x2="172.618" y2="180.039" gradientUnits="userSpaceOnUse">
<stop stop-color="white"/>
<stop offset="0.478148" stop-color="white" stop-opacity="0.52"/>
<stop offset="1" stop-color="white"/>
</linearGradient>
<linearGradient id="paint35_linear_1_3192" x1="103.534" y1="205.039" x2="172.618" y2="205.039" gradientUnits="userSpaceOnUse">
<stop stop-color="white"/>
<stop offset="0.478148" stop-color="white" stop-opacity="0.52"/>
<stop offset="1" stop-color="white"/>
</linearGradient>
<linearGradient id="paint36_linear_1_3192" x1="103.533" y1="230.039" x2="242.166" y2="230.039" gradientUnits="userSpaceOnUse">
<stop stop-color="white"/>
<stop offset="0.478148" stop-color="white" stop-opacity="0.52"/>
<stop offset="1" stop-color="white"/>
</linearGradient>
<linearGradient id="paint37_linear_1_3192" x1="103.535" y1="255.039" x2="149.352" y2="255.039" gradientUnits="userSpaceOnUse">
<stop stop-color="white"/>
<stop offset="0.478148" stop-color="white" stop-opacity="0.52"/>
<stop offset="1" stop-color="white"/>
</linearGradient>
<linearGradient id="paint38_linear_1_3192" x1="103.532" y1="280.039" x2="334.869" y2="280.039" gradientUnits="userSpaceOnUse">
<stop stop-color="white"/>
<stop offset="0.478148" stop-color="white" stop-opacity="0.52"/>
<stop offset="1" stop-color="white"/>
</linearGradient>
<linearGradient id="paint39_linear_1_3192" x1="103.534" y1="305.039" x2="195.77" y2="305.039" gradientUnits="userSpaceOnUse">
<stop stop-color="white"/>
<stop offset="0.478148" stop-color="white" stop-opacity="0.52"/>
<stop offset="1" stop-color="white"/>
</linearGradient>
<linearGradient id="paint40_linear_1_3192" x1="103.534" y1="330.039" x2="172.618" y2="330.039" gradientUnits="userSpaceOnUse">
<stop stop-color="white"/>
<stop offset="0.478148" stop-color="white" stop-opacity="0.52"/>
<stop offset="1" stop-color="white"/>
</linearGradient>
<linearGradient id="paint41_linear_1_3192" x1="103.535" y1="355.039" x2="125.889" y2="355.039" gradientUnits="userSpaceOnUse">
<stop stop-color="white"/>
<stop offset="0.478148" stop-color="white" stop-opacity="0.52"/>
<stop offset="1" stop-color="white"/>
</linearGradient>
<linearGradient id="paint42_linear_1_3192" x1="103.535" y1="380.039" x2="149.352" y2="380.039" gradientUnits="userSpaceOnUse">
<stop stop-color="white"/>
<stop offset="0.478148" stop-color="white" stop-opacity="0.52"/>
<stop offset="1" stop-color="white"/>
</linearGradient>
<linearGradient id="paint43_linear_1_3192" x1="103.535" y1="405.039" x2="149.352" y2="405.039" gradientUnits="userSpaceOnUse">
<stop stop-color="white"/>
<stop offset="0.478148" stop-color="white" stop-opacity="0.52"/>
<stop offset="1" stop-color="white"/>
</linearGradient>
<linearGradient id="paint44_linear_1_3192" x1="103.534" y1="430.039" x2="218.705" y2="430.039" gradientUnits="userSpaceOnUse">
<stop stop-color="white"/>
<stop offset="0.478148" stop-color="white" stop-opacity="0.52"/>
<stop offset="1" stop-color="white"/>
</linearGradient>
<linearGradient id="paint45_linear_1_3192" x1="103.535" y1="455.039" x2="149.352" y2="455.039" gradientUnits="userSpaceOnUse">
<stop stop-color="white"/>
<stop offset="0.478148" stop-color="white" stop-opacity="0.52"/>
<stop offset="1" stop-color="white"/>
</linearGradient>
<linearGradient id="paint46_linear_1_3192" x1="103.535" y1="480.039" x2="125.889" y2="480.039" gradientUnits="userSpaceOnUse">
<stop stop-color="white"/>
<stop offset="0.478148" stop-color="white" stop-opacity="0.52"/>
<stop offset="1" stop-color="white"/>
</linearGradient>
<linearGradient id="paint47_linear_1_3192" x1="103.535" y1="505.039" x2="149.352" y2="505.039" gradientUnits="userSpaceOnUse">
<stop stop-color="white"/>
<stop offset="0.478148" stop-color="white" stop-opacity="0.52"/>
<stop offset="1" stop-color="white"/>
</linearGradient>
<linearGradient id="paint48_linear_1_3192" x1="103.535" y1="530.039" x2="125.889" y2="530.039" gradientUnits="userSpaceOnUse">
<stop stop-color="white"/>
<stop offset="0.478148" stop-color="white" stop-opacity="0.52"/>
<stop offset="1" stop-color="white"/>
</linearGradient>
<linearGradient id="paint49_linear_1_3192" x1="103.535" y1="555.039" x2="125.889" y2="555.039" gradientUnits="userSpaceOnUse">
<stop stop-color="white"/>
<stop offset="0.478148" stop-color="white" stop-opacity="0.52"/>
<stop offset="1" stop-color="white"/>
</linearGradient>
<linearGradient id="paint50_linear_1_3192" x1="103.535" y1="580.039" x2="149.352" y2="580.039" gradientUnits="userSpaceOnUse">
<stop stop-color="white"/>
<stop offset="0.478148" stop-color="white" stop-opacity="0.52"/>
<stop offset="1" stop-color="white"/>
</linearGradient>
<linearGradient id="paint51_linear_1_3192" x1="103.534" y1="605.039" x2="172.618" y2="605.039" gradientUnits="userSpaceOnUse">
<stop stop-color="white"/>
<stop offset="0.478148" stop-color="white" stop-opacity="0.52"/>
<stop offset="1" stop-color="white"/>
</linearGradient>
<linearGradient id="paint52_linear_1_3192" x1="172.983" y1="601.946" x2="218.738" y2="601.946" gradientUnits="userSpaceOnUse">
<stop stop-color="#FF0000" stop-opacity="0.52"/>
<stop offset="1" stop-color="#FF0000"/>
</linearGradient>
<linearGradient id="paint53_linear_1_3192" x1="126.236" y1="551.946" x2="149.644" y2="551.946" gradientUnits="userSpaceOnUse">
<stop stop-color="#FF0000" stop-opacity="0.52"/>
<stop offset="1" stop-color="#FF0000"/>
</linearGradient>
<linearGradient id="paint54_linear_1_3192" x1="126.236" y1="476.946" x2="149.644" y2="476.946" gradientUnits="userSpaceOnUse">
<stop stop-color="#FF0000" stop-opacity="0.52"/>
<stop offset="1" stop-color="#FF0000"/>
</linearGradient>
<linearGradient id="paint55_linear_1_3192" x1="149.728" y1="376.946" x2="173.136" y2="376.946" gradientUnits="userSpaceOnUse">
<stop stop-color="#FF0000" stop-opacity="0.52"/>
<stop offset="1" stop-color="#FF0000"/>
</linearGradient>
<linearGradient id="paint56_linear_1_3192" x1="219.041" y1="426.946" x2="242.449" y2="426.946" gradientUnits="userSpaceOnUse">
<stop stop-color="#FF0000" stop-opacity="0.52"/>
<stop offset="1" stop-color="#FF0000"/>
</linearGradient>
<linearGradient id="paint57_linear_1_3192" x1="172.971" y1="326.946" x2="196.379" y2="326.946" gradientUnits="userSpaceOnUse">
<stop stop-color="#FF0000" stop-opacity="0.52"/>
<stop offset="1" stop-color="#FF0000"/>
</linearGradient>
<linearGradient id="paint58_linear_1_3192" x1="172.971" y1="201.946" x2="196.379" y2="201.946" gradientUnits="userSpaceOnUse">
<stop stop-color="#FF0000" stop-opacity="0.52"/>
<stop offset="1" stop-color="#FF0000"/>
</linearGradient>
<linearGradient id="paint59_linear_1_3192" x1="172.971" y1="177.485" x2="196.379" y2="177.485" gradientUnits="userSpaceOnUse">
<stop stop-color="#FF0000" stop-opacity="0.52"/>
<stop offset="1" stop-color="#FF0000"/>
</linearGradient>
<linearGradient id="paint60_linear_1_3192" x1="219.041" y1="126.946" x2="242.449" y2="126.946" gradientUnits="userSpaceOnUse">
<stop stop-color="#FF0000" stop-opacity="0.52"/>
<stop offset="1" stop-color="#FF0000"/>
</linearGradient>
<linearGradient id="paint61_linear_1_3192" x1="196.088" y1="307.329" x2="219.496" y2="307.329" gradientUnits="userSpaceOnUse">
<stop stop-color="#FF0000" stop-opacity="0.52"/>
<stop offset="1" stop-color="#FF0000"/>
</linearGradient>
<linearGradient id="paint62_linear_1_3192" x1="126.274" y1="526.946" x2="172.894" y2="526.946" gradientUnits="userSpaceOnUse">
<stop stop-color="#FF0000" stop-opacity="0.52"/>
<stop offset="1" stop-color="#FF0000"/>
</linearGradient>
<linearGradient id="paint63_linear_1_3192" x1="126.274" y1="351.946" x2="172.894" y2="351.946" gradientUnits="userSpaceOnUse">
<stop stop-color="#FF0000" stop-opacity="0.52"/>
<stop offset="1" stop-color="#FF0000"/>
</linearGradient>
<linearGradient id="paint64_linear_1_3192" x1="149.734" y1="501.946" x2="196.208" y2="501.946" gradientUnits="userSpaceOnUse">
<stop stop-color="#FF0000" stop-opacity="0.52"/>
<stop offset="1" stop-color="#FF0000"/>
</linearGradient>
<linearGradient id="paint65_linear_1_3192" x1="149.734" y1="451.946" x2="196.208" y2="451.946" gradientUnits="userSpaceOnUse">
<stop stop-color="#FF0000" stop-opacity="0.52"/>
<stop offset="1" stop-color="#FF0000"/>
</linearGradient>
<linearGradient id="paint66_linear_1_3192" x1="149.734" y1="254.103" x2="196.208" y2="254.103" gradientUnits="userSpaceOnUse">
<stop stop-color="#FF0000" stop-opacity="0.52"/>
<stop offset="1" stop-color="#FF0000"/>
</linearGradient>
<linearGradient id="paint67_linear_1_3192" x1="322.68" y1="63.5019" x2="334.655" y2="63.5019" gradientUnits="userSpaceOnUse">
<stop stop-color="#FF0000" stop-opacity="0.52"/>
<stop offset="1" stop-color="#FF0000"/>
</linearGradient>
</defs>
</svg>
