<svg width="556.962891" height="466.609375" viewBox="0 0 556.963 466.609" fill="none" xmlns="http://www.w3.org/2000/svg" xmlns:xlink="http://www.w3.org/1999/xlink">
	<desc>
			Created with Pixso.
	</desc>
	<defs>
		<filter id="filter_1_1198_dd" x="0.000000" y="0.000000" width="381.270996" height="288.675781" filterUnits="userSpaceOnUse" color-interpolation-filters="sRGB">
			<feFlood flood-opacity="0" result="BackgroundImageFix"/>
			<feBlend mode="normal" in="SourceGraphic" in2="BackgroundImageFix" result="shape"/>
			<feGaussianBlur stdDeviation="24.739" result="effect_layerBlur_1"/>
		</filter>
		<filter id="filter_1_1199_dd" x="73.506836" y="74.216797" width="234.292480" height="140.242188" filterUnits="userSpaceOnUse" color-interpolation-filters="sRGB">
			<feFlood flood-opacity="0" result="BackgroundImageFix"/>
			<feGaussianBlur in="BackgroundImage" stdDeviation="10.6717"/>
			<feComposite in2="SourceAlpha" operator="in" result="effect_backgroundBlur_1"/>
			<feBlend mode="normal" in="SourceGraphic" in2="effect_backgroundBlur_1" result="shape"/>
		</filter>
		<filter id="filter_1_1200_dd" x="136.616699" y="112.216797" width="108.000000" height="64.000000" filterUnits="userSpaceOnUse" color-interpolation-filters="sRGB">
			<feFlood flood-opacity="0" result="BackgroundImageFix"/>
			<feGaussianBlur in="BackgroundImage" stdDeviation="10.6717"/>
			<feComposite in2="SourceAlpha" operator="in" result="effect_backgroundBlur_1"/>
			<feBlend mode="normal" in="SourceGraphic" in2="effect_backgroundBlur_1" result="shape"/>
		</filter>
		<filter id="filter_1_1201_dd" x="175.691895" y="177.933594" width="381.270996" height="288.675781" filterUnits="userSpaceOnUse" color-interpolation-filters="sRGB">
			<feFlood flood-opacity="0" result="BackgroundImageFix"/>
			<feBlend mode="normal" in="SourceGraphic" in2="BackgroundImageFix" result="shape"/>
			<feGaussianBlur stdDeviation="24.739" result="effect_layerBlur_1"/>
		</filter>
		<filter id="filter_1_1202_dd" x="249.198242" y="252.150391" width="234.292480" height="140.242188" filterUnits="userSpaceOnUse" color-interpolation-filters="sRGB">
			<feFlood flood-opacity="0" result="BackgroundImageFix"/>
			<feGaussianBlur in="BackgroundImage" stdDeviation="10.6717"/>
			<feComposite in2="SourceAlpha" operator="in" result="effect_backgroundBlur_1"/>
			<feBlend mode="normal" in="SourceGraphic" in2="effect_backgroundBlur_1" result="shape"/>
		</filter>
		<filter id="filter_1_1203_dd" x="312.615723" y="290.216797" width="108.000000" height="64.000000" filterUnits="userSpaceOnUse" color-interpolation-filters="sRGB">
			<feFlood flood-opacity="0" result="BackgroundImageFix"/>
			<feGaussianBlur in="BackgroundImage" stdDeviation="10.6717"/>
			<feComposite in2="SourceAlpha" operator="in" result="effect_backgroundBlur_1"/>
			<feBlend mode="normal" in="SourceGraphic" in2="effect_backgroundBlur_1" result="shape"/>
		</filter>
		<linearGradient id="paint_linear_1_1199_0" x1="108.216835" y1="93.478470" x2="277.428040" y2="201.257339" gradientUnits="userSpaceOnUse">
			<stop stop-color="#FFFFFF"/>
			<stop offset="1.000000" stop-color="#FFFFFF" stop-opacity="0.000000"/>
		</linearGradient>
		<linearGradient id="paint_linear_1_1199_1" x1="108.216835" y1="93.478470" x2="277.428040" y2="201.257339" gradientUnits="userSpaceOnUse">
			<stop stop-color="#FFFFFF" stop-opacity="0.000000"/>
			<stop offset="1.000000" stop-color="#FFFFFF" stop-opacity="0.219608"/>
		</linearGradient>
		<linearGradient id="paint_linear_1_1200_0" x1="152.616714" y1="121.006905" x2="230.616714" y2="170.192093" gradientUnits="userSpaceOnUse">
			<stop stop-color="#FFFFFF"/>
			<stop offset="1.000000" stop-color="#FFFFFF" stop-opacity="0.000000"/>
		</linearGradient>
		<linearGradient id="paint_linear_1_1200_1" x1="152.616714" y1="121.006905" x2="230.616714" y2="170.192093" gradientUnits="userSpaceOnUse">
			<stop stop-color="#FFFFFF" stop-opacity="0.000000"/>
			<stop offset="1.000000" stop-color="#FFFFFF" stop-opacity="0.219608"/>
		</linearGradient>
		<linearGradient id="paint_linear_1_1202_0" x1="283.908234" y1="271.412048" x2="453.119446" y2="379.190918" gradientUnits="userSpaceOnUse">
			<stop stop-color="#FFFFFF"/>
			<stop offset="1.000000" stop-color="#FFFFFF" stop-opacity="0.000000"/>
		</linearGradient>
		<linearGradient id="paint_linear_1_1202_1" x1="283.908234" y1="271.412048" x2="453.119446" y2="379.190918" gradientUnits="userSpaceOnUse">
			<stop stop-color="#FFFFFF" stop-opacity="0.000000"/>
			<stop offset="1.000000" stop-color="#FFFFFF" stop-opacity="0.219608"/>
		</linearGradient>
		<linearGradient id="paint_linear_1_1203_0" x1="328.615723" y1="299.006897" x2="406.615723" y2="348.192078" gradientUnits="userSpaceOnUse">
			<stop stop-color="#FFFFFF"/>
			<stop offset="1.000000" stop-color="#FFFFFF" stop-opacity="0.000000"/>
		</linearGradient>
		<linearGradient id="paint_linear_1_1203_1" x1="328.615723" y1="299.006897" x2="406.615723" y2="348.192078" gradientUnits="userSpaceOnUse">
			<stop stop-color="#FFFFFF" stop-opacity="0.000000"/>
			<stop offset="1.000000" stop-color="#FFFFFF" stop-opacity="0.219608"/>
		</linearGradient>
		<linearGradient id="paint_linear_1_1204_0" x1="251.575485" y1="332.913116" x2="170.205490" y2="159.523529" gradientUnits="userSpaceOnUse">
			<stop stop-color="#FFFFFF" stop-opacity="0.000000"/>
			<stop offset="0.609788" stop-color="#FFFFFF"/>
		</linearGradient>
		<linearGradient id="paint_linear_1_1205_0" x1="308.282410" y1="133.368774" x2="389.652344" y2="308.074921" gradientUnits="userSpaceOnUse">
			<stop stop-color="#FFFFFF" stop-opacity="0.000000"/>
			<stop offset="0.707152" stop-color="#FFFFFF"/>
		</linearGradient>
	</defs>
	<g filter="url(#filter_1_1198_dd)">
		<ellipse id="Ellipse 6785" cx="190.635254" cy="144.337891" rx="116.418602" ry="70.121170" fill="#FFFFFF" fill-opacity="0.740000"/>
	</g>
	<g filter="url(#filter_1_1199_dd)">
		<rect id="Rectangle 544" x="76.417480" y="77.126953" rx="7.276163" width="228.471512" height="134.421417" fill="url(#paint_linear_1_1199_0)" fill-opacity="0.300000"/>
	</g>
	<rect id="Rectangle 544" x="76.417480" y="77.126953" rx="7.276163" width="228.471512" height="134.421417" stroke="url(#paint_linear_1_1199_1)" stroke-opacity="0.300000" stroke-width="5.820930"/>
	<g filter="url(#filter_1_1200_dd)">
		<rect id="Rectangle 545" x="139.527344" y="115.126953" rx="7.276163" width="102.179070" height="58.179070" fill="url(#paint_linear_1_1200_0)" fill-opacity="0.400000"/>
	</g>
	<rect id="Rectangle 545" x="139.527344" y="115.126953" rx="7.276163" width="102.179070" height="58.179070" stroke="url(#paint_linear_1_1200_1)" stroke-opacity="0.300000" stroke-width="5.820930"/>
	<g filter="url(#filter_1_1201_dd)">
		<ellipse id="Ellipse 6785" cx="366.327148" cy="322.271484" rx="116.418602" ry="70.121170" fill="#FFFFFF" fill-opacity="0.740000"/>
	</g>
	<g filter="url(#filter_1_1202_dd)">
		<rect id="Rectangle 544" x="252.108887" y="255.060547" rx="7.276163" width="228.471512" height="134.421417" fill="url(#paint_linear_1_1202_0)" fill-opacity="0.300000"/>
	</g>
	<rect id="Rectangle 544" x="252.108887" y="255.060547" rx="7.276163" width="228.471512" height="134.421417" stroke="url(#paint_linear_1_1202_1)" stroke-opacity="0.300000" stroke-width="5.820930"/>
	<g filter="url(#filter_1_1203_dd)">
		<rect id="Rectangle 545" x="315.526367" y="293.126953" rx="7.276163" width="102.179070" height="58.179070" fill="url(#paint_linear_1_1203_0)" fill-opacity="0.400000"/>
	</g>
	<rect id="Rectangle 545" x="315.526367" y="293.126953" rx="7.276163" width="102.179070" height="58.179070" stroke="url(#paint_linear_1_1203_1)" stroke-opacity="0.300000" stroke-width="5.820930"/>
	<path id="Vector 444" d="M251.275 334.201L248.04 334.172Q247.969 334.171 247.897 334.164Q247.826 334.156 247.756 334.141Q247.686 334.127 247.618 334.105Q247.55 334.084 247.484 334.056Q247.418 334.028 247.356 333.994Q247.293 333.959 247.234 333.919Q247.175 333.879 247.12 333.833Q247.065 333.787 247.015 333.736Q246.965 333.685 246.92 333.629Q246.875 333.574 246.836 333.514Q246.797 333.454 246.764 333.391Q246.731 333.327 246.704 333.261Q246.677 333.195 246.657 333.126Q246.637 333.057 246.624 332.987Q246.61 332.917 246.604 332.846Q246.598 332.775 246.598 332.703Q246.599 332.632 246.607 332.561Q246.614 332.489 246.629 332.419Q246.643 332.35 246.665 332.281Q246.686 332.213 246.714 332.147Q246.742 332.082 246.776 332.019Q246.811 331.956 246.851 331.897Q246.891 331.838 246.937 331.783Q246.983 331.728 247.034 331.678Q247.085 331.628 247.141 331.583Q247.196 331.538 247.256 331.499Q247.316 331.46 247.379 331.427Q247.443 331.394 247.509 331.367Q247.575 331.34 247.644 331.32Q247.713 331.3 247.783 331.287Q247.853 331.274 247.924 331.267Q247.995 331.261 248.067 331.262L251.301 331.291L251.275 334.201ZM241.69 333.924Q238.542 333.73 235.604 333.402Q235.533 333.394 235.463 333.379Q235.393 333.365 235.325 333.343Q235.257 333.321 235.191 333.293Q235.125 333.265 235.063 333.23Q235 333.196 234.941 333.155Q234.882 333.114 234.828 333.068Q234.773 333.022 234.723 332.971Q234.673 332.92 234.629 332.864Q234.584 332.808 234.545 332.748Q234.506 332.688 234.473 332.624Q234.441 332.561 234.414 332.494Q234.388 332.428 234.368 332.359Q234.348 332.29 234.335 332.22Q234.322 332.15 234.316 332.078Q234.31 332.007 234.311 331.936Q234.312 331.864 234.32 331.793Q234.328 331.722 234.343 331.652Q234.357 331.582 234.379 331.514Q234.401 331.446 234.429 331.38Q234.457 331.315 234.492 331.252Q234.526 331.19 234.567 331.131Q234.607 331.072 234.653 331.017Q234.699 330.963 234.751 330.913Q234.802 330.863 234.858 330.818Q234.914 330.774 234.974 330.735Q235.033 330.696 235.097 330.663Q235.16 330.63 235.227 330.604Q235.293 330.578 235.362 330.558Q235.431 330.538 235.501 330.525Q235.571 330.512 235.642 330.506Q235.714 330.5 235.785 330.501Q235.857 330.502 235.928 330.51Q238.793 330.83 241.868 331.018Q241.94 331.022 242.01 331.033Q242.081 331.045 242.15 331.063Q242.219 331.081 242.286 331.106Q242.353 331.131 242.417 331.162Q242.482 331.194 242.542 331.231Q242.603 331.269 242.66 331.312Q242.717 331.355 242.77 331.404Q242.822 331.453 242.869 331.506Q242.917 331.56 242.959 331.618Q243 331.676 243.036 331.737Q243.072 331.799 243.102 331.864Q243.132 331.929 243.155 331.996Q243.179 332.064 243.195 332.133Q243.212 332.203 243.221 332.274Q243.231 332.345 243.234 332.416Q243.236 332.487 243.232 332.559Q243.228 332.63 243.216 332.701Q243.205 332.771 243.187 332.84Q243.168 332.91 243.144 332.977Q243.119 333.044 243.087 333.108Q243.056 333.172 243.018 333.233Q242.981 333.294 242.938 333.351Q242.894 333.408 242.846 333.46Q242.797 333.513 242.744 333.56Q242.69 333.608 242.632 333.65Q242.574 333.692 242.512 333.728Q242.451 333.764 242.386 333.794Q242.321 333.824 242.253 333.847Q242.186 333.87 242.116 333.887Q242.046 333.903 241.976 333.913Q241.905 333.923 241.833 333.925Q241.762 333.928 241.69 333.924ZM229.527 332.539Q226.371 331.99 223.442 331.254Q223.373 331.236 223.305 331.212Q223.238 331.188 223.173 331.157Q223.109 331.127 223.047 331.09Q222.986 331.053 222.929 331.01Q222.871 330.968 222.818 330.92Q222.766 330.872 222.718 330.819Q222.67 330.766 222.627 330.708Q222.585 330.651 222.548 330.59Q222.511 330.528 222.481 330.464Q222.45 330.399 222.426 330.332Q222.402 330.264 222.385 330.195Q222.368 330.126 222.357 330.055Q222.347 329.984 222.343 329.913Q222.34 329.842 222.343 329.77Q222.347 329.699 222.358 329.628Q222.368 329.558 222.386 329.488Q222.403 329.419 222.427 329.352Q222.451 329.284 222.482 329.22Q222.513 329.155 222.55 329.094Q222.586 329.032 222.629 328.975Q222.672 328.918 222.72 328.865Q222.768 328.812 222.821 328.764Q222.874 328.716 222.931 328.673Q222.989 328.631 223.05 328.594Q223.111 328.557 223.176 328.527Q223.241 328.496 223.308 328.472Q223.375 328.448 223.445 328.431Q223.514 328.413 223.585 328.403Q223.656 328.393 223.727 328.389Q223.798 328.386 223.87 328.389Q223.941 328.393 224.012 328.404Q224.083 328.414 224.152 328.432Q226.977 329.143 230.026 329.672Q230.097 329.684 230.166 329.703Q230.235 329.722 230.301 329.748Q230.368 329.774 230.432 329.806Q230.496 329.838 230.556 329.877Q230.616 329.915 230.673 329.959Q230.729 330.003 230.781 330.052Q230.833 330.102 230.879 330.156Q230.926 330.21 230.967 330.269Q231.008 330.327 231.043 330.389Q231.079 330.451 231.107 330.517Q231.136 330.582 231.159 330.65Q231.181 330.718 231.197 330.788Q231.212 330.858 231.221 330.929Q231.23 330.999 231.232 331.071Q231.233 331.142 231.228 331.214Q231.223 331.285 231.21 331.355Q231.198 331.426 231.179 331.495Q231.16 331.564 231.134 331.63Q231.108 331.697 231.076 331.761Q231.044 331.825 231.006 331.885Q230.968 331.945 230.924 332.002Q230.88 332.058 230.83 332.11Q230.781 332.161 230.727 332.208Q230.673 332.255 230.614 332.296Q230.556 332.337 230.493 332.372Q230.431 332.407 230.366 332.436Q230.3 332.465 230.233 332.488Q230.165 332.51 230.095 332.526Q230.025 332.541 229.954 332.55Q229.883 332.559 229.812 332.56Q229.74 332.562 229.669 332.557Q229.598 332.551 229.527 332.539ZM217.407 329.455Q214.369 328.396 211.57 327.088Q211.505 327.058 211.444 327.021Q211.382 326.985 211.324 326.943Q211.267 326.9 211.214 326.853Q211.16 326.805 211.112 326.752Q211.064 326.699 211.021 326.642Q210.978 326.585 210.941 326.524Q210.904 326.463 210.873 326.398Q210.842 326.334 210.818 326.267Q210.794 326.2 210.776 326.13Q210.758 326.061 210.747 325.99Q210.737 325.92 210.733 325.848Q210.729 325.777 210.732 325.706Q210.735 325.634 210.746 325.563Q210.756 325.493 210.773 325.423Q210.79 325.354 210.814 325.286Q210.837 325.219 210.868 325.154Q210.898 325.09 210.934 325.028Q210.971 324.967 211.013 324.909Q211.055 324.851 211.103 324.798Q211.151 324.745 211.204 324.697Q211.256 324.648 211.314 324.605Q211.371 324.563 211.432 324.525Q211.493 324.488 211.558 324.458Q211.622 324.427 211.689 324.402Q211.756 324.378 211.826 324.36Q211.895 324.342 211.965 324.332Q212.036 324.321 212.108 324.317Q212.179 324.313 212.25 324.316Q212.322 324.319 212.393 324.329Q212.463 324.339 212.533 324.356Q212.602 324.373 212.67 324.397Q212.737 324.421 212.802 324.451Q215.466 325.697 218.365 326.707Q218.432 326.731 218.497 326.761Q218.562 326.791 218.624 326.827Q218.685 326.863 218.743 326.905Q218.801 326.947 218.854 326.995Q218.908 327.042 218.956 327.095Q219.004 327.147 219.047 327.204Q219.091 327.261 219.128 327.322Q219.165 327.383 219.196 327.448Q219.227 327.512 219.252 327.579Q219.277 327.646 219.295 327.715Q219.312 327.784 219.324 327.855Q219.335 327.925 219.339 327.997Q219.343 328.068 219.34 328.139Q219.337 328.211 219.327 328.281Q219.317 328.352 219.301 328.422Q219.284 328.491 219.26 328.559Q219.237 328.626 219.207 328.691Q219.177 328.756 219.14 328.818Q219.104 328.879 219.062 328.937Q219.02 328.995 218.972 329.048Q218.925 329.102 218.872 329.15Q218.82 329.199 218.763 329.242Q218.706 329.285 218.644 329.322Q218.583 329.36 218.519 329.391Q218.455 329.422 218.388 329.447Q218.321 329.471 218.251 329.489Q218.182 329.507 218.111 329.518Q218.041 329.529 217.969 329.533Q217.898 329.538 217.827 329.535Q217.755 329.532 217.684 329.522Q217.614 329.512 217.544 329.495Q217.475 329.479 217.407 329.455ZM206.023 324.109Q203.317 322.451 200.845 320.498Q200.789 320.454 200.737 320.404Q200.686 320.355 200.639 320.3Q200.593 320.246 200.552 320.187Q200.511 320.128 200.476 320.066Q200.441 320.003 200.413 319.938Q200.384 319.872 200.362 319.804Q200.34 319.737 200.325 319.667Q200.31 319.597 200.301 319.526Q200.293 319.455 200.292 319.383Q200.29 319.312 200.296 319.241Q200.302 319.17 200.314 319.099Q200.327 319.029 200.346 318.96Q200.366 318.892 200.392 318.825Q200.418 318.759 200.45 318.695Q200.483 318.631 200.522 318.571Q200.56 318.511 200.604 318.455Q200.649 318.399 200.698 318.347Q200.748 318.296 200.802 318.249Q200.857 318.203 200.915 318.162Q200.974 318.121 201.037 318.086Q201.099 318.052 201.164 318.023Q201.23 317.994 201.298 317.972Q201.366 317.95 201.436 317.935Q201.506 317.92 201.577 317.911Q201.648 317.903 201.719 317.902Q201.791 317.9 201.862 317.906Q201.933 317.912 202.004 317.924Q202.074 317.937 202.143 317.956Q202.212 317.976 202.278 318.002Q202.345 318.028 202.408 318.061Q202.472 318.093 202.532 318.132Q202.592 318.171 202.648 318.215Q204.985 320.061 207.544 321.629Q207.605 321.666 207.662 321.709Q207.719 321.752 207.771 321.801Q207.824 321.849 207.871 321.903Q207.919 321.956 207.961 322.014Q208.003 322.072 208.039 322.133Q208.075 322.195 208.105 322.26Q208.135 322.325 208.158 322.392Q208.182 322.46 208.199 322.529Q208.215 322.599 208.225 322.67Q208.235 322.74 208.238 322.812Q208.24 322.883 208.236 322.955Q208.232 323.026 208.221 323.096Q208.21 323.167 208.192 323.236Q208.174 323.305 208.149 323.372Q208.124 323.439 208.093 323.504Q208.062 323.568 208.024 323.629Q207.987 323.69 207.944 323.747Q207.901 323.804 207.852 323.857Q207.804 323.909 207.75 323.957Q207.697 324.004 207.639 324.046Q207.581 324.088 207.519 324.125Q207.458 324.161 207.393 324.191Q207.328 324.221 207.26 324.244Q207.193 324.267 207.123 324.284Q207.054 324.301 206.983 324.311Q206.912 324.32 206.841 324.323Q206.769 324.326 206.698 324.322Q206.626 324.318 206.556 324.306Q206.485 324.295 206.416 324.277Q206.347 324.259 206.28 324.234Q206.213 324.209 206.148 324.178Q206.084 324.147 206.023 324.109ZM196.118 316.285Q193.932 314.094 191.946 311.605Q191.902 311.55 191.863 311.49Q191.824 311.43 191.791 311.366Q191.758 311.303 191.732 311.236Q191.705 311.17 191.685 311.101Q191.666 311.033 191.653 310.962Q191.64 310.892 191.634 310.821Q191.628 310.75 191.629 310.678Q191.63 310.607 191.637 310.536Q191.645 310.465 191.66 310.395Q191.675 310.325 191.697 310.257Q191.719 310.189 191.747 310.123Q191.775 310.057 191.81 309.995Q191.844 309.932 191.885 309.873Q191.925 309.814 191.971 309.76Q192.017 309.705 192.069 309.655Q192.12 309.605 192.176 309.561Q192.232 309.516 192.292 309.477Q192.352 309.438 192.415 309.405Q192.479 309.372 192.545 309.346Q192.611 309.319 192.68 309.3Q192.749 309.28 192.819 309.267Q192.889 309.254 192.961 309.248Q193.032 309.242 193.103 309.243Q193.175 309.244 193.246 309.252Q193.317 309.26 193.387 309.275Q193.457 309.29 193.525 309.311Q193.593 309.333 193.659 309.361Q193.724 309.39 193.787 309.424Q193.85 309.459 193.909 309.5Q193.967 309.54 194.022 309.586Q194.077 309.633 194.127 309.684Q194.177 309.735 194.221 309.791Q196.106 312.152 198.179 314.23Q198.229 314.281 198.274 314.336Q198.32 314.392 198.359 314.451Q198.399 314.51 198.433 314.574Q198.466 314.637 198.493 314.703Q198.521 314.769 198.541 314.837Q198.562 314.906 198.576 314.976Q198.59 315.046 198.597 315.117Q198.603 315.188 198.603 315.26Q198.603 315.331 198.596 315.402Q198.589 315.474 198.575 315.544Q198.561 315.614 198.54 315.682Q198.519 315.751 198.492 315.817Q198.464 315.883 198.431 315.946Q198.397 316.009 198.357 316.068Q198.317 316.128 198.272 316.183Q198.226 316.239 198.176 316.289Q198.125 316.34 198.07 316.385Q198.014 316.43 197.955 316.47Q197.895 316.509 197.832 316.543Q197.769 316.576 197.703 316.604Q197.637 316.631 197.569 316.652Q197.5 316.672 197.43 316.686Q197.36 316.7 197.289 316.707Q197.218 316.714 197.146 316.713Q197.075 316.713 197.003 316.706Q196.932 316.699 196.862 316.685Q196.792 316.671 196.724 316.65Q196.655 316.629 196.589 316.602Q196.523 316.574 196.46 316.54Q196.397 316.506 196.338 316.467Q196.279 316.427 196.223 316.381Q196.168 316.336 196.118 316.285ZM188.289 306.514Q186.607 303.914 185.089 301.041Q185.055 300.978 185.028 300.912Q185.001 300.845 184.981 300.777Q184.961 300.708 184.947 300.638Q184.933 300.568 184.927 300.497Q184.92 300.425 184.92 300.354Q184.921 300.282 184.928 300.211Q184.935 300.14 184.95 300.07Q184.964 300 184.985 299.932Q185.006 299.863 185.034 299.798Q185.062 299.732 185.096 299.669Q185.13 299.606 185.17 299.547Q185.21 299.487 185.255 299.432Q185.301 299.377 185.352 299.327Q185.402 299.277 185.458 299.232Q185.513 299.186 185.573 299.147Q185.633 299.108 185.696 299.074Q185.759 299.041 185.825 299.014Q185.891 298.987 185.96 298.966Q186.028 298.946 186.099 298.932Q186.169 298.919 186.24 298.912Q186.311 298.905 186.383 298.906Q186.454 298.906 186.525 298.914Q186.596 298.921 186.666 298.935Q186.736 298.95 186.805 298.971Q186.873 298.992 186.939 299.019Q187.005 299.047 187.068 299.081Q187.131 299.115 187.19 299.155Q187.249 299.195 187.304 299.241Q187.359 299.286 187.41 299.337Q187.46 299.388 187.505 299.444Q187.55 299.499 187.59 299.559Q187.629 299.618 187.663 299.682Q189.121 302.441 190.732 304.934Q190.771 304.994 190.804 305.057Q190.837 305.121 190.863 305.187Q190.889 305.253 190.909 305.322Q190.929 305.391 190.942 305.461Q190.955 305.531 190.961 305.602Q190.967 305.674 190.965 305.745Q190.964 305.817 190.956 305.888Q190.948 305.959 190.933 306.028Q190.918 306.098 190.896 306.166Q190.875 306.234 190.846 306.3Q190.818 306.366 190.783 306.428Q190.749 306.491 190.708 306.55Q190.668 306.609 190.621 306.663Q190.575 306.718 190.524 306.767Q190.473 306.817 190.417 306.862Q190.361 306.906 190.301 306.945Q190.241 306.984 190.177 307.017Q190.114 307.05 190.047 307.076Q189.981 307.103 189.912 307.122Q189.843 307.142 189.773 307.155Q189.703 307.168 189.631 307.174Q189.56 307.18 189.489 307.179Q189.417 307.178 189.346 307.17Q189.275 307.162 189.205 307.147Q189.135 307.132 189.067 307.11Q188.999 307.088 188.933 307.06Q188.868 307.031 188.805 306.997Q188.743 306.962 188.684 306.921Q188.625 306.881 188.571 306.835Q188.516 306.788 188.466 306.737Q188.416 306.686 188.372 306.63Q188.327 306.574 188.289 306.514ZM182.408 295.463Q181.193 292.684 180.099 289.676Q180.075 289.609 180.057 289.539Q180.039 289.47 180.028 289.399Q180.017 289.329 180.014 289.257Q180.01 289.186 180.013 289.115Q180.016 289.043 180.026 288.973Q180.036 288.902 180.053 288.832Q180.07 288.763 180.094 288.695Q180.118 288.628 180.148 288.563Q180.178 288.498 180.215 288.437Q180.251 288.375 180.293 288.318Q180.336 288.26 180.383 288.207Q180.431 288.154 180.484 288.105Q180.536 288.057 180.594 288.014Q180.651 287.971 180.712 287.934Q180.773 287.897 180.838 287.866Q180.902 287.835 180.969 287.811Q181.036 287.786 181.106 287.768Q181.175 287.751 181.246 287.74Q181.316 287.729 181.388 287.725Q181.459 287.721 181.53 287.724Q181.602 287.727 181.673 287.737Q181.743 287.748 181.813 287.765Q181.882 287.782 181.95 287.805Q182.017 287.829 182.082 287.859Q182.147 287.89 182.208 287.926Q182.27 287.963 182.328 288.005Q182.385 288.047 182.438 288.095Q182.492 288.143 182.54 288.196Q182.588 288.248 182.631 288.306Q182.674 288.363 182.711 288.424Q182.748 288.485 182.779 288.55Q182.81 288.614 182.834 288.682Q183.896 291.604 185.075 294.297Q185.103 294.362 185.125 294.43Q185.148 294.499 185.163 294.568Q185.178 294.638 185.187 294.709Q185.195 294.78 185.196 294.852Q185.198 294.923 185.192 294.994Q185.186 295.066 185.174 295.136Q185.161 295.206 185.142 295.275Q185.122 295.344 185.096 295.411Q185.07 295.477 185.038 295.541Q185.005 295.605 184.967 295.665Q184.928 295.725 184.884 295.781Q184.84 295.837 184.79 295.889Q184.741 295.94 184.686 295.986Q184.632 296.033 184.573 296.074Q184.515 296.115 184.452 296.149Q184.39 296.184 184.324 296.213Q184.259 296.242 184.191 296.264Q184.123 296.286 184.053 296.301Q183.983 296.317 183.912 296.325Q183.841 296.333 183.77 296.335Q183.698 296.336 183.627 296.331Q183.555 296.325 183.485 296.312Q183.415 296.3 183.346 296.281Q183.277 296.261 183.211 296.235Q183.144 296.209 183.08 296.177Q183.017 296.144 182.956 296.106Q182.896 296.067 182.84 296.023Q182.784 295.978 182.732 295.929Q182.681 295.879 182.634 295.825Q182.588 295.771 182.547 295.712Q182.506 295.653 182.471 295.591Q182.436 295.528 182.408 295.463ZM178.119 283.715Q177.252 280.855 176.476 277.805Q176.458 277.735 176.448 277.665Q176.437 277.594 176.433 277.523Q176.429 277.451 176.433 277.38Q176.436 277.309 176.446 277.238Q176.456 277.167 176.474 277.098Q176.491 277.028 176.515 276.961Q176.538 276.894 176.569 276.829Q176.599 276.764 176.636 276.703Q176.672 276.641 176.715 276.584Q176.757 276.526 176.805 276.473Q176.853 276.42 176.905 276.372Q176.958 276.324 177.015 276.281Q177.073 276.238 177.134 276.202Q177.195 276.165 177.26 276.134Q177.324 276.103 177.391 276.079Q177.459 276.055 177.528 276.037Q177.597 276.019 177.668 276.009Q177.739 275.998 177.81 275.994Q177.881 275.99 177.953 275.993Q178.024 275.997 178.095 276.007Q178.166 276.017 178.235 276.034Q178.305 276.051 178.372 276.075Q178.439 276.099 178.504 276.129Q178.569 276.16 178.63 276.196Q178.692 276.233 178.749 276.275Q178.807 276.317 178.86 276.365Q178.913 276.413 178.961 276.466Q179.01 276.518 179.052 276.576Q179.095 276.633 179.132 276.694Q179.169 276.755 179.2 276.82Q179.231 276.884 179.255 276.951Q179.279 277.019 179.297 277.088Q180.056 280.074 180.904 282.871Q180.925 282.94 180.939 283.01Q180.953 283.08 180.96 283.151Q180.967 283.222 180.967 283.294Q180.967 283.365 180.96 283.436Q180.953 283.507 180.939 283.577Q180.925 283.647 180.904 283.716Q180.883 283.784 180.856 283.85Q180.828 283.916 180.795 283.979Q180.761 284.042 180.721 284.102Q180.682 284.161 180.636 284.216Q180.591 284.272 180.54 284.322Q180.49 284.373 180.434 284.418Q180.379 284.463 180.32 284.503Q180.26 284.543 180.197 284.576Q180.134 284.61 180.068 284.638Q180.002 284.665 179.934 284.686Q179.865 284.706 179.795 284.72Q179.725 284.734 179.654 284.741Q179.583 284.748 179.511 284.748Q179.44 284.748 179.369 284.741Q179.297 284.734 179.227 284.72Q179.157 284.706 179.089 284.685Q179.02 284.664 178.954 284.637Q178.888 284.61 178.825 284.576Q178.762 284.542 178.703 284.503Q178.643 284.463 178.588 284.417Q178.533 284.372 178.482 284.321Q178.432 284.271 178.386 284.216Q178.341 284.16 178.301 284.101Q178.262 284.041 178.228 283.978Q178.194 283.915 178.167 283.849Q178.139 283.783 178.119 283.715ZM175.048 271.664Q174.431 268.754 173.885 265.682Q173.872 265.611 173.867 265.54Q173.861 265.469 173.863 265.397Q173.864 265.326 173.873 265.255Q173.881 265.184 173.896 265.114Q173.912 265.044 173.934 264.977Q173.956 264.909 173.985 264.843Q174.014 264.778 174.049 264.715Q174.084 264.653 174.124 264.594Q174.165 264.536 174.212 264.481Q174.258 264.427 174.31 264.378Q174.361 264.328 174.418 264.284Q174.474 264.24 174.534 264.201Q174.594 264.163 174.658 264.13Q174.722 264.098 174.788 264.072Q174.855 264.046 174.924 264.026Q174.993 264.007 175.063 263.994Q175.133 263.982 175.205 263.976Q175.276 263.971 175.347 263.972Q175.419 263.974 175.49 263.982Q175.561 263.991 175.631 264.006Q175.701 264.021 175.769 264.044Q175.837 264.066 175.902 264.095Q175.968 264.123 176.03 264.158Q176.092 264.194 176.151 264.234Q176.209 264.275 176.264 264.322Q176.318 264.368 176.368 264.42Q176.417 264.472 176.461 264.528Q176.506 264.584 176.544 264.645Q176.583 264.705 176.615 264.769Q176.647 264.832 176.673 264.899Q176.699 264.966 176.719 265.035Q176.738 265.103 176.75 265.174Q177.288 268.197 177.895 271.061Q177.91 271.131 177.918 271.202Q177.926 271.273 177.927 271.344Q177.928 271.416 177.921 271.487Q177.915 271.558 177.902 271.628Q177.889 271.699 177.869 271.767Q177.849 271.836 177.823 271.903Q177.796 271.969 177.764 272.033Q177.731 272.096 177.692 272.156Q177.653 272.216 177.608 272.272Q177.563 272.328 177.514 272.379Q177.464 272.43 177.409 272.476Q177.354 272.522 177.295 272.563Q177.236 272.603 177.174 272.638Q177.111 272.672 177.045 272.701Q176.98 272.729 176.912 272.751Q176.843 272.772 176.773 272.787Q176.704 272.802 176.632 272.81Q176.561 272.818 176.49 272.818Q176.418 272.819 176.347 272.813Q176.276 272.807 176.206 272.794Q176.135 272.781 176.067 272.761Q175.998 272.741 175.932 272.714Q175.865 272.688 175.802 272.655Q175.738 272.622 175.678 272.583Q175.619 272.544 175.563 272.499Q175.507 272.454 175.456 272.404Q175.404 272.354 175.358 272.3Q175.312 272.245 175.272 272.186Q175.231 272.127 175.197 272.064Q175.162 272.002 175.134 271.936Q175.106 271.87 175.084 271.802Q175.063 271.734 175.048 271.664ZM172.884 259.506Q172.446 256.529 172.068 253.412Q172.06 253.341 172.058 253.27Q172.057 253.198 172.062 253.127Q172.067 253.055 172.08 252.985Q172.092 252.915 172.111 252.846Q172.131 252.777 172.156 252.71Q172.182 252.644 172.215 252.58Q172.247 252.516 172.285 252.456Q172.324 252.395 172.368 252.339Q172.412 252.283 172.461 252.231Q172.511 252.18 172.565 252.133Q172.619 252.087 172.678 252.046Q172.736 252.005 172.798 251.969Q172.861 251.934 172.926 251.906Q172.992 251.877 173.059 251.855Q173.127 251.832 173.197 251.817Q173.267 251.802 173.338 251.793Q173.409 251.784 173.48 251.783Q173.552 251.781 173.623 251.786Q173.694 251.792 173.765 251.804Q173.835 251.816 173.904 251.836Q173.973 251.855 174.04 251.881Q174.106 251.907 174.17 251.939Q174.234 251.971 174.294 252.01Q174.355 252.048 174.411 252.092Q174.467 252.136 174.519 252.185Q174.571 252.235 174.617 252.289Q174.664 252.343 174.705 252.402Q174.746 252.46 174.781 252.523Q174.816 252.585 174.845 252.65Q174.874 252.716 174.896 252.784Q174.918 252.852 174.934 252.922Q174.949 252.992 174.958 253.062Q175.332 256.143 175.764 259.082Q175.774 259.153 175.777 259.224Q175.781 259.296 175.777 259.367Q175.774 259.438 175.763 259.509Q175.753 259.58 175.735 259.649Q175.718 259.718 175.694 259.785Q175.669 259.853 175.639 259.917Q175.608 259.982 175.571 260.043Q175.534 260.104 175.492 260.162Q175.449 260.219 175.401 260.272Q175.353 260.325 175.3 260.373Q175.247 260.421 175.189 260.463Q175.132 260.505 175.071 260.542Q175.009 260.579 174.945 260.609Q174.88 260.64 174.812 260.664Q174.745 260.688 174.676 260.705Q174.606 260.722 174.536 260.732Q174.465 260.743 174.394 260.746Q174.322 260.75 174.251 260.746Q174.179 260.743 174.109 260.732Q174.038 260.722 173.969 260.704Q173.899 260.687 173.832 260.663Q173.765 260.639 173.7 260.608Q173.636 260.578 173.574 260.541Q173.513 260.504 173.456 260.461Q173.398 260.419 173.345 260.371Q173.293 260.323 173.245 260.27Q173.197 260.217 173.154 260.159Q173.112 260.102 173.075 260.04Q173.038 259.979 173.008 259.915Q172.977 259.85 172.953 259.783Q172.929 259.715 172.912 259.646Q172.895 259.577 172.884 259.506ZM171.397 247.291Q171.095 244.219 170.845 241.01Q170.839 240.938 170.841 240.867Q170.842 240.796 170.85 240.725Q170.859 240.654 170.874 240.584Q170.89 240.514 170.912 240.446Q170.934 240.378 170.963 240.313Q170.991 240.247 171.026 240.185Q171.061 240.122 171.102 240.064Q171.143 240.005 171.19 239.951Q171.236 239.897 171.288 239.847Q171.339 239.798 171.395 239.754Q171.452 239.71 171.512 239.671Q171.572 239.633 171.636 239.6Q171.7 239.568 171.766 239.542Q171.833 239.516 171.902 239.497Q171.971 239.478 172.041 239.465Q172.111 239.453 172.183 239.447Q172.254 239.442 172.325 239.443Q172.397 239.445 172.468 239.453Q172.539 239.461 172.609 239.477Q172.678 239.492 172.746 239.514Q172.814 239.536 172.88 239.565Q172.945 239.594 173.008 239.629Q173.07 239.663 173.129 239.704Q173.187 239.745 173.242 239.792Q173.296 239.838 173.345 239.89Q173.395 239.941 173.439 239.997Q173.483 240.053 173.522 240.113Q173.56 240.174 173.593 240.237Q173.625 240.301 173.651 240.367Q173.677 240.434 173.697 240.503Q173.716 240.571 173.729 240.642Q173.741 240.712 173.747 240.783Q173.994 243.963 174.294 247.006Q174.301 247.077 174.301 247.149Q174.301 247.22 174.294 247.291Q174.287 247.363 174.273 247.433Q174.259 247.503 174.238 247.571Q174.218 247.64 174.19 247.706Q174.163 247.772 174.129 247.835Q174.096 247.898 174.056 247.958Q174.016 248.017 173.971 248.072Q173.926 248.128 173.875 248.178Q173.825 248.229 173.769 248.274Q173.714 248.32 173.655 248.359Q173.595 248.399 173.532 248.433Q173.469 248.466 173.403 248.494Q173.337 248.521 173.269 248.542Q173.2 248.563 173.13 248.577Q173.06 248.591 172.989 248.598Q172.918 248.605 172.846 248.605Q172.775 248.605 172.703 248.598Q172.632 248.591 172.562 248.577Q172.492 248.563 172.424 248.542Q172.355 248.521 172.289 248.494Q172.223 248.466 172.16 248.433Q172.097 248.399 172.038 248.359Q171.978 248.319 171.923 248.274Q171.868 248.229 171.817 248.178Q171.766 248.127 171.721 248.072Q171.676 248.017 171.636 247.957Q171.596 247.898 171.562 247.835Q171.529 247.772 171.501 247.706Q171.474 247.639 171.453 247.571Q171.432 247.503 171.418 247.432Q171.404 247.362 171.397 247.291ZM170.429 234.992L170.103 228.77Q170.099 228.698 170.102 228.627Q170.105 228.555 170.116 228.485Q170.126 228.414 170.143 228.344Q170.16 228.275 170.184 228.208Q170.208 228.14 170.238 228.076Q170.269 228.011 170.305 227.949Q170.342 227.888 170.384 227.83Q170.426 227.773 170.474 227.72Q170.522 227.667 170.575 227.618Q170.628 227.57 170.685 227.527Q170.742 227.485 170.803 227.448Q170.865 227.411 170.929 227.38Q170.994 227.349 171.061 227.325Q171.128 227.301 171.197 227.283Q171.267 227.265 171.337 227.255Q171.408 227.244 171.479 227.24Q171.551 227.237 171.622 227.24Q171.694 227.243 171.764 227.253Q171.835 227.264 171.905 227.281Q171.974 227.298 172.041 227.322Q172.109 227.346 172.173 227.376Q172.238 227.406 172.3 227.443Q172.361 227.479 172.419 227.522Q172.476 227.564 172.529 227.612Q172.582 227.66 172.631 227.713Q172.679 227.765 172.722 227.823Q172.764 227.88 172.801 227.941Q172.838 228.002 172.869 228.067Q172.9 228.131 172.924 228.199Q172.948 228.266 172.966 228.335Q172.984 228.404 172.994 228.475Q173.005 228.546 173.009 228.617L173.335 234.84Q173.339 234.911 173.335 234.983Q173.332 235.054 173.322 235.125Q173.312 235.196 173.294 235.265Q173.277 235.334 173.253 235.402Q173.23 235.469 173.199 235.534Q173.169 235.599 173.132 235.66Q173.096 235.721 173.053 235.779Q173.011 235.837 172.963 235.89Q172.915 235.943 172.863 235.991Q172.81 236.039 172.752 236.082Q172.695 236.125 172.634 236.162Q172.573 236.199 172.508 236.229Q172.444 236.26 172.377 236.284Q172.309 236.309 172.24 236.326Q172.171 236.344 172.1 236.355Q172.029 236.365 171.958 236.369Q171.887 236.373 171.815 236.37Q171.744 236.366 171.673 236.356Q171.602 236.346 171.533 236.329Q171.463 236.312 171.396 236.288Q171.329 236.264 171.264 236.233Q171.199 236.203 171.138 236.167Q171.076 236.13 171.019 236.088Q170.961 236.045 170.908 235.997Q170.855 235.95 170.807 235.897Q170.759 235.844 170.716 235.787Q170.673 235.729 170.636 235.668Q170.599 235.607 170.568 235.542Q170.538 235.478 170.513 235.411Q170.489 235.343 170.471 235.274Q170.454 235.205 170.443 235.134Q170.432 235.064 170.429 234.992ZM169.872 222.57L169.728 216.523Q169.726 216.452 169.732 216.381Q169.737 216.31 169.749 216.239Q169.761 216.169 169.781 216.1Q169.8 216.031 169.825 215.965Q169.851 215.898 169.883 215.834Q169.916 215.77 169.954 215.71Q169.992 215.65 170.036 215.594Q170.08 215.537 170.13 215.486Q170.179 215.434 170.233 215.387Q170.287 215.341 170.346 215.3Q170.404 215.258 170.466 215.223Q170.529 215.188 170.594 215.159Q170.659 215.13 170.727 215.108Q170.795 215.086 170.865 215.07Q170.935 215.054 171.006 215.046Q171.076 215.037 171.148 215.035Q171.219 215.033 171.291 215.039Q171.362 215.044 171.432 215.056Q171.503 215.069 171.572 215.088Q171.641 215.107 171.707 215.132Q171.774 215.158 171.838 215.19Q171.902 215.223 171.962 215.261Q172.023 215.299 172.079 215.343Q172.135 215.387 172.187 215.436Q172.239 215.486 172.285 215.54Q172.332 215.594 172.373 215.653Q172.414 215.711 172.45 215.773Q172.485 215.836 172.514 215.901Q172.543 215.966 172.565 216.034Q172.587 216.102 172.603 216.172Q172.619 216.242 172.627 216.313Q172.636 216.384 172.638 216.455L172.781 222.502Q172.783 222.573 172.778 222.645Q172.772 222.716 172.76 222.786Q172.748 222.857 172.729 222.926Q172.71 222.995 172.684 223.061Q172.658 223.128 172.626 223.192Q172.594 223.256 172.555 223.316Q172.517 223.376 172.473 223.433Q172.429 223.489 172.38 223.541Q172.33 223.592 172.276 223.639Q172.222 223.685 172.163 223.727Q172.105 223.768 172.043 223.803Q171.98 223.838 171.915 223.867Q171.85 223.896 171.782 223.918Q171.714 223.94 171.644 223.956Q171.574 223.971 171.503 223.98Q171.432 223.989 171.361 223.99Q171.289 223.992 171.218 223.987Q171.147 223.981 171.076 223.969Q171.006 223.957 170.937 223.938Q170.868 223.919 170.802 223.893Q170.735 223.867 170.671 223.835Q170.607 223.803 170.547 223.764Q170.486 223.726 170.43 223.682Q170.374 223.638 170.322 223.589Q170.27 223.54 170.224 223.485Q170.177 223.431 170.136 223.373Q170.095 223.314 170.06 223.252Q170.024 223.19 169.996 223.124Q169.967 223.059 169.944 222.991Q169.922 222.923 169.906 222.853Q169.891 222.784 169.882 222.713Q169.873 222.642 169.872 222.57ZM169.656 210.242L169.646 207.037L169.646 203.916Q169.646 203.845 169.654 203.773Q169.661 203.702 169.674 203.632Q169.688 203.562 169.709 203.494Q169.73 203.425 169.757 203.359Q169.785 203.293 169.818 203.23Q169.852 203.167 169.892 203.108Q169.931 203.048 169.977 202.993Q170.022 202.938 170.073 202.887Q170.123 202.837 170.178 202.791Q170.234 202.746 170.293 202.706Q170.353 202.666 170.416 202.633Q170.479 202.599 170.545 202.572Q170.611 202.544 170.679 202.524Q170.748 202.503 170.818 202.489Q170.888 202.475 170.959 202.468Q171.03 202.461 171.102 202.461Q171.173 202.461 171.244 202.468Q171.315 202.475 171.385 202.489Q171.456 202.503 171.524 202.524Q171.592 202.544 171.659 202.572Q171.725 202.599 171.788 202.633Q171.851 202.666 171.91 202.706Q171.97 202.746 172.025 202.791Q172.08 202.837 172.131 202.887Q172.181 202.938 172.227 202.993Q172.272 203.048 172.312 203.108Q172.352 203.167 172.385 203.23Q172.419 203.293 172.446 203.359Q172.474 203.425 172.494 203.494Q172.515 203.562 172.529 203.632Q172.543 203.702 172.55 203.773Q172.557 203.845 172.557 203.916L172.557 207.029L172.566 210.234Q172.566 210.306 172.559 210.377Q172.553 210.448 172.539 210.518Q172.525 210.588 172.505 210.657Q172.484 210.725 172.457 210.791Q172.43 210.858 172.396 210.921Q172.363 210.984 172.323 211.043Q172.283 211.103 172.238 211.158Q172.193 211.214 172.143 211.264Q172.092 211.315 172.037 211.361Q171.982 211.406 171.923 211.446Q171.863 211.486 171.8 211.52Q171.737 211.554 171.671 211.581Q171.605 211.609 171.537 211.63Q171.469 211.651 171.399 211.665Q171.329 211.679 171.257 211.686Q171.186 211.693 171.115 211.693Q171.043 211.694 170.972 211.687Q170.901 211.68 170.831 211.666Q170.761 211.652 170.692 211.632Q170.624 211.611 170.558 211.584Q170.491 211.557 170.428 211.523Q170.365 211.49 170.306 211.45Q170.246 211.411 170.191 211.366Q170.135 211.32 170.085 211.27Q170.034 211.22 169.989 211.164Q169.943 211.109 169.903 211.05Q169.863 210.991 169.829 210.928Q169.796 210.865 169.768 210.799Q169.74 210.733 169.72 210.664Q169.699 210.596 169.684 210.526Q169.67 210.456 169.663 210.385Q169.656 210.314 169.656 210.242ZM169.646 198.021L169.646 192.021Q169.646 191.95 169.654 191.879Q169.661 191.808 169.674 191.738Q169.688 191.667 169.709 191.599Q169.73 191.531 169.757 191.465Q169.785 191.399 169.818 191.336Q169.852 191.273 169.892 191.213Q169.931 191.154 169.977 191.098Q170.022 191.043 170.073 190.993Q170.123 190.942 170.178 190.897Q170.234 190.851 170.293 190.812Q170.353 190.772 170.416 190.738Q170.479 190.705 170.545 190.677Q170.611 190.65 170.679 190.629Q170.748 190.608 170.818 190.594Q170.888 190.58 170.959 190.573Q171.03 190.566 171.102 190.566Q171.173 190.566 171.244 190.573Q171.315 190.58 171.385 190.594Q171.456 190.608 171.524 190.629Q171.592 190.65 171.659 190.677Q171.725 190.705 171.788 190.738Q171.851 190.772 171.91 190.812Q171.97 190.851 172.025 190.897Q172.08 190.942 172.131 190.993Q172.181 191.043 172.227 191.098Q172.272 191.154 172.312 191.213Q172.352 191.273 172.385 191.336Q172.419 191.399 172.446 191.465Q172.474 191.531 172.494 191.599Q172.515 191.667 172.529 191.738Q172.543 191.808 172.55 191.879Q172.557 191.95 172.557 192.021L172.557 198.021Q172.557 198.093 172.55 198.164Q172.543 198.235 172.529 198.305Q172.515 198.375 172.494 198.444Q172.474 198.512 172.446 198.578Q172.419 198.644 172.385 198.707Q172.352 198.77 172.312 198.83Q172.272 198.889 172.227 198.945Q172.181 199 172.131 199.05Q172.08 199.101 172.025 199.146Q171.97 199.192 171.91 199.231Q171.851 199.271 171.788 199.305Q171.725 199.338 171.659 199.366Q171.592 199.393 171.524 199.414Q171.456 199.435 171.385 199.449Q171.315 199.463 171.244 199.47Q171.173 199.477 171.102 199.477Q171.03 199.477 170.959 199.47Q170.888 199.463 170.818 199.449Q170.748 199.435 170.679 199.414Q170.611 199.393 170.545 199.366Q170.479 199.338 170.416 199.305Q170.353 199.271 170.293 199.231Q170.234 199.192 170.178 199.146Q170.123 199.101 170.073 199.05Q170.022 199 169.977 198.945Q169.931 198.889 169.892 198.83Q169.852 198.77 169.818 198.707Q169.785 198.644 169.757 198.578Q169.73 198.512 169.709 198.444Q169.688 198.375 169.674 198.305Q169.661 198.235 169.654 198.164Q169.646 198.093 169.646 198.021ZM169.646 186.016L169.646 180.055Q169.646 179.983 169.654 179.912Q169.661 179.841 169.674 179.77Q169.688 179.7 169.709 179.632Q169.73 179.563 169.757 179.497Q169.785 179.431 169.818 179.368Q169.852 179.305 169.892 179.245Q169.931 179.186 169.977 179.13Q170.022 179.075 170.073 179.024Q170.123 178.974 170.178 178.928Q170.234 178.883 170.293 178.843Q170.353 178.803 170.416 178.77Q170.479 178.736 170.545 178.709Q170.611 178.681 170.679 178.66Q170.748 178.64 170.818 178.626Q170.888 178.612 170.959 178.605Q171.03 178.598 171.102 178.598Q171.173 178.598 171.244 178.605Q171.315 178.612 171.385 178.626Q171.456 178.64 171.524 178.66Q171.592 178.681 171.659 178.709Q171.725 178.736 171.788 178.77Q171.851 178.803 171.91 178.843Q171.97 178.883 172.025 178.928Q172.08 178.974 172.131 179.024Q172.181 179.075 172.227 179.13Q172.272 179.186 172.312 179.245Q172.352 179.305 172.385 179.368Q172.419 179.431 172.446 179.497Q172.474 179.563 172.494 179.632Q172.515 179.7 172.529 179.77Q172.543 179.841 172.55 179.912Q172.557 179.983 172.557 180.055L172.557 186.016Q172.557 186.087 172.55 186.158Q172.543 186.229 172.529 186.299Q172.515 186.37 172.494 186.438Q172.474 186.506 172.446 186.572Q172.419 186.638 172.385 186.702Q172.352 186.765 172.312 186.824Q172.272 186.883 172.227 186.939Q172.181 186.994 172.131 187.045Q172.08 187.095 172.025 187.14Q171.97 187.186 171.91 187.225Q171.851 187.265 171.788 187.299Q171.725 187.333 171.659 187.36Q171.592 187.387 171.524 187.408Q171.456 187.429 171.385 187.443Q171.315 187.457 171.244 187.464Q171.173 187.471 171.102 187.471Q171.03 187.471 170.959 187.464Q170.888 187.457 170.818 187.443Q170.748 187.429 170.679 187.408Q170.611 187.387 170.545 187.36Q170.479 187.333 170.416 187.299Q170.353 187.265 170.293 187.225Q170.234 187.186 170.178 187.14Q170.123 187.095 170.073 187.045Q170.022 186.994 169.977 186.939Q169.931 186.883 169.892 186.824Q169.852 186.765 169.818 186.702Q169.785 186.638 169.757 186.572Q169.73 186.506 169.709 186.438Q169.688 186.37 169.674 186.299Q169.661 186.229 169.654 186.158Q169.646 186.087 169.646 186.016ZM169.646 174.072L169.646 167.822Q169.646 167.751 169.654 167.679Q169.661 167.608 169.674 167.538Q169.688 167.468 169.709 167.399Q169.73 167.331 169.757 167.265Q169.785 167.199 169.818 167.135Q169.852 167.072 169.892 167.013Q169.931 166.953 169.977 166.898Q170.022 166.843 170.073 166.792Q170.123 166.741 170.178 166.696Q170.234 166.651 170.293 166.611Q170.353 166.571 170.416 166.537Q170.479 166.504 170.545 166.476Q170.611 166.449 170.679 166.428Q170.748 166.407 170.818 166.393Q170.888 166.379 170.959 166.372Q171.03 166.365 171.102 166.365Q171.173 166.365 171.244 166.372Q171.315 166.379 171.385 166.393Q171.456 166.407 171.524 166.428Q171.592 166.449 171.659 166.476Q171.725 166.504 171.788 166.537Q171.851 166.571 171.91 166.611Q171.97 166.651 172.025 166.696Q172.08 166.741 172.131 166.792Q172.181 166.843 172.227 166.898Q172.272 166.953 172.312 167.013Q172.352 167.072 172.385 167.135Q172.419 167.199 172.446 167.265Q172.474 167.331 172.494 167.399Q172.515 167.468 172.529 167.538Q172.543 167.608 172.55 167.679Q172.557 167.751 172.557 167.822L172.557 174.072Q172.557 174.144 172.55 174.215Q172.543 174.286 172.529 174.356Q172.515 174.426 172.494 174.495Q172.474 174.563 172.446 174.629Q172.419 174.695 172.385 174.758Q172.352 174.821 172.312 174.881Q172.272 174.94 172.227 174.995Q172.181 175.051 172.131 175.101Q172.08 175.152 172.025 175.197Q171.97 175.242 171.91 175.282Q171.851 175.322 171.788 175.356Q171.725 175.389 171.659 175.417Q171.592 175.444 171.524 175.465Q171.456 175.485 171.385 175.499Q171.315 175.513 171.244 175.52Q171.173 175.527 171.102 175.527Q171.03 175.527 170.959 175.52Q170.888 175.513 170.818 175.499Q170.748 175.485 170.679 175.465Q170.611 175.444 170.545 175.417Q170.479 175.389 170.416 175.356Q170.353 175.322 170.293 175.282Q170.234 175.242 170.178 175.197Q170.123 175.152 170.073 175.101Q170.022 175.051 169.977 174.995Q169.931 174.94 169.892 174.881Q169.852 174.821 169.818 174.758Q169.785 174.695 169.757 174.629Q169.73 174.563 169.709 174.495Q169.688 174.426 169.674 174.356Q169.661 174.286 169.654 174.215Q169.646 174.144 169.646 174.072ZM169.646 162.041L169.646 159.16Q169.646 159.089 169.654 159.018Q169.661 158.946 169.674 158.876Q169.688 158.806 169.709 158.738Q169.73 158.669 169.757 158.603Q169.785 158.537 169.818 158.474Q169.852 158.411 169.892 158.352Q169.931 158.292 169.977 158.237Q170.022 158.182 170.073 158.131Q170.123 158.081 170.178 158.035Q170.234 157.99 170.293 157.95Q170.353 157.911 170.416 157.877Q170.479 157.843 170.545 157.816Q170.611 157.788 170.679 157.768Q170.748 157.747 170.818 157.733Q170.888 157.719 170.959 157.712Q171.03 157.705 171.102 157.705Q171.173 157.705 171.244 157.712Q171.315 157.719 171.385 157.733Q171.456 157.747 171.524 157.768Q171.592 157.788 171.659 157.816Q171.725 157.843 171.788 157.877Q171.851 157.911 171.91 157.95Q171.97 157.99 172.025 158.035Q172.08 158.081 172.131 158.131Q172.181 158.182 172.227 158.237Q172.272 158.292 172.312 158.352Q172.352 158.411 172.385 158.474Q172.419 158.537 172.446 158.603Q172.474 158.669 172.494 158.738Q172.515 158.806 172.529 158.876Q172.543 158.946 172.55 159.018Q172.557 159.089 172.557 159.16L172.557 162.041Q172.557 162.113 172.55 162.184Q172.543 162.255 172.529 162.325Q172.515 162.395 172.494 162.464Q172.474 162.532 172.446 162.599Q172.419 162.665 172.385 162.728Q172.352 162.791 172.312 162.85Q172.272 162.91 172.227 162.965Q172.181 163.021 172.131 163.071Q172.08 163.122 172.025 163.167Q171.97 163.213 171.91 163.252Q171.851 163.292 171.788 163.326Q171.725 163.36 171.659 163.387Q171.592 163.415 171.524 163.435Q171.456 163.456 171.385 163.47Q171.315 163.484 171.244 163.491Q171.173 163.498 171.102 163.498Q171.03 163.498 170.959 163.491Q170.888 163.484 170.818 163.47Q170.748 163.456 170.679 163.435Q170.611 163.415 170.545 163.387Q170.479 163.36 170.416 163.326Q170.353 163.292 170.293 163.252Q170.234 163.213 170.178 163.167Q170.123 163.122 170.073 163.071Q170.022 163.021 169.977 162.965Q169.931 162.91 169.892 162.85Q169.852 162.791 169.818 162.728Q169.785 162.665 169.757 162.599Q169.73 162.532 169.709 162.464Q169.688 162.395 169.674 162.325Q169.661 162.255 169.654 162.184Q169.646 162.113 169.646 162.041Z" fill="url(#paint_linear_1_1204_0)" fill-opacity="1.000000" fill-rule="evenodd"/>
	<path id="Vector 443" d="M308.57 132.082Q310.239 132.082 311.848 132.111Q311.919 132.113 311.99 132.121Q312.061 132.13 312.131 132.145Q312.201 132.16 312.269 132.182Q312.337 132.205 312.402 132.233Q312.468 132.262 312.53 132.297Q312.592 132.332 312.651 132.373Q312.71 132.414 312.764 132.46Q312.819 132.507 312.868 132.558Q312.918 132.61 312.962 132.666Q313.006 132.722 313.045 132.782Q313.084 132.843 313.116 132.906Q313.149 132.97 313.175 133.037Q313.201 133.103 313.22 133.172Q313.24 133.241 313.252 133.311Q313.265 133.382 313.271 133.453Q313.276 133.524 313.275 133.596Q313.274 133.667 313.265 133.738Q313.257 133.809 313.242 133.879Q313.226 133.948 313.204 134.016Q313.182 134.084 313.154 134.15Q313.125 134.215 313.09 134.277Q313.055 134.34 313.014 134.398Q312.974 134.457 312.927 134.511Q312.881 134.566 312.829 134.615Q312.778 134.665 312.722 134.709Q312.666 134.753 312.605 134.792Q312.545 134.83 312.482 134.863Q312.418 134.895 312.351 134.921Q312.285 134.947 312.216 134.967Q312.147 134.986 312.077 134.999Q312.007 135.012 311.935 135.017Q311.864 135.023 311.792 135.021Q310.211 134.992 308.57 134.992L308.57 132.082ZM318.214 132.365Q321.377 132.562 324.328 132.896Q324.399 132.905 324.469 132.92Q324.538 132.935 324.607 132.956Q324.675 132.978 324.74 133.006Q324.806 133.035 324.868 133.069Q324.931 133.104 324.99 133.144Q325.049 133.185 325.103 133.231Q325.158 133.277 325.208 133.329Q325.257 133.38 325.302 133.436Q325.347 133.492 325.385 133.552Q325.424 133.612 325.457 133.675Q325.49 133.739 325.516 133.805Q325.543 133.872 325.562 133.94Q325.582 134.009 325.595 134.079Q325.608 134.15 325.614 134.221Q325.62 134.292 325.619 134.363Q325.618 134.435 325.61 134.506Q325.602 134.577 325.587 134.647Q325.572 134.717 325.55 134.785Q325.528 134.853 325.5 134.918Q325.472 134.984 325.437 135.046Q325.402 135.109 325.362 135.168Q325.321 135.227 325.275 135.281Q325.229 135.336 325.178 135.386Q325.126 135.435 325.07 135.48Q325.014 135.524 324.954 135.563Q324.894 135.602 324.831 135.635Q324.767 135.667 324.701 135.694Q324.634 135.72 324.566 135.74Q324.497 135.76 324.427 135.772Q324.356 135.785 324.285 135.791Q324.214 135.797 324.143 135.796Q324.071 135.795 324 135.787Q321.123 135.461 318.033 135.27Q317.962 135.265 317.891 135.254Q317.821 135.242 317.752 135.224Q317.683 135.206 317.616 135.181Q317.549 135.156 317.484 135.125Q317.42 135.093 317.359 135.056Q317.298 135.018 317.242 134.975Q317.185 134.931 317.132 134.883Q317.08 134.834 317.033 134.78Q316.985 134.727 316.944 134.669Q316.902 134.611 316.866 134.549Q316.83 134.487 316.8 134.422Q316.77 134.357 316.747 134.289Q316.724 134.222 316.707 134.152Q316.691 134.083 316.681 134.012Q316.672 133.941 316.669 133.869Q316.667 133.798 316.671 133.727Q316.675 133.655 316.687 133.585Q316.698 133.514 316.716 133.445Q316.735 133.376 316.76 133.309Q316.785 133.242 316.816 133.178Q316.847 133.114 316.885 133.053Q316.923 132.992 316.966 132.935Q317.009 132.879 317.058 132.826Q317.107 132.774 317.16 132.727Q317.214 132.679 317.272 132.638Q317.33 132.596 317.392 132.56Q317.453 132.524 317.518 132.494Q317.583 132.465 317.651 132.441Q317.719 132.418 317.788 132.402Q317.858 132.385 317.929 132.376Q318 132.366 318.071 132.363Q318.143 132.361 318.214 132.365ZM330.438 133.775Q333.609 134.334 336.552 135.086Q336.622 135.104 336.689 135.128Q336.756 135.153 336.82 135.183Q336.885 135.214 336.946 135.251Q337.007 135.289 337.064 135.331Q337.122 135.374 337.174 135.423Q337.227 135.471 337.275 135.524Q337.323 135.577 337.365 135.635Q337.407 135.692 337.444 135.754Q337.48 135.815 337.511 135.88Q337.541 135.945 337.565 136.012Q337.588 136.08 337.605 136.149Q337.622 136.218 337.633 136.289Q337.643 136.36 337.646 136.431Q337.649 136.502 337.645 136.574Q337.641 136.645 337.631 136.716Q337.62 136.786 337.602 136.855Q337.584 136.925 337.56 136.992Q337.536 137.059 337.505 137.124Q337.474 137.188 337.437 137.249Q337.4 137.31 337.357 137.368Q337.314 137.425 337.266 137.478Q337.218 137.531 337.164 137.578Q337.111 137.626 337.054 137.668Q336.996 137.711 336.935 137.747Q336.873 137.784 336.808 137.814Q336.744 137.844 336.676 137.868Q336.609 137.892 336.539 137.909Q336.47 137.926 336.399 137.936Q336.328 137.947 336.257 137.95Q336.185 137.953 336.114 137.949Q336.043 137.945 335.972 137.935Q335.901 137.924 335.832 137.906Q332.996 137.182 329.932 136.641Q329.861 136.628 329.792 136.609Q329.724 136.59 329.657 136.564Q329.59 136.538 329.527 136.505Q329.463 136.473 329.402 136.434Q329.342 136.396 329.286 136.352Q329.23 136.308 329.178 136.258Q329.126 136.209 329.08 136.155Q329.033 136.1 328.992 136.042Q328.951 135.983 328.916 135.921Q328.881 135.859 328.852 135.793Q328.824 135.728 328.801 135.66Q328.779 135.592 328.764 135.522Q328.748 135.453 328.74 135.382Q328.731 135.311 328.73 135.239Q328.728 135.168 328.734 135.097Q328.739 135.025 328.751 134.955Q328.764 134.885 328.783 134.816Q328.802 134.747 328.828 134.68Q328.854 134.614 328.887 134.55Q328.919 134.486 328.957 134.426Q328.996 134.366 329.04 134.309Q329.084 134.253 329.133 134.201Q329.183 134.15 329.237 134.103Q329.292 134.057 329.35 134.016Q329.409 133.975 329.471 133.94Q329.533 133.905 329.599 133.876Q329.664 133.847 329.732 133.825Q329.8 133.803 329.87 133.787Q329.94 133.772 330.011 133.763Q330.082 133.755 330.153 133.753Q330.225 133.752 330.296 133.757Q330.367 133.763 330.438 133.775ZM342.605 136.918Q345.654 137.996 348.46 139.33Q348.525 139.361 348.586 139.397Q348.648 139.434 348.705 139.477Q348.762 139.52 348.815 139.568Q348.868 139.616 348.916 139.669Q348.964 139.722 349.007 139.779Q349.049 139.836 349.086 139.898Q349.122 139.959 349.153 140.024Q349.183 140.088 349.207 140.156Q349.231 140.223 349.249 140.292Q349.266 140.362 349.276 140.432Q349.287 140.503 349.29 140.574Q349.293 140.646 349.29 140.717Q349.286 140.788 349.276 140.859Q349.265 140.93 349.247 140.999Q349.23 141.068 349.206 141.136Q349.182 141.203 349.151 141.268Q349.12 141.332 349.083 141.393Q349.047 141.455 349.004 141.512Q348.961 141.569 348.913 141.622Q348.865 141.675 348.812 141.723Q348.759 141.771 348.702 141.814Q348.644 141.856 348.583 141.893Q348.521 141.93 348.457 141.96Q348.392 141.991 348.325 142.015Q348.257 142.039 348.188 142.056Q348.119 142.073 348.048 142.084Q347.977 142.094 347.906 142.097Q347.834 142.101 347.763 142.097Q347.691 142.094 347.621 142.083Q347.55 142.073 347.481 142.055Q347.412 142.038 347.344 142.014Q347.277 141.99 347.212 141.959Q344.542 140.689 341.635 139.662Q341.567 139.638 341.503 139.608Q341.438 139.577 341.376 139.541Q341.315 139.504 341.257 139.462Q341.2 139.419 341.147 139.372Q341.093 139.324 341.045 139.271Q340.997 139.218 340.954 139.161Q340.911 139.104 340.874 139.042Q340.838 138.981 340.807 138.917Q340.776 138.852 340.752 138.785Q340.727 138.718 340.71 138.648Q340.692 138.579 340.681 138.508Q340.671 138.438 340.667 138.366Q340.663 138.295 340.666 138.224Q340.669 138.152 340.68 138.082Q340.69 138.011 340.707 137.941Q340.724 137.872 340.748 137.805Q340.772 137.737 340.802 137.673Q340.833 137.608 340.869 137.546Q340.906 137.485 340.948 137.428Q340.99 137.37 341.038 137.317Q341.086 137.264 341.139 137.216Q341.192 137.167 341.249 137.125Q341.306 137.082 341.367 137.045Q341.429 137.008 341.493 136.977Q341.558 136.946 341.625 136.922Q341.692 136.898 341.761 136.88Q341.831 136.862 341.901 136.852Q341.972 136.841 342.043 136.837Q342.115 136.833 342.186 136.836Q342.258 136.84 342.328 136.85Q342.399 136.86 342.469 136.877Q342.538 136.894 342.605 136.918ZM354.015 142.359Q356.72 144.045 359.19 146.027Q359.246 146.072 359.297 146.122Q359.348 146.172 359.394 146.227Q359.44 146.282 359.48 146.341Q359.521 146.4 359.555 146.463Q359.589 146.525 359.617 146.591Q359.646 146.657 359.667 146.725Q359.689 146.794 359.703 146.864Q359.718 146.934 359.726 147.005Q359.734 147.076 359.734 147.147Q359.735 147.219 359.729 147.29Q359.723 147.361 359.709 147.432Q359.696 147.502 359.676 147.571Q359.656 147.639 359.63 147.706Q359.603 147.772 359.57 147.835Q359.537 147.899 359.498 147.959Q359.459 148.018 359.414 148.074Q359.369 148.13 359.319 148.181Q359.269 148.232 359.215 148.278Q359.16 148.324 359.101 148.364Q359.042 148.405 358.979 148.439Q358.916 148.473 358.851 148.501Q358.785 148.529 358.717 148.551Q358.648 148.572 358.578 148.587Q358.509 148.602 358.437 148.609Q358.366 148.617 358.295 148.618Q358.223 148.619 358.152 148.612Q358.081 148.606 358.011 148.593Q357.94 148.58 357.872 148.56Q357.803 148.539 357.737 148.513Q357.67 148.486 357.607 148.453Q357.544 148.42 357.484 148.381Q357.424 148.342 357.368 148.297Q355.033 146.424 352.476 144.83Q352.415 144.792 352.359 144.749Q352.302 144.705 352.25 144.656Q352.198 144.607 352.151 144.554Q352.104 144.5 352.062 144.442Q352.02 144.383 351.985 144.322Q351.949 144.26 351.92 144.195Q351.89 144.129 351.867 144.062Q351.844 143.994 351.828 143.924Q351.812 143.855 351.803 143.784Q351.793 143.713 351.791 143.642Q351.789 143.57 351.794 143.499Q351.798 143.428 351.81 143.357Q351.822 143.287 351.84 143.218Q351.859 143.149 351.884 143.082Q351.909 143.015 351.941 142.951Q351.973 142.887 352.01 142.826Q352.048 142.765 352.092 142.709Q352.135 142.652 352.184 142.6Q352.233 142.548 352.287 142.5Q352.341 142.453 352.399 142.412Q352.457 142.37 352.519 142.334Q352.581 142.298 352.646 142.269Q352.711 142.239 352.779 142.217Q352.847 142.194 352.916 142.177Q352.986 142.161 353.057 142.152Q353.128 142.143 353.199 142.14Q353.271 142.138 353.342 142.143Q353.413 142.147 353.484 142.159Q353.554 142.171 353.623 142.189Q353.692 142.208 353.759 142.233Q353.826 142.258 353.89 142.29Q353.954 142.322 354.015 142.359ZM363.911 150.303Q366.086 152.521 368.062 155.035Q368.107 155.091 368.145 155.152Q368.184 155.212 368.216 155.276Q368.248 155.34 368.274 155.406Q368.3 155.473 368.32 155.542Q368.339 155.611 368.351 155.681Q368.364 155.751 368.369 155.823Q368.375 155.894 368.373 155.966Q368.372 156.037 368.363 156.108Q368.355 156.179 368.339 156.249Q368.324 156.319 368.302 156.387Q368.279 156.455 368.251 156.52Q368.222 156.586 368.187 156.648Q368.152 156.711 368.111 156.769Q368.07 156.828 368.023 156.882Q367.977 156.937 367.925 156.986Q367.874 157.036 367.817 157.08Q367.761 157.124 367.701 157.163Q367.641 157.201 367.577 157.233Q367.513 157.266 367.447 157.292Q367.38 157.317 367.311 157.337Q367.242 157.356 367.172 157.368Q367.102 157.381 367.03 157.386Q366.959 157.392 366.888 157.39Q366.816 157.389 366.745 157.38Q366.674 157.372 366.604 157.356Q366.535 157.341 366.467 157.318Q366.399 157.296 366.333 157.267Q366.268 157.239 366.205 157.204Q366.143 157.169 366.085 157.128Q366.026 157.087 365.972 157.04Q365.918 156.993 365.868 156.942Q365.819 156.89 365.774 156.834Q363.897 154.445 361.833 152.342Q361.783 152.291 361.738 152.235Q361.693 152.179 361.654 152.119Q361.615 152.06 361.582 151.996Q361.549 151.933 361.522 151.867Q361.495 151.8 361.475 151.732Q361.455 151.663 361.442 151.593Q361.429 151.522 361.422 151.451Q361.416 151.38 361.417 151.308Q361.417 151.237 361.425 151.166Q361.433 151.095 361.447 151.025Q361.462 150.955 361.483 150.886Q361.505 150.818 361.533 150.752Q361.561 150.687 361.595 150.624Q361.629 150.561 361.669 150.502Q361.71 150.443 361.756 150.388Q361.802 150.333 361.853 150.283Q361.904 150.233 361.959 150.188Q362.015 150.143 362.075 150.104Q362.135 150.065 362.198 150.032Q362.261 149.999 362.328 149.972Q362.394 149.945 362.462 149.925Q362.531 149.905 362.601 149.892Q362.672 149.879 362.743 149.872Q362.814 149.866 362.886 149.867Q362.957 149.867 363.028 149.875Q363.099 149.883 363.169 149.897Q363.239 149.912 363.307 149.933Q363.376 149.955 363.441 149.983Q363.507 150.011 363.57 150.045Q363.633 150.079 363.692 150.12Q363.751 150.16 363.806 150.206Q363.861 150.252 363.911 150.303ZM371.697 160.174Q373.366 162.795 374.873 165.688Q374.906 165.751 374.933 165.817Q374.959 165.884 374.979 165.952Q374.999 166.021 375.013 166.091Q375.026 166.161 375.032 166.233Q375.038 166.304 375.038 166.375Q375.037 166.447 375.029 166.518Q375.021 166.589 375.007 166.659Q374.992 166.729 374.97 166.797Q374.949 166.865 374.921 166.931Q374.893 166.997 374.858 167.06Q374.824 167.122 374.784 167.181Q374.743 167.24 374.697 167.295Q374.651 167.35 374.6 167.4Q374.549 167.45 374.493 167.495Q374.438 167.539 374.378 167.578Q374.318 167.617 374.254 167.65Q374.191 167.683 374.125 167.71Q374.058 167.737 373.99 167.757Q373.921 167.777 373.851 167.79Q373.781 167.803 373.709 167.809Q373.638 167.816 373.567 167.815Q373.495 167.814 373.424 167.806Q373.353 167.799 373.283 167.784Q373.213 167.769 373.145 167.748Q373.077 167.726 373.011 167.698Q372.945 167.67 372.883 167.636Q372.82 167.602 372.761 167.562Q372.702 167.521 372.647 167.475Q372.593 167.429 372.543 167.378Q372.493 167.327 372.448 167.272Q372.403 167.216 372.364 167.156Q372.325 167.097 372.292 167.033Q370.843 164.25 369.243 161.738Q369.204 161.678 369.172 161.614Q369.14 161.551 369.114 161.484Q369.088 161.417 369.069 161.348Q369.049 161.28 369.037 161.209Q369.024 161.139 369.019 161.068Q369.014 160.996 369.015 160.925Q369.017 160.853 369.025 160.782Q369.034 160.711 369.049 160.642Q369.065 160.572 369.087 160.504Q369.109 160.436 369.138 160.37Q369.167 160.305 369.202 160.243Q369.237 160.18 369.278 160.122Q369.319 160.063 369.365 160.009Q369.412 159.954 369.464 159.905Q369.515 159.855 369.572 159.811Q369.628 159.767 369.688 159.729Q369.748 159.69 369.812 159.658Q369.876 159.626 369.942 159.6Q370.009 159.574 370.078 159.555Q370.147 159.535 370.217 159.523Q370.288 159.511 370.359 159.505Q370.43 159.5 370.502 159.501Q370.573 159.503 370.644 159.511Q370.715 159.52 370.785 159.535Q370.855 159.551 370.923 159.573Q370.991 159.595 371.056 159.624Q371.121 159.653 371.184 159.688Q371.246 159.723 371.305 159.764Q371.363 159.805 371.417 159.851Q371.472 159.898 371.521 159.95Q371.571 160.001 371.615 160.057Q371.659 160.114 371.697 160.174ZM377.541 171.318Q378.746 174.111 379.83 177.135Q379.854 177.202 379.871 177.272Q379.889 177.341 379.899 177.412Q379.91 177.482 379.913 177.554Q379.917 177.625 379.913 177.697Q379.91 177.768 379.9 177.839Q379.889 177.91 379.872 177.979Q379.855 178.048 379.83 178.116Q379.806 178.183 379.776 178.248Q379.745 178.313 379.709 178.374Q379.672 178.435 379.629 178.493Q379.587 178.55 379.539 178.603Q379.491 178.656 379.438 178.704Q379.385 178.752 379.328 178.795Q379.27 178.837 379.209 178.874Q379.148 178.911 379.083 178.941Q379.018 178.972 378.951 178.996Q378.884 179.02 378.815 179.038Q378.745 179.055 378.674 179.066Q378.604 179.076 378.532 179.08Q378.461 179.084 378.39 179.08Q378.318 179.077 378.247 179.066Q378.177 179.056 378.107 179.038Q378.038 179.021 377.971 178.997Q377.903 178.973 377.839 178.943Q377.774 178.912 377.713 178.875Q377.652 178.839 377.594 178.796Q377.537 178.753 377.484 178.705Q377.431 178.657 377.383 178.604Q377.335 178.551 377.292 178.494Q377.249 178.437 377.212 178.375Q377.176 178.314 377.145 178.249Q377.114 178.185 377.09 178.117Q376.037 175.182 374.868 172.469Q374.84 172.403 374.818 172.335Q374.796 172.267 374.781 172.197Q374.767 172.127 374.759 172.056Q374.751 171.985 374.75 171.914Q374.749 171.842 374.755 171.771Q374.761 171.7 374.773 171.629Q374.786 171.559 374.806 171.49Q374.826 171.422 374.852 171.355Q374.879 171.289 374.912 171.225Q374.945 171.162 374.983 171.102Q375.022 171.042 375.067 170.986Q375.111 170.93 375.161 170.879Q375.211 170.828 375.266 170.781Q375.32 170.735 375.379 170.695Q375.438 170.654 375.501 170.62Q375.563 170.585 375.629 170.557Q375.695 170.528 375.763 170.507Q375.831 170.485 375.901 170.47Q375.971 170.455 376.042 170.447Q376.113 170.439 376.184 170.438Q376.256 170.437 376.327 170.443Q376.398 170.449 376.468 170.462Q376.539 170.475 376.607 170.495Q376.676 170.515 376.742 170.541Q376.809 170.568 376.872 170.6Q376.936 170.633 376.996 170.672Q377.056 170.711 377.112 170.756Q377.168 170.8 377.219 170.85Q377.27 170.9 377.316 170.955Q377.362 171.009 377.403 171.068Q377.444 171.127 377.478 171.19Q377.513 171.253 377.541 171.318ZM381.799 183.143Q382.658 186.016 383.427 189.076Q383.444 189.146 383.455 189.216Q383.465 189.287 383.469 189.358Q383.472 189.43 383.469 189.501Q383.465 189.573 383.455 189.643Q383.444 189.714 383.427 189.784Q383.41 189.853 383.386 189.92Q383.362 189.988 383.331 190.052Q383.3 190.117 383.264 190.178Q383.227 190.24 383.184 190.297Q383.142 190.354 383.094 190.407Q383.046 190.46 382.993 190.508Q382.94 190.556 382.883 190.599Q382.825 190.642 382.764 190.678Q382.703 190.715 382.638 190.746Q382.574 190.776 382.506 190.8Q382.439 190.824 382.37 190.842Q382.3 190.859 382.23 190.87Q382.159 190.88 382.087 190.884Q382.016 190.888 381.945 190.884Q381.873 190.881 381.802 190.87Q381.732 190.86 381.662 190.843Q381.593 190.825 381.526 190.801Q381.458 190.777 381.394 190.747Q381.329 190.716 381.268 190.68Q381.206 190.643 381.149 190.6Q381.092 190.558 381.039 190.51Q380.986 190.462 380.938 190.409Q380.89 190.356 380.847 190.298Q380.804 190.241 380.768 190.18Q380.731 190.118 380.7 190.054Q380.67 189.989 380.645 189.922Q380.621 189.855 380.604 189.785Q379.851 186.787 379.011 183.977Q378.99 183.908 378.977 183.838Q378.963 183.768 378.956 183.696Q378.949 183.625 378.95 183.554Q378.95 183.482 378.957 183.411Q378.965 183.34 378.979 183.27Q378.993 183.2 379.014 183.132Q379.035 183.063 379.063 182.997Q379.09 182.932 379.124 182.869Q379.158 182.806 379.198 182.746Q379.238 182.687 379.284 182.632Q379.329 182.577 379.38 182.527Q379.431 182.476 379.486 182.431Q379.541 182.386 379.601 182.347Q379.661 182.307 379.724 182.274Q379.787 182.241 379.853 182.214Q379.919 182.186 379.988 182.166Q380.056 182.145 380.126 182.132Q380.197 182.118 380.268 182.111Q380.339 182.104 380.411 182.105Q380.482 182.105 380.553 182.112Q380.624 182.119 380.694 182.134Q380.764 182.148 380.833 182.169Q380.901 182.19 380.967 182.217Q381.033 182.245 381.096 182.279Q381.159 182.313 381.218 182.353Q381.277 182.393 381.333 182.438Q381.388 182.484 381.438 182.535Q381.488 182.585 381.533 182.641Q381.579 182.696 381.618 182.756Q381.658 182.815 381.691 182.879Q381.725 182.942 381.752 183.008Q381.779 183.074 381.799 183.143ZM384.847 195.26Q385.459 198.182 386 201.264Q386.012 201.334 386.017 201.405Q386.023 201.477 386.021 201.548Q386.02 201.62 386.011 201.691Q386.002 201.762 385.987 201.831Q385.971 201.901 385.949 201.969Q385.927 202.037 385.898 202.103Q385.869 202.168 385.834 202.23Q385.799 202.293 385.758 202.351Q385.717 202.41 385.67 202.464Q385.624 202.518 385.572 202.568Q385.52 202.617 385.464 202.661Q385.408 202.705 385.347 202.744Q385.287 202.782 385.223 202.814Q385.159 202.847 385.093 202.872Q385.026 202.898 384.957 202.918Q384.888 202.937 384.818 202.949Q384.747 202.962 384.676 202.967Q384.605 202.972 384.533 202.971Q384.462 202.969 384.391 202.961Q384.32 202.952 384.25 202.936Q384.18 202.921 384.113 202.899Q384.045 202.876 383.979 202.848Q383.914 202.819 383.852 202.784Q383.789 202.749 383.731 202.707Q383.672 202.666 383.618 202.62Q383.564 202.573 383.514 202.522Q383.465 202.47 383.421 202.414Q383.377 202.357 383.338 202.297Q383.3 202.237 383.268 202.173Q383.235 202.109 383.209 202.042Q383.184 201.976 383.164 201.907Q383.145 201.838 383.133 201.768Q382.601 198.732 381.998 195.857Q381.983 195.787 381.976 195.716Q381.968 195.645 381.967 195.574Q381.966 195.502 381.973 195.431Q381.979 195.36 381.992 195.29Q382.006 195.22 382.026 195.151Q382.046 195.082 382.072 195.016Q382.099 194.95 382.132 194.886Q382.165 194.823 382.204 194.763Q382.243 194.703 382.288 194.648Q382.333 194.592 382.383 194.541Q382.433 194.49 382.488 194.444Q382.543 194.398 382.602 194.357Q382.661 194.317 382.723 194.283Q382.786 194.248 382.852 194.22Q382.918 194.192 382.986 194.171Q383.054 194.149 383.124 194.135Q383.194 194.12 383.265 194.112Q383.336 194.105 383.408 194.104Q383.479 194.103 383.55 194.109Q383.622 194.116 383.692 194.129Q383.762 194.142 383.831 194.162Q383.899 194.182 383.966 194.209Q384.032 194.235 384.095 194.268Q384.159 194.301 384.219 194.34Q384.278 194.38 384.334 194.424Q384.39 194.469 384.441 194.519Q384.492 194.569 384.538 194.624Q384.584 194.679 384.624 194.738Q384.664 194.797 384.699 194.859Q384.733 194.922 384.761 194.988Q384.789 195.053 384.811 195.122Q384.832 195.19 384.847 195.26ZM386.995 207.48Q387.429 210.467 387.804 213.596Q387.812 213.667 387.814 213.738Q387.815 213.809 387.81 213.881Q387.804 213.952 387.792 214.022Q387.779 214.092 387.76 214.161Q387.741 214.23 387.715 214.297Q387.689 214.363 387.656 214.427Q387.624 214.491 387.586 214.551Q387.547 214.611 387.503 214.667Q387.459 214.723 387.409 214.775Q387.36 214.827 387.306 214.873Q387.251 214.92 387.193 214.96Q387.134 215.001 387.072 215.036Q387.01 215.072 386.944 215.1Q386.879 215.129 386.811 215.151Q386.743 215.173 386.673 215.189Q386.603 215.204 386.532 215.213Q386.461 215.221 386.39 215.223Q386.318 215.224 386.247 215.219Q386.176 215.214 386.105 215.201Q386.035 215.189 385.966 215.169Q385.897 215.15 385.831 215.124Q385.764 215.098 385.7 215.066Q385.637 215.034 385.576 214.995Q385.516 214.957 385.46 214.912Q385.404 214.868 385.352 214.819Q385.3 214.769 385.254 214.715Q385.207 214.661 385.166 214.602Q385.125 214.544 385.09 214.481Q385.055 214.419 385.027 214.353Q384.998 214.288 384.976 214.22Q384.953 214.152 384.938 214.082Q384.923 214.012 384.914 213.941Q384.543 210.85 384.114 207.898Q384.104 207.828 384.101 207.756Q384.097 207.685 384.101 207.614Q384.105 207.542 384.116 207.472Q384.126 207.401 384.144 207.332Q384.161 207.262 384.186 207.195Q384.21 207.128 384.241 207.063Q384.272 206.999 384.309 206.938Q384.345 206.877 384.388 206.819Q384.431 206.762 384.479 206.709Q384.527 206.657 384.58 206.609Q384.634 206.561 384.691 206.518Q384.749 206.476 384.81 206.44Q384.872 206.403 384.936 206.373Q385.001 206.342 385.068 206.318Q385.136 206.295 385.205 206.277Q385.274 206.26 385.345 206.25Q385.416 206.24 385.487 206.236Q385.559 206.233 385.63 206.237Q385.702 206.24 385.772 206.251Q385.843 206.261 385.912 206.279Q385.981 206.297 386.049 206.321Q386.116 206.345 386.181 206.376Q386.245 206.406 386.306 206.443Q386.367 206.48 386.425 206.523Q386.482 206.566 386.535 206.614Q386.588 206.662 386.636 206.715Q386.683 206.768 386.726 206.826Q386.768 206.883 386.805 206.945Q386.841 207.006 386.872 207.071Q386.902 207.136 386.926 207.203Q386.95 207.271 386.967 207.34Q386.984 207.41 386.995 207.48ZM388.471 219.75Q388.771 222.838 389.02 226.059Q389.026 226.13 389.024 226.201Q389.022 226.273 389.014 226.343Q389.005 226.414 388.99 226.484Q388.975 226.554 388.952 226.622Q388.93 226.69 388.901 226.755Q388.873 226.821 388.838 226.883Q388.803 226.945 388.762 227.004Q388.721 227.062 388.674 227.117Q388.628 227.171 388.576 227.22Q388.524 227.27 388.468 227.314Q388.412 227.358 388.352 227.397Q388.291 227.435 388.228 227.467Q388.164 227.5 388.097 227.526Q388.031 227.552 387.962 227.571Q387.893 227.59 387.823 227.603Q387.752 227.616 387.681 227.621Q387.61 227.627 387.538 227.625Q387.467 227.623 387.396 227.615Q387.325 227.606 387.255 227.591Q387.185 227.575 387.117 227.553Q387.049 227.531 386.984 227.502Q386.918 227.473 386.856 227.438Q386.794 227.403 386.735 227.362Q386.677 227.321 386.622 227.275Q386.568 227.228 386.519 227.177Q386.469 227.125 386.425 227.069Q386.381 227.012 386.342 226.952Q386.304 226.892 386.271 226.828Q386.239 226.764 386.213 226.698Q386.187 226.631 386.168 226.562Q386.149 226.493 386.136 226.423Q386.124 226.353 386.118 226.281Q385.872 223.092 385.574 220.033Q385.567 219.962 385.567 219.89Q385.568 219.819 385.575 219.748Q385.582 219.677 385.596 219.606Q385.61 219.536 385.63 219.468Q385.651 219.399 385.679 219.333Q385.706 219.267 385.74 219.204Q385.774 219.141 385.813 219.082Q385.853 219.022 385.899 218.967Q385.944 218.912 385.995 218.862Q386.045 218.811 386.101 218.766Q386.156 218.72 386.215 218.681Q386.275 218.641 386.338 218.607Q386.401 218.574 386.467 218.547Q386.533 218.519 386.601 218.499Q386.67 218.478 386.74 218.464Q386.81 218.45 386.881 218.443Q386.953 218.436 387.024 218.437Q387.095 218.437 387.167 218.444Q387.238 218.451 387.308 218.465Q387.378 218.479 387.446 218.5Q387.515 218.521 387.581 218.548Q387.647 218.575 387.71 218.609Q387.773 218.643 387.832 218.683Q387.892 218.722 387.947 218.768Q388.002 218.813 388.052 218.864Q388.103 218.914 388.148 218.97Q388.194 219.025 388.233 219.084Q388.273 219.144 388.306 219.207Q388.34 219.27 388.367 219.336Q388.395 219.402 388.415 219.47Q388.436 219.539 388.45 219.609Q388.464 219.679 388.471 219.75ZM389.434 232.109L389.758 238.363Q389.762 238.435 389.759 238.506Q389.755 238.577 389.745 238.648Q389.735 238.719 389.718 238.788Q389.7 238.858 389.676 238.925Q389.653 238.993 389.622 239.057Q389.592 239.122 389.555 239.183Q389.519 239.245 389.476 239.302Q389.434 239.36 389.386 239.413Q389.338 239.466 389.285 239.514Q389.232 239.563 389.175 239.605Q389.118 239.648 389.056 239.685Q388.995 239.722 388.931 239.753Q388.866 239.784 388.799 239.808Q388.732 239.832 388.662 239.85Q388.593 239.867 388.522 239.878Q388.452 239.889 388.38 239.893Q388.309 239.896 388.238 239.893Q388.166 239.89 388.095 239.88Q388.025 239.869 387.955 239.852Q387.886 239.835 387.818 239.811Q387.751 239.787 387.686 239.757Q387.622 239.727 387.56 239.69Q387.499 239.653 387.441 239.611Q387.384 239.569 387.33 239.521Q387.277 239.473 387.229 239.42Q387.181 239.367 387.138 239.31Q387.096 239.253 387.059 239.192Q387.022 239.13 386.991 239.066Q386.96 239.001 386.936 238.934Q386.912 238.867 386.894 238.798Q386.877 238.728 386.866 238.658Q386.855 238.587 386.852 238.516L386.527 232.26Q386.524 232.188 386.527 232.117Q386.53 232.046 386.54 231.975Q386.551 231.904 386.568 231.835Q386.585 231.765 386.609 231.698Q386.633 231.63 386.663 231.566Q386.694 231.501 386.73 231.44Q386.767 231.378 386.809 231.321Q386.852 231.263 386.9 231.21Q386.947 231.157 387 231.109Q387.053 231.06 387.11 231.018Q387.168 230.975 387.229 230.938Q387.29 230.901 387.355 230.87Q387.419 230.839 387.487 230.815Q387.554 230.791 387.623 230.773Q387.692 230.756 387.763 230.745Q387.834 230.734 387.905 230.73Q387.977 230.727 388.048 230.73Q388.119 230.734 388.19 230.744Q388.261 230.754 388.33 230.771Q388.4 230.789 388.467 230.813Q388.534 230.837 388.599 230.867Q388.664 230.897 388.725 230.934Q388.787 230.971 388.844 231.013Q388.902 231.056 388.955 231.104Q389.008 231.151 389.056 231.204Q389.104 231.257 389.147 231.315Q389.19 231.372 389.227 231.433Q389.263 231.494 389.294 231.559Q389.325 231.623 389.349 231.691Q389.373 231.758 389.391 231.827Q389.409 231.897 389.419 231.967Q389.43 232.038 389.434 232.109ZM389.987 244.59L390.13 250.666Q390.132 250.738 390.127 250.809Q390.121 250.88 390.109 250.951Q390.097 251.021 390.078 251.09Q390.059 251.159 390.033 251.225Q390.007 251.292 389.975 251.356Q389.943 251.42 389.904 251.48Q389.866 251.541 389.822 251.597Q389.778 251.653 389.728 251.705Q389.679 251.757 389.625 251.804Q389.571 251.85 389.512 251.891Q389.454 251.933 389.392 251.968Q389.329 252.003 389.264 252.032Q389.199 252.061 389.131 252.083Q389.063 252.106 388.993 252.121Q388.923 252.137 388.852 252.146Q388.781 252.155 388.71 252.156Q388.638 252.158 388.567 252.152Q388.496 252.147 388.425 252.135Q388.355 252.122 388.286 252.103Q388.217 252.084 388.15 252.058Q388.084 252.032 388.02 252Q387.956 251.968 387.896 251.929Q387.835 251.891 387.779 251.847Q387.723 251.803 387.671 251.754Q387.619 251.704 387.573 251.65Q387.526 251.596 387.485 251.537Q387.444 251.479 387.409 251.416Q387.373 251.354 387.345 251.289Q387.316 251.223 387.293 251.155Q387.271 251.087 387.255 251.018Q387.24 250.948 387.231 250.877Q387.222 250.806 387.221 250.734L387.078 244.658Q387.076 244.587 387.081 244.515Q387.087 244.444 387.099 244.374Q387.111 244.303 387.13 244.234Q387.149 244.165 387.175 244.099Q387.201 244.032 387.233 243.968Q387.266 243.905 387.304 243.844Q387.342 243.784 387.386 243.728Q387.43 243.671 387.48 243.62Q387.529 243.568 387.583 243.521Q387.637 243.475 387.696 243.434Q387.754 243.393 387.817 243.357Q387.879 243.322 387.944 243.293Q388.01 243.265 388.078 243.242Q388.146 243.22 388.215 243.204Q388.285 243.189 388.356 243.18Q388.427 243.172 388.499 243.17Q388.57 243.168 388.641 243.174Q388.713 243.179 388.783 243.191Q388.853 243.203 388.922 243.222Q388.991 243.241 389.058 243.267Q389.124 243.293 389.188 243.325Q389.252 243.357 389.312 243.396Q389.373 243.434 389.429 243.478Q389.485 243.522 389.537 243.571Q389.589 243.621 389.635 243.675Q389.682 243.729 389.723 243.787Q389.764 243.846 389.799 243.908Q389.835 243.97 389.863 244.036Q389.892 244.101 389.915 244.169Q389.937 244.237 389.953 244.307Q389.968 244.376 389.977 244.447Q389.986 244.518 389.987 244.59ZM390.203 256.98L390.211 260.201L390.211 263.346Q390.211 263.417 390.204 263.488Q390.197 263.559 390.183 263.63Q390.169 263.7 390.149 263.768Q390.128 263.836 390.101 263.902Q390.073 263.969 390.04 264.032Q390.006 264.095 389.966 264.154Q389.926 264.214 389.881 264.269Q389.836 264.324 389.785 264.375Q389.735 264.425 389.679 264.471Q389.624 264.516 389.565 264.556Q389.505 264.595 389.442 264.629Q389.379 264.663 389.313 264.69Q389.247 264.717 389.179 264.738Q389.11 264.759 389.04 264.773Q388.97 264.787 388.899 264.794Q388.828 264.801 388.756 264.801Q388.685 264.801 388.614 264.794Q388.543 264.787 388.472 264.773Q388.402 264.759 388.334 264.738Q388.265 264.717 388.199 264.69Q388.133 264.663 388.07 264.629Q388.007 264.595 387.948 264.556Q387.888 264.516 387.833 264.471Q387.778 264.425 387.727 264.375Q387.677 264.324 387.631 264.269Q387.586 264.214 387.546 264.154Q387.506 264.095 387.473 264.032Q387.439 263.969 387.412 263.902Q387.384 263.836 387.363 263.768Q387.343 263.7 387.329 263.63Q387.315 263.559 387.308 263.488Q387.301 263.417 387.301 263.346L387.301 260.209L387.292 256.988Q387.292 256.917 387.299 256.846Q387.305 256.774 387.319 256.704Q387.333 256.634 387.353 256.566Q387.374 256.497 387.401 256.431Q387.428 256.365 387.462 256.302Q387.495 256.239 387.535 256.179Q387.575 256.12 387.62 256.064Q387.665 256.009 387.715 255.958Q387.766 255.908 387.821 255.862Q387.876 255.817 387.935 255.777Q387.995 255.737 388.058 255.703Q388.121 255.669 388.187 255.642Q388.253 255.614 388.321 255.593Q388.389 255.572 388.459 255.558Q388.529 255.544 388.601 255.537Q388.672 255.529 388.743 255.529Q388.815 255.529 388.886 255.536Q388.957 255.543 389.027 255.556Q389.097 255.57 389.166 255.591Q389.234 255.611 389.3 255.639Q389.366 255.666 389.43 255.699Q389.493 255.733 389.552 255.772Q389.612 255.812 389.667 255.857Q389.723 255.902 389.773 255.953Q389.824 256.003 389.87 256.058Q389.915 256.113 389.955 256.173Q389.995 256.232 390.029 256.295Q390.063 256.358 390.09 256.424Q390.118 256.49 390.139 256.558Q390.16 256.627 390.174 256.697Q390.188 256.767 390.195 256.838Q390.202 256.909 390.203 256.98ZM390.211 269.285L390.211 275.33Q390.211 275.402 390.204 275.473Q390.197 275.544 390.183 275.614Q390.169 275.684 390.149 275.752Q390.128 275.821 390.101 275.887Q390.073 275.953 390.04 276.016Q390.006 276.079 389.966 276.138Q389.926 276.198 389.881 276.253Q389.836 276.308 389.785 276.359Q389.735 276.41 389.679 276.455Q389.624 276.5 389.565 276.54Q389.505 276.58 389.442 276.613Q389.379 276.647 389.313 276.674Q389.247 276.702 389.179 276.723Q389.11 276.743 389.04 276.757Q388.97 276.771 388.899 276.778Q388.828 276.785 388.756 276.785Q388.685 276.785 388.614 276.778Q388.543 276.771 388.472 276.757Q388.402 276.743 388.334 276.723Q388.265 276.702 388.199 276.674Q388.133 276.647 388.07 276.613Q388.007 276.58 387.948 276.54Q387.888 276.5 387.833 276.455Q387.778 276.41 387.727 276.359Q387.677 276.308 387.631 276.253Q387.586 276.198 387.546 276.138Q387.506 276.079 387.473 276.016Q387.439 275.953 387.412 275.887Q387.384 275.821 387.363 275.752Q387.343 275.684 387.329 275.614Q387.315 275.544 387.308 275.473Q387.301 275.402 387.301 275.33L387.301 269.285Q387.301 269.214 387.308 269.142Q387.315 269.071 387.329 269.001Q387.343 268.931 387.363 268.862Q387.384 268.794 387.412 268.728Q387.439 268.661 387.473 268.598Q387.506 268.535 387.546 268.476Q387.586 268.416 387.631 268.361Q387.677 268.305 387.727 268.255Q387.778 268.204 387.833 268.159Q387.888 268.113 387.948 268.074Q388.007 268.034 388.07 268Q388.133 267.966 388.199 267.939Q388.265 267.912 388.334 267.891Q388.402 267.87 388.472 267.856Q388.543 267.842 388.614 267.835Q388.685 267.828 388.756 267.828Q388.828 267.828 388.899 267.835Q388.97 267.842 389.04 267.856Q389.11 267.87 389.179 267.891Q389.247 267.912 389.313 267.939Q389.379 267.966 389.442 268Q389.505 268.034 389.565 268.074Q389.624 268.113 389.679 268.159Q389.735 268.204 389.785 268.255Q389.836 268.305 389.881 268.361Q389.926 268.416 389.966 268.476Q390.006 268.535 390.04 268.598Q390.073 268.661 390.101 268.728Q390.128 268.794 390.149 268.862Q390.169 268.931 390.183 269.001Q390.197 269.071 390.204 269.142Q390.211 269.214 390.211 269.285ZM390.211 281.383L390.211 287.389Q390.211 287.46 390.204 287.531Q390.197 287.602 390.183 287.673Q390.169 287.743 390.149 287.811Q390.128 287.879 390.101 287.945Q390.073 288.012 390.04 288.075Q390.006 288.138 389.966 288.197Q389.926 288.256 389.881 288.312Q389.836 288.367 389.785 288.418Q389.735 288.468 389.679 288.513Q389.624 288.559 389.565 288.599Q389.505 288.638 389.442 288.672Q389.379 288.706 389.313 288.733Q389.247 288.76 389.179 288.781Q389.11 288.802 389.04 288.816Q388.97 288.83 388.899 288.837Q388.828 288.844 388.756 288.844Q388.685 288.844 388.614 288.837Q388.543 288.83 388.472 288.816Q388.402 288.802 388.334 288.781Q388.265 288.76 388.199 288.733Q388.133 288.706 388.07 288.672Q388.007 288.638 387.948 288.598Q387.888 288.559 387.833 288.513Q387.778 288.468 387.727 288.418Q387.677 288.367 387.631 288.312Q387.586 288.256 387.546 288.197Q387.506 288.138 387.473 288.075Q387.439 288.012 387.412 287.945Q387.384 287.879 387.363 287.811Q387.343 287.743 387.329 287.673Q387.315 287.602 387.308 287.531Q387.301 287.46 387.301 287.389L387.301 281.383Q387.301 281.311 387.308 281.24Q387.315 281.169 387.329 281.099Q387.343 281.029 387.363 280.96Q387.384 280.892 387.412 280.826Q387.439 280.76 387.473 280.697Q387.506 280.634 387.546 280.574Q387.586 280.515 387.631 280.46Q387.677 280.404 387.727 280.354Q387.778 280.303 387.833 280.258Q387.888 280.213 387.948 280.173Q388.007 280.133 388.07 280.1Q388.133 280.066 388.199 280.038Q388.265 280.011 388.334 279.99Q388.402 279.97 388.472 279.956Q388.543 279.942 388.614 279.935Q388.685 279.928 388.756 279.928Q388.828 279.928 388.899 279.935Q388.97 279.942 389.04 279.956Q389.11 279.97 389.179 279.99Q389.247 280.011 389.313 280.038Q389.379 280.066 389.442 280.1Q389.505 280.133 389.565 280.173Q389.624 280.213 389.679 280.258Q389.735 280.303 389.785 280.354Q389.836 280.404 389.881 280.46Q389.926 280.515 389.966 280.574Q390.006 280.634 390.04 280.697Q390.073 280.76 390.101 280.826Q390.128 280.892 390.149 280.96Q390.169 281.029 390.183 281.099Q390.197 281.169 390.204 281.24Q390.211 281.311 390.211 281.383ZM390.211 293.416L390.211 299.715Q390.211 299.786 390.204 299.857Q390.197 299.929 390.183 299.999Q390.169 300.069 390.149 300.137Q390.128 300.206 390.101 300.272Q390.073 300.338 390.04 300.401Q390.006 300.464 389.966 300.523Q389.926 300.583 389.881 300.638Q389.836 300.693 389.785 300.744Q389.735 300.794 389.679 300.84Q389.624 300.885 389.565 300.925Q389.505 300.964 389.442 300.998Q389.379 301.032 389.313 301.059Q389.247 301.086 389.179 301.107Q389.11 301.128 389.04 301.142Q388.97 301.156 388.899 301.163Q388.828 301.17 388.756 301.17Q388.685 301.17 388.614 301.163Q388.543 301.156 388.472 301.142Q388.402 301.128 388.334 301.107Q388.265 301.086 388.199 301.059Q388.133 301.032 388.07 300.998Q388.007 300.964 387.948 300.925Q387.888 300.885 387.833 300.84Q387.778 300.794 387.727 300.744Q387.677 300.693 387.631 300.638Q387.586 300.583 387.546 300.523Q387.506 300.464 387.473 300.401Q387.439 300.338 387.412 300.272Q387.384 300.206 387.363 300.137Q387.343 300.069 387.329 299.999Q387.315 299.929 387.308 299.857Q387.301 299.786 387.301 299.715L387.301 293.416Q387.301 293.345 387.308 293.273Q387.315 293.202 387.329 293.132Q387.343 293.062 387.363 292.994Q387.384 292.925 387.412 292.859Q387.439 292.793 387.473 292.73Q387.506 292.667 387.546 292.608Q387.586 292.548 387.631 292.493Q387.677 292.438 387.727 292.387Q387.778 292.337 387.833 292.291Q387.888 292.246 387.948 292.206Q388.007 292.166 388.07 292.133Q388.133 292.099 388.199 292.072Q388.265 292.044 388.334 292.024Q388.402 292.003 388.472 291.989Q388.543 291.975 388.614 291.968Q388.685 291.961 388.756 291.961Q388.828 291.961 388.899 291.968Q388.97 291.975 389.04 291.989Q389.11 292.003 389.179 292.024Q389.247 292.044 389.313 292.072Q389.379 292.099 389.442 292.133Q389.505 292.166 389.565 292.206Q389.624 292.246 389.679 292.291Q389.735 292.337 389.785 292.387Q389.836 292.438 389.881 292.493Q389.926 292.548 389.966 292.608Q390.006 292.667 390.04 292.73Q390.073 292.793 390.101 292.859Q390.128 292.925 390.149 292.994Q390.169 293.062 390.183 293.132Q390.197 293.202 390.204 293.273Q390.211 293.345 390.211 293.416ZM390.211 305.537L390.211 308.441Q390.211 308.513 390.204 308.584Q390.197 308.655 390.183 308.725Q390.169 308.795 390.149 308.864Q390.128 308.932 390.101 308.998Q390.073 309.064 390.04 309.127Q390.006 309.19 389.966 309.25Q389.926 309.309 389.881 309.364Q389.836 309.42 389.785 309.47Q389.735 309.521 389.679 309.566Q389.624 309.612 389.565 309.651Q389.505 309.691 389.442 309.725Q389.379 309.758 389.313 309.786Q389.247 309.813 389.179 309.834Q389.11 309.855 389.04 309.868Q388.97 309.882 388.899 309.889Q388.828 309.896 388.756 309.896Q388.685 309.896 388.614 309.889Q388.543 309.882 388.472 309.868Q388.402 309.855 388.334 309.834Q388.265 309.813 388.199 309.786Q388.133 309.758 388.07 309.725Q388.007 309.691 387.948 309.651Q387.888 309.612 387.833 309.566Q387.778 309.521 387.727 309.47Q387.677 309.42 387.631 309.364Q387.586 309.309 387.546 309.25Q387.506 309.19 387.473 309.127Q387.439 309.064 387.412 308.998Q387.384 308.932 387.363 308.864Q387.343 308.795 387.329 308.725Q387.315 308.655 387.308 308.584Q387.301 308.513 387.301 308.441L387.301 305.537Q387.301 305.466 387.308 305.395Q387.315 305.323 387.329 305.253Q387.343 305.183 387.363 305.115Q387.384 305.046 387.412 304.98Q387.439 304.914 387.473 304.851Q387.506 304.788 387.546 304.729Q387.586 304.669 387.631 304.614Q387.677 304.559 387.727 304.508Q387.778 304.458 387.833 304.412Q387.888 304.367 387.948 304.327Q388.007 304.288 388.07 304.254Q388.133 304.22 388.199 304.193Q388.265 304.165 388.334 304.145Q388.402 304.124 388.472 304.11Q388.543 304.096 388.614 304.089Q388.685 304.082 388.756 304.082Q388.828 304.082 388.899 304.089Q388.97 304.096 389.04 304.11Q389.11 304.124 389.179 304.145Q389.247 304.165 389.313 304.193Q389.379 304.22 389.442 304.254Q389.505 304.288 389.565 304.327Q389.624 304.367 389.679 304.412Q389.735 304.458 389.785 304.508Q389.836 304.559 389.881 304.614Q389.926 304.669 389.966 304.729Q390.006 304.788 390.04 304.851Q390.073 304.914 390.101 304.98Q390.128 305.046 390.149 305.115Q390.169 305.183 390.183 305.253Q390.197 305.323 390.204 305.395Q390.211 305.466 390.211 305.537Z" fill="url(#paint_linear_1_1205_0)" fill-opacity="1.000000" fill-rule="evenodd"/>
</svg>
