<svg width="213.000000" height="165.999023" viewBox="0 0 213 165.999" fill="none" xmlns="http://www.w3.org/2000/svg" xmlns:xlink="http://www.w3.org/1999/xlink">
	<desc>
			Created with Pixso.
	</desc>
	<defs>
		<filter id="filter_1_1952_dd" x="47.000977" y="20.516602" width="103.515625" height="124.965820" filterUnits="userSpaceOnUse" color-interpolation-filters="sRGB">
			<feFlood flood-opacity="0" result="BackgroundImageFix"/>
			<feGaussianBlur in="BackgroundImage" stdDeviation="7.33333"/>
			<feComposite in2="SourceAlpha" operator="in" result="effect_backgroundBlur_1"/>
			<feBlend mode="normal" in="SourceGraphic" in2="effect_backgroundBlur_1" result="shape"/>
		</filter>
		<filter id="filter_1_1953_dd" x="0.000000" y="29.550781" width="88.550781" height="106.900391" filterUnits="userSpaceOnUse" color-interpolation-filters="sRGB">
			<feFlood flood-opacity="0" result="BackgroundImageFix"/>
			<feGaussianBlur in="BackgroundImage" stdDeviation="7.33333"/>
			<feComposite in2="SourceAlpha" operator="in" result="effect_backgroundBlur_1"/>
			<feBlend mode="normal" in="SourceGraphic" in2="effect_backgroundBlur_1" result="shape"/>
		</filter>
		<linearGradient id="paint_linear_1_1952_0" x1="130.897095" y1="23.695801" x2="130.000504" y2="165.998779" gradientUnits="userSpaceOnUse">
			<stop stop-color="#FFFFFF"/>
			<stop offset="1.000000" stop-color="#FFFFFF" stop-opacity="0.000000"/>
		</linearGradient>
		<linearGradient id="paint_linear_1_1952_1" x1="130.897110" y1="23.695801" x2="127.054520" y2="147.426392" gradientUnits="userSpaceOnUse">
			<stop stop-color="#FFFFFF" stop-opacity="0.000000"/>
			<stop offset="1.000000" stop-color="#FFFFFF" stop-opacity="0.219608"/>
		</linearGradient>
		<linearGradient id="paint_linear_1_1953_0" x1="71.767456" y1="32.270241" x2="71.000481" y2="154.001251" gradientUnits="userSpaceOnUse">
			<stop stop-color="#FFFFFF"/>
			<stop offset="1.000000" stop-color="#FFFFFF" stop-opacity="0.000000"/>
		</linearGradient>
		<linearGradient id="paint_linear_1_1953_1" x1="71.767471" y1="32.270226" x2="68.480408" y2="138.113724" gradientUnits="userSpaceOnUse">
			<stop stop-color="#FFFFFF" stop-opacity="0.000000"/>
			<stop offset="1.000000" stop-color="#FFFFFF" stop-opacity="0.219608"/>
		</linearGradient>
	</defs>
	<g filter="url(#filter_1_1952_dd)">
		<path id="Vector 446" d="M47.001 82.999L109.484 20.5166L150.517 20.5166L88.0337 82.999L150.517 145.482L109.484 145.482L47.001 82.999Z" fill="url(#paint_linear_1_1952_0)" fill-opacity="0.300000" fill-rule="nonzero"/>
	</g>
	<path id="Vector 446" d="M90.8623 80.1709L150.517 20.5166L109.484 20.5166L47.001 82.999L109.484 145.482L150.517 145.482L90.8623 85.8281L88.0337 82.999L90.8623 80.1709ZM140.86 141.482L82.377 82.999L140.86 24.5166L111.141 24.5166L52.6582 82.999L111.141 141.482L140.86 141.482Z" fill="url(#paint_linear_1_1952_1)" fill-opacity="0.300000" fill-rule="evenodd"/>
	<g filter="url(#filter_1_1953_dd)">
		<path id="Vector 447" d="M0 83.001L53.4502 29.5508L88.5508 29.5508L35.1006 83.001L88.5508 136.451L53.4502 136.451L0 83.001Z" fill="url(#paint_linear_1_1953_0)" fill-opacity="0.300000" fill-rule="nonzero"/>
	</g>
	<path id="Vector 447" d="M37.9292 80.1719L88.5508 29.5508L53.4502 29.5508L0 83.001L53.4502 136.451L88.5508 136.451L37.9292 85.8291L35.1006 83.001L37.9292 80.1719ZM78.894 132.451L29.4438 83.001L78.894 33.5508L55.1069 33.5508L5.65674 83.001L55.1069 132.451L78.894 132.451Z" fill="url(#paint_linear_1_1953_1)" fill-opacity="0.300000" fill-rule="evenodd"/>
</svg>
