<svg width="323" height="89" viewBox="0 0 323 89" fill="none" xmlns="http://www.w3.org/2000/svg">
<g clip-path="url(#clip0_1_2361)">
<mask id="path-1-outside-1_1_2361" maskUnits="userSpaceOnUse" x="103.82" y="19.543" width="215" height="44" fill="black">
<rect fill="white" x="103.82" y="19.543" width="215" height="44"/>
<path d="M134.487 62.543V43.2906H109.949V62.543H104.727V20.5778H109.949V38.6348H134.487V20.5778H139.709V62.543H134.487ZM149.518 62.543V20.5778H154.74V53.3572L178.9 20.5778H184.248V62.543H179.026V29.0715L154.552 62.543H149.518ZM194.064 62.543V20.5778H199.286V53.3572L223.445 20.5778H228.793V62.543H223.571V29.0715L199.097 62.543H194.064ZM238.609 62.543V20.5778H243.831V53.3572L267.991 20.5778H273.339V62.543H268.116V29.0715L243.642 62.543H238.609ZM312.913 62.543V43.2906H288.376V62.543H283.154V20.5778H288.376V38.6348H312.913V20.5778H318.135V62.543H312.913Z"/>
</mask>
<path d="M134.487 62.543V43.2906H109.949V62.543H104.727V20.5778H109.949V38.6348H134.487V20.5778H139.709V62.543H134.487ZM149.518 62.543V20.5778H154.74V53.3572L178.9 20.5778H184.248V62.543H179.026V29.0715L154.552 62.543H149.518ZM194.064 62.543V20.5778H199.286V53.3572L223.445 20.5778H228.793V62.543H223.571V29.0715L199.097 62.543H194.064ZM238.609 62.543V20.5778H243.831V53.3572L267.991 20.5778H273.339V62.543H268.116V29.0715L243.642 62.543H238.609ZM312.913 62.543V43.2906H288.376V62.543H283.154V20.5778H288.376V38.6348H312.913V20.5778H318.135V62.543H312.913Z" fill="#FF0000"/>
<path d="M134.487 62.543H134.262V62.7676H134.487V62.543ZM134.487 43.2906H134.711V43.0659H134.487V43.2906ZM109.949 43.2906V43.0659H109.725V43.2906H109.949ZM109.949 62.543V62.7676H110.174V62.543H109.949ZM104.727 62.543H104.503V62.7676H104.727V62.543ZM104.727 20.5778V20.3531H104.503V20.5778H104.727ZM109.949 20.5778H110.174V20.3531H109.949V20.5778ZM109.949 38.6348H109.725V38.8595H109.949V38.6348ZM134.487 38.6348V38.8595H134.711V38.6348H134.487ZM134.487 20.5778V20.3531H134.262V20.5778H134.487ZM139.709 20.5778H139.933V20.3531H139.709V20.5778ZM139.709 62.543V62.7676H139.933V62.543H139.709ZM134.711 62.543V43.2906H134.262V62.543H134.711ZM134.487 43.0659H109.949V43.5153H134.487V43.0659ZM109.725 43.2906V62.543H110.174V43.2906H109.725ZM109.949 62.3183H104.727V62.7676H109.949V62.3183ZM104.952 62.543V20.5778H104.503V62.543H104.952ZM104.727 20.8025H109.949V20.3531H104.727V20.8025ZM109.725 20.5778V38.6348H110.174V20.5778H109.725ZM109.949 38.8595H134.487V38.4101H109.949V38.8595ZM134.711 38.6348V20.5778H134.262V38.6348H134.711ZM134.487 20.8025H139.709V20.3531H134.487V20.8025ZM139.484 20.5778V62.543H139.933V20.5778H139.484ZM139.709 62.3183H134.487V62.7676H139.709V62.3183ZM149.518 62.543H149.294V62.7676H149.518V62.543ZM149.518 20.5778V20.3531H149.294V20.5778H149.518ZM154.74 20.5778H154.965V20.3531H154.74V20.5778ZM154.74 53.3572H154.516V54.0407L154.921 53.4905L154.74 53.3572ZM178.9 20.5778V20.3531H178.787L178.719 20.4445L178.9 20.5778ZM184.248 20.5778H184.473V20.3531H184.248V20.5778ZM184.248 62.543V62.7676H184.473V62.543H184.248ZM179.026 62.543H178.801V62.7676H179.026V62.543ZM179.026 29.0715H179.251V28.3836L178.845 28.9389L179.026 29.0715ZM154.552 62.543V62.7676H154.666L154.733 62.6756L154.552 62.543ZM149.743 62.543V20.5778H149.294V62.543H149.743ZM149.518 20.8025H154.74V20.3531H149.518V20.8025ZM154.516 20.5778V53.3572H154.965V20.5778H154.516ZM154.921 53.4905L179.081 20.7111L178.719 20.4445L154.559 53.2239L154.921 53.4905ZM178.9 20.8025H184.248V20.3531H178.9V20.8025ZM184.023 20.5778V62.543H184.473V20.5778H184.023ZM184.248 62.3183H179.026V62.7676H184.248V62.3183ZM179.251 62.543V29.0715H178.801V62.543H179.251ZM178.845 28.9389L154.37 62.4104L154.733 62.6756L179.207 29.2041L178.845 28.9389ZM154.552 62.3183H149.518V62.7676H154.552V62.3183ZM194.064 62.543H193.839V62.7676H194.064V62.543ZM194.064 20.5778V20.3531H193.839V20.5778H194.064ZM199.286 20.5778H199.51V20.3531H199.286V20.5778ZM199.286 53.3572H199.061V54.0407L199.466 53.4905L199.286 53.3572ZM223.445 20.5778V20.3531H223.332L223.265 20.4445L223.445 20.5778ZM228.793 20.5778H229.018V20.3531H228.793V20.5778ZM228.793 62.543V62.7676H229.018V62.543H228.793ZM223.571 62.543H223.347V62.7676H223.571V62.543ZM223.571 29.0715H223.796V28.3836L223.39 28.9389L223.571 29.0715ZM199.097 62.543V62.7676H199.211L199.278 62.6756L199.097 62.543ZM194.288 62.543V20.5778H193.839V62.543H194.288ZM194.064 20.8025H199.286V20.3531H194.064V20.8025ZM199.061 20.5778V53.3572H199.51V20.5778H199.061ZM199.466 53.4905L223.626 20.7111L223.265 20.4445L199.105 53.2239L199.466 53.4905ZM223.445 20.8025H228.793V20.3531H223.445V20.8025ZM228.569 20.5778V62.543H229.018V20.5778H228.569ZM228.793 62.3183H223.571V62.7676H228.793V62.3183ZM223.796 62.543V29.0715H223.347V62.543H223.796ZM223.39 28.9389L198.915 62.4104L199.278 62.6756L223.753 29.2041L223.39 28.9389ZM199.097 62.3183H194.064V62.7676H199.097V62.3183ZM238.609 62.543H238.384V62.7676H238.609V62.543ZM238.609 20.5778V20.3531H238.384V20.5778H238.609ZM243.831 20.5778H244.055V20.3531H243.831V20.5778ZM243.831 53.3572H243.606V54.0407L244.012 53.4905L243.831 53.3572ZM267.991 20.5778V20.3531H267.877L267.81 20.4445L267.991 20.5778ZM273.339 20.5778H273.563V20.3531H273.339V20.5778ZM273.339 62.543V62.7676H273.563V62.543H273.339ZM268.116 62.543H267.892V62.7676H268.116V62.543ZM268.116 29.0715H268.341V28.3836L267.935 28.9389L268.116 29.0715ZM243.642 62.543V62.7676H243.756L243.823 62.6756L243.642 62.543ZM238.833 62.543V20.5778H238.384V62.543H238.833ZM238.609 20.8025H243.831V20.3531H238.609V20.8025ZM243.606 20.5778V53.3572H244.055V20.5778H243.606ZM244.012 53.4905L268.172 20.7111L267.81 20.4445L243.65 53.2239L244.012 53.4905ZM267.991 20.8025H273.339V20.3531H267.991V20.8025ZM273.114 20.5778V62.543H273.563V20.5778H273.114ZM273.339 62.3183H268.116V62.7676H273.339V62.3183ZM268.341 62.543V29.0715H267.892V62.543H268.341ZM267.935 28.9389L243.461 62.4104L243.823 62.6756L268.298 29.2041L267.935 28.9389ZM243.642 62.3183H238.609V62.7676H243.642V62.3183ZM312.913 62.543H312.689V62.7676H312.913V62.543ZM312.913 43.2906H313.138V43.0659H312.913V43.2906ZM288.376 43.2906V43.0659H288.151V43.2906H288.376ZM288.376 62.543V62.7676H288.601V62.543H288.376ZM283.154 62.543H282.929V62.7676H283.154V62.543ZM283.154 20.5778V20.3531H282.929V20.5778H283.154ZM288.376 20.5778H288.601V20.3531H288.376V20.5778ZM288.376 38.6348H288.151V38.8595H288.376V38.6348ZM312.913 38.6348V38.8595H313.138V38.6348H312.913ZM312.913 20.5778V20.3531H312.689V20.5778H312.913ZM318.135 20.5778H318.36V20.3531H318.135V20.5778ZM318.135 62.543V62.7676H318.36V62.543H318.135ZM313.138 62.543V43.2906H312.689V62.543H313.138ZM312.913 43.0659H288.376V43.5153H312.913V43.0659ZM288.151 43.2906V62.543H288.601V43.2906H288.151ZM288.376 62.3183H283.154V62.7676H288.376V62.3183ZM283.379 62.543V20.5778H282.929V62.543H283.379ZM283.154 20.8025H288.376V20.3531H283.154V20.8025ZM288.151 20.5778V38.6348H288.601V20.5778H288.151ZM288.376 38.8595H312.913V38.4101H288.376V38.8595ZM313.138 38.6348V20.5778H312.689V38.6348H313.138ZM312.913 20.8025H318.135V20.3531H312.913V20.8025ZM317.911 20.5778V62.543H318.36V20.5778H317.911ZM318.135 62.3183H312.913V62.7676H318.135V62.3183Z" fill="#FF0000" mask="url(#path-1-outside-1_1_2361)"/>
<path d="M110.59 77.9979V76.5918H104.669V68.9667H106.292V75.1628H109.893V68.9667H111.528V75.1628H112.214V77.9979H110.59ZM120.732 76.5918H119.166V68.9667H120.79V73.8939L124.322 68.9667H125.991V76.5918H124.368V71.4817L120.732 76.5918ZM138.435 76.5918H136.812V75.8259C134.502 75.6315 133.13 74.5455 133.13 72.785C133.13 71.0359 134.502 69.9498 136.812 69.7441V68.9667H138.435V69.7441C140.744 69.9498 142.116 71.0244 142.116 72.785C142.116 74.5455 140.744 75.6315 138.435 75.8259V76.5918ZM140.458 72.785C140.458 71.9161 139.75 71.356 138.435 71.1959V74.374C139.75 74.2254 140.458 73.6538 140.458 72.785ZM134.8 72.785C134.8 73.6538 135.497 74.214 136.812 74.374V71.1959C135.497 71.356 134.8 71.9276 134.8 72.785ZM150.901 76.5918H149.278V68.9667H152.845C154.502 68.9667 155.405 70.087 155.405 71.4246C155.405 72.7507 154.491 73.8824 152.845 73.8824H150.901V76.5918ZM152.627 72.4534C153.268 72.4534 153.748 72.0533 153.748 71.4246C153.748 70.7844 153.268 70.3957 152.627 70.3957H150.901V72.4534H152.627ZM166.026 76.729C163.728 76.729 162.048 75.0828 162.048 72.785C162.048 70.4871 163.728 68.8409 166.026 68.8409C168.335 68.8409 170.016 70.4871 170.016 72.785C170.016 75.0828 168.335 76.729 166.026 76.729ZM166.026 75.2886C167.432 75.2886 168.347 74.2025 168.347 72.785C168.347 71.356 167.432 70.2814 166.026 70.2814C164.62 70.2814 163.717 71.356 163.717 72.785C163.717 74.2025 164.62 75.2886 166.026 75.2886ZM181.295 76.5918H177.157V68.9667H181.169C182.621 68.9667 183.364 69.8927 183.364 70.9101C183.364 71.8704 182.77 72.5106 182.049 72.6592C182.861 72.785 183.513 73.5738 183.513 74.534C183.513 75.6772 182.747 76.5918 181.295 76.5918ZM180.815 72.019C181.363 72.019 181.706 71.6761 181.706 71.1959C181.706 70.7158 181.363 70.3614 180.815 70.3614H178.78V72.019H180.815ZM180.872 75.1857C181.489 75.1857 181.855 74.8541 181.855 74.3054C181.855 73.8253 181.512 73.4137 180.872 73.4137H178.78V75.1857H180.872ZM190.739 68.9667H192.362V71.6761H194.305C195.952 71.6761 196.866 72.8078 196.866 74.1339C196.866 75.4715 195.963 76.5918 194.305 76.5918H190.739V68.9667ZM194.088 73.1051H192.362V75.1628H194.088C194.728 75.1628 195.209 74.7741 195.209 74.1339C195.209 73.5052 194.728 73.1051 194.088 73.1051ZM199.141 76.5918H197.506V68.9667H199.141V76.5918ZM212.05 76.5918H206.654V68.9667H212.05V70.3957H208.277V72.0076H211.97V73.4366H208.277V75.1628H212.05V76.5918ZM229.871 76.5918H228.248V68.9667H231.814C233.472 68.9667 234.375 70.087 234.375 71.4246C234.375 72.7507 233.461 73.8824 231.814 73.8824H229.871V76.5918ZM231.597 72.4534C232.237 72.4534 232.717 72.0533 232.717 71.4246C232.717 70.7844 232.237 70.3957 231.597 70.3957H229.871V72.4534H231.597ZM246.779 76.5918H241.383V68.9667H246.779V70.3957H243.006V72.0076H246.699V73.4366H243.006V75.1628H246.779V76.5918ZM262.144 68.9667H263.778V76.5918H254.05V68.9667H255.673V75.1628H258.097V68.9667H259.732V75.1628H262.144V68.9667ZM276.69 76.5918H271.294V68.9667H276.69V70.3957H272.917V72.0076H276.61V73.4366H272.917V75.1628H276.69V76.5918ZM290.82 76.5918H289.185V73.3908H285.584V76.5918H283.96V68.9667H285.584V71.9619H289.185V68.9667H290.82V76.5918ZM299.89 76.5918H298.324V68.9667H299.947V73.8939L303.48 68.9667H305.149V76.5918H303.526V71.4817L299.89 76.5918ZM314.186 76.5918H312.323L314.037 73.6881C313.214 73.4937 312.368 72.7735 312.368 71.4246C312.368 70.007 313.34 68.9667 314.929 68.9667H318.496V76.5918H316.873V73.8824H315.695L314.186 76.5918ZM315.169 72.4534H316.873V70.3957H315.169C314.518 70.3957 314.026 70.7844 314.026 71.4246C314.026 72.0647 314.518 72.4534 315.169 72.4534Z" fill="#5A5E61"/>
<path d="M111.474 13.2695H109.839V7.07341H106.238V13.2695H104.615V5.64442H111.474V13.2695ZM115.778 13.2695H114.154V5.64442H117.721C119.379 5.64442 120.282 6.76475 120.282 8.10229C120.282 9.42839 119.367 10.5602 117.721 10.5602H115.778V13.2695ZM117.504 9.13116C118.144 9.13116 118.624 8.73105 118.624 8.10229C118.624 7.4621 118.144 7.07341 117.504 7.07341H115.778V9.13116H117.504ZM126.078 13.4067C123.78 13.4067 122.1 11.7605 122.1 9.46269C122.1 7.16487 123.78 5.51867 126.078 5.51867C128.387 5.51867 130.068 7.16487 130.068 9.46269C130.068 11.7605 128.387 13.4067 126.078 13.4067ZM126.078 11.9663C127.484 11.9663 128.399 10.8803 128.399 9.46269C128.399 8.0337 127.484 6.95909 126.078 6.95909C124.672 6.95909 123.769 8.0337 123.769 9.46269C123.769 10.8803 124.672 11.9663 126.078 11.9663ZM140.65 13.2695H139.015V7.93081L136.866 13.2695H136.157L134.008 7.93081V13.2695H132.384V5.64442H134.659L136.511 10.2515L138.363 5.64442H140.65V13.2695ZM143.342 5.64442H144.965V8.35379H146.908C148.555 8.35379 149.469 9.48555 149.469 10.8117C149.469 12.1492 148.566 13.2695 146.908 13.2695H143.342V5.64442ZM146.691 9.78279H144.965V11.8405H146.691C147.331 11.8405 147.811 11.4519 147.811 10.8117C147.811 10.1829 147.331 9.78279 146.691 9.78279ZM151.744 13.2695H150.109V5.64442H151.744V13.2695ZM162.527 5.64442H164.161V13.2695H154.433V5.64442H156.056V11.8405H158.48V5.64442H160.114V11.8405H162.527V5.64442ZM166.395 13.4067V11.9663C167.161 11.9663 167.607 11.5547 167.847 9.54271L168.293 5.64442H173.712V13.2695H172.077V7.07341H169.756L169.459 9.65703C169.093 12.8237 167.95 13.4067 166.395 13.4067ZM181.788 13.2695H176.392V5.64442H181.788V7.07341H178.015V8.68532H181.708V10.1143H178.015V11.8405H181.788V13.2695ZM191.093 13.2695H189.459V10.0686H185.857V13.2695H184.234V5.64442H185.857V8.63959H189.459V5.64442H191.093V13.2695ZM200.633 13.2695H198.998V10.0686H195.397V13.2695H193.773V5.64442H195.397V8.63959H198.998V5.64442H200.633V13.2695ZM203.313 5.64442H204.936V8.35379H206.88C208.526 8.35379 209.44 9.48555 209.44 10.8117C209.44 12.1492 208.537 13.2695 206.88 13.2695H203.313V5.64442ZM206.662 9.78279H204.936V11.8405H206.662C207.303 11.8405 207.783 11.4519 207.783 10.8117C207.783 10.1829 207.303 9.78279 206.662 9.78279ZM211.715 13.2695H210.081V5.64442H211.715V13.2695ZM215.97 13.2695H214.404V5.64442H216.027V10.5716L219.56 5.64442H221.229V13.2695H219.606V8.15945L215.97 13.2695ZM219.823 4.28401C219.365 4.90134 218.645 5.29003 217.822 5.29003C217.01 5.29003 216.279 4.90134 215.81 4.28401L216.45 3.74671C216.759 4.18113 217.228 4.45549 217.822 4.45549C218.394 4.45549 218.862 4.19256 219.183 3.74671L219.823 4.28401ZM236.278 13.2695H234.643V7.93081L232.494 13.2695H231.785L229.636 7.93081V13.2695H228.012V5.64442H230.287L232.139 10.2515L233.991 5.64442H236.278V13.2695ZM242.582 13.4067C240.284 13.4067 238.604 11.7605 238.604 9.46269C238.604 7.16487 240.284 5.51867 242.582 5.51867C244.891 5.51867 246.572 7.16487 246.572 9.46269C246.572 11.7605 244.891 13.4067 242.582 13.4067ZM242.582 11.9663C243.988 11.9663 244.903 10.8803 244.903 9.46269C244.903 8.0337 243.988 6.95909 242.582 6.95909C241.176 6.95909 240.273 8.0337 240.273 9.46269C240.273 10.8803 241.176 11.9663 242.582 11.9663ZM255.748 13.2695H254.113V10.0686H250.512V13.2695H248.888V5.64442H250.512V8.63959H254.113V5.64442H255.748V13.2695ZM259.994 13.2695H258.428V5.64442H260.051V10.5716L263.584 5.64442H265.253V13.2695H263.629V8.15945L259.994 13.2695ZM271.329 13.2695H269.694V7.07341H267.465V5.64442H273.547V7.07341H271.329V13.2695ZM279.098 13.4067C276.8 13.4067 275.12 11.7605 275.12 9.46269C275.12 7.16487 276.8 5.51867 279.098 5.51867C281.407 5.51867 283.088 7.16487 283.088 9.46269C283.088 11.7605 281.407 13.4067 279.098 13.4067ZM279.098 11.9663C280.504 11.9663 281.419 10.8803 281.419 9.46269C281.419 8.0337 280.504 6.95909 279.098 6.95909C277.692 6.95909 276.789 8.0337 276.789 9.46269C276.789 10.8803 277.692 11.9663 279.098 11.9663ZM287.028 13.2695H285.405V5.64442H288.971C290.629 5.64442 291.532 6.76475 291.532 8.10229C291.532 9.42839 290.618 10.5602 288.971 10.5602H287.028V13.2695ZM288.754 9.13116C289.394 9.13116 289.875 8.73105 289.875 8.10229C289.875 7.4621 289.394 7.07341 288.754 7.07341H287.028V9.13116H288.754ZM295.282 13.2695H293.716V5.64442H295.339V10.5716L298.872 5.64442H300.541V13.2695H298.917V8.15945L295.282 13.2695ZM310.081 13.2695H308.446V10.0686H304.845V13.2695H303.222V5.64442H304.845V8.63959H308.446V5.64442H310.081V13.2695ZM314.384 13.2695H312.761V5.64442H318.157V7.07341H314.384V13.2695Z" fill="#5A5E61"/>
<path d="M58.4993 76.5712V70.7161C58.4993 70.7161 50.9225 76.2671 39.5029 76.2671C32.739 76.2671 26.226 73.9075 21.2787 70.7925C18.0499 68.7596 13.7722 64.4387 12.3228 62.3122C8.78759 57.1254 5.69366 50.1479 5.69366 42.1932C5.69366 35.9534 7.52508 28.6474 12.0203 22.3462C14.6423 18.6707 17.8015 15.7668 21.0087 13.6596C27.2255 9.57506 33.8562 8.005 39.6062 8.005C51.3255 8.005 58.4993 13.5817 58.4993 13.5817V7.76311C58.4993 7.76311 51.2079 3.00977 39.1148 3.00977C33.1609 3.00977 26.1939 4.8986 20.6615 8.005C14.5217 11.4525 9.72644 16.1671 6.04085 22.3462C3.16372 27.1699 0.639314 34.1346 0.639648 42.1932C0.773096 49.341 2.46103 56.0459 6.23374 62.3029C10.3403 69.1135 16.4293 74.0919 20.893 76.4261C25.3566 78.7603 30.9708 81.3096 39.6062 81.3096C49.7054 81.3096 55.554 77.8747 58.4993 76.5712Z" fill="#5A5E61"/>
<path d="M58.4795 19.8585V26.4533C58.4795 26.4533 52.0666 17.757 39.5267 17.757C35.0323 17.757 30.4151 19.0358 25.7471 22.2374C18.6572 27.0999 15.4301 35.2011 15.4301 42.1854C15.4301 48.9647 18.7789 57.4136 25.9396 62.2168C30.5744 65.3258 35.5895 66.5783 39.5267 66.5783C52.6533 66.385 58.4795 57.8546 58.4795 57.8546V64.4687C58.4795 64.4687 51.3835 71.2255 39.5267 71.2255C32.4212 71.2255 24.8943 68.4421 18.8572 62.2942C12.8978 56.3348 10.75 48.1642 10.75 42.1966C10.75 35.95 12.7747 28.3074 18.6572 22.2326C24.7377 15.7254 32.6884 13.0273 39.5267 13.0273C51.4259 13.0273 58.4795 19.8585 58.4795 19.8585Z" fill="#0F3076"/>
<path d="M58.4795 19.8585V26.4533C58.4795 26.4533 52.0666 17.757 39.5267 17.757C35.0323 17.757 30.4151 19.0358 25.7471 22.2374C18.6572 27.0999 15.4301 35.2011 15.4301 42.1854C15.4301 48.9647 18.7789 57.4136 25.9396 62.2168C30.5744 65.3258 35.5895 66.5783 39.5267 66.5783C52.6533 66.385 58.4795 57.8546 58.4795 57.8546V64.4687C58.4795 64.4687 51.3835 71.2255 39.5267 71.2255C32.4212 71.2255 24.8943 68.4421 18.8572 62.2942C12.8978 56.3348 10.75 48.1642 10.75 42.1966C10.75 35.95 12.7747 28.3074 18.6572 22.2326C24.7377 15.7254 32.6884 13.0273 39.5267 13.0273C51.4259 13.0273 58.4795 19.8585 58.4795 19.8585Z" fill="url(#paint0_linear_1_2361)"/>
<path d="M58.4795 19.8585V26.4533C58.4795 26.4533 52.0666 17.757 39.5267 17.757C35.0323 17.757 30.4151 19.0358 25.7471 22.2374C18.6572 27.0999 15.4301 35.2011 15.4301 42.1854C15.4301 48.9647 18.7789 57.4136 25.9396 62.2168C30.5744 65.3258 35.5895 66.5783 39.5267 66.5783C52.6533 66.385 58.4795 57.8546 58.4795 57.8546V64.4687C58.4795 64.4687 51.3835 71.2255 39.5267 71.2255C32.4212 71.2255 24.8943 68.4421 18.8572 62.2942C12.8978 56.3348 10.75 48.1642 10.75 42.1966C10.75 35.95 12.7747 28.3074 18.6572 22.2326C24.7377 15.7254 32.6884 13.0273 39.5267 13.0273C51.4259 13.0273 58.4795 19.8585 58.4795 19.8585Z" fill="url(#paint1_linear_1_2361)"/>
<path d="M67.2419 11.5371C70.7168 17.2201 85.0925 37.4461 87.9709 42.1479L67.2419 72.7783L67.2417 63.8984L67.2419 49.5079H72.1343V56.6743L81.9724 42.1478L74.6071 31.3042L72.1343 27.6635V34.8301H67.2419V20.4606V11.5371Z" fill="#0F3076"/>
<path d="M67.2419 11.5371C70.7168 17.2201 85.0925 37.4461 87.9709 42.1479L67.2419 72.7783L67.2417 63.8984L67.2419 49.5079H72.1343V56.6743L81.9724 42.1478L74.6071 31.3042L72.1343 27.6635V34.8301H67.2419V20.4606V11.5371Z" fill="url(#paint2_linear_1_2361)"/>
<path d="M67.2419 11.5371C70.7168 17.2201 85.0925 37.4461 87.9709 42.1479L67.2419 72.7783L67.2417 63.8984L67.2419 49.5079H72.1343V56.6743L81.9724 42.1478L74.6071 31.3042L72.1343 27.6635V34.8301H67.2419V20.4606V11.5371Z" fill="url(#paint3_linear_1_2361)"/>
</g>
<defs>
<linearGradient id="paint0_linear_1_2361" x1="34.6147" y1="13.0273" x2="34.6147" y2="71.2255" gradientUnits="userSpaceOnUse">
<stop stop-color="#9247C6"/>
<stop offset="0.505208" stop-color="white"/>
<stop offset="1" stop-color="#9247C6"/>
</linearGradient>
<linearGradient id="paint1_linear_1_2361" x1="34.6147" y1="13.0273" x2="34.6147" y2="71.2255" gradientUnits="userSpaceOnUse">
<stop stop-color="#FF0000"/>
<stop offset="0.510417" stop-color="white"/>
<stop offset="1" stop-color="#FF0000"/>
</linearGradient>
<linearGradient id="paint2_linear_1_2361" x1="77.6063" y1="11.5371" x2="77.6063" y2="72.7783" gradientUnits="userSpaceOnUse">
<stop stop-color="#9247C6"/>
<stop offset="0.505208" stop-color="white"/>
<stop offset="1" stop-color="#9247C6"/>
</linearGradient>
<linearGradient id="paint3_linear_1_2361" x1="77.6063" y1="11.5371" x2="77.6063" y2="72.7783" gradientUnits="userSpaceOnUse">
<stop stop-color="#FF0000"/>
<stop offset="0.510417" stop-color="white"/>
<stop offset="1" stop-color="#FF0000"/>
</linearGradient>
<clipPath id="clip0_1_2361">
<rect width="322" height="88.0608" fill="white" transform="translate(0.664062 0.65625)"/>
</clipPath>
</defs>
</svg>
